<?xml version="1.0"?>
<svg xmlns:rdf="http://www.w3.org/1999/02/22-rdf-syntax-ns#" xmlns="http://www.w3.org/2000/svg" xmlns:cc="http://creativecommons.org/ns#" xmlns:xlink="http://www.w3.org/1999/xlink" xmlns:dc="http://purl.org/dc/elements/1.1/" xmlns:svg="http://www.w3.org/2000/svg" id="svg2" viewBox="0 0 843.59 767.7" version="1.1">
  <title id="title7414">Buildings</title>
  <defs id="defs4">
    <linearGradient id="linearGradient3192">
      <stop id="stop3194" stop-color="#633d01" offset="0"/>
      <stop id="stop3196" stop-color="#8f5902" offset="1"/>
    </linearGradient>
    <linearGradient id="linearGradient3184">
      <stop id="stop3186" stop-color="#316004" offset="0"/>
      <stop id="stop3188" stop-color="#4e9a06" offset="1"/>
    </linearGradient>
    <linearGradient id="linearGradient2961" y2="495.25" gradientUnits="userSpaceOnUse" y1="855.38" x2="564.68" x1="131.83">
      <stop id="stop2957" stop-color="#8ae234" offset="0"/>
      <stop id="stop2959" stop-color="#4e9a06" offset="1"/>
    </linearGradient>
    <linearGradient id="linearGradient2969" y2="511.12" gradientUnits="userSpaceOnUse" y1="829.12" x2="483.86" x1="131.32">
      <stop id="stop2965" stop-color="#eed2a2" offset="0"/>
      <stop id="stop2967" stop-color="#e9b96e" offset="1"/>
    </linearGradient>
    <linearGradient id="linearGradient3190" y2="380.58" xlink:href="#linearGradient3184" gradientUnits="userSpaceOnUse" y1="579.05" gradientTransform="translate(-9.0914 2.0203)" x2="770.85" x1="656.6"/>
    <linearGradient id="linearGradient3198" y2="535.9" xlink:href="#linearGradient3192" gradientUnits="userSpaceOnUse" x2="669.23" y1="690.17" x1="640.71"/>
    <linearGradient id="linearGradient3295" y2="438.19" gradientUnits="userSpaceOnUse" y1="360.8" gradientTransform="matrix(1.2337 0 0 1.7712 -115.12 -426.49)" x2="522.16" x1="361.05">
      <stop id="stop3291" stop-color="#adc6e3" offset="0"/>
      <stop id="stop3293" stop-color="#739fd0" offset="1"/>
    </linearGradient>
    <linearGradient id="linearGradient6424" y2="741.79" xlink:href="#linearGradient3184" gradientUnits="userSpaceOnUse" x2="441.48" y1="782.85" x1="435.7"/>
    <linearGradient id="linearGradient6443" y2="741.11" gradientUnits="userSpaceOnUse" y1="787.99" gradientTransform="translate(22.459 -19.251)" x2="446.93" x1="446.93">
      <stop id="stop3186-78" stop-color="#316004" offset="0"/>
      <stop id="stop3188-81" stop-color="#4e9a06" offset="1"/>
    </linearGradient>
    <linearGradient id="linearGradient6443-3" y2="768.27" gradientUnits="userSpaceOnUse" y1="784" gradientTransform="matrix(-.13187 -.57971 1.3259 -.091998 -451.87 1087.3)" x2="465.79" x1="391.88">
      <stop id="stop3186-1" stop-color="#316004" offset="0"/>
      <stop id="stop3188-72" stop-color="#4e9a06" offset="1"/>
    </linearGradient>
    <linearGradient id="linearGradient6500" y2="768.27" gradientUnits="userSpaceOnUse" y1="784" gradientTransform="matrix(-.18165 -.60715 1.8263 -.096352 -1178 1029.1)" x2="465.79" x1="391.88">
      <stop id="stop3186-1-8" stop-color="#316004" offset="0"/>
      <stop id="stop3188-72-5" stop-color="#4e9a06" offset="1"/>
    </linearGradient>
    <linearGradient id="linearGradient6538" y2="741.11" gradientUnits="userSpaceOnUse" y1="787.99" gradientTransform="matrix(.54331 0 0 .52087 258.33 139.82)" x2="446.93" x1="446.93">
      <stop id="stop3186-78-3" stop-color="#316004" offset="0"/>
      <stop id="stop3188-81-1" stop-color="#4e9a06" offset="1"/>
    </linearGradient>
    <linearGradient id="linearGradient6538-4" y2="741.11" gradientUnits="userSpaceOnUse" y1="787.99" gradientTransform="matrix(-.66929 0 0 .58932 829.8 93.584)" x2="446.93" x1="446.93">
      <stop id="stop3186-78-9" stop-color="#316004" offset="0"/>
      <stop id="stop3188-81-2" stop-color="#4e9a06" offset="1"/>
    </linearGradient>
    <linearGradient id="linearGradient6595" y2="741.79" gradientUnits="userSpaceOnUse" y1="782.85" gradientTransform="matrix(.88194 0 0 .91667 51.798 -76.147)" x2="441.48" x1="435.7">
      <stop id="stop3186-73" stop-color="#316004" offset="0"/>
      <stop id="stop3188-3" stop-color="#4e9a06" offset="1"/>
    </linearGradient>
    <linearGradient id="linearGradient6633" y2="768.27" gradientUnits="userSpaceOnUse" y1="784" gradientTransform="matrix(-.10283 -.49740 1.0339 -.078935 -349.54 925.6)" x2="465.79" x1="391.88">
      <stop id="stop3186-1-0" stop-color="#316004" offset="0"/>
      <stop id="stop3188-72-1" stop-color="#4e9a06" offset="1"/>
    </linearGradient>
    <linearGradient id="linearGradient7191" y2="509.58" xlink:href="#linearGradient3184" gradientUnits="userSpaceOnUse" x2="351.03" gradientTransform="matrix(1.129 0 0 .94131 -50.319 26.641)" y1="565.81" x1="330.26"/>
    <linearGradient id="linearGradient7194" y2="517.76" xlink:href="#linearGradient3192" gradientUnits="userSpaceOnUse" x2="326.71" gradientTransform="matrix(.58395 0 0 .64985 150.52 196.55)" y1="628.72" x1="326.71"/>
  </defs>
  <g id="layer1" transform="translate(19.3 -87.675)">
    <path id="rect3200-3-4-0" d="m141.3 335.11-112.87 43.686 1.2786 5.0934 110.78-39.615 0.81115-9.1642z" fill="#ced4d6"/>
    <path id="path3286" d="m824.29 326.65c0 164.9-194.64 314.34-433.57 298.57-86.6-5.71-380.01 59.9-409.29-287.14-13.867-164.32 171.85-250.4 411.3-250.4 239.37 0 431.42 73.98 431.55 238.81" fill="url(#linearGradient3295)"/>
    <path id="rect3200-5-7" d="m312.35 455.02 72.744-35.209-9.6408 91.098-57.844-22.329-5.2586-33.56z" fill="#e7ecee"/>
    <path id="rect3200-3" d="m22.293 290.38 106.07-75.54 51.3 386.42-78.25-19.97-79.117-290.91z" fill="#e7ecee"/>
    <path id="rect3200-2-8" d="m630.57 345.23-41.32-30.25-19.99 154.73 30.49-8 30.82-116.48z" fill="#ced4d6"/>
    <path id="path2858" d="m332.34 495.25c-168.2 0-304.56 56.987-304.56 127.28 0 22.662 14.19 43.943 39.031 62.375-16.582 15.337-25.906 32.578-25.906 50.781 0 64.158 115.55 116.16 258.09 116.16 33.303 0 65.148-2.8615 94.375-8.0312 33.126 7.3944 70.351 11.562 109.69 11.562 138.36 0 250.5-51.336 250.5-114.66v-0.0625c-0.006-5.5629-0.88319-11.024-2.5625-16.375 31.017-23.359 49.531-52.913 49.531-85.062v-0.0937c-0.0668-75.566-102.47-136.78-228.78-136.78-30.598 0-59.791 3.6056-86.469 10.125-44.95-10.93-97.18-17.22-152.94-17.22z" fill="url(#linearGradient2961)"/>
    <path id="rect3200-5-6-8" d="m425.4 438.99-40.327-19.182-9.6367 91.104 39.446-13.057 10.517-58.865z" fill="#ced4d6"/>
    <path id="rect3200-8-6" d="m234 269.11-105.69-54.27 51.02 386.55 76.41-19.67-21.74-312.61z" fill="#ced4d6"/>
    <path id="path2924" d="m491.65 511.12c-12.375 1.1852-25.582 6.5878-35.376 15.081-9.9816 8.6554-16.419 20.521-14.822 34.403 1.7571 8.1781 8.2541 15.134 16.978 20.972 7.2 4.8178 15.917 8.8739 24.739 12.227 9.2136 3.5016 18.541 6.2358 26.374 8.2691 13.551 3.5517 25.43 6.9768 35.762 10.281 14.53 4.6464 25.999 9.0532 34.752 13.236 20.134 9.6211 25.896 18.056 21.478 25.491-3.8686 6.5098-15.541 12.254-32.205 17.356-10.348 3.169-22.622 6.091-36.146 8.7958-11.456 2.2912-23.81 4.4266-36.653 6.4244-11.967 1.8617-24.359 3.604-36.843 5.2417-12.327 1.617-24.745 3.132-36.934 4.5592-12.695 1.4864-25.141 2.8775-36.979 4.1894-13.26 1.4694-25.757 2.8395-36.984 4.1328-14.95 1.7221-27.648 3.308-36.9 4.8109-11.754 2.1039-23.604 4.9962-35.4 8.5586-11.533 3.4831-23.014 7.6069-34.301 12.261-11.247 4.6375-22.302 9.8014-33.023 15.382-10.91 5.6789-21.475 11.79-31.548 18.217-10.509 6.7056-20.482 13.756-29.75 21.019-9.9963 7.8339-19.173 15.916-27.321 24.082-11.434 11.615-11.167 23.005-5.1876 31.846 6.1416 9.0805 18.31 15.471 30.019 16.654 10.928 0.37969 21.118-3.8402 30.258-9.8003 9.4338-6.1515 17.749-14.157 24.602-20.872 7.5832-8.8977 15.185-17.236 22.974-25.022 8.1591-8.1556 16.524-15.706 25.292-22.661 8.8474-7.0185 18.104-13.43 27.97-19.246 9.5023-5.6007 19.57-10.648 30.383-15.15 10.01-4.1683 20.659-7.8699 32.089-11.112 7.8904-2.964 21.448-6.025 38.522-9.2808 11.614-2.2147 24.856-4.5196 39.047-6.9454 12.453-2.1286 25.637-4.3502 39.095-6.6858 12.893-2.2375 26.037-4.5794 39.03-7.0442 13.251-2.5137 26.346-5.1551 38.857-7.9436 13.701-3.0538 26.703-6.284 38.445-9.7161 14.705-4.2982 27.435-8.9132 37.088-13.895 16.92-8.7321 24.389-18.591 16.478-29.846-4.7831-6.8051-15.189-14.121-32.527-22.006-9.9668-4.533-22.225-9.2542-37.022-14.175-11.44-3.4-22.436-6.0631-32.781-8.773-11.673-3.0577-22.518-6.175-32.239-10.478-10.552-4.6701-19.78-10.737-27.306-19.64-7.2326-10.689-5.1007-22.434 1.3547-32.311 6.3198-9.669 16.783-17.547 26.661-20.889" fill="url(#linearGradient2969)"/>
    <path id="path2999" d="m697.75 538.47c-11.244 17.599-25.207 34.129-30.745 54.691-5.1335 16.988-7.9259 34.62-9.5476 52.259-0.30396 13.437 0.82187 26.96 4.0321 40.032-6.0305 4.0318-13.653 5.5745-20.782 4.2614 1.9318-35.289 6.1883-70.705 16.221-104.68 5.838-16.927 14.85-32.808 26.16-46.63 4.1026-3.3658 10.59-3.3322 14.662 0.0678z" fill="url(#linearGradient3198)"/>
    <path id="path3174" d="m755.5 385.05c-25.621 5.1493-16.944 25.015-73.175 25.269-11.771-0.003-18.292 4.2842-15.883 8.3378 2.7048 6.9513 17.279 8.7988 25.821 9.7587 12.002 1.752 77.512 5.9343 73.034 16.071-22.843 2.4288-40.119-7.9956-64.683-11.5-9.9465-0.90219-20.377-2.6082-29.975-1.7822-10.889 0.92635-30.368 5.7885-29.684 11.774 1.2495 7.6166 9.3509 7.4564 17.476 8.0748 16.34 1.6308 32.543 4.2539 48.773 6.685 12.432 2.9443 49.945 3.5865 55.091 15.353-33.574-7.1684-79.288-21.296-112.74-10.493-5.8281 2.6494-21.048 7.0571-14.431 13.64 7.315 3.5098 20.244 4.2474 24.791 5.5342 0.0957 4.3324-29.432 1.8323-27.129 7.7045 3.0941 6.7936 8.8014 8.9414 15.495 9.9488 19.523 2.5611-28.235 5.3044-25.138 15.303 3.453 8.874 16.853 8.5144 25.169 9.4154 12.037 1.2352 24.405-0.85974 36.094 3.0938-10.122-4.473-43.237 4.4462-42.438 10.656 1.9118 2.2683 17.281 1.189 15.804 7.266-8.0748 4.4539-20.658 3.9136-26.506 7.5562-9.4356 5.8286 37.912 11.946 33.21 13.547-10.575-1.02-33.418 18.63-13.141 14.143 9.2319-2.556 18.464-5.1119 27.696-7.6679 6.5193-2.8667 15.83-2.229 23.309-4.4667 10.587-1.0103 10.098-16.637-1.2157-15.096 7.0236-0.77621 26.438-1.8844 13.021-9.8024-4.4446-2.5371-12.95-5.0985-2.7628-4.6207 15.179 0.51679 21.636 0.14669 26.273-9.827-6.4313-4.5263-8.0922-8.9071-0.12645-7.2818 16.726 2.8553 26.312-3.2917 33.939-9.687-11.881-16.365 7.8028-18.612-0.5625-26.875-3.3016-5.2928 7.9516-5.3435 14.157-6.7147 7.3872-1.557 19.073-6.4835 10.248-14.721-5.5274-6.0628-13.834-9.4758-21.374-12.595 8.437-3.0527 24.127-3.2931 25.408-10.36 2.4309-14.002-26.265-14.87-25.654-21.111 5.3816-4.6554 22.804-4.9733 19.518-11.62-4.7982-8.6339-14.762-7.7294-23.177-8.5658-6.7739 0.53354-5.6745-1.4664-0.0371-2.8752 5.7936-2.1978 11.587-4.3957 17.381-6.5935 13.48-6.5938-16.984-9.9385-31.875-4.8749h0.00005zm-89.406 96.219c12.15 0.5482 24.349 0.4539 36.469 1.0938 9.7303 2.4212 26.079 4.0802 31.26 8.3836-22.473-3.8852-45.333-5.1151-67.729-9.4774z" fill="url(#linearGradient3190)"/>
    <path id="rect3200-8-4-5" d="m548.09 336.72 41.158-21.732-19.961 154.72-29.665-7.8189 8.4676-125.17z" fill="#e7ecee"/>
    <path id="rect3200" d="m8.0812 325.05 123.24-87.88 59.6 449.52-90.91-23.24-91.929-338.4z" fill="#f1f4f5"/>
    <path id="rect3200-8" d="m254.05 300.3-122.79-63.13 59.28 449.66 88.77-22.87-25.26-363.66z" fill="#d6dfe2"/>
    <path id="rect3200-2" d="m637.04 362.44-51.837-37.946-25.069 194.09 38.24-10.032 38.665-146.11z" fill="#d6dfe2"/>
    <path id="rect3200-8-4" d="m533.58 351.75 51.63-27.26-25.04 194.09-37.21-9.81 10.62-157.02z" fill="#f1f4f5"/>
    <path id="rect3200-5" d="m306.58 468.74 83.843-42.165-11.112 109.1-66.67-26.741-6.0609-40.19z" fill="#f1f4f5"/>
    <path id="rect3200-5-0" d="m385.69 433.44-13.219 6.625-8.5938 85.094 12 4.8125 9.8125-96.531zm-14.5 7.2812-12.562 6.3125-6.375 73.469 10.625 4.25 8.3125-84.031zm-13.812 6.9375-12.719 6.4062-2.9375 62.219 9.5 3.8125 6.1562-72.438zm-13.969 7.0312-11.406 5.75-1.3438 51.406 10.031 4.0312 2.7188-61.188zm-12.594 6.3438-10.312 5.1875 2.3125 42.469 6.8125 2.7188 1.1875-50.375zm-11.406 5.7188-8.4375 4.25 5.3125 35.062 5.4375 2.1875-2.3125-41.5z" fill="#e7ecee"/>
    <path id="rect3200-5-6" d="m436.89 449.55-46.48-22.972-11.107 109.1 45.465-15.637 12.122-70.495z" fill="#d6dfe2"/>
    <path id="path3537" d="m342.31 533.06c4.1519 16.897 4.7459 28.136 3.2704 50.361-1.5483 15.322 2.0314 19.005-1.5473 21.153-11.983 2.6783-7.1955-4.3867-4.3792-24.322 2.1583-16.345-1.3081-27.707-2.7835-42.184 0.65706-3.1704 3.084-5.4099 5.4396-5.0088z" fill="url(#linearGradient7194)"/>
    <path id="path3468" d="m334.07 482.64c-4.3373-1.9984-19.42 10.818-16.033 10.697 5.2835-0.39388 10.682-0.70034 15.602-2.9683-5.358 2.002-11.678 13.061-17.458 11.976-3.6472-4.3079-20.574 6.1823-15.566 8.0089 12.514-0.73597 13.097 2.1006 18.225 1.4984 11.069 0.0202 19.496 0.18553 30.59 0.70815-15.076 1.9437-30.233 3.6042-45.54 3.2325-7.4598-0.00046-18.209 7.4945-7.3756 6.3582 13.341-0.89854 26.778-0.56448 40.177-0.66583-2.7077 0.9014-7.4064 1.2238-10.849 1.6215-4.4382-0.06-7.95 3.1721-11.738 5.2864-3.8003 3.7037 3.6817 2.3084 5.5082 2.3876 3.546-0.11898 7.0966-0.23375 10.661-0.0283-3.9816 0.69231-17.556 3.4454-19.634 7.8878 8.7764 0.49997 17.431-1.0468 26.219-0.33808-4.5423 1.3312-15.321 3.5083-12.902 6.525 3.1766 4.0591 9.1475-0.1465 11.687 2.7557-4.2754 4.0419 2.7394 6.7421 5.2306 4.1673 2.1816-1.0511 6.0899-3.516 7.2363-2.8821-4.0759 2.8686-9.6656 3.3205-12.342 8.5728 1.1864 4.2115 4.569-0.18286 6.6037-0.75048 1.5656-0.86475 3.1312-1.7295 4.6969-2.5942-1.5198-3.1316 5.7567-4.6378 0.77646-6.9569-0.39246-1.9565 5.3646-4.3106 0.65185-5.5042-6.1111-1.2851 4.5221-5.3115 6.1117-9.5051 2.8141-1.2976 8.1578-4.4812 8.3051-6.7791-5.9867 0.33462-12.077-0.48255-18.036-0.0504 4.9725-0.7708 10.083-1.1373 14.671-3.6106 1.8178-1.291 9.0908-4.0727 5.9378-5.2661-3.2123-0.95272-8.7674 0.54528-10.435-0.0115 4.7213-0.36175 9.5932-1.1812 13.541-4.3333 1.377-1.041 5.1906-5.5744 2.5653-4.7602-1.8042 0.45809-6.4152 0.60594-2.7346-1.6766 1.9058-1.1501 9.3565-4.469 6.7395-5.2667-4.6888-0.57565-8.4801 0.48982-13.917 0.69701-6.1086 0.38749-12.226 0.69-18.35 0.90358 2.8937-2.692 8.7444-2.2726 9.5462-6.6284 0.43239-3.2373-12.588-0.24475-17.998-0.43441 1.8062-2.2458 5.4664-3.788 7.4702-6.576 1.9909-2.9734-6.1668-1.3949-8.7106-1.5802-5.9483 0.14586-0.8513-2.7069 0.86407-4.1167z" fill="url(#linearGradient7191)"/>
    <path id="path6413-6" d="m510.14 749.49c0 14.176-21.125 19.251-48.768 19.251s-32.726-6.9999-32.726-21.176 15.647-29.068 42.993-25.026c17.365 2.5667 30.786 12.767 38.501 26.937" fill="url(#linearGradient6443)"/>
    <path id="path6413" d="m487.68 768.74c0 14.176-21.125 19.251-48.768 19.251s-45.497-7.1228-43.635-21.176c1.2834-9.6839 10.858-23.101 38.501-23.101 27.632 0 53.887 10.842 53.902 25.012" fill="url(#linearGradient6424)"/>
    <path id="path6413-7" d="m503.05 733.86c18.795-1.3041 28.309 10.476 31.955 26.5 3.6453 16.025-3.5267 25.939-22.322 27.244-18.795 1.3041-33.682 0.0995-37.327-15.925-3.6439-16.019 8.89-36.505 27.676-37.817" fill="url(#linearGradient6443-3)"/>
    <path id="rect3200-1" d="m125.19 251.28-26.938 19.25 62.031 400.09 21.25 5.4375-56.344-424.78zm-32.281 23.031-23 16.438 70.531 374.78 16.656 4.2812-64.188-395.5zm-28.312 20.219-21.375 15.281 79.844 351.28 14.219 3.6562-72.688-370.22zm-26.659 19.06-20.594 14.72 89.156 328.53l13.406 3.4375-81.969-346.69z" fill="#e7ecee"/>
    <path id="path6413-7-8" d="m137.4 658.95c25.89-1.3659 38.996 10.971 44.017 27.755 5.0213 16.783-4.858 27.167-30.748 28.533-25.89 1.3659-46.396 0.10421-51.417-16.679-5.0194-16.777 12.246-38.233 38.123-39.607" fill="url(#linearGradient6500)"/>
    <path id="path6413-6-0" d="m523.29 540.23c0 7.3837-11.478 10.027-26.496 10.027s-17.78-3.646-17.78-11.03c0-7.3837 8.5013-15.14 23.358-13.035 9.4347 1.3369 16.726 6.6498 20.918 14.031" fill="url(#linearGradient6538)"/>
    <path id="path6413-6-9" d="m503.4 546.62c0 8.354 14.139 11.345 32.64 11.345s21.903-4.1252 21.903-12.479c0-8.354-10.473-17.13-28.775-14.748-11.622 1.5126-20.605 7.5237-25.768 15.875" fill="url(#linearGradient6538-4)"/>
    <path id="path6413-4" d="m481.91 628.53c0 12.994-16.065 19.571-40.444 19.571s-42.333-1.9248-42.333-14.919 11.693-21.657 29.014-29.357c22.269-9.8999 53.75 11.703 53.763 24.692" fill="url(#linearGradient6595)"/>
    <path id="path6413-7-2" d="m395.11 622.35c14.656-1.119 22.076 8.9882 24.918 22.738 2.8426 13.749-2.7502 22.256-17.407 23.375-14.656 1.119-26.265 0.0854-29.108-13.664-2.8415-13.744 6.9324-31.322 21.582-32.448" fill="url(#linearGradient6633)"/>
    <path id="rect3200-8-0" d="m141.12 251.16 56.16 425.68 16.22-4.18-48.03-408.97-24.35-12.53zm29.719 15.281 45.844 405.41 17.281-4.4688-39.562-388.81-23.562-12.125zm28.969 14.906 37.344 385.19l16.35-4.23-32.78-370.22-20.91-10.75zm26.31 13.53 30.57 366.62 14.12-3.66-24.37-352.53-20.32-10.43z" fill="#ced4d6"/>
    <path id="rect3200-5-6-0" d="m393.84 432.69-9.9062 97.125 6.0938-2.0938 10.094-91.938-6.2812-3.0938zm7.4375 3.6875-10.156 90.969 6.5312-2.25 9.625-85.75-6-2.9688zm7.1562 3.5312-9.6875 84.812 6.1562-2.125 8.9375-80-5.4062-2.6875zm6.5625 3.25-9 79.062 5.0938-1.75l9.29-74.66-5.38-2.65zm6.5312 3.2188-9.3438 73.719 4.4688-1.5312 9.875-69.719-5-2.4688zm6.1562 3.0625-9.9375 68.75 3.5-1.2188 11.219-65.188-4.7812-2.3438z" fill="#ced4d6"/>
    <path id="rect3200-8-4-8" d="m580.28 331.62-11.312 6-19.844 173.94 7.6562 2.0312 23.5-181.97zm-12.625 6.6875-9.875 5.2188-16.75 165.91 7.0625 1.875 19.562-173zm-11.156 5.9062-9.5938 5.0625-13.312 158.19 6.4062 1.6875 16.5-164.94zm-10.906 5.7188-8.125 4.3125-10.25 151.53 5.3438 1.4062 13.031-157.25z" fill="#e7ecee"/>
    <path id="rect3200-2-1" d="m588.28 331.75-23.469 181.47 7.7188-2 26.906-171.31-11.156-8.1562zm12.188 8.9062-26.844 170.25 7.25-1.875 30.75-160.22-11.156-8.1562zm12.125 8.875-30.625 159.19 6.1875-1.5938 33.875-150.69-9.4375-6.9062zm10.375 7.5938-33.688 149.69 5.8438-1.5 37.344-141.25-9.5-6.9375z" fill="#ced4d6"/>
  </g>
  <metadata>
    <rdf:RDF>
      <cc:Work>
        <dc:format>image/svg+xml</dc:format>
        <dc:type rdf:resource="http://purl.org/dc/dcmitype/StillImage"/>
        <cc:license rdf:resource="http://creativecommons.org/licenses/publicdomain/"/>
        <dc:publisher>
          <cc:Agent rdf:about="http://openclipart.org/">
            <dc:title>Openclipart</dc:title>
          </cc:Agent>
        </dc:publisher>
        <dc:title>Buildings</dc:title>
        <dc:date>2010-02-14T16:29:02</dc:date>
        <dc:description>architecture, building, clip art, clipart, enterprise, house, image, landscape, media, png, public domain, svg, </dc:description>
        <dc:source>http://openclipart.org/detail/29289/buildings-by-jean_victor_balin</dc:source>
        <dc:creator>
          <cc:Agent>
            <dc:title>jean_victor_balin</dc:title>
          </cc:Agent>
        </dc:creator>
        <dc:subject>
          <rdf:Bag>
            <rdf:li>architecture</rdf:li>
            <rdf:li>building</rdf:li>
            <rdf:li>clip art</rdf:li>
            <rdf:li>clipart</rdf:li>
            <rdf:li>enterprise</rdf:li>
            <rdf:li>house</rdf:li>
            <rdf:li>image</rdf:li>
            <rdf:li>landscape</rdf:li>
            <rdf:li>media</rdf:li>
            <rdf:li>png</rdf:li>
            <rdf:li>public domain</rdf:li>
            <rdf:li>svg</rdf:li>
          </rdf:Bag>
        </dc:subject>
      </cc:Work>
      <cc:License rdf:about="http://creativecommons.org/licenses/publicdomain/">
        <cc:permits rdf:resource="http://creativecommons.org/ns#Reproduction"/>
        <cc:permits rdf:resource="http://creativecommons.org/ns#Distribution"/>
        <cc:permits rdf:resource="http://creativecommons.org/ns#DerivativeWorks"/>
      </cc:License>
    </rdf:RDF>
  </metadata>
</svg>
