<svg id="Out_line" height="512" viewBox="0 0 512 512" width="512" xmlns="http://www.w3.org/2000/svg" data-name="Out line"><path d="m80 112h24.78992l39.25308 376.8291a8.00034 8.00034 0 0 0 7.957 7.1709h208a8.00034 8.00034 0 0 0 7.957-7.1709l39.25308-376.8291h24.78992a7.99977 7.99977 0 0 0 8-8v-40a7.99977 7.99977 0 0 0 -8-8h-16v-32a7.99977 7.99977 0 0 0 -8-8h-304a7.99977 7.99977 0 0 0 -8 8v32h-16a7.99977 7.99977 0 0 0 -8 8v40a7.99977 7.99977 0 0 0 8 8zm272.79 368h-193.58l-38.3335-368h270.24704zm-240.79-448h288v24h-288zm-24 40h336v24h-336z"/><path d="m256 352a64 64 0 1 0 -64-64 64.0727 64.0727 0 0 0 64 64zm0-112a48 48 0 1 1 -48 48 48.05436 48.05436 0 0 1 48-48z"/></svg>