<?xml version="1.0" encoding="iso-8859-1"?>
<!-- Generator: Adobe Illustrator 19.0.0, SVG Export Plug-In . SVG Version: 6.00 Build 0)  -->
<svg version="1.1" id="Capa_1" xmlns="http://www.w3.org/2000/svg" xmlns:xlink="http://www.w3.org/1999/xlink" x="0px" y="0px"
	 viewBox="0 0 512 512" style="enable-background:new 0 0 512 512;" xml:space="preserve">
<g>
	<g>
		<path d="M410.778,405.94l-67.441-23.802c-0.347-1.176-0.967-2.278-1.873-3.184l-18.379-18.379
			c-2.931-2.932-6.827-4.546-10.972-4.546c-0.173,0-0.344,0.02-0.516,0.025v-10.557c2.003,0.163,4.072,0.385,6.198,0.615
			c4.351,0.473,8.763,0.952,13.099,0.952c5.952,0,11.759-0.903,17.058-3.969c9.296-5.379,13.836-15.735,17.841-24.873
			c2.739-6.248,5.325-12.149,8.874-15.697c3.549-3.549,9.45-6.136,15.698-8.874c9.139-4.006,19.496-8.546,24.875-17.843
			c5.299-9.158,4.14-19.833,3.018-30.157c-0.746-6.865-1.45-13.35-0.114-18.346c1.247-4.663,4.992-9.75,8.958-15.136
			c5.978-8.118,12.754-17.32,12.754-28.316c0-10.996-6.776-20.197-12.754-28.315c-3.965-5.385-7.711-10.472-8.958-15.134
			c-1.335-4.996-0.631-11.479,0.115-18.345c1.122-10.323,2.282-20.998-3.017-30.156c-5.378-9.296-15.735-13.836-24.873-17.841
			c-6.248-2.739-12.149-5.326-15.698-8.874c-3.549-3.549-6.136-9.451-8.874-15.699c-4.005-9.138-8.545-19.495-17.842-24.874
			c-9.157-5.299-19.833-4.14-30.157-3.019c-6.866,0.744-13.35,1.449-18.347,0.114c-4.663-1.247-9.749-4.992-15.134-8.958
			C276.198,6.776,266.997,0,256,0c-10.996,0-20.197,6.776-28.316,12.754c-5.385,3.966-10.471,7.711-15.133,8.957
			c-4.997,1.335-11.48,0.63-18.345-0.115c-10.324-1.12-20.998-2.282-30.157,3.018c-9.296,5.379-13.835,15.735-17.841,24.873
			c-2.739,6.248-5.325,12.149-8.874,15.697c-3.549,3.549-9.451,6.136-15.699,8.875c-9.138,4.005-19.495,8.544-24.874,17.841
			c-5.299,9.158-4.14,19.834-3.018,30.157c0.746,6.865,1.45,13.351,0.114,18.347c-1.247,4.662-4.992,9.749-8.958,15.135
			c-5.979,8.119-12.754,17.32-12.754,28.316c0,10.996,6.776,20.198,12.754,28.316c3.965,5.385,7.711,10.471,8.957,15.133
			c1.335,4.996,0.631,11.48-0.115,18.346c-1.122,10.323-2.282,20.998,3.017,30.156c5.378,9.296,15.735,13.836,24.873,17.841
			c6.248,2.739,12.149,5.326,15.698,8.875c3.548,3.548,6.135,9.45,8.874,15.698c4.005,9.138,8.545,19.495,17.842,24.875
			c9.158,5.298,19.834,4.14,30.158,3.018c2.127-0.231,4.196-0.452,6.201-0.615v10.557c-0.173-0.006-0.343-0.025-0.516-0.025
			c-4.145,0-8.042,1.614-10.972,4.545l-18.38,18.38c-0.906,0.906-1.526,2.008-1.873,3.184l-67.441,23.802
			c-22.187,7.831-37.093,28.899-37.093,52.428V504.5c0,4.143,3.358,7.5,7.5,7.5c4.142,0,7.5-3.357,7.5-7.5v-46.132
			c0-4.992,0.925-9.831,2.626-14.327l37.925,32.508c5.451,4.672,8.578,11.47,8.578,18.65v9.301c0,4.143,3.358,7.5,7.5,7.5
			c4.142,0,7.5-3.357,7.5-7.5v-9.301c0-11.565-5.036-22.515-13.816-30.039l-39.755-34.076c4.423-4.876,10.048-8.712,16.528-10.999
			l38.953-13.748c6.934,55.377,54.127,97.646,110.833,97.646c56.679,0,103.895-42.28,110.831-97.647l38.954,13.748
			c6.479,2.287,12.105,6.123,16.528,10.999l-39.755,34.076c-8.781,7.524-13.817,18.474-13.817,30.039v9.301
			c0,4.143,3.358,7.5,7.5,7.5c4.142,0,7.5-3.357,7.5-7.5v-9.301c0-7.181,3.126-13.979,8.578-18.65l37.925-32.508
			c1.702,4.496,2.626,9.334,2.626,14.327V504.5c0,4.143,3.358,7.5,7.5,7.5c4.142,0,7.5-3.357,7.5-7.5v-46.132
			C447.871,434.84,432.964,413.771,410.778,405.94z M352.054,312.202c-3.379,7.71-6.572,14.993-11.615,17.91
			c-4.74,2.745-12.207,2.043-20.179,1.18c16.089-11.355,29.057-26.848,37.343-44.919c1.742,2.259,3.882,4.194,6.317,5.697
			C358.462,297.602,355.202,305.021,352.054,312.202z M376.242,280.564c-4.705,0-8.532-3.827-8.532-8.532
			c0-7.225,5.015-12.38,8.53-15.106c3.526,2.733,8.535,7.887,8.535,15.106C384.774,276.737,380.947,280.564,376.242,280.564z
			 M112.246,271.349c-1.012-0.946-1.867-1.954-2.504-3.055c-2.839-4.907-1.989-12.736-1.088-21.024
			c0.862-7.933,1.753-16.136-0.306-23.839c-1.979-7.4-6.752-13.885-11.37-20.154c-5.057-6.867-9.833-13.353-9.833-19.422
			c0-6.069,4.776-12.556,9.833-19.422c4.617-6.271,9.392-12.755,11.37-20.156c2.059-7.703,1.168-15.906,0.307-23.839
			c-0.9-8.289-1.75-16.118,1.089-21.026c2.918-5.043,10.201-8.235,17.913-11.614c7.245-3.176,14.737-6.46,20.284-12.006
			c5.547-5.546,8.83-13.038,12.006-20.283c3.38-7.711,6.572-14.994,11.615-17.911c4.908-2.84,12.737-1.988,21.024-1.089
			c7.932,0.862,16.135,1.755,23.839-0.306c7.4-1.978,13.884-6.752,20.154-11.369C243.445,19.776,249.931,15,256,15
			c6.069,0,12.556,4.776,19.423,9.833c6.271,4.617,12.754,9.392,20.155,11.369c7.704,2.059,15.906,1.168,23.84,0.308
			c8.287-0.9,16.116-1.752,21.026,1.09c5.043,2.918,8.236,10.201,11.616,17.912c3.175,7.245,6.459,14.737,12.005,20.283
			c5.546,5.547,13.038,8.831,20.283,12.006c7.71,3.38,14.994,6.572,17.911,11.615c2.839,4.908,1.989,12.736,1.088,21.024
			c-0.862,7.933-1.753,16.135,0.306,23.838c1.979,7.401,6.753,13.885,11.37,20.155c5.057,6.866,9.833,13.353,9.833,19.421
			c0,6.069-4.776,12.556-9.833,19.423c-4.618,6.271-9.393,12.755-11.371,20.156c-2.059,7.703-1.168,15.906-0.307,23.839
			c0.9,8.288,1.75,16.117-1.089,21.025c-0.636,1.1-1.491,2.108-2.502,3.053c-0.213-9.934-4.993-17.33-9.856-22.299
			c6.032-5.056,9.876-12.64,9.876-21.108c0-15.186-12.354-27.54-27.541-27.54h-4.524v-64.646c0-30.904-57.556-47.58-111.709-47.58
			s-111.709,16.676-111.709,47.58v64.646h-4.524c-15.186,0-27.541,12.354-27.541,27.54c0,8.468,3.844,16.052,9.876,21.108
			C117.239,254.02,112.46,261.416,112.246,271.349z M343.852,155.235c4.041,2.953,8.858,7.534,8.858,12.586v32.581h-80.677
			c-4.142,0-7.5,3.357-7.5,7.5v0.516h-17.064v-0.516c0-4.143-3.358-7.5-7.5-7.5h-80.677v-9.736h-0.001
			c22.959-2.525,96.913-13.252,147.083-50.263c4.016,0.895,7.902,1.896,11.619,3.014c3.962,1.193,8.149-1.054,9.343-5.021
			c1.194-3.967-1.055-8.149-5.021-9.343c-19.159-5.765-42.09-8.812-66.314-8.812c-37.231,0-76.071,7.883-96.709,22.852v-7.336
			c0-13.604,36.792-32.58,96.709-32.58s96.709,18.976,96.709,32.58v7.373c-0.002-0.001-0.005-0.004-0.008-0.006
			c-3.343-2.44-8.037-1.713-10.48,1.63C339.778,148.099,340.508,152.791,343.852,155.235z M279.533,215.403h17.062v9.228
			c0,4.143,3.358,7.5,7.5,7.5c4.142,0,7.5-3.357,7.5-7.5v-9.228h17.066v8.532c0,13.545-11.02,24.564-24.564,24.564
			s-24.564-11.02-24.564-24.564V215.403z M183.34,215.403h17.062v9.228c0,4.143,3.358,7.5,7.5,7.5c4.142,0,7.5-3.357,7.5-7.5v-9.228
			h17.066v8.532c0,13.545-11.02,24.564-24.564,24.564c-13.544,0-24.564-11.02-24.564-24.564V215.403z M159.291,175.534v-7.712
			c0-13.604,36.792-32.58,96.709-32.58c9.892,0,19.529,0.535,28.724,1.576C239.9,163.798,180.61,172.987,159.291,175.534z
			 M135.758,280.564c-4.705,0-8.533-3.827-8.533-8.532c0.001-7.228,5.022-12.386,8.537-15.111c3.515,2.723,8.528,7.875,8.528,15.111
			C144.29,276.737,140.462,280.564,135.758,280.564z M171.557,330.111c-5.043-2.919-8.235-10.202-11.615-17.913
			c-3.147-7.181-6.407-14.596-11.863-20.127c2.436-1.503,4.576-3.439,6.318-5.698c8.286,18.07,21.253,33.563,37.342,44.918
			C183.765,332.154,176.297,332.852,171.557,330.111z M159.291,239.968c0-4.143-3.358-7.5-7.5-7.5c-4.142,0-7.5,3.357-7.5,7.5
			c0,0.172,0.006,0.344,0.007,0.516h-4.531c-6.915,0-12.541-5.625-12.541-12.54c0-6.915,5.625-12.54,12.541-12.54h28.573v8.532
			c0,21.815,17.749,39.564,39.564,39.564s39.564-17.749,39.564-39.564v-0.517h17.064v0.517c0,21.815,17.749,39.564,39.564,39.564
			s39.564-17.749,39.564-39.564v-8.532h28.573c6.915,0,12.541,5.625,12.541,12.54s-5.625,12.54-12.541,12.54h-4.531
			c0.001-0.172,0.007-0.343,0.007-0.516c0-4.143-3.358-7.5-7.5-7.5c-4.142,0-7.5,3.357-7.5,7.5c0,53.326-43.384,96.71-96.709,96.71
			C202.675,336.678,159.291,293.294,159.291,239.968z M199.522,371.181c0.038-0.037,0.151-0.151,0.365-0.151
			c0.213,0,0.327,0.114,0.364,0.151c0,0,0,0,0,0.001l44.638,44.637l-33.639,28.032c-0.059,0.05-0.193,0.167-0.447,0.106
			c-0.25-0.059-0.323-0.223-0.354-0.293l-25.664-57.745L199.522,371.181z M248.501,488.694
			c-46.784-3.588-84.504-40.456-88.797-87.487l13.365-4.717l23.674,53.266c1.994,4.485,5.878,7.696,10.659,8.811
			c1.188,0.276,2.383,0.412,3.568,0.412c3.579,0,7.053-1.244,9.885-3.604l27.646-23.039V488.694z M256,405.715l-40.597-40.596
			V344.04c12.589,4.928,26.282,7.638,40.597,7.638c14.315,0,28.007-2.71,40.597-7.638v21.079L256,405.715z M263.5,488.693v-56.358
			l27.646,23.039c2.833,2.361,6.306,3.604,9.886,3.604c1.184,0,2.379-0.136,3.567-0.412c4.78-1.114,8.665-4.325,10.659-8.811
			l11.366-25.573c1.682-3.785-0.022-8.217-3.808-9.899c-3.782-1.683-8.217,0.022-9.899,3.808l-11.366,25.573
			c-0.031,0.07-0.104,0.234-0.354,0.293c-0.254,0.061-0.389-0.057-0.448-0.106l-33.639-28.032l44.638-44.638
			c0.038-0.037,0.151-0.151,0.364-0.151c0.214,0,0.327,0.114,0.365,0.152l14.738,14.737l-1.473,3.313
			c-1.682,3.785,0.022,8.218,3.808,9.899c3.385,1.507,7.28,0.296,9.27-2.681l13.475,4.756
			C348.002,448.229,310.263,485.103,263.5,488.693z"/>
	</g>
</g>
<g>
	<g>
		<path d="M285.387,282.797c-2.909-2.949-7.658-2.98-10.606-0.071c-2.738,2.701-9.299,5.855-18.781,5.855
			c-9.482,0-16.043-3.154-18.781-5.855c-2.95-2.911-7.698-2.878-10.606,0.071c-2.909,2.949-2.877,7.697,0.071,10.606
			c6.46,6.373,17.419,10.178,29.316,10.178c11.897,0,22.856-3.805,29.316-10.178C288.264,290.494,288.296,285.746,285.387,282.797z"
			/>
	</g>
</g>
<g>
	<g>
		<path d="M312.113,176.354h-16.032c-4.142,0-7.5,3.357-7.5,7.5s3.357,7.5,7.5,7.5h16.032c4.142,0,7.5-3.357,7.5-7.5
			S316.255,176.354,312.113,176.354z"/>
	</g>
</g>
<g>
</g>
<g>
</g>
<g>
</g>
<g>
</g>
<g>
</g>
<g>
</g>
<g>
</g>
<g>
</g>
<g>
</g>
<g>
</g>
<g>
</g>
<g>
</g>
<g>
</g>
<g>
</g>
<g>
</g>
</svg>
