<?xml version="1.0" encoding="iso-8859-1"?>
<!-- Generator: Adobe Illustrator 19.0.0, SVG Export Plug-In . SVG Version: 6.00 Build 0)  -->
<svg version="1.1" id="Capa_1" xmlns="http://www.w3.org/2000/svg" xmlns:xlink="http://www.w3.org/1999/xlink" x="0px" y="0px"
	 viewBox="0 0 512 512" style="enable-background:new 0 0 512 512;" xml:space="preserve">
<g>
	<g>
		<path d="M207.904,177.052c-4.142,0-7.5,3.358-7.5,7.5v8.016c0,4.142,3.358,7.5,7.5,7.5c4.142,0,7.5-3.358,7.5-7.5v-8.016
			C215.404,180.41,212.046,177.052,207.904,177.052z"/>
	</g>
</g>
<g>
	<g>
		<path d="M304.098,177.052c-4.142,0-7.5,3.358-7.5,7.5v8.016c0,4.142,3.358,7.5,7.5,7.5c4.142,0,7.5-3.358,7.5-7.5v-8.016
			C311.598,180.41,308.24,177.052,304.098,177.052z"/>
	</g>
</g>
<g>
	<g>
		<path d="M410.779,389.909l-80.678-28.475c26.184-11.604,48.826-26.148,64.079-37.048c7.009-5.009,11.604-12.442,12.938-20.931
			c1.323-8.417-0.741-16.815-5.812-23.648c-10.232-13.788-22.814-27.561-37.433-40.993c23.166-26.273,35.902-59.924,35.902-95.04
			C399.775,64.497,335.278,0,256.001,0S112.227,64.497,112.227,143.774c0,35.066,12.747,68.778,35.901,95.041
			c-14.618,13.432-27.2,27.205-37.432,40.992c-5.071,6.833-7.135,15.231-5.812,23.648c1.334,8.489,5.929,15.922,12.938,20.931
			c15.253,10.9,37.895,25.444,64.078,37.048l-80.678,28.474c-22.187,7.83-37.093,28.899-37.093,52.427V504.5
			c0,4.142,3.358,7.5,7.5,7.5c4.142,0,7.5-3.358,7.5-7.5v-62.165c0-17.18,10.885-32.564,27.085-38.282l54.108-19.097v23.351
			c0,17.396,14.152,31.548,31.548,31.548h0.516V504.5c0,4.142,3.358,7.5,7.5,7.5c4.142,0,7.5-3.358,7.5-7.5v-64.645h8.533
			c4.142,0,7.5-3.358,7.5-7.5c0-4.142-3.358-7.5-7.5-7.5H191.87c-9.125,0-16.548-7.423-16.548-16.548v-28.645l13.684-4.83
			c15.789-5.573,26.397-20.566,26.397-37.309v-25.548c12.589,4.928,26.282,7.638,40.597,7.638c14.315,0,28.007-2.71,40.597-7.638
			v25.548c0,16.743,10.608,31.736,26.397,37.309l13.684,4.83v28.645c0,9.125-7.423,16.548-16.548,16.548h-72.146
			c-4.142,0-7.5,3.358-7.5,7.5c0,4.142,3.358,7.5,7.5,7.5h72.146c17.396,0,31.548-14.152,31.548-31.548v-23.351l54.108,19.097
			c16.201,5.718,27.085,21.102,27.085,38.282V504.5c0,4.142,3.358,7.5,7.5,7.5c4.142,0,7.5-3.358,7.5-7.5v-62.165
			C447.872,418.808,432.965,397.739,410.779,389.909z M144.293,167.824v40.034c-11.114-19.358-17.065-41.404-17.065-64.082
			C127.227,72.768,184.995,15,256.001,15s128.774,57.768,128.774,128.774c0,22.71-5.951,44.734-17.065,64.083v-57.256
			c0.173,0,0.343,0.005,0.516,0.005c4.142,0,7.5-3.358,7.5-7.5c0-4.142-3.358-7.5-7.5-7.5c-62.788,0-108.183-20.323-135.208-37.372
			c-29.375-18.531-44.076-37.338-44.221-37.526c-2.523-3.278-7.226-3.895-10.508-1.376c-3.287,2.521-3.907,7.229-1.386,10.516
			c0.642,0.837,16.093,20.739,47.487,40.678c26.506,16.834,69.583,36.63,128.32,39.667v10.13h-24.564
			c-0.065,0-0.129,0.008-0.193,0.01c-6.637-5.033-14.902-8.026-23.855-8.026c-16.311,0-30.346,9.923-36.391,24.048h-23.411
			c-6.046-14.125-20.08-24.048-36.391-24.048c-8.953,0-17.218,2.993-23.855,8.026c-0.065-0.002-0.128-0.01-0.193-0.01h-24.293
			c1.419-20.757,8.779-39.033,21.968-54.399c2.698-3.143,2.336-7.878-0.807-10.576c-3.143-2.698-7.879-2.336-10.576,0.807
			C152.992,116.145,144.293,140.258,144.293,167.824z M328.662,191.871c0,13.544-11.02,24.564-24.564,24.564
			s-24.564-11.02-24.564-24.564c0-13.544,11.019-24.564,24.564-24.564C317.643,167.307,328.662,178.327,328.662,191.871z
			 M232.468,191.871c0,13.544-11.02,24.564-24.564,24.564s-24.564-11.02-24.564-24.564c0-13.544,11.019-24.564,24.564-24.564
			S232.468,178.327,232.468,191.871z M196.209,351.21c-28.484-11.517-53.421-27.419-69.666-39.027
			c-3.708-2.649-6.137-6.576-6.842-11.056c-0.693-4.409,0.386-8.805,3.039-12.379c8.696-11.717,19.234-23.463,31.391-35.012
			c9.697,21.469,25.986,39.346,46.272,51.034v32.753h0.001C200.404,342.514,198.873,347.246,196.209,351.21z M256,304.612
			c-53.325,0-96.708-43.383-96.708-96.709v-32.581h12.689c-2.33,5.039-3.641,10.642-3.641,16.548
			c0,21.816,17.749,39.564,39.564,39.564s39.564-17.749,39.564-39.564c0-0.173-0.011-0.344-0.013-0.516h17.091
			c-0.002,0.173-0.013,0.343-0.013,0.516c0,21.816,17.749,39.564,39.564,39.564s39.564-17.749,39.564-39.564
			c0-5.906-1.31-11.51-3.641-16.548h12.689v32.581C352.709,261.229,309.325,304.612,256,304.612z M315.792,351.209
			c-2.664-3.963-4.195-8.695-4.195-13.687V304.77c20.287-11.689,36.576-29.566,46.273-51.035
			c12.157,11.549,22.695,23.295,31.391,35.012c2.653,3.574,3.732,7.971,3.039,12.379c-0.705,4.48-3.134,8.407-6.841,11.056
			C369.214,323.791,344.276,339.692,315.792,351.209z"/>
	</g>
</g>
<g>
	<g>
		<path d="M285.388,242.716c-2.909-2.948-7.658-2.98-10.606-0.071c-2.737,2.701-9.298,5.855-18.781,5.855
			c-9.483,0-16.043-3.154-18.781-5.855c-2.95-2.91-7.698-2.877-10.606,0.071c-2.909,2.948-2.877,7.697,0.071,10.606
			c6.459,6.373,17.418,10.177,29.316,10.177c11.898,0,22.857-3.805,29.316-10.177C288.266,250.413,288.297,245.664,285.388,242.716z
			"/>
	</g>
</g>
<g>
	<g>
		<path d="M232.033,456.919h-0.08c-4.142,0-7.46,3.358-7.46,7.5c0,4.142,3.398,7.5,7.54,7.5c4.142,0,7.5-3.358,7.5-7.5
			C239.533,460.277,236.175,456.919,232.033,456.919z"/>
	</g>
</g>
<g>
</g>
<g>
</g>
<g>
</g>
<g>
</g>
<g>
</g>
<g>
</g>
<g>
</g>
<g>
</g>
<g>
</g>
<g>
</g>
<g>
</g>
<g>
</g>
<g>
</g>
<g>
</g>
<g>
</g>
</svg>
