<?xml version="1.0" encoding="iso-8859-1"?>
<!-- Generator: Adobe Illustrator 19.0.0, SVG Export Plug-In . SVG Version: 6.00 Build 0)  -->
<svg version="1.1" id="Capa_1" xmlns="http://www.w3.org/2000/svg" xmlns:xlink="http://www.w3.org/1999/xlink" x="0px" y="0px"
	 viewBox="0 0 512.001 512.001" style="enable-background:new 0 0 512.001 512.001;" xml:space="preserve">
<g>
	<g>
		<path d="M415.976,398.973l-65.724-19.33l-11.657-23.314c-1.883-3.766-5.27-6.64-9.292-7.884c-3.171-0.981-6.584-0.888-9.692,0.192
			v-16.845c25.055-17.393,42.693-44.762,47.099-76.307h4.458c14.618,0,27.155-10.861,28.544-24.728
			c0.778-7.771-1.764-15.53-6.974-21.287c-2.521-2.786-5.567-4.992-8.917-6.533V170.93l45.9-45.9
			c2.434-2.434,2.898-6.211,1.128-9.162l-48.097-80.161c-1.002-1.671-2.616-2.886-4.499-3.388L258.01,0.253
			c-1.267-0.338-2.599-0.338-3.865,0L133.903,32.318c-1.883,0.502-3.496,1.717-4.499,3.388l-48.097,80.161
			c-1.771,2.951-1.306,6.729,1.128,9.162l45.9,45.9v32.341c-8.63,4.115-14.929,12.266-15.89,21.858
			c-0.779,7.771,1.762,15.531,6.972,21.289c5.214,5.762,12.659,9.067,20.426,9.067h5.598c4.394,31.488,21.966,58.812,46.943,76.209
			v16.943c-3.108-1.079-6.52-1.173-9.692-0.192c-4.022,1.244-7.41,4.118-9.292,7.884l-11.657,23.314l-65.724,19.33
			c-23.498,6.912-39.909,28.845-39.909,53.338v52.19c0,4.142,3.358,7.5,7.5,7.5c4.142,0,7.5-3.358,7.5-7.5v-52.189
			c0-7.386,2.048-14.451,5.657-20.559l42.911,36.78c5.452,4.673,8.578,11.471,8.578,18.651V504.5c0,4.142,3.358,7.5,7.5,7.5
			c4.142,0,7.5-3.358,7.5-7.5v-17.317c0-11.564-5.036-22.513-13.816-30.04l-42.815-36.699c3.98-3.154,8.577-5.596,13.628-7.082
			l64.69-19.026l23.619,41.333c2.304,4.032,6.249,6.798,10.825,7.59c0.889,0.154,1.78,0.23,2.666,0.23
			c3.672,0,7.239-1.303,10.08-3.738l15.403-13.202l1.743,5.23c1.321,3.963,3.631,7.378,6.586,10.039l-11.211,61.331
			c-0.745,4.075,1.955,7.981,6.029,8.727c0.456,0.083,0.91,0.124,1.357,0.124c3.552,0,6.708-2.534,7.369-6.153l10.61-58.04
			c0.525,0.035,1.052,0.063,1.584,0.063h8.954c0.55,0,1.095-0.028,1.638-0.065l10.555,58.036c0.659,3.622,3.815,6.16,7.37,6.16
			c0.445,0,0.897-0.04,1.351-0.123c4.076-0.741,6.778-4.646,6.037-8.721l-11.163-61.382c2.932-2.655,5.224-6.054,6.538-9.996
			l1.708-5.123l15.278,13.096c2.84,2.435,6.408,3.738,10.08,3.738c0.885,0,1.777-0.076,2.666-0.23
			c4.576-0.792,8.521-3.559,10.825-7.59l23.619-41.333l64.69,19.026c5.051,1.486,9.648,3.927,13.628,7.082l-42.815,36.699
			c-8.781,7.526-13.816,18.475-13.816,30.04V504.5c0,4.142,3.358,7.5,7.5,7.5c4.142,0,7.5-3.358,7.5-7.5v-17.317
			c0-7.18,3.126-13.978,8.578-18.651l42.911-36.78c3.608,6.108,5.657,13.172,5.657,20.559V504.5c0,4.142,3.358,7.5,7.5,7.5
			c4.142,0,7.5-3.358,7.5-7.5v-52.189C455.885,427.817,439.474,405.884,415.976,398.973z M97.183,118.563l43.521-72.535
			l115.374-30.766l115.374,30.766l43.521,72.535l-31.153,31.153v-38.007c0-8.556-6.96-15.516-15.516-15.516h-8.013
			c-4.142,0-7.5,3.358-7.5,7.5c0,4.142,3.358,7.5,7.5,7.5h8.013c0.285,0,0.516,0.231,0.516,0.516v32.581H143.336v-32.581
			c0-0.285,0.231-0.516,0.516-0.516h91.243c5.58,4.981,12.932,8.016,20.983,8.016s15.403-3.035,20.983-8.016h51.162
			c4.142,0,7.5-3.358,7.5-7.5c0-4.142-3.358-7.5-7.5-7.5h-41.779c0.764-2.716,1.182-5.575,1.182-8.532V55.597
			c0-4.142-3.358-7.5-7.5-7.5h-48.097c-4.142,0-7.5,3.358-7.5,7.5v32.064c0,2.957,0.418,5.816,1.182,8.532h-81.859
			c-8.556,0-15.516,6.96-15.516,15.516v38.007L97.183,118.563z M147.36,159.292h217.436c-5.68,5.519-16.434,10.516-26.065,13.726
			c-21.966,7.322-51.319,11.354-82.652,11.354s-60.687-4.032-82.653-11.354C163.794,169.808,153.041,164.811,147.36,159.292z
			 M160.4,184.209v7.663c0,4.705-3.828,8.532-8.532,8.532h-8.532v-25.112C147.729,178.342,153.32,181.352,160.4,184.209z
			 M351.755,184.209c7.081-2.857,12.672-5.865,17.065-8.917v25.112h-8.533c-4.705,0-8.532-3.828-8.532-8.532V184.209z
			 M239.53,87.662V63.097h33.097v24.564h-0.001c0,9.125-7.423,16.548-16.548,16.548S239.53,96.787,239.53,87.662z M159.368,239.969
			c0-4.142-3.358-7.5-7.5-7.5c-4.142,0-7.5,3.358-7.5,7.5v0.516h-4.524c-3.537,0-6.927-1.506-9.303-4.131
			c-2.407-2.66-3.532-6.115-3.17-9.729c0.63-6.292,6.612-11.22,13.619-11.22h10.878c12.976,0,23.532-10.557,23.532-23.532v-2.557
			c22.514,6.5,50.818,10.056,80.678,10.056c29.859,0,58.163-3.557,80.677-10.056v2.556c0,12.976,10.557,23.533,23.532,23.533h12.024
			c3.537,0,6.927,1.505,9.303,4.13c2.406,2.659,3.532,6.114,3.17,9.729c-0.63,6.292-6.612,11.222-13.618,11.222h-3.383v-0.439
			c0-4.141-3.356-7.499-7.497-7.5c-0.001,0-0.002,0-0.003,0c-4.14,0-7.497,3.354-7.5,7.495
			c-0.04,53.286-43.421,96.638-96.706,96.638C202.752,336.677,159.368,293.293,159.368,239.969z M202.368,428.365
			c-0.055,0.047-0.181,0.16-0.424,0.117c-0.24-0.042-0.327-0.195-0.36-0.253l-25.26-44.206l10.493-20.986
			c0.024-0.049,0.099-0.197,0.31-0.262c0.211-0.066,0.355,0.015,0.402,0.042l55.404,30.78L202.368,428.365z M268.649,427.037
			c-1.163,3.489-4.416,5.834-8.094,5.834h-8.954c-3.678,0-6.932-2.345-8.095-5.834l-3.676-11.027l16.167-13.858l16.291,13.964
			L268.649,427.037z M310.411,428.228c-0.033,0.058-0.121,0.211-0.36,0.253c-0.241,0.044-0.368-0.069-0.424-0.117l-40.564-34.769
			l6.612-3.673c3.621-2.012,4.925-6.578,2.914-10.199c-2.011-3.62-6.577-4.925-10.199-2.914l-12.393,6.885l-48.613-27.007v-16.195
			c14.725,7.162,31.247,11.185,48.693,11.185c17.38,0,33.846-3.998,48.533-11.115v16.125l-8.925,4.959
			c-3.621,2.012-4.925,6.578-2.914,10.199c2.012,3.622,6.578,4.926,10.199,2.914l21.497-11.943c0.047-0.026,0.192-0.107,0.402-0.042
			c0.211,0.065,0.285,0.213,0.31,0.262l10.493,20.986L310.411,428.228z"/>
	</g>
</g>
<g>
	<g>
		<path d="M207.981,208.42c-4.142,0-7.5,3.358-7.5,7.5v8.016c0,4.142,3.358,7.5,7.5,7.5c4.142,0,7.5-3.358,7.5-7.5v-8.016
			C215.481,211.777,212.123,208.42,207.981,208.42z"/>
	</g>
</g>
<g>
	<g>
		<path d="M304.174,208.42c-4.142,0-7.5,3.358-7.5,7.5v8.016c0,4.142,3.358,7.5,7.5,7.5c4.142,0,7.5-3.358,7.5-7.5v-8.016
			C311.674,211.779,308.316,208.42,304.174,208.42z"/>
	</g>
</g>
<g>
	<g>
		<path d="M272.11,272.548h-32.064c-4.142,0-7.5,3.358-7.5,7.5c0,4.142,3.358,7.5,7.5,7.5h32.064c4.142,0,7.5-3.358,7.5-7.5
			C279.61,275.906,276.252,272.548,272.11,272.548z"/>
	</g>
</g>
<g>
</g>
<g>
</g>
<g>
</g>
<g>
</g>
<g>
</g>
<g>
</g>
<g>
</g>
<g>
</g>
<g>
</g>
<g>
</g>
<g>
</g>
<g>
</g>
<g>
</g>
<g>
</g>
<g>
</g>
</svg>
