<?xml version="1.0" encoding="iso-8859-1"?>
<!-- Generator: Adobe Illustrator 19.0.0, SVG Export Plug-In . SVG Version: 6.00 Build 0)  -->
<svg version="1.1" id="Capa_1" xmlns="http://www.w3.org/2000/svg" xmlns:xlink="http://www.w3.org/1999/xlink" x="0px" y="0px"
	 viewBox="0 0 512 512" style="enable-background:new 0 0 512 512;" xml:space="preserve">
<g>
	<g>
		<path d="M410.778,389.909l-49.075-17.32c13.684-13.457,24.832-29.516,32.534-47.01c9.705-22.045,13.889-45.514,12.434-69.754
			l-7.245-120.746C394.882,59.333,331.882,0,256,0c-75.882,0-138.882,59.333-143.426,135.079l-7.245,120.746
			c-1.459,24.319,2.755,47.858,12.525,69.961c7.698,17.416,18.809,33.4,32.439,46.804l-49.072,17.319
			c-22.187,7.83-37.093,28.899-37.093,52.427V504.5c0,4.142,3.357,7.5,7.5,7.5s7.5-3.358,7.5-7.5v-62.165
			c0-17.18,10.885-32.564,27.085-38.282l34.257-12.09c9.809,11.268,47.093,51.122,103.342,75.558
			c3.873,1.683,8.029,2.524,12.188,2.524c4.157,0,8.315-0.842,12.188-2.524c19.273-8.374,38.252-19.44,56.407-32.891
			c3.328-2.466,4.027-7.163,1.562-10.491c-2.467-3.329-7.161-4.025-10.491-1.562c-17.24,12.774-35.226,23.266-53.454,31.186
			c-3.946,1.714-8.474,1.715-12.422,0c-46.98-20.41-80.7-53.014-93.96-67.221l33.178-11.71
			c15.789-5.573,26.396-20.566,26.396-37.309V311.83c11.13,4.464,22.988,7.08,35.206,7.656c1.825,0.086,3.642,0.129,5.455,0.128
			c14.088,0,27.772-2.591,40.532-7.565v25.474c0,16.743,10.607,31.736,26.396,37.309l33.195,11.716
			c-3.835,4.124-9.375,9.784-16.435,16.215c-3.063,2.79-3.283,7.533-0.493,10.595c1.479,1.625,3.509,2.449,5.546,2.449
			c1.803,0,3.611-0.646,5.049-1.956c10.708-9.755,18.064-17.772,21.667-21.892l34.265,12.093
			c16.2,5.718,27.085,21.102,27.085,38.282V504.5c0,4.142,3.357,7.5,7.5,7.5s7.5-3.358,7.5-7.5v-62.165
			C447.871,418.808,432.965,397.739,410.778,389.909z M251.314,304.502c-24.929-1.174-48.165-12.197-65.427-31.04
			c-17.152-18.721-26.598-43.049-26.598-68.503v-29.637h9.049v8.532c0,21.816,17.748,39.564,39.564,39.564
			c21.816,0,39.564-17.749,39.564-39.564v-0.516h17.064v0.516c0,21.816,17.748,39.564,39.564,39.564
			c21.816,0,39.564-17.749,39.564-39.564v-8.532h9.049v32.581c0,26.696-10.642,51.55-29.964,69.984
			C303.436,296.31,278.078,305.755,251.314,304.502z M207.901,192.05c4.143,0,7.5-3.358,7.5-7.5v-9.228h17.066v8.532
			c0,13.545-11.02,24.564-24.564,24.564s-24.564-11.02-24.564-24.564v-8.532h17.063v9.228
			C200.401,188.692,203.759,192.05,207.901,192.05z M304.096,192.05c4.143,0,7.5-3.358,7.5-7.5v-9.228h17.065v8.532
			c0,13.545-11.02,24.564-24.564,24.564s-24.564-11.02-24.564-24.564v-8.532h17.063v9.228
			C296.596,188.692,299.953,192.05,304.096,192.05z M345.751,366.959l-17.766-6.27c-9.802-3.461-16.388-12.77-16.388-23.166v-32.665
			c7.687-4.431,14.901-9.82,21.503-16.118c22.319-21.292,34.61-50.001,34.61-80.837v-64.129c0-26.236-21.345-47.581-47.581-47.581
			h-8.017c-4.143,0-7.5,3.358-7.5,7.5c0,4.142,3.357,7.5,7.5,7.5h8.017c17.965,0,32.581,14.616,32.581,32.581v16.548h-80.678
			c-4.143,0-7.5,3.358-7.5,7.5v0.516h-17.064v-0.516c0-4.142-3.357-7.5-7.5-7.5H159.29v-16.548
			c0-17.965,14.616-32.581,32.581-32.581h88.177c4.143,0,7.5-3.358,7.5-7.5c0-4.142-3.357-7.5-7.5-7.5h-88.177
			c-26.236,0-47.581,21.345-47.581,47.581v61.186c0,29.215,10.845,57.141,30.537,78.636c7.606,8.302,16.224,15.286,25.576,20.833
			v33.095c0,10.396-6.586,19.705-16.389,23.165l-17.769,6.271c-31.766-27.92-48.483-67.907-45.944-110.237l7.245-120.746
			C131.617,68.14,188.04,15,256,15s124.383,53.14,128.453,120.977l7.245,120.746C394.236,299.028,377.512,339.036,345.751,366.959z"
			/>
	</g>
</g>
<g>
	<g>
		<path d="M285.387,242.716c-2.909-2.948-7.656-2.981-10.606-0.071c-2.737,2.701-9.299,5.855-18.781,5.855
			c-9.482,0-16.044-3.154-18.781-5.855c-2.948-2.908-7.697-2.877-10.606,0.071s-2.877,7.698,0.071,10.606
			c6.46,6.373,17.419,10.177,29.316,10.177c11.897,0,22.856-3.805,29.316-10.177C288.264,250.413,288.296,245.664,285.387,242.716z"
			/>
	</g>
</g>
<g>
	<g>
		<path d="M223.196,137.947c-1.006-4.019-5.082-6.461-9.096-5.457l-16.032,4.008c-4.019,1.004-6.461,5.077-5.457,9.095
			c0.853,3.408,3.91,5.683,7.271,5.683c0.603,0,1.215-0.073,1.825-0.226l16.032-4.008
			C221.758,146.038,224.2,141.965,223.196,137.947z"/>
	</g>
</g>
<g>
	<g>
		<path d="M313.933,136.498L297.9,132.49c-4.018-1.004-8.089,1.438-9.095,5.457c-1.004,4.019,1.438,8.091,5.457,9.095l16.032,4.008
			c0.611,0.153,1.223,0.226,1.825,0.226c3.36,0,6.418-2.275,7.271-5.683C320.394,141.574,317.952,137.502,313.933,136.498z"/>
	</g>
</g>
<g>
</g>
<g>
</g>
<g>
</g>
<g>
</g>
<g>
</g>
<g>
</g>
<g>
</g>
<g>
</g>
<g>
</g>
<g>
</g>
<g>
</g>
<g>
</g>
<g>
</g>
<g>
</g>
<g>
</g>
</svg>
