<?xml version="1.0" encoding="iso-8859-1"?>
<!-- Generator: Adobe Illustrator 19.0.0, SVG Export Plug-In . SVG Version: 6.00 Build 0)  -->
<svg version="1.1" id="Capa_1" xmlns="http://www.w3.org/2000/svg" xmlns:xlink="http://www.w3.org/1999/xlink" x="0px" y="0px"
	 viewBox="0 0 512 512" style="enable-background:new 0 0 512 512;" xml:space="preserve">
<g>
	<g>
		<path d="M276.231,225.737c-3.433-2.317-8.094-1.416-10.413,2.017c-1.965,2.908-5.726,4.715-9.816,4.715
			c-4.09,0-7.853-1.807-9.817-4.715c-2.319-3.433-6.981-4.333-10.413-2.017c-3.433,2.319-4.335,6.981-2.017,10.413
			c4.788,7.086,13.105,11.318,22.247,11.318c9.143,0,17.459-4.231,22.246-11.318C280.566,232.717,279.664,228.055,276.231,225.737z"
			/>
	</g>
</g>
<g>
	<g>
		<path d="M223.935,112.226h-24.048c-4.142,0-7.5,3.357-7.5,7.5s3.358,7.5,7.5,7.5h24.048c4.142,0,7.5-3.357,7.5-7.5
			S228.077,112.226,223.935,112.226z"/>
	</g>
</g>
<g>
	<g>
		<path d="M312.113,112.226h-24.049c-4.143,0-7.5,3.357-7.5,7.5s3.357,7.5,7.5,7.5h24.049c4.143,0,7.5-3.357,7.5-7.5
			S316.256,112.226,312.113,112.226z"/>
	</g>
</g>
<g>
	<g>
		<path d="M415.977,356.22l-21.414-6.298c3.376-10.217,5.211-21.13,5.211-32.464c0-30.656-24.94-55.597-55.597-55.597h-8.27
			c16.449-16.902,27.367-38.776,30.713-62.489h4.473c14.617,0,27.155-10.861,28.543-24.728c0.777-7.771-1.765-15.531-6.975-21.288
			c-2.522-2.787-5.569-4.993-8.919-6.534v-19.08C383.741,57.305,326.437,0,255.999,0c-70.437,0-127.742,57.305-127.742,127.742
			v19.416c-8.629,4.115-14.927,12.266-15.888,21.858c-0.778,7.771,1.764,15.53,6.974,21.288c5.213,5.762,12.658,9.066,20.425,9.066
			h5.598c2.219,15.929,7.847,31.189,16.598,44.806c4.106,6.389,8.831,12.303,14.077,17.684h-8.219
			c-30.656,0-55.597,24.94-55.597,55.597c0,11.334,1.834,22.247,5.211,32.464l-21.414,6.298
			c-23.498,6.911-39.91,28.845-39.91,53.338V504.5c0,4.143,3.358,7.5,7.5,7.5c4.142,0,7.5-3.357,7.5-7.5v-94.942
			c0-17.885,11.984-33.9,29.142-38.947l22.952-6.751c12.427,24.728,34.456,43.828,61.165,52.378V504.5c0,4.143,3.358,7.5,7.5,7.5
			c4.142,0,7.5-3.357,7.5-7.5v-84.676c5.39,0.868,10.916,1.326,16.548,1.326H248.5v83.35c0,4.143,3.358,7.5,7.5,7.5
			c4.142,0,7.5-3.357,7.5-7.5v-83.35h32.581c5.632,0,11.159-0.458,16.55-1.326V504.5c0,4.143,3.357,7.5,7.5,7.5s7.5-3.357,7.5-7.5
			v-88.263c26.708-8.55,48.736-27.65,61.163-52.377l22.952,6.751c17.158,5.047,29.142,21.063,29.142,38.947V504.5
			c0,4.143,3.357,7.5,7.5,7.5s7.5-3.357,7.5-7.5v-94.942C455.886,385.064,439.475,363.131,415.977,356.22z M143.258,127.742
			C143.258,65.576,193.834,15,256,15s112.742,50.576,112.742,112.742v16.574c-0.171-0.012-0.342-0.026-0.516-0.026h-32.581v-0.516
			c0-4.143-3.357-7.5-7.5-7.5h-56.113c-4.143,0-7.5,3.357-7.5,7.5v2.123c-2.647-1.034-5.523-1.608-8.532-1.608
			c-3.009,0-5.885,0.574-8.532,1.608v-2.123c0-4.143-3.358-7.5-7.5-7.5h-56.113c-4.142,0-7.5,3.357-7.5,7.5v0.516h-32.581
			c-0.174,0-0.345,0.014-0.516,0.026V127.742z M300.088,167.307c4.143,0,7.5-3.357,7.5-7.5v-8.532h13.057v16.548
			c0,4.705-3.827,8.532-8.532,8.532h-24.049c-4.705,0-8.532-3.827-8.532-8.532v-16.548h13.057v8.532
			C292.588,163.949,295.946,167.307,300.088,167.307z M211.911,167.307c4.142,0,7.5-3.357,7.5-7.5v-8.532h13.057v16.548
			c0,4.705-3.828,8.532-8.532,8.532h-24.048c-4.705,0-8.532-3.827-8.532-8.532v-16.548h13.056v8.532
			C204.411,163.949,207.769,167.307,211.911,167.307z M174.583,236.066c-10.003-15.563-15.29-33.618-15.29-52.212
			c0-4.143-3.358-7.5-7.5-7.5c-4.142,0-7.5,3.357-7.5,7.5v0.517h-4.524c-3.537,0-6.927-1.506-9.302-4.131
			c-2.407-2.659-3.533-6.115-3.171-9.729c0.63-6.293,6.612-11.222,13.618-11.222c0.49,0,35.441,0,35.441,0v8.532
			c0,12.976,10.557,23.532,23.532,23.532h24.048c12.976,0,23.532-10.557,23.532-23.532c0-4.705,3.828-8.532,8.532-8.532
			c4.704,0,8.532,3.827,8.532,8.532c0,12.976,10.557,23.532,23.532,23.532h24.049c12.976,0,23.532-10.557,23.532-23.532v-8.532
			c0,0,35.895,0,36.591,0c3.537,0,6.928,1.505,9.303,4.13c2.406,2.659,3.533,6.115,3.171,9.729
			c-0.63,6.293-6.611,11.222-13.617,11.222h-3.384v-0.439c0-4.141-3.356-7.498-7.497-7.5c-0.001,0-0.002,0-0.003,0
			c-4.14,0-7.497,3.354-7.5,7.494c-0.024,32.451-16.457,62.51-42.89,80.273c-0.032-0.548-0.057-1.095-0.118-1.645l-3.787-34.086
			c-1.778-15.999-15.258-28.064-31.355-28.064h-37.112c-16.098,0-29.578,12.065-31.355,28.064l-3.788,34.086
			c-0.062,0.555-0.087,1.108-0.119,1.661C191.205,256.853,181.801,247.297,174.583,236.066z M285.746,280.84l-22.345,11.171
			c-4.636,2.318-10.167,2.316-14.801,0l-22.344-11.171c-6.173-3.087-9.809-9.77-9.046-16.63l3.788-34.086
			c0.933-8.393,8.003-14.721,16.447-14.721h37.112c8.443,0,15.515,6.329,16.447,14.721l3.787,34.087
			C295.555,271.07,291.919,277.753,285.746,280.84z M215.919,406.15c-5.654,0-11.185-0.538-16.548-1.555v-6.978
			c0-4.143-3.358-7.5-7.5-7.5c-4.142,0-7.5,3.357-7.5,7.5v2.729c-33.375-12.745-57.146-45.092-57.146-82.89
			c0-22.385,18.211-40.597,40.597-40.597h24.564v9.048h-22.432c-11.331,0-20.773,7.007-24.057,17.852
			c-3.284,10.845,0.687,21.913,10.114,28.198l92.487,61.659v12.534H215.919z M192.386,300.908v14.587
			c0,6.9-4.378,13.111-10.776,15.501l-17.278-11.519c-4.614-3.076-5.132-7.891-4.078-11.371c1.054-3.479,4.155-7.198,9.7-7.198
			H192.386z M327.63,400.346v-2.728c0-4.143-3.357-7.5-7.5-7.5s-7.5,3.357-7.5,7.5v6.977c-5.364,1.017-10.895,1.555-16.55,1.555
			h-32.581v-12.534l28.725-19.15c3.446-2.298,4.378-6.954,2.08-10.4c-2.297-3.446-6.954-4.378-10.4-2.08l-27.905,18.603l-60.6-40.4
			c7.37-5.878,11.988-14.919,11.988-24.693V284.45c0.077,0.037,0.628,0.326,1.126,0.586c2.87,3.812,6.606,7.006,11.037,9.221
			l22.343,11.171c4.418,2.209,9.263,3.313,14.11,3.313c4.845,0,9.691-1.104,14.107-3.313l22.345-11.171
			c4.468-2.234,8.233-5.459,11.112-9.312c0.35-0.165,0.699-0.33,1.046-0.498v31.049c0,9.774,4.617,18.815,11.987,24.693
			l-4.638,3.092c-3.446,2.298-4.378,6.954-2.08,10.4c1.445,2.168,3.823,3.341,6.247,3.341c1.43,0,2.875-0.408,4.153-1.261
			l35.703-23.803c9.428-6.285,13.398-17.354,10.115-28.198c-3.284-10.845-12.727-17.852-24.058-17.852h-22.431v-9.048h24.564
			c22.385,0,40.597,18.212,40.597,40.597C384.774,355.255,361.004,387.6,327.63,400.346z M319.614,300.908h22.43
			c5.546,0,8.647,3.719,9.701,7.198c1.054,3.48,0.535,8.295-4.079,11.371l-17.277,11.518c-6.397-2.39-10.775-8.601-10.775-15.501
			V300.908z"/>
	</g>
</g>
<g>
</g>
<g>
</g>
<g>
</g>
<g>
</g>
<g>
</g>
<g>
</g>
<g>
</g>
<g>
</g>
<g>
</g>
<g>
</g>
<g>
</g>
<g>
</g>
<g>
</g>
<g>
</g>
<g>
</g>
</svg>
