<?xml version="1.0" encoding="iso-8859-1"?>
<!-- Generator: Adobe Illustrator 19.0.0, SVG Export Plug-In . SVG Version: 6.00 Build 0)  -->
<svg version="1.1" id="Capa_1" xmlns="http://www.w3.org/2000/svg" xmlns:xlink="http://www.w3.org/1999/xlink" x="0px" y="0px"
	 viewBox="0 0 512 512" style="enable-background:new 0 0 512 512;" xml:space="preserve">
<g>
	<g>
		<path d="M415.978,382.94l-21.414-6.298c3.377-10.218,5.211-21.131,5.211-32.465c0-30.656-24.94-55.597-55.597-55.597h-11.001
			c17.73-16.969,29.892-39.706,33.447-65.161h4.467c14.617,0,27.155-10.861,28.544-24.728c0.778-7.771-1.764-15.529-6.974-21.286
			c-0.293-0.324-0.595-0.637-0.902-0.946v-56.734c0-6.663-4.229-12.341-10.137-14.535c-5.05-28.266-19.547-54.11-41.215-73.259
			C317.105,11.34,287.129,0,256.001,0c-31.13,0-61.105,11.34-84.405,31.932c-21.668,19.149-36.165,44.993-41.216,73.259
			c-5.908,2.194-10.137,7.872-10.137,14.535l0.001,57.124c-4.339,4.312-7.247,9.953-7.874,16.214
			c-0.779,7.771,1.762,15.53,6.972,21.289c5.213,5.762,12.658,9.066,20.426,9.066h5.607c3.553,25.456,15.711,48.193,33.438,65.161
			h-10.99c-30.656,0-55.597,24.941-55.597,55.598c0,11.334,1.834,22.247,5.211,32.464l-21.414,6.298
			c-23.498,6.911-39.91,28.845-39.91,53.338V504.5c0,4.143,3.358,7.5,7.5,7.5c4.142,0,7.5-3.357,7.5-7.5v-68.222
			c0-6.066,1.382-11.916,3.874-17.197l36.678,31.438c5.451,4.673,8.578,11.471,8.578,18.65v35.33c0,4.143,3.358,7.5,7.5,7.5
			c4.142,0,7.5-3.357,7.5-7.5v-35.33c0-11.564-5.036-22.513-13.816-30.039l-37.632-32.256c4.567-4.358,10.163-7.692,16.461-9.544
			l22.952-6.751c17.057,33.942,52.207,57.291,92.712,57.291H233.7c2.344,6.951,7.849,12.455,14.8,14.8v41.83
			c0,4.143,3.358,7.5,7.5,7.5c4.142,0,7.5-3.357,7.5-7.5v-41.829c6.951-2.344,12.455-7.849,14.8-14.8h17.781
			c40.505,0,75.655-23.348,92.712-57.291l22.952,6.751c6.298,1.852,11.894,5.187,16.461,9.544l-37.632,32.255
			c-8.78,7.526-13.815,18.475-13.815,30.039v35.33c0,4.143,3.357,7.5,7.5,7.5s7.5-3.357,7.5-7.5v-35.33
			c0-7.18,3.126-13.978,8.577-18.65l36.677-31.437c2.491,5.281,3.874,11.13,3.874,17.196V504.5c0,4.143,3.357,7.5,7.5,7.5
			s7.5-3.357,7.5-7.5v-68.222C455.887,411.785,439.475,389.852,415.978,382.94z M352.707,183.009l-38.799,26.861
			c-5.516,3.819-12.051,4.918-18.408,3.094c-6.355-1.825-11.669-6.446-14.214-12.363c-4.238-9.857-14.154-16.23-25.294-16.236
			c-0.004,0-0.007,0-0.011,0c-11.107,0-21.028,6.372-25.273,16.235c-2.547,5.918-7.864,10.54-14.221,12.363
			c-6.35,1.823-12.883,0.725-18.396-3.092l-38.8-26.862V159.29H352.71L352.707,183.009z M384.707,197.197
			c-0.63,6.292-6.612,11.222-13.618,11.222H367.7c0.001-0.146,0.006-0.292,0.006-0.438l0.001-24.642h4.527
			c3.537,0,6.928,1.506,9.303,4.131C383.944,190.129,385.071,193.583,384.707,197.197z M367.709,168.339v-9.049h9.048v9.429
			c-1.486-0.249-2.997-0.38-4.522-0.38H367.709z M366.142,104.21h-23.272c-3.514-27.37-13.128-52.449-27.416-71.203
			c-0.453-0.594-0.91-1.178-1.371-1.757C340.153,47.035,359.533,73.134,366.142,104.21z M327.751,104.21h-32.514
			c-1.617-30.556-6.634-62.975-16.086-83.39C303.319,33.302,322.243,64.75,327.751,104.21z M256.001,15
			c1.734,0,8.068,4.545,14.221,24.738c5.137,16.855,8.629,39.525,9.989,64.472h-48.42c1.36-24.947,4.852-47.617,9.989-64.472
			C247.932,19.545,254.267,15,256.001,15z M197.832,31.302c-6.601,8.343-12.401,18.19-17.152,29.375
			c-1.62,3.813,0.158,8.216,3.971,9.836c3.813,1.619,8.215-0.159,9.835-3.971c9.298-21.888,22.87-37.784,38.379-45.755
			c-9.462,20.413-14.483,52.85-16.102,83.422h-32.511c0.337-2.412,0.722-4.807,1.16-7.167c0.757-4.072-1.931-7.987-6.003-8.744
			c-4.071-0.756-7.987,1.932-8.744,6.004c-0.605,3.255-1.112,6.57-1.54,9.907h-23.267C152.46,73.168,171.806,47.093,197.832,31.302z
			 M139.767,208.418L139.767,208.418c-3.537,0.001-6.928-1.505-9.303-4.13c-2.406-2.659-3.532-6.114-3.17-9.729
			c0.63-6.292,6.612-11.221,13.619-11.221h3.379v24.564c0,0.172,0.006,0.344,0.007,0.516H139.767z M135.244,168.896v-9.606h9.048
			v9.049h-3.379C138.979,168.339,137.083,168.534,135.244,168.896z M135.242,144.29v-24.564c0-0.284,0.231-0.516,0.516-0.516
			h240.484c0.284,0,0.516,0.231,0.516,0.516v24.564H135.242z M159.291,207.903v-6.651l30.262,20.952
			c9.146,6.331,20.472,8.217,31.071,5.178c10.793-3.097,19.491-10.697,23.862-20.852c1.874-4.354,6.385-7.166,11.525-7.166
			c0.001,0,0.003,0,0.005,0c5.111,0.003,9.621,2.813,11.491,7.162c4.366,10.155,13.061,17.757,23.854,20.855
			c3.324,0.954,6.719,1.424,10.097,1.424c7.396,0,14.706-2.253,20.988-6.603l30.26-20.95v6.721
			c-0.039,53.286-43.421,96.638-96.706,96.638C202.676,304.612,159.291,261.229,159.291,207.903z M233.7,432.871h-17.781
			c-48.906,0-88.693-39.788-88.693-88.694c0-22.385,18.211-40.597,40.597-40.597h24.564v9.049h-22.432
			c-11.331,0-20.773,7.007-24.057,17.852c-3.284,10.844,0.687,21.912,10.114,28.197l90.35,60.234
			C240.429,421.587,235.799,426.649,233.7,432.871z M192.387,327.629v14.587c0,6.899-4.378,13.109-10.775,15.5l-17.279-11.519
			c-4.614-3.076-5.132-7.891-4.078-11.37s4.155-7.198,9.7-7.198H192.387z M264.53,440.4c-0.016,4.692-3.835,8.503-8.53,8.503
			c-4.701,0-8.526-3.822-8.532-8.522c0-0.003,0-0.007,0-0.01c0-0.003,0-0.006,0-0.01c0.005-4.7,3.83-8.522,8.532-8.522
			c4.695,0,8.514,3.812,8.53,8.503c0,0.01-0.001,0.019-0.001,0.029C264.53,440.381,264.53,440.39,264.53,440.4z M296.08,432.871
			h-17.781c-2.098-6.222-6.729-11.285-12.662-13.96l26.588-17.726c3.446-2.298,4.378-6.954,2.08-10.4
			c-2.297-3.446-6.954-4.377-10.4-2.08l-27.906,18.604l-60.6-40.4c7.37-5.878,11.988-14.919,11.988-24.692v-33.749
			c14.705,7.137,31.2,11.145,48.614,11.145c17.411,0,33.906-4.01,48.612-11.151v33.754c0,9.773,4.617,18.814,11.987,24.692
			L311.962,370c-3.446,2.298-4.378,6.954-2.08,10.4c1.445,2.168,3.823,3.341,6.247,3.341c1.43,0,2.875-0.408,4.153-1.261
			l35.703-23.803c9.428-6.285,13.398-17.353,10.115-28.197c-3.284-10.845-12.727-17.852-24.058-17.852h-22.431v-9.049h24.564
			c22.385,0,40.597,18.212,40.597,40.598C384.775,393.083,344.986,432.871,296.08,432.871z M319.613,342.216v-14.587h22.431
			c5.546,0,8.647,3.719,9.701,7.198c1.054,3.479,0.535,8.294-4.079,11.37l-17.278,11.519
			C323.991,355.325,319.613,349.114,319.613,342.216z"/>
	</g>
</g>
<g>
	<g>
		<path d="M207.905,176.354c-4.142,0-7.5,3.357-7.5,7.5v8.017c0,4.143,3.357,7.5,7.5,7.5c4.142,0,7.5-3.357,7.5-7.5v-8.017
			C215.405,179.711,212.046,176.354,207.905,176.354z"/>
	</g>
</g>
<g>
	<g>
		<path d="M304.098,176.354c-4.143,0-7.5,3.357-7.5,7.5v8.017c0,4.143,3.357,7.5,7.5,7.5s7.5-3.357,7.5-7.5v-8.017
			C311.598,179.711,308.241,176.354,304.098,176.354z"/>
	</g>
</g>
<g>
	<g>
		<path d="M272.033,240.483h-32.064c-4.142,0-7.5,3.357-7.5,7.5s3.357,7.5,7.5,7.5h32.064c4.143,0,7.5-3.357,7.5-7.5
			S276.176,240.483,272.033,240.483z"/>
	</g>
</g>
<g>
</g>
<g>
</g>
<g>
</g>
<g>
</g>
<g>
</g>
<g>
</g>
<g>
</g>
<g>
</g>
<g>
</g>
<g>
</g>
<g>
</g>
<g>
</g>
<g>
</g>
<g>
</g>
<g>
</g>
</svg>
