<?xml version="1.0" encoding="iso-8859-1"?>
<!-- Generator: Adobe Illustrator 19.0.0, SVG Export Plug-In . SVG Version: 6.00 Build 0)  -->
<svg version="1.1" id="Capa_1" xmlns="http://www.w3.org/2000/svg" xmlns:xlink="http://www.w3.org/1999/xlink" x="0px" y="0px"
	 viewBox="0 0 512.002 512.002" style="enable-background:new 0 0 512.002 512.002;" xml:space="preserve">
<g>
	<g>
		<path d="M276.232,241.768c-3.433-2.317-8.094-1.416-10.413,2.017c-1.965,2.908-5.726,4.715-9.816,4.715
			c-4.09,0-7.853-1.807-9.817-4.716c-2.32-3.432-6.982-4.333-10.414-2.016c-3.432,2.319-4.334,6.981-2.016,10.414
			c4.789,7.087,13.105,11.317,22.247,11.317c9.143,0,17.459-4.231,22.246-11.318C280.567,248.748,279.665,244.086,276.232,241.768z"
			/>
	</g>
</g>
<g>
	<g>
		<path d="M211.912,168.337c-4.143,0-7.5,3.357-7.5,7.5v8.017c0,4.143,3.358,7.5,7.5,7.5c4.143,0,7.5-3.357,7.5-7.5v-8.017
			C219.412,171.694,216.055,168.337,211.912,168.337z"/>
	</g>
</g>
<g>
	<g>
		<path d="M300.089,168.337c-4.143,0-7.5,3.357-7.5,7.5v8.017c0,4.143,3.357,7.5,7.5,7.5c4.143,0,7.5-3.357,7.5-7.5v-8.017
			C307.589,171.694,304.232,168.337,300.089,168.337z"/>
	</g>
</g>
<g>
	<g>
		<path d="M415.978,366.906l-84.486-24.849c-6.994-2.057-11.879-8.585-11.879-15.876v-34.477
			c25.495-17.719,42.655-45.456,47.007-76.302h4.473c14.617,0,27.155-10.861,28.543-24.728c0.778-7.771-1.764-15.529-6.974-21.286
			c-2.522-2.787-5.569-4.993-8.919-6.534v-11.581h16.548c4.143,0,7.5-3.357,7.5-7.5s-3.357-7.5-7.5-7.5h-8.747
			c-1.624-29.446-12.767-57.559-31.849-80.124v-0.553c0-7.367-3.519-14.404-9.413-18.826l-17.395-13.045
			c-3.863-2.898-8.943-3.355-13.258-1.197c-0.41,0.205-0.8,0.435-1.179,0.678c-9.969-5.176-20.497-9.074-31.427-11.627
			C285.273,4.927,279.226,0,272.032,0h-32.064c-7.193,0-13.241,4.927-14.99,11.578c-10.929,2.553-21.457,6.451-31.427,11.628
			c-0.379-0.243-0.769-0.473-1.179-0.678c-4.314-2.158-9.396-1.7-13.257,1.196L161.72,36.771
			c-5.895,4.422-9.413,11.459-9.413,18.826v0.554c-19.082,22.565-30.226,50.678-31.849,80.123h-8.747c-4.143,0-7.5,3.357-7.5,7.5
			s3.357,7.5,7.5,7.5h16.549v11.917c-8.63,4.115-14.928,12.266-15.888,21.857c-0.778,7.771,1.763,15.53,6.973,21.289
			c5.214,5.762,12.658,9.066,20.426,9.066h5.598c2.219,15.929,7.848,31.189,16.599,44.806c8.013,12.468,18.366,23.142,30.422,31.502
			v34.471c0,7.291-4.885,13.819-11.879,15.876l-84.486,24.849c-23.497,6.911-39.908,28.845-39.908,53.338v84.254
			c0,4.143,3.357,7.5,7.5,7.5s7.5-3.357,7.5-7.5v-84.254c0-17.885,11.983-33.9,29.141-38.947l19.987-5.878V504.5
			c0,4.143,3.357,7.5,7.5,7.5c4.143,0,7.5-3.357,7.5-7.5v-48.097c0-9.125,7.424-16.549,16.549-16.549h32.064
			c4.143,0,7.5-3.357,7.5-7.5s-3.357-7.5-7.5-7.5h-8.532V359.22l2.046-0.602c17.905,25.874,46.885,41.156,78.631,41.156
			c31.608,0,60.707-15.316,78.625-41.158l2.055,0.604v65.634H215.92c-4.143,0-7.5,3.357-7.5,7.5s3.357,7.5,7.5,7.5h144.289
			c9.125,0,16.549,7.424,16.549,16.549c0,0.013,0.002,0.026,0.002,0.039v48.06c0,4.143,3.357,7.5,7.5,7.5s7.5-3.357,7.5-7.5V375.419
			l19.985,5.878c17.157,5.047,29.141,21.063,29.141,38.947v84.254c0,4.143,3.357,7.5,7.5,7.5s7.5-3.357,7.5-7.5v-84.254
			C455.886,395.751,439.475,373.817,415.978,366.906z M160.323,424.853h-8.532c-6.066,0-11.734,1.725-16.549,4.703v-58.549
			l25.081-7.377V424.853z M327.628,38.532h0.001L341.28,48.77c2.137,1.603,3.413,4.155,3.413,6.826v48.097
			c0,0.284-0.231,0.516-0.517,0.516h-16.032c-0.284,0-0.516-0.231-0.516-0.516V38.532z M239.452,15.516
			c0-0.285,0.232-0.516,0.516-0.516h32.064c0.284,0,0.516,0.231,0.516,0.516v88.178c0,0.284-0.231,0.516-0.516,0.516h-32.064
			c-0.284,0-0.516-0.231-0.516-0.516V15.516z M167.306,55.597L167.306,55.597c0.001-2.671,1.277-5.224,3.414-6.826l13.651-10.238
			v65.161c0,0.284-0.231,0.516-0.516,0.516h-16.032c-0.285,0-0.517-0.231-0.517-0.516V55.597z M174.584,252.098
			c-10.003-15.563-15.29-33.618-15.29-52.212c0-4.143-3.357-7.5-7.5-7.5s-7.5,3.357-7.5,7.5v0.517h-4.524
			c-3.537,0-6.928-1.506-9.303-4.131c-2.406-2.659-3.532-6.114-3.17-9.729c0.63-6.292,6.611-11.22,13.617-11.22
			c4.143,0,7.5-3.357,7.5-7.5c0-3.323-2.162-6.136-5.155-7.121v-9.428h176.866c4.143,0,7.5-3.357,7.5-7.5s-3.357-7.5-7.5-7.5
			H135.481c1.197-19.302,6.994-37.937,16.826-54.399v21.819c0,8.556,6.961,15.516,15.517,15.516h16.032
			c8.556,0,15.516-6.96,15.516-15.516v-66.59c7.984-4.25,16.379-7.565,25.081-9.912v76.501c0,8.556,6.96,15.516,15.516,15.516
			h32.064c8.556,0,15.516-6.96,15.516-15.516v-76.5c8.702,2.347,17.097,5.662,25.081,9.912v66.589
			c0,8.556,6.96,15.516,15.516,15.516h16.032c8.556,0,15.517-6.96,15.517-15.516v-21.82c9.833,16.463,15.629,35.097,16.826,54.4
			h-24.328c-4.143,0-7.5,3.357-7.5,7.5s3.357,7.5,7.5,7.5h16.551v9.915c-2.381,1.257-4.006,3.754-4.006,6.634
			c0,4.143,3.357,7.5,7.5,7.5c3.537,0,6.928,1.506,9.303,4.13c2.406,2.659,3.532,6.114,3.17,9.729
			c-0.63,6.293-6.611,11.222-13.617,11.222h-3.384v-0.438c0-4.141-3.356-7.498-7.497-7.5c-0.001,0-0.002,0-0.003,0
			c-4.14,0-7.497,3.354-7.5,7.494c-0.023,32.449-16.456,62.508-42.889,80.272c-0.032-0.548-0.057-1.095-0.118-1.645l-3.787-34.086
			c-1.778-15.999-15.258-28.064-31.355-28.064h-37.112c-16.098,0-29.577,12.065-31.355,28.064l-3.787,34.085
			c-0.062,0.555-0.087,1.109-0.119,1.662C191.206,272.885,181.802,263.328,174.584,252.098z M285.745,296.87l-22.344,11.172
			c-4.636,2.319-10.168,2.315-14.8,0l-22.344-11.172c-6.172-3.087-9.808-9.769-9.045-16.629l3.787-34.086
			c0.933-8.392,8.004-14.721,16.447-14.721h37.112c8.443,0,15.515,6.329,16.447,14.721l3.787,34.086
			C295.554,287.1,291.918,293.783,285.745,296.87z M256,384.772c-25.439,0-48.772-11.644-63.99-31.529
			c9.325-5.613,15.377-15.862,15.377-27.062V300.48c0.138,0.067,0.272,0.139,0.41,0.205c0.202,0.097,0.408,0.176,0.615,0.253
			c2.882,3.868,6.656,7.107,11.137,9.348l22.344,11.172c4.418,2.209,9.263,3.313,14.109,3.313c4.845,0,9.691-1.104,14.108-3.313
			l22.344-11.172c4.467-2.233,8.232-5.458,11.111-9.312c0.35-0.165,0.699-0.33,1.046-0.498v25.705
			c0,11.199,6.051,21.446,15.374,27.059C304.751,373.106,281.331,384.772,256,384.772z M376.76,429.557
			c-4.815-2.979-10.484-4.705-16.551-4.705h-8.529V363.63l25.08,7.376V429.557z"/>
	</g>
</g>
<g>
	<g>
		<path d="M159.887,456.917h-0.08c-4.143,0-7.46,3.357-7.46,7.5s3.397,7.5,7.54,7.5c4.143,0,7.5-3.357,7.5-7.5
			S164.029,456.917,159.887,456.917z"/>
	</g>
</g>
<g>
	<g>
		<path d="M352.193,456.917h-0.08c-4.143,0-7.46,3.357-7.46,7.5s3.397,7.5,7.54,7.5s7.5-3.357,7.5-7.5
			S356.336,456.917,352.193,456.917z"/>
	</g>
</g>
<g>
</g>
<g>
</g>
<g>
</g>
<g>
</g>
<g>
</g>
<g>
</g>
<g>
</g>
<g>
</g>
<g>
</g>
<g>
</g>
<g>
</g>
<g>
</g>
<g>
</g>
<g>
</g>
<g>
</g>
</svg>
