<?xml version="1.0" encoding="iso-8859-1"?>
<!-- Generator: Adobe Illustrator 19.0.0, SVG Export Plug-In . SVG Version: 6.00 Build 0)  -->
<svg version="1.1" id="Capa_1" xmlns="http://www.w3.org/2000/svg" xmlns:xlink="http://www.w3.org/1999/xlink" x="0px" y="0px"
	 viewBox="0 0 512.004 512.004" style="enable-background:new 0 0 512.004 512.004;" xml:space="preserve">
<g>
	<g>
		<path d="M410.792,389.912l15.955-9.573c8.313-4.988,12.759-14.753,11.062-24.298l-42.554-239.365
			C383.236,49.067,324.672-0.002,256.003,0c-68.67,0-127.234,49.071-139.253,116.681l-42.553,239.36
			c-1.697,9.545,2.748,19.31,11.062,24.298l15.955,9.573c-22.181,7.834-37.082,28.899-37.082,52.424V504.5
			c0,4.143,3.357,7.5,7.5,7.5s7.5-3.357,7.5-7.5v-62.164c0-14.71,7.984-28.098,20.447-35.234
			c12.68,11.524,29.59,21.706,49.235,29.589c0.916,0.367,1.86,0.541,2.791,0.541c2.973,0,5.787-1.78,6.963-4.709
			c1.542-3.844-0.323-8.211-4.168-9.754c-15.158-6.082-28.437-13.57-39.036-21.944l73.646-25.992
			c15.788-5.572,26.396-20.565,26.396-37.309v-25.548c12.589,4.928,26.282,7.638,40.597,7.638s28.007-2.71,40.597-7.638v25.548
			c0,16.743,10.608,31.736,26.396,37.309l73.675,26.003c-31.358,24.909-83.838,40.052-140.668,40.052
			c-24.962,0-49.012-2.844-71.482-8.453c-4.021-1.007-8.09,1.44-9.093,5.46c-1.004,4.019,1.441,8.09,5.46,9.093
			c11.876,2.965,24.159,5.195,36.76,6.682l15.111,52.893c0.941,3.294,3.944,5.441,7.208,5.441c0.683,0,1.376-0.094,2.064-0.29
			c3.982-1.139,6.289-5.289,5.15-9.272l-13.515-47.301c7.36,0.493,14.809,0.749,22.336,0.749c7.526,0,14.982-0.271,22.343-0.774
			l-13.522,47.326c-1.139,3.983,1.168,8.134,5.15,9.272c0.688,0.196,1.382,0.29,2.064,0.29c3.264,0,6.267-2.147,7.208-5.441
			l15.126-52.946c48.692-5.806,91.648-22.481,118.056-46.511c12.462,7.137,20.444,20.524,20.444,35.233V504.5
			c0,4.143,3.357,7.5,7.5,7.5s7.5-3.357,7.5-7.5v-62.164C447.874,418.811,432.973,397.746,410.792,389.912z M256.003,304.615
			c-53.326,0-96.71-43.386-96.71-96.712V145.1c0-4.25,0.265-8.521,0.78-12.751c22.555-13.274,58.163-21.156,95.93-21.156
			c10.576,0,21.067,0.608,31.183,1.808c4.109,0.481,7.843-2.451,8.331-6.565c0.487-4.113-2.452-7.843-6.565-8.331
			c-10.698-1.268-21.784-1.911-32.948-1.911c-34.917,0-67.348,6.15-91.705,17.137c12.847-39.145,49.333-66.266,91.705-66.266
			c42.376,0,78.866,27.126,91.709,66.279c-7.679-3.451-16.233-6.452-25.597-8.964c-4.002-1.073-8.114,1.3-9.188,5.301
			c-1.074,4.001,1.3,8.114,5.301,9.188c13.003,3.488,24.596,8.131,33.704,13.483c0.515,4.23,0.78,8.501,0.78,12.75v62.803
			C352.714,261.231,309.329,304.615,256.003,304.615z M392.434,383.434l-64.446-22.746c-9.802-3.46-16.388-12.769-16.388-23.165
			V304.77c33.508-19.307,56.113-55.497,56.113-96.867V145.1c0-6.611-0.551-13.271-1.638-19.792
			c-4.338-26.023-17.813-49.746-37.943-66.8c-20.131-17.053-45.746-26.444-72.129-26.444s-51.998,9.392-72.129,26.444
			c-20.131,17.054-33.605,40.776-37.942,66.8c-1.088,6.521-1.639,13.181-1.639,19.792v62.803c0,41.37,22.606,77.56,56.113,96.867
			v32.753c0,10.396-6.586,19.704-16.389,23.164l-64.446,22.746l-26.596-15.958c-3.014-1.808-4.626-5.349-4.011-8.81l42.553-239.36
			C142.263,58.867,194.616,15,256.003,15c61.387-0.002,113.739,43.863,124.484,104.301l42.554,239.365
			c0.615,3.461-0.997,7.002-4.011,8.81L392.434,383.434z"/>
	</g>
</g>
<g>
	<g>
		<path d="M285.391,242.716c-2.909-2.949-7.659-2.981-10.606-0.071c-2.737,2.701-9.299,5.855-18.781,5.855
			s-16.044-3.154-18.781-5.855c-2.946-2.907-7.695-2.878-10.606,0.071c-2.909,2.948-2.877,7.697,0.071,10.606
			c6.459,6.373,17.419,10.178,29.316,10.178c11.897,0,22.857-3.805,29.316-10.178C288.267,250.413,288.299,245.664,285.391,242.716z
			"/>
	</g>
</g>
<g>
	<g>
		<path d="M207.906,184.371c-4.143,0-7.5,3.357-7.5,7.5v8.016c0,4.143,3.357,7.5,7.5,7.5s7.5-3.357,7.5-7.5v-8.016
			C215.406,187.729,212.049,184.371,207.906,184.371z"/>
	</g>
</g>
<g>
	<g>
		<path d="M304.1,184.371c-4.143,0-7.5,3.357-7.5,7.5v8.016c0,4.143,3.357,7.5,7.5,7.5s7.5-3.357,7.5-7.5v-8.016
			C311.6,187.729,308.242,184.371,304.1,184.371z"/>
	</g>
</g>
<g>
	<g>
		<path d="M215.922,160.322H199.89c-4.143,0-7.5,3.357-7.5,7.5s3.357,7.5,7.5,7.5h16.032c4.143,0,7.5-3.357,7.5-7.5
			S220.065,160.322,215.922,160.322z"/>
	</g>
</g>
<g>
	<g>
		<path d="M312.116,160.322h-16.032c-4.143,0-7.5,3.357-7.5,7.5s3.357,7.5,7.5,7.5h16.032c4.143,0,7.5-3.357,7.5-7.5
			S316.259,160.322,312.116,160.322z"/>
	</g>
</g>
<g>
</g>
<g>
</g>
<g>
</g>
<g>
</g>
<g>
</g>
<g>
</g>
<g>
</g>
<g>
</g>
<g>
</g>
<g>
</g>
<g>
</g>
<g>
</g>
<g>
</g>
<g>
</g>
<g>
</g>
</svg>
