<?xml version="1.0" encoding="iso-8859-1"?>
<!-- Generator: Adobe Illustrator 19.0.0, SVG Export Plug-In . SVG Version: 6.00 Build 0)  -->
<svg version="1.1" id="Capa_1" xmlns="http://www.w3.org/2000/svg" xmlns:xlink="http://www.w3.org/1999/xlink" x="0px" y="0px"
	 viewBox="0 0 512.002 512.002" style="enable-background:new 0 0 512.002 512.002;" xml:space="preserve">
<g>
	<g>
		<path d="M285.343,306.846c-2.909-2.949-7.658-2.98-10.606-0.071c-2.737,2.7-9.299,5.854-18.781,5.854s-16.043-3.154-18.781-5.854
			c-2.949-2.911-7.698-2.878-10.606,0.071c-2.909,2.949-2.877,7.697,0.071,10.606c6.459,6.372,17.418,10.177,29.316,10.177
			s22.856-3.805,29.316-10.177C288.22,314.543,288.252,309.795,285.343,306.846z"/>
	</g>
</g>
<g>
	<g>
		<path d="M410.78,446.021l-27.036-9.542v-2.487c4.909-4.316,8.017-10.635,8.017-17.67c0-6.926-3.009-13.161-7.787-17.471
			c6.251-52.328,2.196-98.393,0.407-114.156c9.086-4.505,15.349-13.876,15.349-24.687c0-4.515-1.099-8.776-3.033-12.54h29.504
			c6.102,0,11.205-3.976,12.696-9.893c1.492-5.917-1.115-11.837-6.489-14.73l-80.729-43.47v-19.568
			c0-6.771-4.366-12.527-10.425-14.641l-29.588-59.817l7.292-5.469c5.185-3.889,8.565-9.814,9.272-16.257
			c0.708-6.443-1.306-12.962-5.525-17.884l-26.15-30.509C288.258,5.551,276.189,0,263.44,0c-17.219,0-32.863,10.167-39.856,25.901
			l-53.04,119.34c-5.951,2.172-10.22,7.872-10.22,14.566v19.568l-80.73,43.47c-5.373,2.894-7.98,8.813-6.488,14.73
			s6.594,9.893,12.696,9.893h29.412c-1.934,3.764-3.033,8.025-3.033,12.54c0,10.849,6.307,20.25,15.446,24.737
			c-0.303,2.707-0.672,6.307-1.047,10.701c-0.352,4.127,2.709,7.758,6.836,8.109c0.217,0.019,0.432,0.027,0.646,0.027
			c3.854,0,7.131-2.953,7.464-6.863c0.31-3.641,0.619-6.726,0.884-9.17h2.918c4.253,30.471,20.841,57.042,44.543,74.491
			c-8.232,10.997-25.19,25.071-33.248,31.251c-1.56-0.327-3.175-0.501-4.831-0.501h-8.016c-0.444,0-0.885,0.015-1.323,0.04
			c-2.242-20.514-3.13-42.171-2.613-64.505c0.096-4.142-3.184-7.576-7.325-7.672c-0.059-0.001-0.118-0.002-0.177-0.002
			c-4.062,0-7.4,3.245-7.495,7.326c-0.568,24.584,0.519,48.401,3.201,70.862c-4.786,4.311-7.801,10.551-7.801,17.484
			c0,7.035,3.107,13.354,8.017,17.67v2.487l-27.036,9.542c-22.187,7.831-37.093,28.899-37.093,52.427v6.052
			c0,4.143,3.358,7.5,7.5,7.5c4.142,0,7.5-3.357,7.5-7.5v-6.052c0-17.18,10.885-32.564,27.085-38.282l22.044-7.78V504.5
			c0,4.143,3.358,7.5,7.5,7.5c4.142,0,7.5-3.357,7.5-7.5v-64.646h8.532c1.205,0,2.388-0.092,3.545-0.267
			c5.798,10.144,22.91,41.335,29.26,66.732c0.852,3.407,3.91,5.683,7.27,5.683c0.602,0,1.214-0.073,1.825-0.226
			c4.019-1.005,6.462-5.077,5.457-9.096c-5.993-23.974-20.283-51.658-27.922-65.459l17.781-6.276
			c7.798-2.752,14.329-7.805,18.946-14.229l24.747,12.373c-0.149,1.068-0.232,2.157-0.232,3.265c0,10.354,6.724,19.16,16.032,22.3
			V504.5c0,4.143,3.358,7.5,7.5,7.5c4.142,0,7.5-3.357,7.5-7.5v-49.846c9.308-3.139,16.032-11.946,16.032-22.3
			c0-1.108-0.083-2.197-0.232-3.265l24.747-12.373c4.617,6.424,11.147,11.477,18.946,14.229l17.781,6.276
			c-7.638,13.801-21.928,41.486-27.922,65.459c-1.005,4.019,1.438,8.091,5.457,9.096c0.61,0.152,1.222,0.226,1.825,0.226
			c3.36,0,6.418-2.275,7.27-5.683c6.341-25.363,23.461-56.581,29.261-66.732c1.156,0.175,2.34,0.267,3.544,0.267h8.532V504.5
			c0,4.143,3.358,7.5,7.5,7.5c4.142,0,7.5-3.357,7.5-7.5v-52.114l22.044,7.78c16.201,5.718,27.085,21.103,27.085,38.282v6.052
			c0,4.143,3.358,7.5,7.5,7.5c4.142,0,7.5-3.357,7.5-7.5v-6.052C447.873,474.921,432.966,453.853,410.78,446.021z M237.291,31.993
			C241.879,21.67,252.143,15,263.44,15c8.364,0,16.283,3.642,21.726,9.992l26.15,30.509c1.553,1.811,2.264,4.114,2.004,6.484
			c-0.261,2.37-1.455,4.464-3.362,5.895l-5.057,3.792l-6.038-12.207c-1.836-3.713-6.334-5.232-10.048-3.397
			c-3.713,1.837-5.234,6.335-3.397,10.048l38.668,78.174H187.381L237.291,31.993z M93.363,232.468l76.353-41.113h118.348
			c4.142,0,7.5-3.357,7.5-7.5s-3.358-7.5-7.5-7.5H175.325v-16.548c0-0.282,0.227-0.51,0.508-0.515c0.001,0,0.003,0,0.004,0
			c0.009,0,0.018-0.002,0.027-0.002h160.277c0.01,0,0.019,0.002,0.028,0.002c0.001,0,0.002,0,0.003,0
			c0.28,0.005,0.507,0.233,0.507,0.515v16.548h-16.548c-4.142,0-7.5,3.357-7.5,7.5s3.358,7.5,7.5,7.5h22.157l76.353,41.113H93.363z
			 M151.793,424.854h-8.016c-4.705,0-8.533-3.827-8.533-8.532s3.828-8.532,8.533-8.532h8.016c4.705,0,8.532,3.827,8.532,8.532
			S156.497,424.854,151.793,424.854z M200.405,393.637c0,10.396-6.586,19.704-16.389,23.164l-8.975,3.168
			c0.186-1.189,0.284-2.406,0.284-3.646c0-5.523-1.918-10.604-5.116-14.623c7.858-6.287,21.408-17.78,30.196-28.804V393.637z
			 M256.002,440.887c-4.705,0-8.532-3.827-8.532-8.532s3.828-8.532,8.532-8.532c4.704,0,8.532,3.827,8.532,8.532
			S260.707,440.887,256.002,440.887z M272.587,415.677c-4.257-4.234-10.12-6.855-16.585-6.855c-6.465,0-12.327,2.621-16.585,6.855
			l-25.166-12.583c0.754-3.051,1.154-6.221,1.154-9.458v-17.515c12.577,4.917,26.253,7.62,40.55,7.62
			c14.332,0,28.041-2.716,40.643-7.656v17.55c0,3.237,0.401,6.407,1.154,9.458L272.587,415.677z M336.679,416.322
			c0,1.24,0.098,2.458,0.284,3.646l-8.975-3.168c-9.803-3.46-16.389-12.769-16.389-23.164v-20.742
			c8.788,11.024,22.338,22.518,30.196,28.804C338.597,405.718,336.679,410.799,336.679,416.322z M322.098,361.997
			c23.671-17.45,40.235-44.002,44.484-74.448h3.003c1.679,15.661,5.137,57.944-0.022,105.281c-0.442-0.025-0.887-0.04-1.336-0.04
			h-8.016c-1.656,0-3.271,0.174-4.831,0.501C347.314,387.108,330.32,373.011,322.098,361.997z M368.228,424.854h-8.016
			c-4.705,0-8.532-3.827-8.532-8.532s3.828-8.532,8.532-8.532h8.016c4.705,0,8.533,3.827,8.533,8.532
			S372.933,424.854,368.228,424.854z M372.189,272.549h-4.531c0.001-0.173,0.007-0.344,0.007-0.517c0-4.143-3.358-7.5-7.5-7.5
			c-4.142,0-7.5,3.357-7.5,7.5c0,53.326-43.384,96.71-96.709,96.71c-53.326,0-96.71-43.384-96.71-96.71c0-4.143-3.358-7.5-7.5-7.5
			c-4.142,0-7.5,3.357-7.5,7.5c0,0.173,0.006,0.344,0.007,0.517h-4.53c-6.915,0-12.541-5.626-12.541-12.541
			c0-6.915,5.625-12.54,12.541-12.54h60.637V258.5c0,4.143,3.358,7.5,7.5,7.5c4.142,0,7.5-3.357,7.5-7.5v-11.032h81.193V258.5
			c0,4.143,3.358,7.5,7.5,7.5c4.142,0,7.5-3.357,7.5-7.5v-11.032h60.637c6.915,0,12.54,5.625,12.54,12.54
			S379.104,272.549,372.189,272.549z"/>
	</g>
</g>
<g>
</g>
<g>
</g>
<g>
</g>
<g>
</g>
<g>
</g>
<g>
</g>
<g>
</g>
<g>
</g>
<g>
</g>
<g>
</g>
<g>
</g>
<g>
</g>
<g>
</g>
<g>
</g>
<g>
</g>
</svg>
