<?xml version="1.0" encoding="iso-8859-1"?>
<!-- Generator: Adobe Illustrator 19.0.0, SVG Export Plug-In . SVG Version: 6.00 Build 0)  -->
<svg version="1.1" id="Capa_1" xmlns="http://www.w3.org/2000/svg" xmlns:xlink="http://www.w3.org/1999/xlink" x="0px" y="0px"
	 viewBox="0 0 512 512" style="enable-background:new 0 0 512 512;" xml:space="preserve">
<g>
	<g>
		<path d="M207.904,168.339c-4.142,0-7.5,3.358-7.5,7.5v8.016c0,4.142,3.358,7.5,7.5,7.5c4.142,0,7.5-3.358,7.5-7.5v-8.016
			C215.404,171.697,212.046,168.339,207.904,168.339z"/>
	</g>
</g>
<g>
	<g>
		<path d="M285.388,226.685c-2.91-2.949-7.659-2.98-10.606-0.071c-2.737,2.701-9.298,5.855-18.781,5.855
			c-9.483,0-16.043-3.154-18.781-5.855c-2.95-2.91-7.698-2.877-10.606,0.071c-2.909,2.948-2.877,7.697,0.071,10.606
			c6.459,6.373,17.418,10.177,29.316,10.177c11.898,0,22.857-3.805,29.316-10.177C288.266,234.382,288.297,229.633,285.388,226.685z
			"/>
	</g>
</g>
<g>
	<g>
		<path d="M415.979,366.908l-84.486-24.849c-6.994-2.057-11.879-8.585-11.879-15.876v-34.455c4.297-2.982,8.406-6.281,12.294-9.885
			c18.482-17.127,30.507-39.721,34.409-64.334c8.308,2.422,16.531,4.361,24.655,5.795c0.434,0.077,0.87,0.114,1.303,0.114
			c1.701,0,3.366-0.579,4.709-1.663c1.687-1.361,2.702-3.384,2.786-5.549l2.49-64.746c1.538-39.993-12.898-77.901-40.65-106.74
			C333.859,15.882,296.534,0,256.511,0c-40.22,0-77.671,16.015-105.456,45.094c-27.785,29.079-42.079,67.221-40.249,107.398
			l1.513,33.218c-0.573,7.548,1.96,15.032,7.022,20.626c5.213,5.762,12.658,9.067,20.425,9.067h5.598
			c4.399,31.522,22.003,58.87,47.023,76.264v34.517c0,7.291-4.885,13.819-11.879,15.876l-84.486,24.849
			c-23.498,6.912-39.909,28.845-39.909,53.338V504.5c0,4.142,3.358,7.5,7.5,7.5c4.142,0,7.5-3.358,7.5-7.5v-84.254
			c0-5.486,1.132-10.794,3.191-15.666l45.566,39.871c5.331,4.665,8.389,11.402,8.389,18.486V504.5c0,4.142,3.358,7.5,7.5,7.5
			c4.142,0,7.5-3.358,7.5-7.5v-41.563c0-11.41-4.925-22.262-13.511-29.775l-47.083-41.198c4.76-4.908,10.763-8.657,17.59-10.665
			l71.468-21.02c10.634,37.156,45.139,63.544,84.277,63.544c39.225,0,73.651-26.355,84.281-63.543l71.464,21.019
			c6.827,2.008,12.83,5.757,17.59,10.665l-47.082,41.198c-8.587,7.513-13.512,18.366-13.512,29.775V504.5c0,4.142,3.358,7.5,7.5,7.5
			c4.142,0,7.5-3.358,7.5-7.5v-41.563c0-7.084,3.058-13.822,8.389-18.487l45.566-39.87c2.059,4.872,3.191,10.18,3.191,15.666V504.5
			c0,4.142,3.358,7.5,7.5,7.5c4.142,0,7.5-3.358,7.5-7.5v-84.254C455.888,395.753,439.477,373.82,415.979,366.908z M125.793,151.808
			c-1.644-36.044,11.18-70.263,36.107-96.351c6.348-6.644,13.262-12.524,20.633-17.604
			c51.26,60.142,102.353,104.723,151.932,132.544c1.161,0.651,2.42,0.961,3.663,0.961c2.625,0,5.172-1.38,6.547-3.832
			c2.027-3.612,0.742-8.184-2.871-10.21c-47.523-26.668-96.703-69.491-146.27-127.338C214.072,20.188,234.843,15,256.512,15
			c35.907,0,69.393,14.249,94.29,40.122c24.897,25.874,37.849,59.883,36.469,95.763l-1.026,26.677
			c-4.974-1.728-9.987-3.635-14.994-5.748c-3.816-1.611-8.216,0.178-9.826,3.993c-1.611,3.816,0.177,8.216,3.993,9.826
			c6.754,2.851,13.534,5.373,20.226,7.559l-0.525,13.664c-36.068-7.924-74.292-26.146-113.768-54.25
			c-30.474-21.695-62.187-49.837-91.71-81.384c-2.831-3.023-7.576-3.181-10.601-0.351c-3.024,2.831-3.181,7.577-0.351,10.601
			c3.005,3.211,6.022,6.363,9.045,9.482c-7.959,9.63-17.409,26.585-17.409,52.819v8.016c0,4.705-3.828,8.532-8.532,8.532h-10.88
			c-5.264,0-10.255,1.415-14.556,3.865L125.793,151.808z M159.292,199.887c0-4.142-3.358-7.5-7.5-7.5c-4.142,0-7.5,3.358-7.5,7.5
			v0.516h-4.524c-3.537,0-6.927-1.505-9.303-4.131c-2.407-2.66-3.533-6.115-3.17-9.73c0.63-6.292,6.611-11.22,13.617-11.22h10.88
			c12.976,0,23.532-10.557,23.532-23.532v-8.016c0-20.765,6.889-34.221,13.023-42.089c24.416,24.174,49.326,45.357,74.304,63.14
			c30.437,21.669,60.295,37.728,89.187,48.003c-2.969,22.2-13.542,42.646-30.125,58.013c-17.923,16.608-41.26,25.755-65.712,25.755
			C202.675,296.597,159.292,253.213,159.292,199.887z M256.001,408.823c-32.504,0-61.151-21.95-69.906-52.833
			c12.6-4.346,21.293-16.388,21.293-29.806V300.45c14.705,7.137,31.199,11.146,48.613,11.146c17.037,0,33.602-3.85,48.613-11.112
			v25.698c0,13.42,8.694,25.462,21.295,29.807C317.157,386.899,288.577,408.823,256.001,408.823z"/>
	</g>
</g>
<g>
	<g>
		<path d="M215.92,144.291h-16.032c-4.142,0-7.5,3.358-7.5,7.5c0,4.142,3.358,7.5,7.5,7.5h16.032c4.142,0,7.5-3.358,7.5-7.5
			C223.42,147.649,220.063,144.291,215.92,144.291z"/>
	</g>
</g>
<g>
	<g>
		<path d="M256.001,448.903c-30.656,0-55.597,24.94-55.597,55.597c0,4.142,3.358,7.5,7.5,7.5c4.142,0,7.5-3.358,7.5-7.5
			c0-22.385,18.211-40.597,40.597-40.597s40.597,18.211,40.597,40.597c0,4.142,3.358,7.5,7.5,7.5c4.142,0,7.5-3.358,7.5-7.5
			C311.598,473.844,286.657,448.903,256.001,448.903z"/>
	</g>
</g>
<g>
</g>
<g>
</g>
<g>
</g>
<g>
</g>
<g>
</g>
<g>
</g>
<g>
</g>
<g>
</g>
<g>
</g>
<g>
</g>
<g>
</g>
<g>
</g>
<g>
</g>
<g>
</g>
<g>
</g>
</svg>
