<?xml version="1.0" encoding="iso-8859-1"?>
<!-- Generator: Adobe Illustrator 19.0.0, SVG Export Plug-In . SVG Version: 6.00 Build 0)  -->
<svg version="1.1" id="Capa_1" xmlns="http://www.w3.org/2000/svg" xmlns:xlink="http://www.w3.org/1999/xlink" x="0px" y="0px"
	 viewBox="0 0 512 512" style="enable-background:new 0 0 512 512;" xml:space="preserve">
<g>
	<g>
		<path d="M276.232,273.835c-3.433-2.319-8.094-1.418-10.414,2.015c-1.965,2.908-5.727,4.715-9.817,4.715
			c-4.091,0-7.853-1.807-9.818-4.715c-2.318-3.431-6.98-4.334-10.414-2.015c-3.432,2.318-4.334,6.98-2.015,10.413
			c4.789,7.086,13.105,11.316,22.247,11.316c9.142,0,17.458-4.23,22.246-11.316C280.566,280.815,279.664,276.153,276.232,273.835z"
			/>
	</g>
</g>
<g>
	<g>
		<path d="M415.979,389.838l-42.236-12.423c-4.041-14.406-14.232-26.059-30.081-34.25v-19.029c0-6.433-1.157-12.769-3.44-18.878
			c14.039-16.171,23.353-36.219,26.396-57.791h4.473c14.618,0,27.155-10.861,28.543-24.728c0.778-7.771-1.764-15.53-6.974-21.288
			c-3.2-3.536-7.242-6.141-11.682-7.63l4.015-21.795c6.027-32.719-2.725-66.147-24.013-91.715
			c-17.234-20.699-41.026-34.249-67.116-38.659c1.115-3.236,1.701-6.644,1.701-10.104C295.565,14.152,281.413,0,264.017,0h-16.032
			c-17.396,0-31.548,14.152-31.548,31.549c0,3.295,0.532,6.543,1.545,9.639c-26.781,3.784-51.423,17.177-69.244,38.033
			c-21.255,24.874-30.518,57.675-25.416,89.992l4.172,26.423c-8.236,4.224-14.194,12.171-15.126,21.478
			c-0.778,7.771,1.764,15.53,6.974,21.288c5.213,5.762,12.658,9.066,20.425,9.066h5.598c2.219,15.929,7.847,31.189,16.598,44.806
			c2.96,4.605,6.246,8.96,9.81,13.052c-1.804,4.844-2.901,9.827-3.273,14.897c-9.057,10.094-14.455,21.628-15.83,33.763
			c-7.149,6.664-11.976,14.508-14.448,23.44l-42.2,12.412c-23.498,6.91-39.909,28.844-39.909,53.337V504.5
			c0,4.143,3.358,7.5,7.5,7.5c4.142,0,7.5-3.357,7.5-7.5v-61.325c0-17.885,11.983-33.9,29.142-38.946l36.037-10.6
			C137.021,459.023,190.437,512,256.001,512s118.979-52.977,119.708-118.371l36.037,10.6c17.158,5.046,29.142,21.062,29.142,38.946
			V504.5c0,4.143,3.358,7.5,7.5,7.5c4.142,0,7.5-3.357,7.5-7.5v-61.325C455.888,418.682,439.477,396.748,415.979,389.838z
			 M247.985,15h16.032c9.125,0,16.548,7.424,16.548,16.549c0,3.018-0.867,5.977-2.479,8.573c-0.983-0.026-1.968-0.041-2.954-0.041
			h-41.241c-1.596-2.586-2.454-5.53-2.454-8.532C231.437,22.424,238.86,15,247.985,15z M160.141,88.965
			c18.4-21.533,45.199-33.884,73.523-33.884h41.466c28.802,0,55.892,12.694,74.321,34.829c18.429,22.135,26.006,51.074,20.789,79.4
			l-4.251,23.076h-3.9c-2.459,0-4.718-1.01-6.358-2.842c-1.64-1.833-2.394-4.188-2.123-6.633l1.093-9.835
			c1.493-13.435-2.822-26.916-11.836-36.987c-9.014-10.071-21.937-15.848-35.453-15.848h-3.319c-4.142,0-7.5,3.357-7.5,7.5
			c0,4.143,3.358,7.5,7.5,7.5h3.319c9.255,0,18.104,3.955,24.276,10.852c6.173,6.896,9.127,16.128,8.105,25.327l-1.093,9.835
			c-0.423,3.811,0.102,7.627,1.465,11.131H171.834c1.363-3.504,1.888-7.32,1.465-11.132l-1.093-9.834
			c-1.022-9.199,1.932-18.431,8.105-25.327c6.172-6.896,15.021-10.852,24.276-10.852h67.445c4.142,0,7.5-3.357,7.5-7.5
			s-3.358-7.5-7.5-7.5h-67.445c-13.517,0-26.439,5.776-35.453,15.848c-9.015,10.071-13.329,23.553-11.836,36.988l1.093,9.834
			c0.271,2.444-0.482,4.8-2.123,6.633c-1.64,1.832-3.898,2.842-6.358,2.842h-7.743l-4.029-25.514
			C133.722,138.896,141.74,110.499,160.141,88.965z M300.09,223.419c4.142,0,7.5-3.357,7.5-7.5v-8.016
			c0-0.174-0.014-0.345-0.026-0.517h13.082v16.549c0,4.705-3.828,8.532-8.532,8.532h-16.032c-9.125,0-16.548-7.424-16.548-16.549
			v-8.532h13.083c-0.012,0.171-0.026,0.342-0.026,0.517v8.016C292.59,220.062,295.948,223.419,300.09,223.419z M211.912,223.419
			c4.142,0,7.5-3.357,7.5-7.5v-8.016c0-0.174-0.014-0.345-0.026-0.517h13.083v8.532c0,9.125-7.423,16.549-16.548,16.549h-16.032
			c-4.705,0-8.532-3.827-8.532-8.532v-16.549h13.082c-0.012,0.171-0.026,0.342-0.026,0.517v8.016
			C204.412,220.062,207.769,223.419,211.912,223.419z M159.292,231.951c0-4.143-3.358-7.5-7.5-7.5c-4.142,0-7.5,3.357-7.5,7.5v0.517
			h-4.524c-3.537,0-6.927-1.506-9.302-4.131c-2.407-2.659-3.533-6.115-3.171-9.729c0.63-6.292,6.612-11.221,13.618-11.221h35.443
			v16.549c0,12.976,10.557,23.532,23.532,23.532h16.032c17.396,0,31.548-14.152,31.548-31.549v-8.532h17.064v8.532
			c0,17.396,14.152,31.549,31.548,31.549h16.032c12.976,0,23.532-10.557,23.532-23.532v-16.549h36.576
			c0.007,0,0.014,0.001,0.022,0.001c0.002,0,0.003,0,0.005,0c3.532,0.004,6.916,1.509,9.288,4.129
			c2.407,2.66,3.533,6.115,3.171,9.729c-0.629,6.293-6.611,11.222-13.617,11.222h-3.384v-0.438c0-4.141-3.356-7.498-7.497-7.5
			c-0.001,0-0.002,0-0.003,0c-4.14,0-7.497,3.354-7.5,7.494c-0.023,32.45-16.456,62.509-42.889,80.272
			c-0.032-0.548-0.057-1.095-0.118-1.644l-3.788-34.087c-1.777-15.999-15.257-28.064-31.355-28.064h-37.112
			c-16.098,0-29.578,12.065-31.355,28.064l-3.788,34.087c-0.062,0.555-0.087,1.108-0.119,1.661
			c-10.979-7.362-20.383-16.917-27.601-28.148C164.579,268.6,159.292,250.545,159.292,231.951z M328.662,324.137
			c0,9.205-3.29,17.861-9.048,25.396V323.77c2.918-2.028,5.727-4.187,8.42-6.468C328.443,319.56,328.662,321.841,328.662,324.137z
			 M219.548,342.353l22.344,11.172c4.417,2.209,9.263,3.313,14.108,3.313c4.845,0,9.691-1.104,14.109-3.313l22.344-11.172
			c4.467-2.234,8.232-5.458,11.111-9.311c0.351-0.165,0.701-0.331,1.049-0.5v30.666c-12.885,8.417-29.935,13.55-48.613,13.55
			c-18.678,0-35.727-5.133-48.613-13.55v-30.661c0.088,0.043,0.668,0.34,1.107,0.564
			C211.368,336.932,215.109,340.133,219.548,342.353z M217.209,312.308l3.788-34.087c0.933-8.393,8.003-14.721,16.447-14.721h37.112
			c8.444,0,15.515,6.328,16.447,14.721l3.788,34.087c0.762,6.859-2.874,13.542-9.046,16.629l-22.343,11.172
			c-4.635,2.316-10.168,2.316-14.802,0l-22.343-11.172C220.084,325.85,216.448,319.167,217.209,312.308z M192.388,323.778v25.755
			c-5.759-7.535-9.048-16.191-9.048-25.396c0-2.29,0.214-4.564,0.621-6.815C186.664,319.605,189.476,321.759,192.388,323.778z
			 M256.001,497c-57.746,0-104.726-46.979-104.726-104.726c0-5.988,1.119-11.355,3.376-16.176c2.683,8.96,7.639,17.448,14.72,25.071
			c1.478,1.591,3.484,2.396,5.497,2.396c1.827,0,3.659-0.664,5.103-2.005c3.035-2.819,3.209-7.565,0.39-10.6
			c-8.54-9.192-13.054-19.826-13.054-30.75c0-6.146,1.432-12.191,4.197-17.94c4.072,11.451,11.996,21.89,23.314,30.378
			c16.43,12.323,38.159,19.109,61.183,19.109s44.752-6.786,61.183-19.109c4.299-3.224,8.108-6.729,11.407-10.463
			c-1.491,30.313-37.064,54.654-80.606,54.654c-14.881,0-29.435-2.897-42.086-8.38c-3.802-1.646-8.216,0.1-9.864,3.899
			c-1.647,3.801,0.099,8.217,3.9,9.864c14.518,6.291,31.134,9.616,48.05,9.616c25.126,0,48.835-7.18,66.762-20.218
			c18.527-13.474,28.779-31.587,28.909-51.037c11.459,7.917,17.071,18.357,17.071,31.69C360.727,450.021,313.747,497,256.001,497z"
			/>
	</g>
</g>
<g>
	<g>
		<path d="M223.937,168.339h-24.048c-4.142,0-7.5,3.357-7.5,7.5s3.358,7.5,7.5,7.5h24.048c4.142,0,7.5-3.357,7.5-7.5
			S228.079,168.339,223.937,168.339z"/>
	</g>
</g>
<g>
	<g>
		<path d="M312.113,168.339h-24.048c-4.142,0-7.5,3.357-7.5,7.5s3.358,7.5,7.5,7.5h24.048c4.142,0,7.5-3.357,7.5-7.5
			S316.255,168.339,312.113,168.339z"/>
	</g>
</g>
<g>
</g>
<g>
</g>
<g>
</g>
<g>
</g>
<g>
</g>
<g>
</g>
<g>
</g>
<g>
</g>
<g>
</g>
<g>
</g>
<g>
</g>
<g>
</g>
<g>
</g>
<g>
</g>
<g>
</g>
</svg>
