<?xml version="1.0" encoding="iso-8859-1"?>
<!-- Generator: Adobe Illustrator 19.0.0, SVG Export Plug-In . SVG Version: 6.00 Build 0)  -->
<svg version="1.1" id="Capa_1" xmlns="http://www.w3.org/2000/svg" xmlns:xlink="http://www.w3.org/1999/xlink" x="0px" y="0px"
	 viewBox="0 0 512 512" style="enable-background:new 0 0 512 512;" xml:space="preserve">
<g>
	<g>
		<path d="M211.912,152.306c-4.143,0-7.5,3.357-7.5,7.5v8.016c0,4.143,3.358,7.5,7.5,7.5c4.143,0,7.5-3.357,7.5-7.5v-8.016
			C219.412,155.663,216.055,152.306,211.912,152.306z"/>
	</g>
</g>
<g>
	<g>
		<path d="M300.089,152.306c-4.143,0-7.5,3.357-7.5,7.5v8.016c0,4.143,3.357,7.5,7.5,7.5c4.143,0,7.5-3.357,7.5-7.5v-8.016
			C307.589,155.663,304.232,152.306,300.089,152.306z"/>
	</g>
</g>
<g>
	<g>
		<path d="M272.033,216.436h-32.064c-4.143,0-7.5,3.357-7.5,7.5s3.357,7.5,7.5,7.5h32.064c4.143,0,7.5-3.357,7.5-7.5
			S276.175,216.436,272.033,216.436z"/>
	</g>
</g>
<g>
	<g>
		<path d="M432.354,288.581h-2.672c-10.228,0-20.366,3.38-28.548,9.516l-10.688,8.017c-5.603,4.201-12.545,6.516-19.549,6.516
			h-13.684c-5.878,0-11.169,3.234-13.807,8.44c-0.241,0.475-1.61,3.13-4.14,7.245l-7.775-2.287
			c-6.994-2.058-11.879-8.586-11.879-15.876v-34.453c8.21-5.69,15.636-12.472,22.1-20.215h12.931c11.55,0,21.313-8.27,23.213-19.663
			l4.893-29.356c9.819-2.831,17.024-11.892,17.024-22.61v-40.08c0-10.412-6.8-19.26-16.189-22.353C380.279,53.909,324.318,0,256,0
			S131.722,53.909,128.415,121.422c-9.39,3.093-16.189,11.941-16.189,22.353v40.08c0,10.718,7.205,19.779,17.025,22.61l4.893,29.356
			c1.899,11.394,11.662,19.663,23.212,19.663h12.935c6.459,7.736,13.88,14.528,22.096,20.221v34.447
			c0,7.29-4.885,13.818-11.879,15.876l-7.775,2.287c-2.529-4.114-3.898-6.769-4.139-7.244c-2.639-5.207-7.93-8.441-13.808-8.441
			h-13.684c-7.004,0-13.946-2.314-19.549-6.516l-10.688-8.017c-8.182-6.136-18.32-9.516-28.548-9.516h-2.672
			c-30.656,0-55.597,24.94-55.597,55.597v56.112c0,19.251,13.824,35.327,32.064,38.842V504.5c0,4.143,3.357,7.5,7.5,7.5
			s7.5-3.357,7.5-7.5v-64.646h49.129V504.5c0,4.143,3.357,7.5,7.5,7.5s7.5-3.357,7.5-7.5v-88.178c0-4.143-3.357-7.5-7.5-7.5
			s-7.5,3.357-7.5,7.5v8.532H63.613c-13.545,0-24.564-11.02-24.564-24.564v-56.112c0-22.385,18.212-40.597,40.597-40.597h2.672
			c7.003,0,13.945,2.313,19.548,6.516l10.688,8.017c2.408,1.806,4.989,3.366,7.688,4.679v61.466c0,4.143,3.357,7.5,7.5,7.5
			s7.5-3.357,7.5-7.5v-57c1.941,0.244,3.899,0.371,5.86,0.371h13.684c0.074,0,0.323,0.016,0.428,0.222
			c1.294,2.555,32.461,62.844,98.152,87.479c1.699,0.637,3.568,0.637,5.268,0c65.691-24.635,96.858-84.924,98.153-87.479
			c0.104-0.205,0.353-0.221,0.427-0.221h13.684c1.961,0,3.919-0.127,5.86-0.371V504.5c0,4.143,3.357,7.5,7.5,7.5s7.5-3.357,7.5-7.5
			v-64.646h49.129V504.5c0,4.143,3.357,7.5,7.5,7.5s7.5-3.357,7.5-7.5v-65.368c18.24-3.516,32.064-19.591,32.064-38.842v-56.112
			C487.951,313.521,463.011,288.581,432.354,288.581z M307.799,265.539l1.828-10.056h11.379
			C316.903,259.216,312.482,262.57,307.799,265.539z M335.266,239.276c-0.286,0.409-0.588,0.804-0.88,1.208h-22.031l6.018-33.097
			h31.444C346.981,218.748,342.094,229.529,335.266,239.276z M363.061,233.353c-0.689,4.131-4.229,7.13-8.416,7.13h-2.334
			c6.085-10.316,10.411-21.466,12.901-33.097h2.177L363.061,233.353z M384.773,143.774v40.08h0.001c0,4.705-3.827,8.532-8.532,8.532
			h-8.854c0.213-2.827,0.321-5.672,0.321-8.532v-48.612h8.532C380.946,135.242,384.773,139.069,384.773,143.774z M231.436,17.703
			C239.347,15.938,247.566,15,256,15c8.435,0,16.654,0.938,24.564,2.703v61.94c0,4.143,3.357,7.5,7.5,7.5s7.5-3.357,7.5-7.5V22.172
			c40.476,15.219,69.952,53.079,72.922,98.07h-72.922v-8.534c0-4.143-3.357-7.5-7.5-7.5s-7.5,3.357-7.5,7.5v8.534h-49.129V17.703z
			 M216.437,22.172v98.07h-72.922C146.484,75.251,175.961,37.391,216.437,22.172z M135.758,192.386
			c-4.705,0-8.532-3.827-8.532-8.532v-40.08h0.001c0-4.705,3.827-8.532,8.532-8.532h8.532v0.517c0,4.143,3.357,7.5,7.5,7.5
			s7.5-3.357,7.5-7.5v-0.517h193.42v48.612c0,2.864-0.139,5.708-0.385,8.532H159.674c-0.244-2.818-0.383-5.661-0.383-8.532v-16.031
			c0-4.143-3.357-7.5-7.5-7.5s-7.5,3.357-7.5,7.5v16.031c0,2.859,0.108,5.705,0.321,8.532H135.758z M214.891,240.484l-6.017-33.097
			h94.253l-6.018,33.097H214.891z M294.383,255.484l-2.09,11.493c-1.432,7.873-8.279,13.588-16.281,13.588H235.99
			c-8.003-0.001-14.85-5.715-16.282-13.588l-2.09-11.493H294.383z M157.357,240.484c-4.188-0.001-7.728-3-8.417-7.13l-4.328-25.967
			h2.178c2.491,11.629,6.822,22.781,12.906,33.097H157.357z M177.482,240.483c-7.118-9.869-12.34-21.079-15.318-33.097h31.463
			l6.018,33.097H177.482z M190.915,255.483h11.458v0l1.836,10.097C199.454,262.581,195.016,259.195,190.915,255.483z M256,400.269
			c-36.342-14.416-60.813-40.604-74.418-58.922l3.158-0.929c13.334-3.922,22.646-16.368,22.646-30.267v-25.695
			c2.374,1.147,4.791,2.217,7.255,3.2c0.248,0.099,0.497,0.18,0.748,0.251c5.565,4.798,12.792,7.657,20.6,7.657h40.021
			c7.776,0,14.975-2.835,20.531-7.598c2.746-1.07,5.436-2.246,8.071-3.519v25.703c0,13.898,9.313,26.345,22.646,30.267l3.158,0.929
			C316.813,359.665,292.341,385.852,256,400.269z M472.951,400.29c0,13.545-11.02,24.564-24.564,24.564h-56.629V322.792
			c2.699-1.313,5.281-2.873,7.688-4.679l10.688-8.017c5.603-4.202,12.545-6.516,19.548-6.516h2.672
			c22.385,0,40.597,18.212,40.597,40.597V400.29z"/>
	</g>
</g>
<g>
	<g>
		<path d="M256,432.871c-39.496,0-71.629,32.133-71.629,71.629c0,4.143,3.357,7.5,7.5,7.5s7.5-3.357,7.5-7.5
			c0-31.226,25.403-56.629,56.629-56.629s56.629,25.403,56.629,56.629c0,4.143,3.357,7.5,7.5,7.5s7.5-3.357,7.5-7.5
			C327.63,465.004,295.497,432.871,256,432.871z"/>
	</g>
</g>
<g>
</g>
<g>
</g>
<g>
</g>
<g>
</g>
<g>
</g>
<g>
</g>
<g>
</g>
<g>
</g>
<g>
</g>
<g>
</g>
<g>
</g>
<g>
</g>
<g>
</g>
<g>
</g>
<g>
</g>
</svg>
