<?xml version="1.0" encoding="iso-8859-1"?>
<!-- Generator: Adobe Illustrator 19.0.0, SVG Export Plug-In . SVG Version: 6.00 Build 0)  -->
<svg version="1.1" id="Capa_1" xmlns="http://www.w3.org/2000/svg" xmlns:xlink="http://www.w3.org/1999/xlink" x="0px" y="0px"
	 viewBox="0 0 512 512" style="enable-background:new 0 0 512 512;" xml:space="preserve">
<g>
	<g>
		<path d="M207.904,177.052c-4.143,0-7.5,3.358-7.5,7.5v8.016c0,4.142,3.357,7.5,7.5,7.5s7.5-3.358,7.5-7.5v-8.016
			C215.404,180.41,212.047,177.052,207.904,177.052z"/>
	</g>
</g>
<g>
	<g>
		<path d="M304.098,177.052c-4.143,0-7.5,3.358-7.5,7.5v8.016c0,4.142,3.357,7.5,7.5,7.5s7.5-3.358,7.5-7.5v-8.016
			C311.598,180.41,308.24,177.052,304.098,177.052z"/>
	</g>
</g>
<g>
	<g>
		<path d="M410.779,389.909l-18.79-6.632c4.98-6.948,7.786-15.438,7.786-24.256c0-9.657-3.355-19.025-9.447-26.378
			c-0.845-1.02-0.845-2.338,0-3.357c6.092-7.353,9.447-16.72,9.447-26.377c0-9.307-3.149-18.412-8.869-25.639
			c-0.554-0.701-0.554-1.757,0-2.458c5.72-7.227,8.869-16.332,8.869-25.638c0-11.691-4.782-22.474-12.804-30.051
			c7.602-4.839,12.681-13.297,12.789-22.932c0.004-0.104,0.016-0.206,0.016-0.311v-52.105C399.775,64.497,335.278,0,256.001,0
			S112.227,64.497,112.227,143.774v51.797c-0.001,0.103-0.008,0.205-0.008,0.308c0,9.768,5.116,18.359,12.805,23.25
			c-8.018,7.577-12.798,18.356-12.798,30.044c0,9.306,3.149,18.411,8.868,25.637c0.555,0.701,0.555,1.758,0.001,2.458
			c-5.72,7.227-8.869,16.333-8.869,25.639c0,9.657,3.355,19.025,9.447,26.377c0.845,1.02,0.845,2.338,0,3.357
			c-6.092,7.354-9.447,16.722-9.447,26.379c0,8.818,2.806,17.308,7.786,24.256l-18.79,6.632
			c-22.187,7.83-37.093,28.899-37.093,52.427V504.5c0,4.142,3.357,7.5,7.5,7.5s7.5-3.358,7.5-7.5v-62.165
			c0-17.18,10.885-32.564,27.085-38.282l32.546-11.487c5.292,25.567,18.912,48.856,38.809,66.121
			c21.749,18.872,49.603,29.264,78.431,29.264c28.994,0,56.97-10.499,78.773-29.563c19.727-17.248,33.207-40.405,38.468-65.822
			l32.545,11.486c16.2,5.718,27.085,21.102,27.085,38.282V504.5c0,4.142,3.357,7.5,7.5,7.5s7.5-3.358,7.5-7.5v-62.165
			C447.872,418.808,432.966,397.739,410.779,389.909z M135.119,377.945c-4.987-4.856-7.892-11.708-7.892-18.924
			c0-6.171,2.13-12.141,5.998-16.809c5.486-6.623,5.486-15.874,0-22.497c-3.868-4.668-5.998-10.637-5.998-16.807
			c0-6.028,1.947-11.675,5.631-16.331c4.832-6.105,4.832-14.969,0-21.075c-3.684-4.655-5.631-10.301-5.631-16.329
			c0-10.599,6.066-20.006,15.455-23.965c1.003-0.423,1.861-1.042,2.559-1.789h0.125c2.115,15.151,7.276,29.339,14.849,41.92
			c0.002,0.031,0.001,0.061,0.003,0.091c0.069,0.793,0.104,1.603,0.104,2.406c0,6.027-1.947,11.674-5.63,16.329
			c-4.833,6.105-4.833,14.969-0.001,21.076c3.684,4.655,5.631,10.302,5.631,16.331c0,6.171-2.13,12.14-5.997,16.808
			c-5.486,6.623-5.486,15.874,0,22.497c2.106,2.542,3.703,5.478,4.718,8.625L135.119,377.945z M324.9,447.097
			c-19.068,16.672-43.537,25.854-68.899,25.854c-25.217,0-49.579-9.089-68.6-25.593c-17.929-15.558-30.02-36.699-34.335-59.841
			l24.021-8.478c2.39,17.65,10.596,33.925,23.575,46.466c14.926,14.422,34.578,22.365,55.339,22.365
			c13.579,0,26.989-3.48,38.779-10.063c3.617-2.02,4.911-6.588,2.892-10.205c-2.019-3.617-6.587-4.911-10.204-2.892
			c-9.561,5.338-20.441,8.16-31.467,8.16c-33.884,0-61.584-25.693-64.407-59.06c14.349-6.231,23.811-20.477,23.811-36.287v-25.545
			c12.587,4.926,26.277,7.635,40.589,7.635c14.317,0,28.013-2.711,40.604-7.641v25.551c0,15.807,9.457,30.05,23.801,36.283
			c-1.005,11.769-5.173,22.952-12.174,32.529c-2.444,3.344-1.716,8.036,1.628,10.481c1.335,0.976,2.885,1.446,4.421,1.446
			c2.312,0,4.592-1.065,6.061-3.074c7.845-10.731,12.804-23.096,14.575-36.15l24.039,8.484
			C354.656,410.532,342.678,431.553,324.9,447.097z M166.456,295.934c-0.555-0.701-0.555-1.757,0.001-2.459
			c2.672-3.377,4.775-7.168,6.266-11.194c7.947,8.888,17.288,16.505,27.682,22.494v32.749c-0.001,10.395-6.587,19.704-16.389,23.164
			l-10.834,3.824c-1.603-4.807-4.068-9.3-7.304-13.205c-0.845-1.02-0.845-2.338,0-3.357c6.092-7.352,9.446-16.72,9.446-26.377
			C175.324,312.266,172.175,303.161,166.456,295.934z M346.124,347.95c0.845,1.02,0.845,2.338,0,3.357
			c-3.236,3.905-5.701,8.398-7.304,13.205l-10.834-3.824c-9.803-3.46-16.389-12.769-16.389-23.165v-32.758
			c10.393-5.99,19.732-13.608,27.678-22.497c1.491,4.031,3.596,7.826,6.271,11.208c0.555,0.701,0.555,1.757,0.001,2.458
			c-5.72,7.227-8.869,16.333-8.869,25.639C336.678,331.231,340.032,340.598,346.124,347.95z M378.777,342.214
			c3.868,4.668,5.998,10.638,5.998,16.809c0,7.216-2.906,14.068-7.894,18.924l-23.923-8.446c1.015-3.146,2.612-6.083,4.718-8.625
			c5.486-6.623,5.486-15.874,0-22.497c-3.867-4.667-5.997-10.636-5.997-16.807c0-6.028,1.947-11.675,5.632-16.331
			c4.831-6.106,4.831-14.97-0.001-21.074c-3.684-4.655-5.631-10.302-5.631-16.33c0-0.803,0.035-1.613,0.104-2.406
			c0.003-0.04,0.001-0.08,0.004-0.12c7.564-12.574,12.719-26.752,14.833-41.892h0.141c0.698,0.747,1.556,1.366,2.559,1.789
			c9.389,3.959,15.455,13.366,15.455,23.965c0,6.028-1.947,11.674-5.632,16.33c-4.831,6.106-4.831,14.969,0.001,21.075
			c3.684,4.655,5.631,10.302,5.631,16.331c0,6.17-2.13,12.139-5.998,16.808C373.291,326.34,373.291,335.591,378.777,342.214z
			 M384.775,171.376c-3.766-1.937-8.03-3.037-12.549-3.037c0.002,0-3.437,0-3.902-0.002c-0.035,0-0.07-0.001-0.105-0.001
			c-7.251,0-14.683-1.029-22.089-3.059c-3.997-1.093-8.121,1.256-9.216,5.251c-1.095,3.995,1.256,8.121,5.251,9.216
			c8.697,2.384,17.463,3.592,26.054,3.592v-0.028c0.944,0.031,2.211,0.031,4.008,0.031c6.915,0,12.541,5.625,12.541,12.54
			c0,6.915-5.626,12.541-12.541,12.541h-4.53c0.001-0.172,0.007-0.344,0.007-0.516c0-4.142-3.357-7.5-7.5-7.5s-7.5,3.358-7.5,7.5
			c0,53.326-43.384,96.709-96.71,96.709s-96.71-43.384-96.71-96.709c0-4.142-3.357-7.5-7.5-7.5s-7.5,3.358-7.5,7.5
			c0,0.173,0.006,0.344,0.007,0.516h-4.531c-6.889,0-12.494-5.584-12.536-12.463c0-0.026,0.004-0.051,0.004-0.077v-0.154
			c0.084-6.843,5.669-12.386,12.532-12.386c1.797,0,3.064,0,4.009-0.031v0.028c53.637,0,96.062-46.498,111.813-66.49
			c0.051-0.064,0.169-0.215,0.413-0.215c0.244,0,0.362,0.151,0.413,0.215c9.598,12.181,29.663,34.914,56.227,50.302
			c3.585,2.076,8.173,0.855,10.249-2.73c2.077-3.584,0.854-8.173-2.729-10.249c-24.4-14.135-43.03-35.267-51.963-46.605
			c-2.971-3.77-7.416-5.933-12.196-5.933s-9.226,2.163-12.196,5.932c-43.214,54.851-84.35,60.772-100.029,60.772
			c-0.035,0-0.069,0-0.104,0.001c-0.46,0.002-3.906,0.002-3.905,0.002c-4.512,0-8.77,1.098-12.532,3.029v-27.594
			C127.227,72.768,184.994,15,256.001,15s128.774,57.768,128.774,128.774V171.376z"/>
	</g>
</g>
<g>
	<g>
		<path d="M292.073,221.111h-72.145c-4.143,0-7.5,3.358-7.5,7.5c0,21.816,19.547,39.565,43.572,39.565
			c24.025,0,43.572-17.749,43.572-39.565C299.573,224.469,296.216,221.111,292.073,221.111z M256.001,253.176
			c-12.714,0-23.516-7.176-27.211-17.065h54.422C279.517,246,268.715,253.176,256.001,253.176z"/>
	</g>
</g>
<g>
</g>
<g>
</g>
<g>
</g>
<g>
</g>
<g>
</g>
<g>
</g>
<g>
</g>
<g>
</g>
<g>
</g>
<g>
</g>
<g>
</g>
<g>
</g>
<g>
</g>
<g>
</g>
<g>
</g>
</svg>
