<?xml version="1.0" encoding="iso-8859-1"?>
<!-- Generator: Adobe Illustrator 19.0.0, SVG Export Plug-In . SVG Version: 6.00 Build 0)  -->
<svg version="1.1" id="Capa_1" xmlns="http://www.w3.org/2000/svg" xmlns:xlink="http://www.w3.org/1999/xlink" x="0px" y="0px"
	 viewBox="0 0 512 512" style="enable-background:new 0 0 512 512;" xml:space="preserve">
<g>
	<g>
		<path d="M207.902,152.307c-4.143,0-7.5,3.358-7.5,7.5v8.016c0,4.142,3.357,7.5,7.5,7.5s7.5-3.358,7.5-7.5v-8.016
			C215.402,155.665,212.045,152.307,207.902,152.307z"/>
	</g>
</g>
<g>
	<g>
		<path d="M304.095,152.307c-4.143,0-7.5,3.358-7.5,7.5v8.016c0,4.142,3.357,7.5,7.5,7.5s7.5-3.358,7.5-7.5v-8.016
			C311.595,155.665,308.238,152.307,304.095,152.307z"/>
	</g>
</g>
<g>
	<g>
		<path d="M415.977,350.876l-84.485-24.849c-6.994-2.057-11.879-8.585-11.879-15.876v-34.528
			c25.013-17.396,42.617-44.741,47.019-76.253h4.457c14.618,0,27.156-10.861,28.544-24.727c0.778-7.771-1.764-15.53-6.974-21.288
			c-5.214-5.762-12.658-9.066-20.426-9.066h-4.523v-33.097h0.516c4.143,0,7.5-3.358,7.5-7.5C375.725,46.517,329.208,0,272.031,0
			h-32.064c-54.655,0-99.564,42.505-103.42,96.193H79.644c-4.143,0-7.5,3.358-7.5,7.5c0,4.142,3.357,7.5,7.5,7.5h64.129h0.516
			v33.097h-3.378c-14.617,0-27.155,10.861-28.545,24.725c-0.778,7.771,1.763,15.53,6.973,21.289
			c5.214,5.762,12.659,9.067,20.427,9.067h5.598c4.398,31.522,22.003,58.87,47.022,76.263v34.517
			c0,7.291-4.885,13.819-11.879,15.876l-84.485,24.849c-23.498,6.911-39.909,28.845-39.909,53.338V504.5c0,4.142,3.357,7.5,7.5,7.5
			s7.5-3.358,7.5-7.5V404.214c0-17.885,11.983-33.901,29.142-38.947l24.686-7.26c0.104,0.358,0.198,0.722,0.305,1.077
			c0.973,3.252,3.954,5.353,7.183,5.353c0.711,0,1.436-0.102,2.151-0.316c3.969-1.187,6.224-5.366,5.037-9.334
			c-0.1-0.334-0.189-0.676-0.286-1.012l24.698-7.264c11.622,40.556,49.187,69.297,91.972,69.297
			c15.313,0,29.946-3.511,43.495-10.437c3.688-1.885,5.149-6.404,3.264-10.092c-1.885-3.688-6.4-5.149-10.092-3.265
			c-11.414,5.834-23.75,8.793-36.667,8.793c-36.117,0-67.822-24.282-77.584-58.529l6.324-1.86
			c13.334-3.921,22.646-16.368,22.646-30.267v-25.733c14.705,7.137,31.199,11.146,48.613,11.146
			c17.412,0,33.906-4.012,48.613-11.153v25.74c0,13.899,9.313,26.345,22.646,30.267l6.328,1.861
			c-3.233,11.33-8.947,21.889-16.755,30.844c-2.722,3.122-2.397,7.86,0.725,10.582c1.421,1.239,3.177,1.847,4.926,1.847
			c2.092,0,4.173-0.871,5.656-2.571c9.231-10.588,15.994-23.07,19.837-36.47l23.452,6.898c-0.858,2.998-1.819,5.969-2.901,8.874
			c-1.447,3.881,0.526,8.2,4.408,9.647c0.863,0.322,1.748,0.474,2.618,0.474c3.042,0,5.904-1.865,7.028-4.883
			c1.206-3.235,2.277-6.543,3.236-9.88l25.927,7.625c17.158,5.046,29.142,21.062,29.142,38.947V504.5c0,4.142,3.357,7.5,7.5,7.5
			s7.5-3.358,7.5-7.5V404.214C455.886,379.721,439.475,357.787,415.977,350.876z M239.967,15h32.064
			c34.697,0,64.799,20.029,79.365,49.129H336.16c-4.143,0-7.5,3.358-7.5,7.5c0,4.142,3.357,7.5,7.5,7.5h21.093
			c1.585,5.491,2.664,11.195,3.157,17.064H151.587C155.407,50.784,193.586,15,239.967,15z M255.998,280.565
			c-53.326-0.001-96.71-43.384-96.71-96.71c0-4.142-3.357-7.5-7.5-7.5s-7.5,3.358-7.5,7.5v0.516h-4.523
			c-3.537,0-6.928-1.506-9.304-4.131c-2.406-2.66-3.532-6.115-3.17-9.729c0.63-6.292,6.612-11.221,13.619-11.221h10.878
			c1.989,0,3.896-0.79,5.303-2.197c1.407-1.406,2.197-3.314,2.197-5.303v-8.532h152.823c4.143,0,7.5-3.358,7.5-7.5
			c0-4.142-3.357-7.5-7.5-7.5H159.288v-17.065h193.42v17.065h-8.53c-4.143,0-7.5,3.358-7.5,7.5c0,4.142,3.357,7.5,7.5,7.5h8.53
			v8.532c0,4.142,3.357,7.5,7.5,7.5h12.023c3.537,0,6.928,1.505,9.304,4.131c2.406,2.659,3.532,6.114,3.17,9.729
			c-0.63,6.292-6.611,11.221-13.618,11.221h-3.383v-0.439c0-4.141-3.356-7.499-7.497-7.5c-0.001,0-0.002,0-0.003,0
			c-4.14,0-7.497,3.354-7.5,7.495C352.665,237.213,309.284,280.565,255.998,280.565z"/>
	</g>
</g>
<g>
	<g>
		<path d="M236.381,439.41c-4.945-0.779-9.887-1.878-14.687-3.267c-3.979-1.151-8.138,1.14-9.289,5.12
			c-1.151,3.979,1.141,8.138,5.119,9.29c5.401,1.563,10.96,2.799,16.522,3.675c0.396,0.063,0.788,0.092,1.176,0.092
			c3.628,0,6.817-2.638,7.4-6.334C243.267,443.894,240.474,440.055,236.381,439.41z"/>
	</g>
</g>
<g>
	<g>
		<path d="M290.23,443.809c-0.886-4.045-4.879-6.607-8.932-5.72c-4.879,1.069-9.883,1.841-14.873,2.295
			c-4.125,0.375-7.165,4.024-6.789,8.149c0.354,3.894,3.625,6.82,7.46,6.82c0.228,0,0.458-0.01,0.688-0.031
			c5.61-0.511,11.237-1.379,16.725-2.582C288.556,451.854,291.116,447.855,290.23,443.809z"/>
	</g>
</g>
<g>
	<g>
		<path d="M194.115,424.247c-4.309-2.539-8.505-5.377-12.472-8.437c-3.28-2.53-7.989-1.92-10.519,1.358
			c-2.53,3.28-1.922,7.99,1.358,10.52c4.458,3.438,9.174,6.628,14.017,9.482c1.195,0.704,2.507,1.039,3.801,1.039
			c2.568,0,5.07-1.32,6.469-3.693C198.873,430.948,197.685,426.35,194.115,424.247z"/>
	</g>
</g>
<g>
	<g>
		<path d="M332.995,422.482c-2.311-3.438-6.972-4.352-10.409-2.042c-4.156,2.792-8.525,5.348-12.986,7.596
			c-3.699,1.864-5.187,6.374-3.323,10.073c1.319,2.617,3.961,4.126,6.704,4.126c1.135,0,2.287-0.258,3.369-0.804
			c5.017-2.528,9.929-5.401,14.602-8.541C334.389,430.58,335.305,425.92,332.995,422.482z"/>
	</g>
</g>
<g>
	<g>
		<path d="M160.298,394.647c-3.091-3.935-5.965-8.105-8.542-12.39c-2.135-3.549-6.743-4.697-10.293-2.563
			c-3.55,2.135-4.696,6.743-2.563,10.292c2.896,4.817,6.127,9.502,9.601,13.926c1.479,1.884,3.681,2.868,5.903,2.868
			c1.621,0,3.254-0.523,4.627-1.602C162.29,402.62,162.856,397.905,160.298,394.647z"/>
	</g>
</g>
<g>
	<g>
		<path d="M365.04,387.019c-3.401-2.362-8.074-1.518-10.438,1.885c-2.854,4.112-5.996,8.086-9.338,11.812
			c-2.766,3.083-2.509,7.825,0.575,10.591c1.433,1.285,3.222,1.917,5.005,1.917c2.057,0,4.104-0.841,5.586-2.492
			c3.756-4.187,7.286-8.653,10.494-13.275C369.288,394.054,368.444,389.38,365.04,387.019z"/>
	</g>
</g>
<g>
	<g>
		<path d="M272.031,208.419h-16.032c-4.143,0-7.5,3.358-7.5,7.5c0,4.142,3.357,7.5,7.5,7.5h16.032c4.143,0,7.5-3.358,7.5-7.5
			C279.531,211.777,276.173,208.419,272.031,208.419z"/>
	</g>
</g>
<g>
</g>
<g>
</g>
<g>
</g>
<g>
</g>
<g>
</g>
<g>
</g>
<g>
</g>
<g>
</g>
<g>
</g>
<g>
</g>
<g>
</g>
<g>
</g>
<g>
</g>
<g>
</g>
<g>
</g>
</svg>
