<?xml version="1.0" encoding="iso-8859-1"?>
<!-- Generator: Adobe Illustrator 19.0.0, SVG Export Plug-In . SVG Version: 6.00 Build 0)  -->
<svg version="1.1" id="Capa_1" xmlns="http://www.w3.org/2000/svg" xmlns:xlink="http://www.w3.org/1999/xlink" x="0px" y="0px"
	 viewBox="0 0 512 512" style="enable-background:new 0 0 512 512;" xml:space="preserve">
<g>
	<g>
		<path d="M256.081,496.999h-0.08c-4.142,0-7.46,3.357-7.46,7.5s3.398,7.5,7.54,7.5c4.142,0,7.5-3.357,7.5-7.5
			S260.223,496.999,256.081,496.999z"/>
	</g>
</g>
<g>
	<g>
		<path d="M415.979,366.907l-65.723-19.33l-11.658-23.315c-1.883-3.766-5.27-6.64-9.292-7.884c-3.174-0.981-6.585-0.887-9.692,0.192
			v-16.893c27.116-18.853,45.515-49.397,47.839-84.274h3.639c14.617,0,27.154-10.861,28.542-24.727
			c0.778-7.771-1.764-15.53-6.974-21.287c-2.522-2.786-5.568-4.992-8.917-6.533v-27.614h24.564c4.142,0,7.5-3.357,7.5-7.5
			s-3.358-7.5-7.5-7.5h-26.303l-21.059-78.97C354.466,16.972,332.376,0,307.227,0H204.775c-25.149,0-47.239,16.972-53.719,41.271
			l-21.059,78.97h-26.303c-4.142,0-7.5,3.357-7.5,7.5c0,4.143,3.358,7.5,7.5,7.5h24.564v27.948
			c-8.63,4.115-14.93,12.266-15.891,21.859c-0.778,7.771,1.764,15.53,6.974,21.288c5.213,5.762,12.658,9.066,20.425,9.066h4.781
			c2.324,34.877,20.723,65.421,47.839,84.274v16.894c-3.108-1.08-6.519-1.174-9.692-0.193c-4.022,1.244-7.409,4.118-9.292,7.884
			l-11.658,23.316l-65.723,19.33c-23.498,6.911-39.909,28.845-39.909,53.338v84.254c0,4.143,3.358,7.5,7.5,7.5
			c4.142,0,7.5-3.357,7.5-7.5v-84.254c0-17.885,11.983-33.9,29.142-38.947l28.003-8.236v131.437c0,4.143,3.358,7.5,7.5,7.5
			c4.142,0,7.5-3.357,7.5-7.5V368.65l17.064-5.019v140.868c0,4.143,3.358,7.5,7.5,7.5c4.142,0,7.5-3.357,7.5-7.5v-136l31.14,26.691
			c4.312,3.695,9.66,5.668,15.261,5.668c0.748,0,1.501-0.035,2.256-0.106c6.409-0.603,12.152-3.702,16.173-8.728l15.85-19.809
			l15.848,19.809c4.021,5.025,9.764,8.125,16.173,8.728c0.755,0.071,1.508,0.106,2.256,0.106c5.601,0,10.95-1.973,15.261-5.668
			l39.2-33.601l24.002,7.059V504.5c0,4.143,3.358,7.5,7.5,7.5c4.142,0,7.5-3.357,7.5-7.5V373.061l28.005,8.237
			c17.158,5.047,29.142,21.063,29.142,38.947v84.254c0,4.143,3.358,7.5,7.5,7.5c4.142,0,7.5-3.357,7.5-7.5v-84.254
			C455.888,395.752,439.477,373.818,415.979,366.907z M150.072,103.177h146.01c4.142,0,7.5-3.357,7.5-7.5s-3.358-7.5-7.5-7.5
			h-142.01l11.477-43.04C170.281,27.393,186.412,15,204.775,15h32.449c7.607,0,14.209,5.154,16.054,12.535l3.462,13.849
			c0.852,3.408,3.91,5.683,7.27,5.683c0.602,0,1.214-0.073,1.825-0.226c4.018-1.005,6.461-5.077,5.457-9.096l-3.462-13.849
			c-0.802-3.209-2.081-6.195-3.742-8.896h43.138c18.364,0,34.494,12.393,39.226,30.137l11.477,43.04h-29.786
			c-4.142,0-7.5,3.357-7.5,7.5s3.358,7.5,7.5,7.5h33.786l4.551,17.064H145.521L150.072,103.177z M368.742,135.241v25.081h-17.064
			v-25.081H368.742z M328.146,152.305h-56.113c-4.142,0-7.5,3.357-7.5,7.5v2.124c-2.647-1.034-5.523-1.608-8.532-1.608
			s-5.885,0.574-8.532,1.608v-2.124c0-4.143-3.358-7.5-7.5-7.5h-56.113c-4.142,0-7.5,3.357-7.5,7.5v0.517h-1.032v-25.081h161.354
			v25.081h-1.032v-0.517C335.646,155.662,332.288,152.305,328.146,152.305z M300.089,183.338c4.142,0,7.5-3.357,7.5-7.5v-8.016
			c0-0.174-0.014-0.345-0.026-0.517h13.083v16.549c0,4.705-3.828,8.532-8.532,8.532h-24.048c-4.705,0-8.532-3.827-8.532-8.532
			v-16.549h13.082c-0.012,0.171-0.026,0.342-0.026,0.517v8.016C292.589,179.98,295.947,183.338,300.089,183.338z M191.357,167.306
			h13.082c-0.012,0.171-0.026,0.342-0.026,0.517v8.016c0,4.143,3.358,7.5,7.5,7.5c4.142,0,7.5-3.357,7.5-7.5v-8.016
			c0-0.174-0.014-0.345-0.026-0.517h13.082v16.549c0,4.705-3.828,8.532-8.532,8.532h-24.048c-4.705,0-8.532-3.827-8.532-8.532
			V167.306z M143.26,135.241h17.064v25.081H143.26V135.241z M151.79,192.386c-4.142,0-7.5,3.357-7.5,7.5v0.516h-4.524
			c-3.535,0-6.926-1.506-9.302-4.131c-2.406-2.659-3.533-6.115-3.171-9.729c0.63-6.292,6.612-11.221,13.618-11.221h35.445v8.532
			c0,12.976,10.557,23.532,23.532,23.532h24.048c12.976,0,23.532-10.557,23.532-23.532c0-4.705,3.828-8.532,8.532-8.532
			s8.532,3.827,8.532,8.532c0,12.976,10.557,23.532,23.532,23.532h24.048c12.976,0,23.532-10.557,23.532-23.532v-8.532h36.588
			c3.537,0,6.927,1.506,9.303,4.131c2.407,2.659,3.533,6.114,3.171,9.729c-0.629,6.292-6.61,11.221-13.616,11.221h-3.381v-0.516
			c0-4.143-3.358-7.5-7.5-7.5c-4.142,0-7.5,3.357-7.5,7.5v4.258c-20.003,14.302-45.465,18.304-52.982,19.206
			c-5.4-4.323-12.24-6.916-19.679-6.916h-48.097c-7.441,0-14.283,2.595-19.683,6.92c-7.5-0.886-32.9-4.841-52.978-19.208v-4.26
			C159.29,195.743,155.932,192.386,151.79,192.386z M294.799,240.483h-14.75c-6.427,0-12.01-3.683-14.75-9.049h14.75
			C286.476,231.435,292.059,235.117,294.799,240.483z M246.703,231.435c-2.74,5.366-8.323,9.049-14.75,9.049h-14.75
			c2.74-5.367,8.323-9.049,14.75-9.049H246.703z M160.399,222.548c15.448,8.56,31.606,12.616,41.967,14.485
			c-1.267,3.413-1.962,7.102-1.962,10.95c0,4.143,3.358,7.5,7.5,7.5h24.048c9.628,0,18.257-4.34,24.048-11.161
			c5.791,6.821,14.42,11.161,24.048,11.161h24.048c4.142,0,7.5-3.357,7.5-7.5c0-3.849-0.695-7.537-1.962-10.95
			c10.361-1.869,26.519-5.925,41.967-14.485c-7.079,46.401-47.254,82.064-95.602,82.064
			C207.651,304.612,167.478,268.95,160.399,222.548z M228.44,382.653c-1.458,1.822-3.54,2.946-5.864,3.165
			c-2.32,0.216-4.579-0.497-6.352-2.017l-39.074-33.493l9.669-19.338c0.024-0.049,0.099-0.197,0.309-0.263
			c0.209-0.063,0.355,0.016,0.403,0.043l57.067,31.704L228.44,382.653z M207.388,324.623v-16.155
			c14.705,7.137,31.2,11.144,48.613,11.144c17.413,0,33.908-4.007,48.613-11.145v16.154l-48.613,27.008L207.388,324.623z
			 M295.777,383.802c-1.772,1.52-4.028,2.232-6.352,2.017c-2.324-0.219-4.406-1.343-5.864-3.165l-16.159-20.198l57.067-31.705
			c0.048-0.025,0.195-0.105,0.403-0.042c0.21,0.065,0.285,0.214,0.309,0.263l9.669,19.338L295.777,383.802z"/>
	</g>
</g>
<g>
	<g>
		<path d="M344.176,384.773c-4.142,0-7.5,3.357-7.5,7.5V504.5c0,4.143,3.358,7.5,7.5,7.5c4.142,0,7.5-3.357,7.5-7.5V392.273
			C351.676,388.131,348.318,384.773,344.176,384.773z"/>
	</g>
</g>
<g>
	<g>
		<path d="M256.081,400.806h-0.08c-4.142,0-7.46,3.357-7.46,7.5s3.398,7.5,7.54,7.5c4.142,0,7.5-3.357,7.5-7.5
			S260.223,400.806,256.081,400.806z"/>
	</g>
</g>
<g>
	<g>
		<path d="M256.081,448.902h-0.08c-4.142,0-7.46,3.357-7.46,7.5s3.398,7.5,7.54,7.5c4.142,0,7.5-3.357,7.5-7.5
			S260.223,448.902,256.081,448.902z"/>
	</g>
</g>
<g>
	<g>
		<path d="M264.017,264.531h-16.032c-4.142,0-7.5,3.357-7.5,7.5s3.358,7.5,7.5,7.5h16.032c4.142,0,7.5-3.357,7.5-7.5
			S268.159,264.531,264.017,264.531z"/>
	</g>
</g>
<g>
</g>
<g>
</g>
<g>
</g>
<g>
</g>
<g>
</g>
<g>
</g>
<g>
</g>
<g>
</g>
<g>
</g>
<g>
</g>
<g>
</g>
<g>
</g>
<g>
</g>
<g>
</g>
<g>
</g>
</svg>
