<?xml version="1.0" encoding="iso-8859-1"?>
<!-- Generator: Adobe Illustrator 19.0.0, SVG Export Plug-In . SVG Version: 6.00 Build 0)  -->
<svg version="1.1" id="Capa_1" xmlns="http://www.w3.org/2000/svg" xmlns:xlink="http://www.w3.org/1999/xlink" x="0px" y="0px"
	 viewBox="0 0 512 512" style="enable-background:new 0 0 512 512;" xml:space="preserve">
<g>
	<g>
		<path d="M211.911,152.307c-4.143,0-7.5,3.358-7.5,7.5v8.016c0,4.142,3.358,7.5,7.5,7.5c4.143,0,7.5-3.358,7.5-7.5v-8.016
			C219.411,155.665,216.054,152.307,211.911,152.307z"/>
	</g>
</g>
<g>
	<g>
		<path d="M300.089,152.307c-4.143,0-7.5,3.358-7.5,7.5v8.016c0,4.142,3.357,7.5,7.5,7.5s7.5-3.358,7.5-7.5v-8.016
			C307.589,155.665,304.231,152.307,300.089,152.307z"/>
	</g>
</g>
<g>
	<g>
		<path d="M415.978,350.876l-84.485-24.849c-6.994-2.057-11.879-8.585-11.879-15.876v-34.523
			c25.017-17.394,42.615-44.739,47.014-76.258h5.607c7.768,0,15.212-3.305,20.426-9.067c5.21-5.758,7.751-13.518,6.973-21.289
			c-0.952-9.5-7.1-17.715-15.891-21.867V127.74C383.742,57.305,326.438,0,255.999,0S128.257,57.305,128.257,127.742v19.408
			c-8.79,4.152-14.936,12.366-15.888,21.865c-0.778,7.771,1.763,15.531,6.973,21.289c5.214,5.762,12.658,9.067,20.426,9.067h5.604
			c4.399,31.519,21.997,58.864,47.014,76.258v34.523c0,7.291-4.885,13.819-11.879,15.876l-84.485,24.849
			c-23.498,6.911-39.909,28.845-39.909,53.338V504.5c0,4.142,3.357,7.5,7.5,7.5s7.5-3.358,7.5-7.5V404.214
			c0-7.386,2.048-14.451,5.657-20.559l42.91,36.781c5.451,4.673,8.578,11.471,8.578,18.651V504.5c0,4.142,3.357,7.5,7.5,7.5
			s7.5-3.358,7.5-7.5v-65.414c0-11.565-5.036-22.514-13.816-30.04l-42.814-36.699c3.98-3.154,8.577-5.596,13.628-7.081l18.163-5.342
			l66.501,33.251c1.077,0.539,2.222,0.793,3.349,0.793c2.751,0,5.4-1.52,6.714-4.147c1.853-3.705,0.351-8.21-3.354-10.062
			l-52.092-26.046l45.204-13.295c13.334-3.921,22.646-16.368,22.646-30.267V284.42c14.705,7.137,31.2,11.145,48.613,11.145
			c17.413,0,33.908-4.007,48.613-11.145v25.732c0,13.899,9.313,26.345,22.646,30.267l45.204,13.295l-87.475,43.738
			c-7.23-7.79-17.547-12.677-28.989-12.677c-11.442,0-21.758,4.887-28.989,12.677l-7.726-3.863
			c-3.707-1.854-8.211-0.351-10.063,3.354c-1.853,3.705-0.351,8.21,3.354,10.062l6.466,3.233c-1.678,4.384-2.607,9.135-2.607,14.102
			c0,19.251,13.823,35.327,32.064,38.842V504.5c0,4.142,3.357,7.5,7.5,7.5c4.143,0,7.5-3.358,7.5-7.5v-41.319
			c18.241-3.516,32.064-19.591,32.064-38.842c0-4.967-0.929-9.718-2.607-14.102l100.625-50.312l18.163,5.342
			c5.051,1.485,9.648,3.927,13.628,7.081l-42.814,36.699c-8.78,7.526-13.816,18.475-13.816,30.04V504.5c0,4.142,3.357,7.5,7.5,7.5
			s7.5-3.358,7.5-7.5v-65.414c0-7.18,3.127-13.978,8.578-18.651l42.91-36.781c3.608,6.108,5.657,13.172,5.657,20.559V504.5
			c0,4.142,3.357,7.5,7.5,7.5s7.5-3.358,7.5-7.5V404.214C455.887,379.721,439.476,357.787,415.978,350.876z M199.371,30.287
			C216.023,20.574,235.372,15,255.999,15s39.977,5.574,56.629,15.287v49.358c0,4.142,3.357,7.5,7.5,7.5s7.5-3.358,7.5-7.5V40.741
			c23.284,19.204,38.749,47.557,40.858,79.5h-40.858v-8.532c0-4.142-3.357-7.5-7.5-7.5s-7.5,3.358-7.5,7.5v8.532H199.371V30.287z
			 M368.742,135.242v12.619l-54.834,37.961c-6.823,4.723-15.284,5.245-22.636,1.394s-11.74-11.106-11.74-19.405v-32.569H368.742z
			 M264.549,168.339h-17.1c0.002-0.177,0.018-0.351,0.018-0.528v-32.569h17.064v32.569
			C264.532,167.988,264.548,168.162,264.549,168.339z M184.371,40.741v79.5h-40.858C145.622,88.298,161.087,59.945,184.371,40.741z
			 M143.257,135.242h89.21v32.569c0,8.299-4.389,15.553-11.74,19.405c-7.351,3.851-15.813,3.331-22.637-1.394l-54.833-37.961
			V135.242z M255.999,280.564c-53.326,0-96.71-43.384-96.71-96.709c0-4.142-3.357-7.5-7.5-7.5s-7.5,3.358-7.5,7.5
			c0,0.173,0.006,0.344,0.007,0.516h-4.528c-3.537,0-6.928-1.506-9.303-4.131c-2.406-2.66-3.532-6.115-3.17-9.73
			c0.437-4.366,3.49-8.161,7.849-10.023l54.408,37.667c6.308,4.367,13.633,6.58,20.996,6.58c5.855,0,11.735-1.401,17.141-4.232
			c7.346-3.849,13-9.932,16.349-17.163h23.923c3.349,7.231,9.003,13.314,16.349,17.163c5.405,2.832,11.284,4.232,17.141,4.232
			c7.362,0,14.689-2.213,20.995-6.58l54.41-37.668c4.359,1.861,7.413,5.658,7.85,10.025c0.362,3.614-0.764,7.069-3.17,9.729
			c-2.375,2.625-5.766,4.131-9.303,4.131h-4.531c0.001-0.172,0.007-0.344,0.007-0.516c0-4.142-3.357-7.5-7.5-7.5s-7.5,3.358-7.5,7.5
			C352.71,237.181,309.326,280.564,255.999,280.564z M255.999,448.903c-13.545,0-24.564-11.02-24.564-24.564
			s11.02-24.564,24.564-24.564c13.544,0,24.564,11.02,24.564,24.564S269.545,448.903,255.999,448.903z"/>
	</g>
</g>
<g>
	<g>
		<path d="M285.387,210.652c-2.909-2.949-7.657-2.982-10.606-0.071c-2.737,2.701-9.299,5.855-18.781,5.855
			c-9.482,0-16.044-3.154-18.781-5.855c-2.948-2.908-7.697-2.877-10.606,0.071s-2.877,7.698,0.071,10.606
			c6.46,6.373,17.419,10.177,29.316,10.177c11.897,0,22.856-3.805,29.316-10.177C288.263,218.349,288.296,213.6,285.387,210.652z"/>
	</g>
</g>
<g>
	<g>
		<path d="M286.289,75.485c-2.298-3.446-6.954-4.377-10.4-2.08l-19.889,13.259l-19.889-13.259c-3.445-2.298-8.104-1.367-10.4,2.08
			c-2.298,3.446-1.366,8.103,2.08,10.4l24.049,16.032c1.26,0.84,2.71,1.26,4.16,1.26c1.45,0,2.9-0.42,4.16-1.26l24.049-16.032
			C287.655,83.588,288.587,78.931,286.289,75.485z"/>
	</g>
</g>
<g>
	<g>
		<path d="M255.999,48.097c-4.143,0-7.5,3.358-7.5,7.5v8.016c0,4.142,3.357,7.5,7.5,7.5c4.143,0,7.5-3.358,7.5-7.5v-8.016
			C263.5,51.455,260.143,48.097,255.999,48.097z"/>
	</g>
</g>
<g>
</g>
<g>
</g>
<g>
</g>
<g>
</g>
<g>
</g>
<g>
</g>
<g>
</g>
<g>
</g>
<g>
</g>
<g>
</g>
<g>
</g>
<g>
</g>
<g>
</g>
<g>
</g>
<g>
</g>
</svg>
