<?xml version="1.0" encoding="iso-8859-1"?>
<!-- Generator: Adobe Illustrator 19.0.0, SVG Export Plug-In . SVG Version: 6.00 Build 0)  -->
<svg version="1.1" id="Capa_1" xmlns="http://www.w3.org/2000/svg" xmlns:xlink="http://www.w3.org/1999/xlink" x="0px" y="0px"
	 viewBox="0 0 512.003 512.003" style="enable-background:new 0 0 512.003 512.003;" xml:space="preserve">
<g>
	<g>
		<path d="M207.905,169.035c-4.142,0-7.5,3.357-7.5,7.5v8.017c0,4.143,3.358,7.5,7.5,7.5c4.142,0,7.5-3.357,7.5-7.5v-8.017
			C215.405,172.392,212.047,169.035,207.905,169.035z"/>
	</g>
</g>
<g>
	<g>
		<path d="M304.098,169.036c-4.143,0-7.5,3.357-7.5,7.5v8.017c0,4.143,3.357,7.5,7.5,7.5s7.5-3.357,7.5-7.5v-8.017
			C311.598,172.393,308.241,169.036,304.098,169.036z"/>
	</g>
</g>
<g>
	<g>
		<path d="M410.779,381.892l-12.613-4.452c18.817-29.732,27.639-63.936,25.551-99.425l-7.239-123.067
			c-2.496-42.418-22.414-83.102-54.916-112.673c2.023-2.564,3.754-5.227,5.142-7.967c1.833-3.618,0.457-8.038-3.105-9.977
			c-9.659-5.255-22.333-7.28-35.862-5.99C304.993,6.193,279.842-0.19,254.983,0.004c-25.449,0.159-50.702,6.442-73.159,18.156
			c-12.605-0.836-24.346,1.232-33.42,6.171c-3.563,1.938-4.938,6.358-3.106,9.977c1.101,2.174,2.438,4.293,3.944,6.36
			c-31.587,28.173-50.999,68.083-53.49,110.434l-7.465,126.913c-2.089,35.504,6.733,69.698,25.552,99.425l-12.614,4.452
			c-22.187,7.831-37.093,28.899-37.093,52.427v70.183c0,4.143,3.358,7.5,7.5,7.5c4.142,0,7.5-3.357,7.5-7.5v-70.183
			c0-17.18,10.885-32.564,27.085-38.282l44.646-15.758c4.235,8.209,9.678,15.886,16.266,22.868c1.476,1.563,3.463,2.353,5.456,2.353
			c1.846,0,3.697-0.678,5.146-2.045c3.013-2.843,3.15-7.59,0.307-10.603c-5.127-5.433-9.44-11.339-12.886-17.616l23.856-8.42
			c15.789-5.572,26.396-20.565,26.396-37.309v-25.546c12.587,4.926,26.277,7.635,40.589,7.635c14.318,0,28.013-2.711,40.604-7.641
			v25.552c0,16.743,10.607,31.736,26.396,37.309l23.851,8.418c-7.406,13.522-18.727,25.138-33.068,33.854
			c-16.972,10.314-36.952,15.767-57.782,15.767c-19.19,0-37.844-4.685-53.946-13.547c-3.63-2-8.189-0.676-10.187,2.954
			c-1.998,3.629-0.675,8.189,2.954,10.187c18.312,10.079,39.467,15.406,61.179,15.406c23.578,0,46.253-6.206,65.572-17.948
			c17.358-10.549,30.93-24.87,39.565-41.63l44.655,15.761c16.2,5.718,27.085,21.103,27.085,38.282v70.183c0,4.143,3.357,7.5,7.5,7.5
			s7.5-3.357,7.5-7.5V434.32C447.872,410.791,432.966,389.723,410.779,381.892z M348.553,34.487
			c-6.72,7.716-17.522,14.392-29.993,18.273c-12.469,3.883-25.153,4.521-35.065,1.98c6.72-7.715,17.522-14.391,29.993-18.273
			C325.958,32.585,338.643,31.95,348.553,34.487z M255.077,15.004c16.456-0.121,33.015,2.957,48.786,8.931
			c-11.438,4.287-21.396,10.516-28.794,17.896c-4.279-5.91-11.229-9.765-19.067-9.765c-7.838,0-14.788,3.855-19.067,9.765
			c-7.648-7.629-18.023-14.04-29.948-18.334C222.361,18.014,238.673,15.107,255.077,15.004z M264.533,55.598
			c0,4.705-3.827,8.532-8.532,8.532c-4.704,0-8.532-3.827-8.532-8.532c0-4.705,3.828-8.532,8.532-8.532
			C260.706,47.066,264.533,50.893,264.533,55.598z M198.515,36.467c12.47,3.883,23.273,10.559,29.994,18.274
			c-9.914,2.537-22.597,1.9-35.066-1.981c-12.469-3.881-23.273-10.558-29.993-18.273C173.363,31.951,186.046,32.584,198.515,36.467z
			 M327.987,352.672c-9.803-3.461-16.389-12.769-16.389-23.165v-32.759c29.239-16.85,50.166-46.559,55.022-81.345h5.607
			c15.186,0,27.54-12.354,27.54-27.54c0-15.187-12.354-27.541-27.54-27.541h-4c-4.705,0-8.532-3.827-8.532-8.532
			c0-35.076-28.537-63.612-63.613-63.612c-4.143,0-7.5,3.357-7.5,7.5s3.357,7.5,7.5,7.5c26.806,0,48.613,21.808,48.613,48.613
			c0,12.976,10.557,23.531,23.532,23.531h4c6.915,0,12.54,5.626,12.54,12.541s-5.625,12.54-12.54,12.54h-4.531
			c0.001-0.173,0.007-0.344,0.007-0.517c0-4.143-3.357-7.5-7.5-7.5s-7.5,3.357-7.5,7.5c0,53.325-43.384,96.709-96.709,96.709
			c-53.326,0-96.709-43.384-96.709-96.709c0-4.143-3.358-7.5-7.5-7.5c-4.142,0-7.5,3.357-7.5,7.5c0,0.173,0.006,0.344,0.007,0.517
			h-4.531c-6.915,0-12.54-5.625-12.54-12.54s5.625-12.541,12.54-12.541h4.016c12.976,0,23.532-10.557,23.532-23.532
			c0-26.805,21.808-48.612,48.612-48.612h48.096c4.143,0,7.5-3.357,7.5-7.5s-3.357-7.5-7.5-7.5h-48.096
			c-35.076,0-63.612,28.537-63.612,63.613c0,4.704-3.828,8.531-8.532,8.531h-4.016c-15.186,0-27.54,12.354-27.54,27.541
			c0,15.186,12.354,27.54,27.54,27.54h5.607c4.856,34.792,25.79,64.505,55.037,81.354v32.75c0,10.396-6.586,19.704-16.389,23.164
			l-55.631,19.635c-18.412-27.726-27.094-59.926-25.124-93.41l7.465-126.913c2.268-38.553,20.003-74.878,48.851-100.437
			c7.972,6.598,18.088,12.013,29.407,15.537c8.982,2.797,18.016,4.183,26.515,4.183c7.402,0,14.381-1.075,20.581-3.163
			c4.169,6.618,11.538,11.028,19.921,11.028s15.752-4.41,19.921-11.028c6.2,2.088,13.178,3.163,20.581,3.163
			c8.499,0,17.534-1.387,26.516-4.183c10.588-3.296,20.106-8.259,27.819-14.286c29.993,26.993,48.384,64.241,50.666,103.032
			l7.239,123.067c1.969,33.47-6.712,65.681-25.123,93.411L327.987,352.672z"/>
	</g>
</g>
<g>
	<g>
		<path d="M292.073,216.436h-72.145c-4.141,0-7.499,3.357-7.499,7.5c0,21.816,19.546,39.564,43.572,39.564
			c24.025,0,43.572-17.748,43.572-39.564C299.573,219.793,296.216,216.436,292.073,216.436z M256.002,248.5
			c-12.714,0-23.515-7.176-27.211-17.064h54.422C279.517,241.325,268.716,248.5,256.002,248.5z"/>
	</g>
</g>
<g>
	<g>
		<path d="M223.197,145.966c-1.004-4.018-5.079-6.463-9.095-5.457l-16.032,4.008c-4.019,1.005-6.462,5.077-5.457,9.096
			c0.852,3.407,3.91,5.683,7.27,5.683c0.602,0,1.214-0.073,1.825-0.226l16.032-4.008
			C221.759,154.057,224.202,149.985,223.197,145.966z"/>
	</g>
</g>
<g>
	<g>
		<path d="M313.933,144.517l-16.032-4.008c-4.018-0.999-8.09,1.439-9.096,5.457c-1.004,4.019,1.44,8.091,5.457,9.096l16.032,4.008
			c0.611,0.152,1.223,0.226,1.825,0.226c3.36,0,6.418-2.275,7.271-5.683C320.394,149.594,317.951,145.522,313.933,144.517z"/>
	</g>
</g>
<g>
</g>
<g>
</g>
<g>
</g>
<g>
</g>
<g>
</g>
<g>
</g>
<g>
</g>
<g>
</g>
<g>
</g>
<g>
</g>
<g>
</g>
<g>
</g>
<g>
</g>
<g>
</g>
<g>
</g>
</svg>
