<?xml version="1.0" encoding="iso-8859-1"?>
<!-- Generator: Adobe Illustrator 19.0.0, SVG Export Plug-In . SVG Version: 6.00 Build 0)  -->
<svg version="1.1" id="Capa_1" xmlns="http://www.w3.org/2000/svg" xmlns:xlink="http://www.w3.org/1999/xlink" x="0px" y="0px"
	 viewBox="0 0 512.001 512.001" style="enable-background:new 0 0 512.001 512.001;" xml:space="preserve">
<g>
	<g>
		<path d="M285.394,298.83c-2.91-2.949-7.657-2.981-10.606-0.071c-2.737,2.701-9.299,5.855-18.781,5.855s-16.044-3.154-18.781-5.855
			c-2.948-2.908-7.697-2.877-10.606,0.071c-2.909,2.948-2.877,7.698,0.071,10.606c6.46,6.373,17.419,10.177,29.316,10.177
			c11.897,0,22.856-3.805,29.316-10.177C288.271,306.527,288.303,301.778,285.394,298.83z"/>
	</g>
</g>
<g>
	<g>
		<path d="M397.412,404.75l-37.76-13.327c-0.045-2.239-0.132-4.508-0.278-6.816c-0.612-9.633-7.19-17.862-16.811-20.981
			l-22.951-7.258v-0.577c25.017-17.394,42.615-44.739,47.014-76.258h5.607c15.186,0,27.54-12.354,27.54-27.541
			c0-2.355-0.298-4.642-0.857-6.826c11.049-18.497,16.889-39.626,16.889-61.312c0-50.656-31.624-94.062-76.164-111.52
			c0.002-0.235,0.011-0.471,0.011-0.705C339.652,32.133,307.52,0,268.023,0h-24.049c-39.496,0-71.629,32.133-71.629,71.629
			c0,0.235,0.009,0.47,0.011,0.706c-44.54,17.459-76.164,60.865-76.164,111.521c0,21.681,5.842,42.814,16.89,61.311
			c-0.559,2.184-0.857,4.471-0.857,6.826c0,15.186,12.354,27.541,27.54,27.541h5.607c4.399,31.519,21.997,58.864,47.014,76.258
			v0.577l-23.003,7.275c-9.568,3.103-16.146,11.332-16.759,20.965c-0.144,2.271-0.233,4.544-0.279,6.816l-37.759,13.327
			c-25.386,8.959-42.441,33.066-42.441,59.986V504.5c0,4.142,3.357,7.5,7.5,7.5s7.5-3.358,7.5-7.5v-39.764
			c0-6.644,1.367-13.061,3.861-18.939l36.69,31.448c5.451,4.673,8.578,11.471,8.578,18.651v8.604c0,4.142,3.357,7.5,7.5,7.5
			s7.5-3.358,7.5-7.5v-8.604c0-11.564-5.036-22.513-13.816-30.04l-38.424-32.935c5.404-6.246,12.412-11.156,20.546-14.027
			l33.239-11.731c0.049,0.612,0.095,1.224,0.152,1.834c0.361,3.889,3.63,6.806,7.459,6.806c0.232,0,0.468-0.011,0.703-0.033
			c4.124-0.383,7.157-4.038,6.773-8.162c-0.674-7.246-0.778-14.665-0.31-22.052c0.219-3.452,2.737-6.454,6.363-7.629l18.428-5.828
			v12.159c0,30.656,28.537,55.597,63.613,55.597s63.613-24.94,63.613-55.597v-12.159l18.376,5.811
			c3.678,1.192,6.196,4.194,6.415,7.646c1.817,28.656-5.402,51.429-11.778,65.487c-5.014,11.053-18.545,17.122-31.482,14.113
			L266.061,457c-6.583-1.53-13.541-1.53-20.122,0l-35.083,8.157c-12.938,3.009-26.469-3.06-31.482-14.114
			c-1.909-4.208-3.626-8.595-5.103-13.038c-1.308-3.931-5.557-6.058-9.482-4.751c-3.931,1.307-6.059,5.552-4.752,9.483
			c1.642,4.938,3.552,9.818,5.677,14.502c8.038,17.724,28.45,27.201,48.539,22.528l35.084-8.157c4.359-1.014,8.968-1.014,13.327,0
			l35.083,8.157c3.439,0.8,6.886,1.185,10.281,1.185c16.432-0.001,31.596-9.024,38.258-23.712
			c5.311-11.709,11.149-28.851,12.888-50.079l33.247,11.734c8.133,2.871,15.141,7.781,20.546,14.027l-38.424,32.935
			c-8.78,7.527-13.816,18.476-13.816,30.04v8.604c0,4.142,3.357,7.5,7.5,7.5s7.5-3.358,7.5-7.5v-8.604
			c0-7.18,3.127-13.978,8.578-18.651l36.69-31.448c2.495,5.878,3.861,12.295,3.861,18.939V504.5c0,4.142,3.357,7.5,7.5,7.5
			s7.5-3.358,7.5-7.5v-39.764C439.853,437.816,422.798,413.709,397.412,404.75z M243.975,15h24.049
			c29.85,0,54.362,23.22,56.465,52.543c-9.11-2.226-18.623-3.415-28.409-3.415h-80.162c-9.786,0-19.298,1.189-28.409,3.415
			C189.612,38.22,214.124,15,243.975,15z M111.194,183.855c0-57.746,46.979-104.726,104.726-104.726h80.162
			c57.746,0,104.726,46.98,104.726,104.726c0,16.386-3.81,32.405-11.071,46.889c-4.761-3.929-10.861-6.292-17.501-6.292h-3.999
			c-0.003,0-0.006,0-0.01,0h-0.01c-4.7-0.006-8.523-3.83-8.523-8.532v-24.049c0-17.396-14.152-31.548-31.548-31.548h-8.02
			c-4.143,0-7.5,3.358-7.5,7.5c0,4.142,3.357,7.5,7.5,7.5h8.02c9.125,0,16.548,7.423,16.548,16.548v24.049
			c0,3.009,0.574,5.885,1.608,8.532h-46.214c-9.253,0-17.448,4.592-22.445,11.611c-6.309-2.338-13.779-3.595-21.644-3.595
			c-7.85,0-15.321,1.269-21.635,3.607c-4.995-7.026-13.195-11.623-22.453-11.623h-46.212c1.034-2.647,1.608-5.523,1.608-8.532
			v-24.049c0-9.125,7.424-16.548,16.548-16.548h104.21c4.143,0,7.5-3.358,7.5-7.5c0-4.142-3.357-7.5-7.5-7.5h-104.21
			c-17.396,0-31.548,14.152-31.548,31.548v24.049c0,4.705-3.828,8.532-8.532,8.532h-4.009c-6.64,0-12.739,2.363-17.5,6.291
			C115.006,216.259,111.194,200.238,111.194,183.855z M304.103,256.181c4.143,0,7.5-3.358,7.5-7.5v-8.723
			c5.216,1.52,9.041,6.334,9.041,12.034c0,6.915-5.626,12.54-12.541,12.54h-8.016c-6.915,0-12.54-5.625-12.54-12.541
			c0.001-5.704,3.833-10.522,9.056-12.037v8.727C296.603,252.823,299.96,256.181,304.103,256.181z M207.91,256.181
			c4.143,0,7.5-3.358,7.5-7.5v-8.723c5.215,1.52,9.04,6.334,9.04,12.034c0,6.915-5.625,12.54-12.54,12.54h-8.016
			c-6.915,0-12.541-5.625-12.541-12.541c0-5.704,3.834-10.522,9.057-12.037v8.727C200.41,252.823,203.767,256.181,207.91,256.181z
			 M159.289,264.017c0-4.142-3.357-7.5-7.5-7.5s-7.5,3.358-7.5,7.5c0,0.173,0.006,0.344,0.007,0.516h-4.531
			c-6.915,0-12.54-5.625-12.54-12.541c0-6.915,5.625-12.54,12.54-12.54h39.622c-1.934,3.764-3.033,8.025-3.033,12.54
			c0,15.186,12.354,27.54,27.541,27.54h8.016c15.186,0,27.54-12.354,27.54-27.541c0-0.597-0.026-1.188-0.063-1.775
			c4.654-1.757,10.492-2.749,16.612-2.749c6.137,0,11.966,0.988,16.613,2.744c-0.038,0.589-0.064,1.182-0.064,1.781
			c0,15.186,12.354,27.54,27.54,27.54h8.016c15.187,0,27.541-12.354,27.541-27.541c0-4.515-1.099-8.776-3.033-12.54h39.622
			c6.915,0,12.54,5.625,12.54,12.54c0,6.915-5.625,12.541-12.54,12.541h-4.531c0.001-0.172,0.007-0.344,0.007-0.516
			c0-4.142-3.357-7.5-7.5-7.5s-7.5,3.358-7.5,7.5c0,53.326-43.384,96.709-96.71,96.709S159.289,317.342,159.289,264.017z
			 M304.612,384.258c0,22.386-21.807,40.597-48.613,40.597c-26.806,0-48.613-18.211-48.613-40.597v-19.677
			c14.705,7.137,31.2,11.145,48.613,11.145s33.908-4.007,48.613-11.145V384.258z"/>
	</g>
</g>
<g>
</g>
<g>
</g>
<g>
</g>
<g>
</g>
<g>
</g>
<g>
</g>
<g>
</g>
<g>
</g>
<g>
</g>
<g>
</g>
<g>
</g>
<g>
</g>
<g>
</g>
<g>
</g>
<g>
</g>
</svg>
