<?xml version="1.0" encoding="iso-8859-1"?>
<!-- Generator: Adobe Illustrator 19.0.0, SVG Export Plug-In . SVG Version: 6.00 Build 0)  -->
<svg version="1.1" id="Capa_1" xmlns="http://www.w3.org/2000/svg" xmlns:xlink="http://www.w3.org/1999/xlink" x="0px" y="0px"
	 viewBox="0 0 512.002 512.002" style="enable-background:new 0 0 512.002 512.002;" xml:space="preserve">
<g>
	<g>
		<path d="M410.778,373.876l-57.831-20.41c0.837-3.064,0.895-6.325,0.106-9.502c-1.371-5.522-5.109-10.083-10.256-12.511
			l-31.201-14.717v-10.274c32.328-5.506,61.735-14.27,81.191-20.852c6.079-2.055,11.113-6.575,13.814-12.401
			c2.703-5.83,2.897-12.312,0.55-18.247c-3.366-8.511-7.377-23.584-7.377-47.059v-64.129C399.774,64.497,335.277,0,256,0
			S112.226,64.497,112.226,143.774v64.129c0,23.477-4.012,38.548-7.377,47.059c-2.348,5.937-2.153,12.417,0.55,18.248
			c2.7,5.825,7.735,10.346,13.813,12.4c19.457,6.582,48.863,15.346,81.192,20.852v10.274l-31.2,14.717
			c-5.147,2.428-8.886,6.988-10.256,12.511c-0.789,3.177-0.731,6.438,0.106,9.502l-57.83,20.41
			c-22.187,7.831-37.093,28.899-37.093,52.428V504.5c0,4.143,3.358,7.5,7.5,7.5c4.142,0,7.5-3.357,7.5-7.5v-78.196
			c0-17.18,10.885-32.565,27.085-38.283l60.963-21.516l7.494,9.993l-8.113,12.168c-4.506,6.76-5.19,15.54-1.786,22.914
			l17.225,37.323H159.29v-8.532c0-4.143-3.358-7.5-7.5-7.5c-4.142,0-7.5,3.357-7.5,7.5v8.532h-32.581c-4.142,0-7.5,3.357-7.5,7.5
			V504.5c0,4.143,3.358,7.5,7.5,7.5h80.162c4.142,0,7.5-3.357,7.5-7.5v-17.958l9.739,21.101c1.266,2.744,3.979,4.359,6.814,4.359
			c1.052,0,2.121-0.223,3.138-0.692c3.761-1.735,5.402-6.191,3.667-9.952l-44.337-96.064c-1.234-2.674-0.986-5.856,0.647-8.308
			l11.056-16.583c1.764-2.646,1.667-6.116-0.24-8.66l-15.693-20.924c-0.956-1.274-0.822-2.577-0.657-3.241
			c0.165-0.663,0.656-1.878,2.097-2.558l27.341-12.896l16.319,62.096c1.053,4.007,5.157,6.403,9.16,5.348
			c4.006-1.053,6.4-5.154,5.348-9.16l-0.628-2.388c7.327,2.462,15.051,3.74,22.858,3.74c7.799,0,15.527-1.276,22.857-3.738
			L256,474.995l-13.821-52.589c-1.053-4.005-5.153-6.402-9.16-5.348c-4.006,1.053-6.4,5.154-5.348,9.16l21.075,80.189
			c0.866,3.296,3.846,5.594,7.254,5.594c3.408,0,6.387-2.298,7.253-5.594l45.804-174.283l27.341,12.896
			c1.44,0.68,1.932,1.895,2.097,2.558c0.165,0.664,0.298,1.967-0.658,3.241l-15.692,20.924c-1.908,2.544-2.004,6.015-0.24,8.66
			l11.055,16.583c1.634,2.451,1.882,5.634,0.648,8.309l-44.337,96.063c-1.736,3.761-0.094,8.217,3.667,9.952
			c1.018,0.47,2.086,0.692,3.138,0.692c2.835,0,5.548-1.616,6.814-4.359l44.337-96.063c3.404-7.375,2.72-16.155-1.786-22.915
			l-8.112-12.168l7.494-9.992l60.963,21.516c16.201,5.718,27.085,21.103,27.085,38.283V504.5c0,4.143,3.358,7.5,7.5,7.5
			c4.142,0,7.5-3.357,7.5-7.5v-78.196C447.871,402.775,432.964,381.707,410.778,373.876z M184.371,497h-65.162v-33.097h25.081v0.516
			c0,4.143,3.358,7.5,7.5,7.5c4.142,0,7.5-3.357,7.5-7.5v-0.516h25.081V497z M392.992,266.901c-0.995,2.146-2.773,3.743-5.01,4.5
			c-16.038,5.426-39.01,12.371-64.719,17.614c26.98-20.412,44.446-52.767,44.446-89.129v-36.732
			c5.644,1.15,11.336,2.19,17.064,3.103v41.646c0,20.742,2.835,38.431,8.429,52.575
			C394.024,262.556,393.949,264.836,392.992,266.901z M296.597,320.521l-12.877,48.998c-8.418,4.734-17.996,7.239-27.72,7.239
			c-9.735,0-19.299-2.507-27.721-7.245l-12.876-48.992v-16.562c12.589,4.928,26.282,7.638,40.597,7.638
			c14.315,0,28.007-2.71,40.597-7.638V320.521z M256,296.597c-53.326,0-96.709-43.384-96.709-96.71v-32.064
			c0-4.143-3.358-7.5-7.5-7.5c-4.142,0-7.5,3.357-7.5,7.5v32.064c0,36.362,17.466,68.717,44.446,89.129
			c-25.709-5.244-48.681-12.189-64.72-17.614c-2.236-0.756-4.015-2.354-5.009-4.5c-0.958-2.065-1.032-4.347-0.21-6.424
			c5.592-14.142,8.428-31.83,8.428-52.574v-56.426c1.158-0.195,2.259-0.4,2.577-0.491c1.861-0.532,46.021-13.384,84.703-44.775
			c5.658-4.593,13.805-4.674,19.81-0.198c14.775,11.013,39.802,26.955,75.128,40.367c3.873,1.473,8.204-0.478,9.674-4.35
			c1.47-3.872-0.477-8.203-4.35-9.674c-33.707-12.797-57.48-27.93-71.489-38.371c-11.516-8.581-27.234-8.344-38.226,0.579
			c-32.013,25.98-69.106,38.747-77.586,41.448C131.494,68.606,187.601,15,256,15c71.006,0,128.774,57.768,128.774,128.774v7.276
			c-13.143-2.176-26.089-5-38.586-8.443c-3.99-1.102-8.122,1.245-9.223,5.238c-1.1,3.993,1.245,8.123,5.238,9.223
			c3.47,0.956,6.977,1.858,10.506,2.723v40.095C352.709,253.213,309.326,296.597,256,296.597z"/>
	</g>
</g>
<g>
	<g>
		<path d="M215.919,152.307h-16.032c-4.142,0-7.5,3.357-7.5,7.5s3.358,7.5,7.5,7.5h16.032c4.142,0,7.5-3.357,7.5-7.5
			S220.061,152.307,215.919,152.307z"/>
	</g>
</g>
<g>
	<g>
		<path d="M312.113,152.307h-16.032c-4.142,0-7.5,3.357-7.5,7.5s3.357,7.5,7.5,7.5h16.032c4.142,0,7.5-3.357,7.5-7.5
			S316.255,152.307,312.113,152.307z"/>
	</g>
</g>
<g>
	<g>
		<path d="M400.291,452.911H387.75v-12.54c0-4.143-3.358-7.5-7.5-7.5c-4.142,0-7.5,3.357-7.5,7.5v12.54h-12.541
			c-4.142,0-7.5,3.357-7.5,7.5s3.358,7.5,7.5,7.5h12.541v12.54c0,4.143,3.358,7.5,7.5,7.5c4.142,0,7.5-3.357,7.5-7.5v-12.54h12.541
			c4.142,0,7.5-3.357,7.5-7.5S404.433,452.911,400.291,452.911z"/>
	</g>
</g>
<g>
	<g>
		<path d="M207.903,176.354c-4.142,0-7.5,3.357-7.5,7.5v8.017c0,4.143,3.358,7.5,7.5,7.5c4.142,0,7.5-3.357,7.5-7.5v-8.017
			C215.403,179.711,212.045,176.354,207.903,176.354z"/>
	</g>
</g>
<g>
	<g>
		<path d="M304.097,176.354c-4.142,0-7.5,3.357-7.5,7.5v8.017c0,4.143,3.358,7.5,7.5,7.5c4.142,0,7.5-3.357,7.5-7.5v-8.017
			C311.597,179.712,308.239,176.354,304.097,176.354z"/>
	</g>
</g>
<g>
	<g>
		<path d="M292.073,220.415h-72.146c-4.142,0-7.5,3.357-7.5,7.5c0,21.816,19.547,39.564,43.573,39.564
			c24.026,0,43.573-17.748,43.573-39.564C299.573,223.772,296.215,220.415,292.073,220.415z M256,252.479
			c-12.714,0-23.516-7.176-27.211-17.064h54.422C279.516,245.304,268.714,252.479,256,252.479z"/>
	</g>
</g>
<g>
</g>
<g>
</g>
<g>
</g>
<g>
</g>
<g>
</g>
<g>
</g>
<g>
</g>
<g>
</g>
<g>
</g>
<g>
</g>
<g>
</g>
<g>
</g>
<g>
</g>
<g>
</g>
<g>
</g>
</svg>
