<?xml version="1.0" encoding="iso-8859-1"?>
<!-- Generator: Adobe Illustrator 19.0.0, SVG Export Plug-In . SVG Version: 6.00 Build 0)  -->
<svg version="1.1" id="Capa_1" xmlns="http://www.w3.org/2000/svg" xmlns:xlink="http://www.w3.org/1999/xlink" x="0px" y="0px"
	 viewBox="0 0 512 512" style="enable-background:new 0 0 512 512;" xml:space="preserve">
<g>
	<g>
		<path d="M207.904,160.322c-4.143,0-7.5,3.357-7.5,7.5v8.017c0,4.143,3.357,7.5,7.5,7.5s7.5-3.357,7.5-7.5v-8.017
			C215.404,163.68,212.047,160.322,207.904,160.322z"/>
	</g>
</g>
<g>
	<g>
		<path d="M304.098,160.322c-4.143,0-7.5,3.357-7.5,7.5v8.017c0,4.143,3.357,7.5,7.5,7.5s7.5-3.357,7.5-7.5v-8.017
			C311.598,163.68,308.24,160.322,304.098,160.322z"/>
	</g>
</g>
<g>
	<g>
		<path d="M285.388,218.669c-2.908-2.951-7.658-2.981-10.605-0.072c-2.738,2.7-9.3,5.854-18.782,5.854
			c-9.482,0-16.044-3.154-18.782-5.854c-2.948-2.911-7.698-2.879-10.605,0.072c-2.909,2.948-2.877,7.697,0.072,10.605
			c6.459,6.372,17.418,10.177,29.315,10.177c11.897,0,22.856-3.805,29.315-10.177C288.265,226.366,288.297,221.617,285.388,218.669z
			"/>
	</g>
</g>
<g>
	<g>
		<path d="M429.059,355.562l-52.087-9.411c-3.335-0.603-6.363-2.187-8.759-4.582l-27.72-27.719
			c-3.125-3.125-4.847-7.28-4.847-11.629l0.311-32.436c16.218-16.64,27.309-38.299,30.675-62.398h4.457c0.002,0,0.001,0,0.003,0
			c14.616,0,27.153-10.861,28.541-24.727c0.778-7.771-1.764-15.53-6.974-21.287c-2.522-2.787-5.568-4.992-8.918-6.534V39.564
			C383.742,17.748,365.993,0,344.178,0H167.823c-21.815,0-39.564,17.748-39.564,39.564v115.609
			c-8.63,4.115-14.929,12.266-15.891,21.858c-0.778,7.771,1.763,15.53,6.973,21.288c5.214,5.763,12.659,9.067,20.427,9.067h5.598
			c3.364,24.109,14.457,45.773,30.679,62.414l0.311,32.348c0,4.421-1.722,8.576-4.848,11.701l-27.72,27.719
			c-2.395,2.396-5.423,3.979-8.759,4.582l-52.085,9.411c-34.126,6.165-58.895,35.81-58.895,70.487V504.5c0,4.143,3.357,7.5,7.5,7.5
			s7.5-3.357,7.5-7.5v-78.451c0-27.416,19.582-50.852,46.562-55.726l34.632-6.258V504.5c0,4.143,3.357,7.5,7.5,7.5
			s7.5-3.357,7.5-7.5V361.355l2.453-0.443c5.427-0.98,10.423-3.337,14.611-6.843v14.157c0,57.176,46.516,103.693,103.693,103.693
			h0.001c57.176-0.001,103.692-46.518,103.692-103.693V354.07c4.189,3.506,9.184,5.862,14.61,6.843l2.454,0.443v14.889
			c0,4.143,3.357,7.5,7.5,7.5s7.5-3.357,7.5-7.5v-12.178l34.633,6.258c26.979,4.874,46.561,28.31,46.561,55.726V504.5
			c0,4.143,3.357,7.5,7.5,7.5s7.5-3.357,7.5-7.5v-78.451C487.952,391.371,463.184,361.727,429.059,355.562z M159.29,191.871
			c0.001-4.142-3.356-7.5-7.499-7.5s-7.5,3.357-7.5,7.5v0.516h-4.523c-3.537,0-6.929-1.506-9.304-4.131
			c-2.406-2.66-3.532-6.115-3.17-9.729c0.63-6.292,6.612-11.221,13.618-11.221h10.879c12.976,0,23.532-10.557,23.532-23.532v-24.049
			c0-13.545,11.02-24.564,24.564-24.564c4.143,0,7.5-3.357,7.5-7.5s-3.357-7.5-7.5-7.5c-21.816,0-39.564,17.749-39.564,39.564
			v24.049c0,4.705-3.827,8.532-8.532,8.532h-8.532V39.564c0-13.545,11.02-24.564,24.564-24.564h176.354
			c13.545,0,24.564,11.02,24.564,24.564v112.742h-8.531c-4.705,0-8.532-3.827-8.532-8.532v-24.049
			c0-21.815-17.748-39.564-39.564-39.564h-80.161c-4.143,0-7.5,3.357-7.5,7.5s3.357,7.5,7.5,7.5h80.161
			c13.545,0,24.564,11.02,24.564,24.564v24.049c0,12.976,10.557,23.532,23.532,23.532h12.024c3.536,0,6.927,1.506,9.303,4.13
			c2.406,2.66,3.532,6.115,3.17,9.729c-0.63,6.292-6.61,11.221-13.616,11.221h-0.001h-3.384v-0.438c0-4.141-3.356-7.498-7.497-7.5
			c-0.001,0-0.002,0-0.003,0c-4.14,0-7.497,3.354-7.5,7.494c-0.039,53.287-43.421,96.639-96.706,96.639
			C202.674,288.581,159.29,245.197,159.29,191.871z M344.695,368.226c-0.001,46.378-35.786,84.552-81.194,88.373v-8.212
			c0-4.143-3.357-7.5-7.5-7.5c-4.143,0-7.5,3.357-7.5,7.5v8.212c-45.408-3.821-81.193-41.994-81.193-88.373v-28.962l14.807-14.806
			c5.959-5.958,9.241-13.881,9.241-22.381l-0.185-19.287c18.293,13.082,40.677,20.792,64.831,20.792
			c24.151,0,46.536-7.716,64.831-20.804l-0.186,19.371c0,8.428,3.282,16.351,9.24,22.309l14.808,14.807V368.226z"/>
	</g>
</g>
<g>
	<g>
		<path d="M217.449,139.771l-16.032-3.34c-4.053-0.843-8.027,1.759-8.872,5.813c-0.845,4.054,1.758,8.028,5.813,8.873l16.032,3.34
			c0.516,0.107,1.03,0.159,1.537,0.159c3.478,0,6.598-2.434,7.335-5.973C224.107,144.588,221.504,140.616,217.449,139.771z"/>
	</g>
</g>
<g>
	<g>
		<path d="M319.456,142.245c-0.845-4.055-4.815-6.657-8.872-5.813l-16.032,3.34c-4.056,0.845-6.658,4.817-5.813,8.872
			c0.738,3.539,3.858,5.972,7.335,5.972c0.507,0,1.021-0.052,1.537-0.159l16.032-3.34
			C317.699,150.272,320.301,146.3,319.456,142.245z"/>
	</g>
</g>
<g>
	<g>
		<path d="M384.259,400.809c-4.143,0-7.5,3.357-7.5,7.5v96.189c0,4.143,3.357,7.5,7.5,7.5s7.5-3.357,7.5-7.5v-96.189
			C391.759,404.166,388.401,400.809,384.259,400.809z"/>
	</g>
</g>
<g>
</g>
<g>
</g>
<g>
</g>
<g>
</g>
<g>
</g>
<g>
</g>
<g>
</g>
<g>
</g>
<g>
</g>
<g>
</g>
<g>
</g>
<g>
</g>
<g>
</g>
<g>
</g>
<g>
</g>
</svg>
