<?xml version="1.0" encoding="iso-8859-1"?>
<!-- Generator: Adobe Illustrator 19.0.0, SVG Export Plug-In . SVG Version: 6.00 Build 0)  -->
<svg version="1.1" id="Capa_1" xmlns="http://www.w3.org/2000/svg" xmlns:xlink="http://www.w3.org/1999/xlink" x="0px" y="0px"
	 viewBox="0 0 512 512" style="enable-background:new 0 0 512 512;" xml:space="preserve">
<g>
	<g>
		<path d="M207.902,184.371c-4.142,0-7.5,3.358-7.5,7.5v8.016c0,4.142,3.358,7.5,7.5,7.5c4.142,0,7.5-3.358,7.5-7.5v-8.016
			C215.402,187.729,212.043,184.371,207.902,184.371z"/>
	</g>
</g>
<g>
	<g>
		<path d="M304.095,184.371c-4.142,0-7.5,3.358-7.5,7.5v8.016c0,4.142,3.358,7.5,7.5,7.5c4.142,0,7.5-3.358,7.5-7.5v-8.016
			C311.595,187.729,308.238,184.371,304.095,184.371z"/>
	</g>
</g>
<g>
	<g>
		<path d="M410.777,389.909l-18.929-6.681c5.102-12.248,7.926-25.673,7.926-39.747c0-8.029-1.725-15.659-4.801-22.559
			c2.826-1.075,5.625-2.162,8.371-3.256c5.907-2.352,10.519-6.876,12.985-12.739c2.445-5.813,2.459-12.205,0.04-17.999
			c-6.198-14.838-16.595-45.875-16.595-87.041v-56.113C399.772,64.497,335.276,0,255.999,0S112.225,64.497,112.225,143.774v56.113
			c0,41.166-10.397,72.203-16.594,87.041c-2.42,5.793-2.406,12.185,0.039,17.998c2.466,5.864,7.078,10.389,12.985,12.74
			c2.748,1.094,5.546,2.182,8.371,3.257c-3.076,6.9-4.801,14.53-4.801,22.559c0,14.074,2.824,27.499,7.926,39.747l-18.929,6.681
			c-22.187,7.83-37.093,28.899-37.093,52.427V504.5c0,4.142,3.358,7.5,7.5,7.5c4.142,0,7.5-3.358,7.5-7.5v-62.165
			c0-4.992,0.925-9.83,2.626-14.326l37.925,32.507c5.452,4.673,8.578,11.471,8.578,18.651V504.5c0,4.142,3.358,7.5,7.5,7.5
			c4.142,0,7.5-3.358,7.5-7.5v-25.333c0-11.564-5.036-22.513-13.816-30.04l-39.755-34.075c4.423-4.876,10.048-8.712,16.528-10.999
			l20.759-7.327c16.932,28.179,46.868,47.691,81.446,50.175v56.902c0,4.142,3.358,7.5,7.5,7.5c4.142,0,7.5-3.358,7.5-7.5v-56.629
			h65.161v56.629c0,4.142,3.358,7.5,7.5,7.5c4.142,0,7.5-3.358,7.5-7.5v-56.902c34.578-2.484,64.514-21.996,81.446-50.175
			l20.759,7.327c6.479,2.287,12.105,6.123,16.528,10.999l-39.755,34.075c-8.781,7.526-13.816,18.475-13.816,30.04V504.5
			c0,4.142,3.358,7.5,7.5,7.5c4.142,0,7.5-3.358,7.5-7.5v-25.333c0-7.18,3.126-13.978,8.578-18.651l37.925-32.507
			c1.702,4.496,2.626,9.334,2.626,14.326V504.5c0,4.142,3.358,7.5,7.5,7.5c4.142,0,7.5-3.358,7.5-7.5v-62.165
			C447.87,418.808,432.962,397.739,410.777,389.909z M303.579,431.854v-8.212c0-4.142-3.358-7.5-7.5-7.5c-4.142,0-7.5,3.358-7.5,7.5
			v8.532h-65.161v-8.532c0-4.142-3.358-7.5-7.5-7.5c-4.142,0-7.5,3.358-7.5,7.5v8.212c-45.409-3.821-81.194-41.994-81.194-88.374
			c0-22.385,18.212-40.597,40.597-40.597h29.441c1.037,0.643,2.081,1.276,3.139,1.886v7.163h-30.448
			c-11.331,0-20.773,7.007-24.057,17.852c-3.284,10.844,0.687,21.913,10.114,28.198l82.487,54.992
			c5.315,3.544,11.408,5.315,17.5,5.315c6.092,0,12.185-1.772,17.5-5.315l18.725-12.483c3.447-2.297,4.378-6.954,2.08-10.4
			c-2.297-3.446-6.955-4.377-10.4-2.08l-18.725,12.483c-5.577,3.717-12.783,3.717-18.359,0l-47.124-31.416
			c9.7-7.349,15.707-18.955,15.707-31.553v-25.548c12.589,4.928,26.282,7.638,40.597,7.638s28.007-2.71,40.597-7.638v25.548
			c0,12.598,6.007,24.204,15.707,31.553l-0.341,0.227c-3.447,2.297-4.378,6.954-2.08,10.4c1.445,2.168,3.823,3.341,6.247,3.341
			c1.43,0,2.875-0.408,4.153-1.261l35.704-23.803c9.428-6.285,13.398-17.354,10.114-28.198
			c-3.283-10.844-12.726-17.852-24.057-17.852h-30.448v-7.163c1.059-0.61,2.103-1.243,3.139-1.886h29.441
			c22.385,0,40.597,18.212,40.597,40.597C384.772,389.86,348.988,428.033,303.579,431.854z M200.402,326.932v10.591
			c-0.001,9.697-5.734,18.444-14.46,22.385l-21.61-14.407c-4.614-3.076-5.132-7.891-4.078-11.371c1.053-3.48,4.155-7.198,9.7-7.198
			H200.402z M311.595,337.524v-10.591h30.448c5.545,0,8.647,3.718,9.7,7.198c1.054,3.48,0.536,8.294-4.078,11.371l-21.61,14.406
			C317.329,355.967,311.595,347.22,311.595,337.524z M344.175,287.883H333.9c20.841-20.305,33.807-48.654,33.807-79.98v-32.064
			c0-21.816-17.749-39.564-39.564-39.564h-12.926L277.334,98.39c-2.145-2.145-5.371-2.786-8.173-1.626
			c-2.803,1.161-4.63,3.896-4.63,6.929v32.581h-40.596c-4.142,0-7.5,3.358-7.5,7.5c0,4.142,3.358,7.5,7.5,7.5h48.096
			c4.142,0,7.5-3.358,7.5-7.5V121.8l27.277,27.277c1.406,1.407,3.314,2.197,5.303,2.197h16.032c13.545,0,24.564,11.02,24.564,24.564
			v32.064c0,53.326-43.384,96.709-96.709,96.709s-96.709-43.384-96.709-96.709v-32.064c0-13.545,11.02-24.564,24.564-24.564h8.02
			c4.142,0,7.5-3.358,7.5-7.5c0-4.142-3.358-7.5-7.5-7.5h-8.02c-21.816,0-39.564,17.749-39.564,39.564v32.064
			c0,31.326,12.966,59.676,33.807,79.98h-10.275c-17.15,0-32.507,7.809-42.714,20.055c-3.687-1.381-7.34-2.789-10.904-4.208
			c-2.141-0.852-3.812-2.493-4.707-4.619c-0.873-2.076-0.882-4.349-0.025-6.401c8.099-19.389,17.753-51.232,17.753-92.822v-56.113
			C127.225,72.768,184.993,15,255.999,15s128.774,57.768,128.774,128.774v56.113c0,41.588,9.655,73.432,17.753,92.821
			c0.857,2.052,0.849,4.326-0.025,6.402c-0.895,2.126-2.566,3.767-4.707,4.619c-3.562,1.418-7.215,2.828-10.904,4.21
			C376.683,295.693,361.326,287.883,344.175,287.883z"/>
	</g>
</g>
<g>
	<g>
		<path d="M215.918,159.626h-16.032c-4.142,0-7.5,3.358-7.5,7.5c0,4.142,3.358,7.5,7.5,7.5h16.032c4.142,0,7.5-3.358,7.5-7.5
			C223.418,162.984,220.059,159.626,215.918,159.626z"/>
	</g>
</g>
<g>
	<g>
		<path d="M312.112,159.626h-16.032c-4.142,0-7.5,3.358-7.5,7.5c0,4.142,3.357,7.5,7.5,7.5h16.032c4.142,0,7.5-3.358,7.5-7.5
			C319.612,162.984,316.254,159.626,312.112,159.626z"/>
	</g>
</g>
<g>
	<g>
		<path d="M292.072,228.431h-72.146c-4.142,0-7.5,3.358-7.5,7.5c0,21.816,19.547,39.564,43.573,39.564s43.573-17.749,43.573-39.564
			C299.572,231.789,296.214,228.431,292.072,228.431z M255.999,260.495c-12.714,0-23.516-7.176-27.211-17.064h54.422
			C279.514,253.32,268.712,260.495,255.999,260.495z"/>
	</g>
</g>
<g>
</g>
<g>
</g>
<g>
</g>
<g>
</g>
<g>
</g>
<g>
</g>
<g>
</g>
<g>
</g>
<g>
</g>
<g>
</g>
<g>
</g>
<g>
</g>
<g>
</g>
<g>
</g>
<g>
</g>
</svg>
