<?xml version="1.0" encoding="iso-8859-1"?>
<!-- Generator: Adobe Illustrator 19.0.0, SVG Export Plug-In . SVG Version: 6.00 Build 0)  -->
<svg version="1.1" id="Capa_1" xmlns="http://www.w3.org/2000/svg" xmlns:xlink="http://www.w3.org/1999/xlink" x="0px" y="0px"
	 viewBox="0 0 512 512" style="enable-background:new 0 0 512 512;" xml:space="preserve">
<g>
	<g>
		<path d="M410.778,397.925l-82.793-29.221c-9.803-3.46-16.389-12.77-16.389-23.165v-32.754
			c29.243-16.85,50.175-46.561,55.031-81.35h5.607c15.186,0,27.54-12.354,27.54-27.541c0-5.715-1.751-11.028-4.743-15.433
			c3.135-11.917,4.743-24.235,4.743-36.671c0-9.592-0.952-18.966-2.753-28.037c25.482-8.759,42.833-32.732,42.833-60.141
			C439.854,28.537,411.318,0,376.242,0c-20.422,0-39.149,9.533-51.125,25.754C304.595,14.455,281.036,8.016,256,8.016
			s-48.595,6.439-69.117,17.738C174.906,9.534,156.179,0,135.758,0c-35.077,0-63.613,28.537-63.613,63.613
			c0,27.408,17.351,51.381,42.834,60.14c-1.801,9.072-2.753,18.445-2.753,28.037c0,12.433,1.608,24.753,4.743,36.671
			c-2.992,4.405-4.743,9.719-4.743,15.434c0,15.186,12.354,27.541,27.541,27.541h5.607c4.856,34.789,25.787,64.501,55.03,81.35
			v32.754c0,10.396-6.586,19.705-16.389,23.165l-82.792,29.221c-22.187,7.83-37.093,28.899-37.093,52.427V504.5
			c0,4.142,3.358,7.5,7.5,7.5c4.142,0,7.5-3.358,7.5-7.5v-54.148c0-17.18,10.885-32.564,27.085-38.282l52.328-18.469l20.981,20.982
			c3.125,3.126,4.847,7.282,4.847,11.702V504.5c0,4.142,3.358,7.5,7.5,7.5c4.142,0,7.5-3.358,7.5-7.5v-59.323
			c17.519,7.024,36.865,10.71,56.629,10.71c19.765,0,39.111-3.685,56.629-10.71v3.206c0,4.142,3.357,7.5,7.5,7.5s7.5-3.358,7.5-7.5
			v-22.1c0-4.42,1.722-8.576,4.848-11.702l20.981-20.981l52.328,18.469c16.2,5.718,27.085,21.102,27.085,38.282V504.5
			c0,4.142,3.357,7.5,7.5,7.5s7.5-3.358,7.5-7.5v-54.148C447.871,426.824,432.965,405.755,410.778,397.925z M376.242,15
			c26.805,0,48.612,21.808,48.612,48.613c0,20.518-12.72,38.51-31.537,45.529c-9.614-30.888-29.39-57.335-55.392-75.431
			C347.102,21.912,361.054,15,376.242,15z M118.683,109.142c-18.817-7.019-31.538-25.011-31.538-45.529
			C87.145,36.808,108.953,15,135.758,15c15.187,0,29.14,6.912,38.317,18.711C148.072,51.807,128.296,78.254,118.683,109.142z
			 M159.291,215.919c0-4.142-3.358-7.5-7.5-7.5c-4.142,0-7.5,3.358-7.5,7.5c0,0.173,0.006,0.344,0.007,0.516h-4.531
			c-6.915,0-12.541-5.625-12.541-12.541c0-6.915,5.625-12.54,12.539-12.54l6.011,0.001c7.902-0.007,7.924,0.001,9.606-0.917
			c2.508-1.368,3.923-3.96,3.909-6.63v-7.97c0-23.88,7.482-44.707,22.239-61.899c2.698-3.143,2.336-7.878-0.807-10.576
			c-3.144-2.698-7.878-2.336-10.576,0.807c-17.157,19.99-25.856,44.103-25.856,71.669v0.517c-2.434,0-4.524-0.001-4.524-0.001
			c-3.464,0-6.778,0.649-9.835,1.822c-1.797-8.639-2.706-17.48-2.706-26.386c0-71.006,57.768-128.774,128.774-128.774
			c71.007,0,128.774,57.768,128.774,128.774c0,8.908-0.913,17.747-2.71,26.385c-3.056-1.172-6.369-1.82-9.832-1.82
			c0,0-2.089,0-4.522,0v-17.739c0.173,0,0.342,0.005,0.516,0.005c4.143,0,7.5-3.358,7.5-7.5c0-4.142-3.357-7.5-7.5-7.5
			c-62.787,0-108.183-20.323-135.208-37.372c-29.375-18.531-44.076-37.338-44.221-37.526c-2.523-3.278-7.225-3.895-10.508-1.376
			c-3.287,2.521-3.907,7.229-1.386,10.516c0.642,0.837,16.093,20.739,47.487,40.678c26.506,16.834,69.584,36.631,128.32,39.667
			v25.646h0.007c0.003,2.545,1.293,5.026,3.634,6.431c1.784,1.071,1.805,1.065,9.873,1.07l6.01-0.001
			c6.915,0,12.54,5.625,12.54,12.54s-5.625,12.541-12.54,12.541h-4.531c0.001-0.172,0.007-0.344,0.007-0.516
			c0-4.142-3.357-7.5-7.5-7.5s-7.5,3.358-7.5,7.5c0,53.326-43.384,96.709-96.71,96.709S159.291,269.245,159.291,215.919z
			 M321.869,403.976c-5.959,5.959-9.24,13.882-9.24,22.308v2.575C295.471,436.734,276,440.887,256,440.887
			c-19.998,0-39.471-4.153-56.629-12.028v-2.575c0-8.427-3.282-16.349-9.241-22.308l-15.909-15.909l14.785-5.218
			c15.789-5.573,26.397-20.566,26.397-37.309v-25.548c12.589,4.928,26.282,7.638,40.597,7.638c14.315,0,28.007-2.71,40.597-7.638
			v25.548c0,16.743,10.607,31.736,26.396,37.309l14.785,5.218L321.869,403.976z"/>
	</g>
</g>
<g>
	<g>
		<path d="M285.387,250.733c-2.91-2.949-7.656-2.981-10.606-0.071c-2.737,2.701-9.299,5.855-18.781,5.855
			c-9.482,0-16.043-3.154-18.781-5.855c-2.949-2.91-7.698-2.877-10.606,0.071c-2.909,2.949-2.877,7.697,0.071,10.606
			c6.459,6.373,17.418,10.177,29.316,10.177c11.897,0,22.856-3.805,29.316-10.177C288.264,258.43,288.296,253.681,285.387,250.733z"
			/>
	</g>
</g>
<g>
	<g>
		<path d="M320.129,472.952c-4.143,0-7.5,3.358-7.5,7.5V504.5c0,4.142,3.357,7.5,7.5,7.5s7.5-3.358,7.5-7.5v-24.048
			C327.629,476.31,324.271,472.952,320.129,472.952z"/>
	</g>
</g>
<g>
	<g>
		<path d="M207.903,184.371c-4.142,0-7.5,3.358-7.5,7.5v8.016c0,4.142,3.358,7.5,7.5,7.5c4.142,0,7.5-3.358,7.5-7.5v-8.016
			C215.403,187.729,212.045,184.371,207.903,184.371z"/>
	</g>
</g>
<g>
	<g>
		<path d="M304.096,184.371c-4.143,0-7.5,3.358-7.5,7.5v8.016c0,4.142,3.357,7.5,7.5,7.5c4.143,0,7.5-3.358,7.5-7.5v-8.016
			C311.596,187.729,308.24,184.371,304.096,184.371z"/>
	</g>
</g>
<g>
	<g>
		<path d="M208.087,160.325l-8.016-0.196c-4.15-0.125-7.58,3.174-7.681,7.314c-0.102,4.141,3.173,7.58,7.314,7.681l8.016,0.196
			c0.063,0.002,0.125,0.003,0.187,0.003c4.057,0,7.395-3.238,7.494-7.317C215.503,163.865,212.228,160.426,208.087,160.325z"/>
	</g>
</g>
<g>
	<g>
		<path d="M311.93,160.13l-8.017,0.196c-4.141,0.101-7.415,3.54-7.314,7.681c0.099,4.077,3.437,7.316,7.494,7.316
			c0.063,0,0.125,0,0.188-0.002l8.017-0.196c4.141-0.101,7.415-3.54,7.314-7.681C319.51,163.302,316.057,160.019,311.93,160.13z"/>
	</g>
</g>
<g>
</g>
<g>
</g>
<g>
</g>
<g>
</g>
<g>
</g>
<g>
</g>
<g>
</g>
<g>
</g>
<g>
</g>
<g>
</g>
<g>
</g>
<g>
</g>
<g>
</g>
<g>
</g>
<g>
</g>
</svg>
