<?xml version="1.0" encoding="iso-8859-1"?>
<!-- Generator: Adobe Illustrator 19.0.0, SVG Export Plug-In . SVG Version: 6.00 Build 0)  -->
<svg version="1.1" id="Capa_1" xmlns="http://www.w3.org/2000/svg" xmlns:xlink="http://www.w3.org/1999/xlink" x="0px" y="0px"
	 viewBox="0 0 512 512" style="enable-background:new 0 0 512 512;" xml:space="preserve">
<g>
	<g>
		<path d="M207.904,200.403c-4.142,0-7.5,3.358-7.5,7.5v8.016c0,4.142,3.358,7.5,7.5,7.5c4.142,0,7.5-3.358,7.5-7.5v-8.016
			C215.404,203.761,212.045,200.403,207.904,200.403z"/>
	</g>
</g>
<g>
	<g>
		<path d="M304.097,200.403c-4.142,0-7.5,3.358-7.5,7.5v8.016c0,4.142,3.358,7.5,7.5,7.5c4.142,0,7.5-3.358,7.5-7.5v-8.016
			C311.597,203.761,308.24,200.403,304.097,200.403z"/>
	</g>
</g>
<g>
	<g>
		<path d="M285.388,258.749c-2.909-2.948-7.658-2.981-10.606-0.071c-2.737,2.701-9.299,5.855-18.781,5.855
			c-9.482,0-16.043-3.154-18.781-5.855c-2.95-2.91-7.698-2.877-10.606,0.071c-2.909,2.949-2.877,7.697,0.071,10.606
			c6.459,6.373,17.419,10.177,29.316,10.177c11.897,0,22.857-3.805,29.316-10.177C288.265,266.446,288.297,261.697,285.388,258.749z
			"/>
	</g>
</g>
<g>
	<g>
		<path d="M410.779,405.941l-38.872-13.719c13.707-6.361,23.931-12.839,30.725-17.744c8.597-6.207,11.987-17.51,8.243-27.488
			c-4.146-11.046-11.1-33.389-11.1-58.925v-63.859c20.989-18.903,32.064-41.104,32.064-64.399c0-30.53-18.772-58.964-52.858-80.064
			c-3.629-2.246-7.394-4.375-11.271-6.396V47.581C367.71,16.676,310.154,0,256,0S144.292,16.676,144.292,47.581v25.766
			c-3.877,2.021-7.643,4.15-11.271,6.396c-34.086,21.101-52.858,49.535-52.858,80.064c0,23.295,11.076,45.496,32.064,64.399v63.859
			c0,25.536-6.954,47.879-11.1,58.925c-3.744,9.977-0.354,21.28,8.243,27.488c6.794,4.905,17.018,11.383,30.725,17.744
			l-38.872,13.719c-22.187,7.831-37.093,28.899-37.093,52.427V504.5c0,4.142,3.358,7.5,7.5,7.5c4.142,0,7.5-3.358,7.5-7.5v-46.132
			c0-17.18,10.885-32.564,27.085-38.282l39.248-13.852c18.467,44.323,62.123,73.702,110.538,73.702
			c24.865,0,48.711-7.553,68.959-21.843c18.604-13.129,32.914-30.993,41.594-51.854l39.232,13.847
			c16.201,5.718,27.085,21.102,27.085,38.282V504.5c0,4.142,3.358,7.5,7.5,7.5c4.142,0,7.5-3.358,7.5-7.5v-46.132
			C447.872,434.84,432.964,413.771,410.779,405.941z M159.292,47.581C159.292,33.976,196.083,15,256,15
			c59.918,0,96.709,18.976,96.709,32.581v18.75C324.273,54.471,290.893,48.097,256,48.097s-68.273,6.374-96.709,18.234V47.581z
			 M316.312,445.837c-17.705,12.494-38.56,19.098-60.311,19.098c-42.072,0-80.032-25.361-96.367-63.704l29.374-10.367
			c15.789-5.572,26.397-20.565,26.397-37.309v-25.548c12.589,4.928,26.282,7.638,40.597,7.638c14.315,0,28.007-2.71,40.597-7.638
			v25.548c0,16.743,10.608,31.737,26.397,37.309l29.384,10.371C344.755,419.153,332.364,434.509,316.312,445.837z M350.834,384.782
			l-22.847-8.063c-9.803-3.46-16.389-12.769-16.389-23.164v-32.754c33.507-19.306,56.113-55.496,56.113-96.866V191.87
			c0-21.816-17.749-39.564-39.564-39.564h-12.926l-37.884-37.884c-2.145-2.146-5.371-2.786-8.173-1.626
			c-2.803,1.161-4.63,3.896-4.63,6.929v32.581h-40.596c-4.142,0-7.5,3.358-7.5,7.5c0,4.142,3.358,7.5,7.5,7.5h48.096
			c4.142,0,7.5-3.358,7.5-7.5v-21.974l27.277,27.277c1.406,1.406,3.314,2.197,5.303,2.197h16.032
			c13.545,0,24.564,11.02,24.564,24.564v32.065c0,53.326-43.384,96.71-96.709,96.71c-53.325,0-96.709-43.384-96.709-96.71V191.87
			c0-13.545,11.02-24.564,24.564-24.564h8.02c4.142,0,7.5-3.358,7.5-7.5c0-4.142-3.358-7.5-7.5-7.5h-8.02
			c-21.816,0-39.564,17.749-39.564,39.564v32.065c0,41.37,22.605,77.56,56.113,96.866v32.754c0,10.395-6.586,19.704-16.389,23.164
			l-22.847,8.063c-20.342-7.622-34.58-16.373-43.02-22.467c-3.178-2.294-4.375-6.335-2.979-10.055
			c5.5-14.655,12.056-37.688,12.056-64.196V159.806c0-35.041,58.972-64.645,128.774-64.645c24.813,0,48.95,3.649,69.801,10.552
			c3.933,1.302,8.175-0.831,9.478-4.762c1.302-3.932-0.831-8.175-4.763-9.477c-22.353-7.401-48.12-11.313-74.516-11.313
			c-37.602,0-73.069,7.814-99.87,22.002c-28.313,14.989-43.905,35.46-43.905,57.643v42.912
			c-11.213-13.358-17.064-27.961-17.064-42.912c0-25.141,16.249-49.046,45.753-67.31C171.54,73.538,212.412,63.097,256,63.097
			s84.46,10.441,115.086,29.399c29.504,18.265,45.753,42.169,45.753,67.31c0,14.95-5.851,29.553-17.064,42.912v-42.912
			c0-20.544-13.637-39.921-38.4-54.563c-3.567-2.109-8.166-0.927-10.273,2.638c-2.108,3.566-0.927,8.165,2.639,10.273
			c20.013,11.833,31.035,26.625,31.035,41.651v128.258c0,26.507,6.556,49.541,12.056,64.196c1.396,3.72,0.199,7.761-2.979,10.055
			C385.414,368.407,371.175,377.158,350.834,384.782z"/>
	</g>
</g>
<g>
	<g>
		<path d="M223.247,179.748c-0.885-4.046-4.883-6.609-8.929-5.724l-16.032,3.507c-4.047,0.884-6.61,4.882-5.724,8.929
			c0.767,3.507,3.872,5.899,7.319,5.899c0.531,0,1.07-0.057,1.61-0.175l16.032-3.507
			C221.57,187.792,224.131,183.794,223.247,179.748z"/>
	</g>
</g>
<g>
	<g>
		<path d="M313.716,177.531l-16.032-3.507c-4.046-0.885-8.044,1.677-8.929,5.724c-0.885,4.047,1.677,8.044,5.724,8.929l16.032,3.507
			c0.54,0.118,1.079,0.175,1.61,0.175c3.448,0,6.552-2.392,7.319-5.899C320.325,182.414,317.763,178.416,313.716,177.531z"/>
	</g>
</g>
<g>
</g>
<g>
</g>
<g>
</g>
<g>
</g>
<g>
</g>
<g>
</g>
<g>
</g>
<g>
</g>
<g>
</g>
<g>
</g>
<g>
</g>
<g>
</g>
<g>
</g>
<g>
</g>
<g>
</g>
</svg>
