<?xml version="1.0" encoding="iso-8859-1"?>
<!-- Generator: Adobe Illustrator 19.0.0, SVG Export Plug-In . SVG Version: 6.00 Build 0)  -->
<svg version="1.1" id="Capa_1" xmlns="http://www.w3.org/2000/svg" xmlns:xlink="http://www.w3.org/1999/xlink" x="0px" y="0px"
	 viewBox="0 0 512 512" style="enable-background:new 0 0 512 512;" xml:space="preserve">
<g>
	<g>
		<path d="M207.115,162.951c-4.143,0-7.5,3.358-7.5,7.5v8.147c0,4.142,3.357,7.5,7.5,7.5s7.5-3.358,7.5-7.5v-8.147
			C214.615,166.309,211.258,162.951,207.115,162.951z"/>
	</g>
</g>
<g>
	<g>
		<path d="M304.885,162.951c-4.143,0-7.5,3.358-7.5,7.5v8.147c0,4.142,3.357,7.5,7.5,7.5s7.5-3.358,7.5-7.5v-8.147
			C312.385,166.309,309.028,162.951,304.885,162.951z"/>
	</g>
</g>
<g>
	<g>
		<path d="M285.781,222.215c-2.911-2.949-7.659-2.979-10.606-0.07c-2.799,2.762-9.5,5.986-19.175,5.986
			c-9.675,0-16.376-3.225-19.175-5.986c-2.947-2.91-7.695-2.878-10.606,0.07c-2.909,2.948-2.877,7.697,0.071,10.606
			c6.542,6.456,17.648,10.31,29.71,10.31c12.062,0,23.168-3.854,29.71-10.31C288.659,229.912,288.69,225.163,285.781,222.215z"/>
	</g>
</g>
<g>
	<g>
		<path d="M418.565,364.771l-21.887-6.437c3.453-10.407,5.329-21.528,5.329-33.079c0-31.091-25.294-56.385-56.385-56.385h-3.737
			c13.921-16.14,23.387-36.225,26.452-58.328h4.64c14.795,0,27.484-10.991,28.888-25.021c0.787-7.864-1.785-15.716-7.057-21.542
			c-4.504-4.977-10.651-8.141-17.243-8.961V65.359c15.072-14.69,24.442-35.2,24.442-57.859c0-4.142-3.357-7.5-7.5-7.5H215.263
			c-44.568,0-80.828,36.259-80.828,80.828v74.331c-12.751,1.99-23.043,12.11-24.3,24.665c-0.788,7.864,1.784,15.716,7.057,21.542
			c5.275,5.831,12.81,9.175,20.669,9.175h5.797c3.065,22.104,12.528,42.188,26.447,58.328h-3.727
			c-31.091,0-56.385,25.294-56.385,56.386c0,11.551,1.876,22.671,5.329,33.079l-21.887,6.438
			c-23.831,7.009-40.476,29.254-40.476,54.094V504.5c0,4.142,3.357,7.5,7.5,7.5s7.5-3.358,7.5-7.5v-85.635
			c0-18.232,12.217-34.559,29.708-39.704l23.427-6.891c16.239,32.394,48.704,55.298,86.668,57.984V504.5c0,4.142,3.357,7.5,7.5,7.5
			s7.5-3.358,7.5-7.5v-73.976h66.475V504.5c0,4.142,3.357,7.5,7.5,7.5s7.5-3.358,7.5-7.5v-74.246
			c37.964-2.686,70.429-25.59,86.668-57.984l23.427,6.89c17.491,5.145,29.708,21.471,29.708,39.704V504.5c0,4.142,3.357,7.5,7.5,7.5
			s7.5-3.358,7.5-7.5v-85.635C459.042,394.024,442.396,371.78,418.565,364.771z M157.583,194.894c0-4.143-3.357-7.5-7.5-7.5
			s-7.5,3.358-7.5,7.5v0.647h-4.722c-3.63,0-7.109-1.545-9.547-4.239c-2.47-2.729-3.625-6.275-3.253-9.984
			c0.646-6.457,6.779-11.515,13.962-11.515h2.912c4.143,0,7.5-3.358,7.5-7.5V80.828c0-36.297,29.53-65.828,65.828-65.828h171.32
			c-3.735,32.778-31.642,58.328-65.402,58.328H174.524c-4.143,0-7.5,3.358-7.5,7.5c0,4.142,3.357,7.5,7.5,7.5H321.18
			c15.113,0,29.272-4.17,41.385-11.419v85.395c0,4.142,3.357,7.5,7.5,7.5h4.074c3.629,0,7.108,1.545,9.546,4.238
			c2.47,2.729,3.625,6.275,3.254,9.984c-0.646,6.457-6.778,11.515-13.962,11.515h-3.563v-0.569c0-4.141-3.356-7.499-7.497-7.5
			c-0.001,0-0.002,0-0.003,0c-4.14,0-7.497,3.354-7.5,7.495c-0.04,54.228-44.188,98.345-98.414,98.345
			C201.732,293.312,157.583,249.162,157.583,194.894z M304.237,415.21v-8.481c0-4.142-3.357-7.5-7.5-7.5s-7.5,3.358-7.5,7.5v8.795
			h-66.475v-8.795c0-4.142-3.357-7.5-7.5-7.5s-7.5,3.358-7.5,7.5v8.481c-46.279-3.824-82.771-42.707-82.771-89.957
			c0-22.82,18.565-41.385,41.385-41.385h19.374c1.859,1.471,3.765,2.887,5.715,4.241v5.201h-22.922
			c-11.461,0-21.012,7.088-24.333,18.057c-3.321,10.969,0.694,22.165,10.23,28.522l83.839,55.893
			c5.382,3.587,11.55,5.381,17.719,5.381c6.168,0,12.337-1.794,17.719-5.382l19.032-12.688c3.446-2.297,4.378-6.954,2.08-10.4
			c-2.298-3.447-6.954-4.378-10.4-2.08l-19.032,12.688c-5.708,3.805-13.087,3.805-18.797,0l-52.407-34.938
			c7.54-5.948,12.272-15.15,12.272-25.105v-26.352c14.975,7.301,31.783,11.403,49.533,11.403c17.748,0,34.557-4.104,49.533-11.408
			v26.357c0,9.955,4.732,19.157,12.272,25.105l-4.857,3.238c-3.446,2.297-4.378,6.954-2.08,10.4
			c1.445,2.168,3.823,3.341,6.247,3.341c1.43,0,2.875-0.408,4.153-1.261l36.289-24.193c9.536-6.357,13.552-17.553,10.23-28.522
			c-3.321-10.969-12.872-18.057-24.333-18.057h-22.922V288.1c1.947-1.353,3.848-2.765,5.704-4.234h19.385
			c22.819,0,41.385,18.565,41.385,41.386C387.008,372.504,350.516,411.386,304.237,415.21z M191.468,308.312v14.949
			c-0.001,7.085-4.512,13.46-11.094,15.89l-17.611-11.741c-4.745-3.164-5.278-8.116-4.194-11.695
			c1.084-3.579,4.273-7.403,9.977-7.403H191.468z M320.534,323.26v-14.949h22.922c5.703,0,8.894,3.824,9.977,7.403
			c1.084,3.58,0.551,8.531-4.194,11.695l-17.612,11.742C325.044,336.721,320.534,330.346,320.534,323.26z"/>
	</g>
</g>
<g>
	<g>
		<path d="M222.635,141.57c-0.764-4.071-4.692-6.75-8.753-5.989l-16.296,3.056c-4.071,0.764-6.753,4.683-5.989,8.754
			c0.675,3.604,3.824,6.119,7.362,6.119c0.459,0,0.924-0.042,1.391-0.13l16.296-3.056
			C220.716,149.56,223.398,145.641,222.635,141.57z"/>
	</g>
</g>
<g>
	<g>
		<path d="M314.415,138.637l-16.296-3.056c-4.063-0.761-7.99,1.918-8.753,5.989c-0.763,4.072,1.918,7.991,5.989,8.754l16.296,3.056
			c0.467,0.087,0.932,0.13,1.391,0.13c3.538,0,6.687-2.515,7.362-6.119C321.169,143.32,318.487,139.401,314.415,138.637z"/>
	</g>
</g>
<g>
</g>
<g>
</g>
<g>
</g>
<g>
</g>
<g>
</g>
<g>
</g>
<g>
</g>
<g>
</g>
<g>
</g>
<g>
</g>
<g>
</g>
<g>
</g>
<g>
</g>
<g>
</g>
<g>
</g>
</svg>
