<?xml version="1.0" encoding="iso-8859-1"?>
<!-- Generator: Adobe Illustrator 19.0.0, SVG Export Plug-In . SVG Version: 6.00 Build 0)  -->
<svg version="1.1" id="Capa_1" xmlns="http://www.w3.org/2000/svg" xmlns:xlink="http://www.w3.org/1999/xlink" x="0px" y="0px"
	 viewBox="0 0 512 512" style="enable-background:new 0 0 512 512;" xml:space="preserve">
<g>
	<g>
		<path d="M285.746,274.782c-2.908-2.951-7.658-2.981-10.605-0.072c-2.738,2.7-9.3,5.854-18.782,5.854
			c-9.482,0-16.043-3.153-18.78-5.854c-2.946-2.907-7.695-2.879-10.606,0.071c-2.909,2.948-2.877,7.697,0.071,10.606
			c6.458,6.372,17.418,10.177,29.315,10.177c11.897,0,22.856-3.805,29.315-10.177C288.624,282.479,288.655,277.73,285.746,274.782z"
			/>
	</g>
</g>
<g>
	<g>
		<path d="M208.263,216.316c-4.143,0-7.5,3.357-7.5,7.5v8.017c0,4.143,3.357,7.5,7.5,7.5s7.5-3.357,7.5-7.5v-8.017
			C215.763,219.674,212.405,216.316,208.263,216.316z"/>
	</g>
</g>
<g>
	<g>
		<path d="M304.456,216.316c-4.143,0-7.5,3.357-7.5,7.5v8.017c0,4.143,3.357,7.5,7.5,7.5s7.5-3.357,7.5-7.5v-8.017
			C311.956,219.674,308.599,216.316,304.456,216.316z"/>
	</g>
</g>
<g>
	<g>
		<path d="M216.279,192.269h-16.032c-4.143,0-7.5,3.357-7.5,7.5s3.357,7.5,7.5,7.5h16.032c4.143,0,7.5-3.357,7.5-7.5
			S220.422,192.269,216.279,192.269z"/>
	</g>
</g>
<g>
	<g>
		<path d="M312.473,192.269h-16.032c-4.143,0-7.5,3.357-7.5,7.5s3.357,7.5,7.5,7.5h16.032c4.143,0,7.5-3.357,7.5-7.5
			S316.615,192.269,312.473,192.269z"/>
	</g>
</g>
<g>
	<g>
		<path d="M410.779,413.957l-26.133-9.223c8.367-42.541,0.509-71.46-7.11-99.455c-4.445-16.331-8.669-31.868-9.622-49.795h16.345
			c12.976,0,23.532-10.557,23.532-23.532V151.79C407.791,68.093,339.698,0,256.001,0s-151.79,68.093-151.79,151.79V256
			c0,17.396,14.152,31.549,31.548,31.549h3.338c-1.416,5.907-3.008,11.765-4.631,17.729c-7.619,27.995-15.478,56.915-7.11,99.455
			l-26.133,9.223c-22.187,7.83-37.093,28.899-37.093,52.427V504.5c0,4.143,3.357,7.5,7.5,7.5c4.143,0,7.5-3.357,7.5-7.5v-38.116
			c0-7.302,1.972-14.276,5.477-20.325l35.432,30.371c5.451,4.673,8.578,11.471,8.578,18.65v9.301c0,4.143,3.357,7.5,7.5,7.5
			s7.5-3.357,7.5-7.5v-9.301c0-11.564-5.036-22.514-13.816-30.039l-35.415-30.357c3.486-2.792,7.462-5.041,11.829-6.583
			l72.278-25.51c8.362,35.468,40.34,61.311,77.508,61.311c12.693,0,25.323-3.062,36.526-8.854c3.68-1.902,5.12-6.427,3.218-10.106
			c-1.903-3.68-6.432-5.12-10.106-3.218c-9.213,4.763-19.185,7.178-29.638,7.178c-30.793,0-57.192-21.848-63.302-51.547
			c13.726-6.47,22.705-20.383,22.705-35.784V343.75c11.233,4.552,23.215,7.218,35.564,7.799c1.824,0.086,3.643,0.129,5.455,0.129
			c13.957,0,27.516-2.543,40.174-7.426v17.319c0,15.405,8.984,29.323,22.718,35.79c-1.895,9.171-5.8,17.899-11.414,25.444
			c-2.473,3.323-1.782,8.021,1.541,10.494c1.345,1,2.914,1.482,4.471,1.482c2.29,0,4.551-1.045,6.023-3.023
			c6.468-8.693,11.094-18.664,13.579-29.166l72.271,25.507c4.522,1.596,8.629,3.947,12.202,6.878l-35.071,30.061
			c-8.78,7.525-13.816,18.475-13.816,30.039v9.301c0,4.143,3.357,7.5,7.5,7.5s7.5-3.357,7.5-7.5v-9.301
			c0-7.18,3.127-13.978,8.578-18.65l34.951-29.959c3.357,5.953,5.241,12.776,5.241,19.913V504.5c0,4.143,3.357,7.5,7.5,7.5
			s7.5-3.357,7.5-7.5v-38.116C447.872,442.856,432.966,421.787,410.779,413.957z M384.259,240.483h-16.196
			c0.001-0.172,0.006-0.343,0.006-0.516v-48.613h16.189c4.705,0,8.532,3.827,8.532,8.532v32.065h0.001
			C392.791,236.656,388.964,240.483,384.259,240.483z M119.211,151.79c0-75.427,61.363-136.79,136.79-136.79
			s136.79,61.363,136.79,136.79v26.172c-2.647-1.034-5.523-1.608-8.532-1.608h-0.516v-16.548
			c0-70.438-57.305-127.742-127.742-127.742S128.259,89.369,128.259,159.807v16.548h-0.516c-3.009,0-5.885,0.574-8.532,1.608V151.79
			z M119.211,199.887c0-4.705,3.827-8.532,8.532-8.532h16.548v49.129h-16.548c-4.705,0-8.532-3.827-8.532-8.532V199.887z
			 M135.759,272.549c-9.125,0-16.548-7.424-16.548-16.549v-2.124c2.647,1.034,5.523,1.608,8.532,1.608h16.345
			c-0.314,5.911-0.99,11.56-1.907,17.065H135.759z M200.404,361.572c0,10.396-6.586,19.704-16.389,23.164l-42.357,14.949
			c-7.022-37.885-0.066-63.474,7.281-90.468c1.925-7.073,3.873-14.239,5.554-21.669h1.656c4.891,10.159,11.273,19.636,19.037,28.11
			c7.509,8.196,16.003,15.112,25.218,20.624V361.572z M251.674,336.567c-24.929-1.175-48.165-12.198-65.427-31.04
			c-5.073-5.538-9.454-11.576-13.134-17.979h26.46c4.107,0,7.688-3.165,7.811-7.27c0.127-4.247-3.278-7.73-7.497-7.73h-33.824
			c-4.197-11.248-6.414-23.252-6.414-35.525v-52.616c3.177-0.649,6.349-1.311,9.502-2c4.006-0.876,6.806-4.752,6.042-8.78
			c-0.791-4.168-4.854-6.829-8.976-5.933c-7.595,1.666-15.285,3.213-22.958,4.629v-11.275c0-62.212,49.872-113.623,112.083-113.98
			c62.467-0.359,113.401,50.355,113.401,112.74v16.548h-0.674v-0.748c0-7.61-3.419-14.924-9.534-19.454
			c-6.012-4.453-13.555-5.768-20.702-3.608c-16.558,5.005-32.79,6.74-41.909,7.342v-32.045c0-2.336-0.974-4.618-2.805-6.071
			c-2.871-2.277-6.813-2.145-9.497,0.091c-16.838,14.031-46.483,27.181-85.732,38.026c-3.992,1.104-6.334,5.234-5.231,9.228
			c1.104,3.992,5.23,6.332,9.228,5.231c33.723-9.319,60.219-20.071,79.038-32.055v25.412c0,4.143,3.357,7.5,7.5,7.5
			c1.073,0,26.594-0.095,53.749-8.301c2.563-0.776,5.278-0.299,7.443,1.309c0.015,0.011,0.03,0.023,0.045,0.034
			c1.981,1.492,3.049,3.907,3.049,6.387v73.35c0,0.1,0.004,0.197,0.004,0.297c-1.975,23.513-12.309,45.167-29.611,61.672
			C303.795,328.375,278.436,337.827,251.674,336.567z M370.343,399.686l-42.357-14.949c-9.803-3.46-16.389-12.769-16.389-23.164
			v-24.447c7.82-4.469,15.158-9.924,21.861-16.319c10.175-9.707,18.259-20.96,24.051-33.25c1.68,7.427,3.628,14.591,5.552,21.662
			C370.409,336.212,377.365,361.801,370.343,399.686z"/>
	</g>
</g>
<g>
</g>
<g>
</g>
<g>
</g>
<g>
</g>
<g>
</g>
<g>
</g>
<g>
</g>
<g>
</g>
<g>
</g>
<g>
</g>
<g>
</g>
<g>
</g>
<g>
</g>
<g>
</g>
<g>
</g>
</svg>
