<?xml version="1.0" encoding="iso-8859-1"?>
<!-- Generator: Adobe Illustrator 19.0.0, SVG Export Plug-In . SVG Version: 6.00 Build 0)  -->
<svg version="1.1" id="Capa_1" xmlns="http://www.w3.org/2000/svg" xmlns:xlink="http://www.w3.org/1999/xlink" x="0px" y="0px"
	 viewBox="0 0 512 512" style="enable-background:new 0 0 512 512;" xml:space="preserve">
<g>
	<g>
		<path d="M211.91,152.307c-4.143,0-7.5,3.358-7.5,7.5v8.016c0,4.142,3.357,7.5,7.5,7.5s7.5-3.358,7.5-7.5v-8.016
			C219.41,155.665,216.053,152.307,211.91,152.307z"/>
	</g>
</g>
<g>
	<g>
		<path d="M231.211,125.922c-1.005-4.018-5.078-6.459-9.096-5.457l-32.064,8.017c-4.019,1.004-6.461,5.077-5.457,9.095
			c0.853,3.408,3.91,5.683,7.271,5.683c0.603,0,1.215-0.073,1.825-0.226l32.064-8.017
			C229.772,134.013,232.215,129.941,231.211,125.922z"/>
	</g>
</g>
<g>
	<g>
		<path d="M300.088,152.307c-4.143,0-7.5,3.358-7.5,7.5v8.016c0,4.142,3.357,7.5,7.5,7.5s7.5-3.358,7.5-7.5v-8.016
			C307.588,155.665,304.231,152.307,300.088,152.307z"/>
	</g>
</g>
<g>
	<g>
		<path d="M321.947,128.482l-32.064-8.017c-4.018-1.002-8.09,1.439-9.096,5.457c-1.004,4.019,1.438,8.091,5.457,9.095l32.064,8.017
			c0.611,0.153,1.223,0.226,1.825,0.226c3.36,0,6.418-2.275,7.271-5.683C328.408,133.558,325.966,129.486,321.947,128.482z"/>
	</g>
</g>
<g>
	<g>
		<path d="M415.977,350.876l-84.485-24.849c-6.994-2.057-11.879-8.585-11.879-15.876v-34.523
			c25.017-17.394,42.615-44.739,47.014-76.258h5.607c7.768,0,15.212-3.305,20.426-9.067c5.21-5.758,7.751-13.518,6.973-21.289
			c-0.628-6.263-3.531-11.909-7.872-16.222v-41.084c0-9.426-5.573-17.571-13.595-21.324C361.863,37.012,312.103,0,255.999,0
			c-56.103,0-105.863,37.013-122.164,90.386c-8.021,3.754-13.594,11.898-13.594,21.324v41.083c-4.341,4.313-7.245,9.96-7.872,16.222
			c-0.778,7.771,1.763,15.531,6.973,21.289c5.214,5.762,12.658,9.067,20.426,9.067h5.604c4.399,31.519,21.997,58.864,47.014,76.258
			v34.523c0,7.291-4.885,13.819-11.879,15.876l-84.485,24.849c-23.498,6.911-39.909,28.845-39.909,53.338V504.5
			c0,4.142,3.357,7.5,7.5,7.5s7.5-3.358,7.5-7.5V404.214c0-17.885,11.983-33.901,29.142-38.947l19.987-5.879V504.5
			c0,4.142,3.357,7.5,7.5,7.5s7.5-3.358,7.5-7.5V354.976l25.08-7.376v12.61c0,52.757,42.921,95.677,95.678,95.677
			c52.757,0,95.678-42.92,95.678-95.677V347.6l25.08,7.376v21.266c0,4.142,3.357,7.5,7.5,7.5s7.5-3.358,7.5-7.5v-16.855
			l19.987,5.879c17.158,5.046,29.142,21.062,29.142,38.947V504.5c0,4.142,3.357,7.5,7.5,7.5s7.5-3.358,7.5-7.5V404.214
			C455.886,379.721,439.475,357.787,415.977,350.876z M368.228,103.177c4.705,0,8.532,3.828,8.532,8.532v33.133
			c-1.84-0.362-3.736-0.552-5.671-0.552h-2.861c-2.279,0-4.422-0.887-6.033-2.499c-1.611-1.612-2.499-3.754-2.499-6.034v-24.048
			C359.695,107.005,363.522,103.177,368.228,103.177z M135.241,111.709c0-4.705,3.827-8.532,8.532-8.532
			c4.705,0,8.532,3.828,8.532,8.532v24.048c0,2.279-0.888,4.422-2.499,6.034c-1.611,1.611-3.754,2.499-6.033,2.499h-2.861
			c-1.934,0-3.831,0.19-5.671,0.552V111.709z M159.289,183.855c0-4.142-3.357-7.5-7.5-7.5s-7.5,3.358-7.5,7.5
			c0,0.173,0.006,0.344,0.007,0.516h-4.528c-3.537,0-6.928-1.506-9.303-4.131c-2.406-2.66-3.532-6.115-3.17-9.73
			c0.63-6.292,6.611-11.22,13.617-11.22h2.861c0,0,0,0,0.001,0c6.285,0,12.194-2.448,16.639-6.892
			c4.445-4.445,6.893-10.354,6.893-16.64V111.71c0-10.79-7.303-19.901-17.224-22.667C166.161,45.036,208.511,15,256.002,15
			c47.488,0,89.837,30.036,105.917,74.043c-9.921,2.765-17.224,11.876-17.224,22.666v24.048c0,6.286,2.447,12.195,6.893,16.64
			c4.444,4.445,10.354,6.893,16.64,6.892h2.861c7.006,0,12.987,4.929,13.617,11.221c0.362,3.614-0.764,7.069-3.17,9.729
			c-2.375,2.625-5.766,4.131-9.303,4.131h-4.531c0.001-0.172,0.007-0.344,0.007-0.516c0-4.142-3.357-7.5-7.5-7.5s-7.5,3.358-7.5,7.5
			c0,53.326-43.384,96.709-96.71,96.709S159.289,237.181,159.289,183.855z M336.677,360.21c0,30.114-16.597,56.411-41.113,70.269
			v-14.156c0-4.142-3.357-7.5-7.5-7.5s-7.5,3.358-7.5,7.5v20.728c-5.46,1.75-11.171,2.93-17.064,3.476v-32.219
			c0-4.142-3.357-7.5-7.5-7.5c-4.143,0-7.5,3.358-7.5,7.5v32.219c-5.894-0.546-11.604-1.726-17.064-3.476v-20.728
			c0-4.142-3.357-7.5-7.5-7.5s-7.5,3.358-7.5,7.5v14.156c-24.516-13.859-41.113-40.155-41.113-70.269v-17.022l9.418-2.77
			c13.334-3.921,22.646-16.368,22.646-30.267V284.42c14.705,7.137,31.2,11.145,48.613,11.145c17.413,0,33.908-4.007,48.613-11.145
			v25.732c0,13.899,9.313,26.345,22.646,30.267l9.418,2.77V360.21z"/>
	</g>
</g>
<g>
	<g>
		<path d="M384.257,400.808c-4.143,0-7.5,3.358-7.5,7.5V504.5c0,4.142,3.357,7.5,7.5,7.5s7.5-3.358,7.5-7.5v-96.192
			C391.757,404.166,388.399,400.808,384.257,400.808z"/>
	</g>
</g>
<g>
	<g>
		<path d="M282.092,35.755c-8.644-2.448-17.423-3.689-26.093-3.689c-8.67,0-17.449,1.241-26.093,3.689
			c-3.985,1.129-6.301,5.275-5.172,9.26c1.128,3.985,5.274,6.3,9.26,5.172c7.313-2.072,14.718-3.122,22.005-3.122
			c7.287,0,14.691,1.05,22.005,3.122c0.684,0.193,1.371,0.286,2.048,0.286c3.271,0,6.277-2.156,7.212-5.458
			C288.393,41.03,286.077,36.884,282.092,35.755z"/>
	</g>
</g>
<g>
	<g>
		<path d="M280.048,192.388H231.95c-17.396,0-31.548,14.152-31.548,31.548c0,4.142,3.357,7.5,7.5,7.5h24.048
			c9.628,0,18.257-4.34,24.049-11.161c5.792,6.82,14.42,11.161,24.049,11.161h24.048c4.143,0,7.5-3.358,7.5-7.5
			C311.596,206.54,297.444,192.388,280.048,192.388z M231.95,216.436h-14.749c2.739-5.366,8.322-9.048,14.749-9.048h14.75
			C243.96,212.753,238.377,216.436,231.95,216.436z M280.048,216.435c-6.427,0-12.01-3.682-14.75-9.048h14.75
			c6.427,0,12.01,3.682,14.749,9.048H280.048z"/>
	</g>
</g>
<g>
</g>
<g>
</g>
<g>
</g>
<g>
</g>
<g>
</g>
<g>
</g>
<g>
</g>
<g>
</g>
<g>
</g>
<g>
</g>
<g>
</g>
<g>
</g>
<g>
</g>
<g>
</g>
<g>
</g>
</svg>
