<?xml version="1.0" encoding="iso-8859-1"?>
<!-- Generator: Adobe Illustrator 19.0.0, SVG Export Plug-In . SVG Version: 6.00 Build 0)  -->
<svg version="1.1" id="Capa_1" xmlns="http://www.w3.org/2000/svg" xmlns:xlink="http://www.w3.org/1999/xlink" x="0px" y="0px"
	 viewBox="0 0 512 512" style="enable-background:new 0 0 512 512;" xml:space="preserve">
<g>
	<g>
		<path d="M207.982,176.354c-4.143,0-7.5,3.357-7.5,7.5v8.017c0,4.143,3.357,7.5,7.5,7.5s7.5-3.357,7.5-7.5v-8.017
			C215.482,179.711,212.124,176.354,207.982,176.354z"/>
	</g>
</g>
<g>
	<g>
		<path d="M304.175,176.354c-4.143,0-7.5,3.357-7.5,7.5v8.017c0,4.143,3.357,7.5,7.5,7.5s7.5-3.357,7.5-7.5v-8.017
			C311.675,179.711,308.318,176.354,304.175,176.354z"/>
	</g>
</g>
<g>
	<g>
		<path d="M285.465,234.701c-2.91-2.948-7.658-2.981-10.606-0.071c-2.737,2.701-9.298,5.854-18.78,5.854s-16.044-3.154-18.782-5.854
			c-2.948-2.912-7.698-2.878-10.605,0.072c-2.909,2.948-2.877,7.697,0.072,10.605c6.459,6.372,17.418,10.177,29.315,10.177
			c11.897,0,22.857-3.805,29.315-10.177C288.342,242.398,288.374,237.648,285.465,234.701z"/>
	</g>
</g>
<g>
	<g>
		<path d="M455.885,420.245c0-24.493-16.411-46.427-39.909-53.338l-65.722-19.33l-11.658-23.316
			c-1.883-3.766-5.27-6.639-9.292-7.884c-3.172-0.981-6.584-0.887-9.692,0.192v-16.844c25.055-17.394,42.693-44.763,47.099-76.308
			h4.457c14.618,0,27.156-10.861,28.544-24.728c0.778-7.771-1.764-15.529-6.974-21.286c-0.236-0.26-0.481-0.51-0.726-0.761
			l15.24-38.102c1.114-2.785,0.461-5.967-1.66-8.089L392.837,117.7L407.403,74c0.763-2.287,0.379-4.802-1.031-6.758
			c-1.409-1.955-3.673-3.114-6.084-3.114h-29.002l11.918-29.795c0.924-2.311,0.642-4.929-0.753-6.99
			c-1.396-2.061-3.723-3.295-6.211-3.295h-44.99L309.399,2.197c-1.67-1.669-4.031-2.455-6.364-2.121l-54.659,7.809l-30.639-7.66
			c-2.191-0.546-4.512-0.078-6.319,1.276l-30.064,22.549h-37.58c-4.143,0-7.5,3.357-7.5,7.5v32.58h-24.566
			c-2.411,0-4.675,1.159-6.084,3.114c-1.41,1.956-1.794,4.471-1.031,6.758l14.566,43.699l-12.755,12.754
			c-2.121,2.122-2.774,5.304-1.66,8.089l15.393,38.483c-4.239,4.289-7.073,9.864-7.691,16.037
			c-0.778,7.771,1.763,15.531,6.973,21.289c5.213,5.762,12.658,9.066,20.426,9.066h5.598c4.394,31.489,21.965,58.813,46.942,76.209
			v16.942c-3.108-1.079-6.52-1.172-9.692-0.192c-4.022,1.245-7.409,4.118-9.292,7.884l-11.658,23.316l-65.722,19.33
			c-23.498,6.911-39.909,28.845-39.909,53.338V504.5c0,4.143,3.357,7.5,7.5,7.5s7.5-3.357,7.5-7.5v-38.747l57.145,12.699V504.5
			c0,4.143,3.357,7.5,7.5,7.5s7.5-3.357,7.5-7.5v-49.382c0-11.564-5.036-22.514-13.816-30.039L86.627,388.38
			c3.98-3.154,8.577-5.596,13.628-7.082l64.689-19.026l23.618,41.332c2.303,4.032,6.248,6.799,10.822,7.592
			c0.89,0.154,1.781,0.229,2.668,0.229c3.672,0,7.24-1.303,10.08-3.737l20.335-17.43v50.113c0,8.556,6.96,15.516,15.516,15.516
			h16.033c8.556,0,15.516-6.96,15.516-15.516v-50.113l20.335,17.43c2.841,2.435,6.408,3.737,10.08,3.737
			c0.886,0,1.778-0.075,2.668-0.229c4.574-0.793,8.52-3.56,10.821-7.591l23.619-41.333l64.689,19.026
			c5.051,1.486,9.648,3.927,13.628,7.082l-42.814,36.698c-8.78,7.525-13.816,18.475-13.816,30.039V504.5c0,4.143,3.357,7.5,7.5,7.5
			s7.5-3.357,7.5-7.5v-26.048l10.16-2.258c4.044-0.898,6.593-4.905,5.694-8.948c-0.897-4.044-4.905-6.596-8.948-5.694l-6.906,1.535
			v-7.968c0-7.18,3.127-13.978,8.578-18.65l42.91-36.78c3.608,6.108,5.657,13.172,5.657,20.559v30.141l-18.172,4.038
			c-4.043,0.898-6.593,4.904-5.694,8.948c0.776,3.496,3.876,5.875,7.314,5.875c0.538,0,1.086-0.059,1.634-0.181l14.918-3.315V504.5
			c0,4.143,3.357,7.5,7.5,7.5s7.5-3.357,7.5-7.5v-84.254H455.885z M119.678,436.466c5.451,4.674,8.578,11.472,8.578,18.651v7.968
			l-57.145-12.699v-30.141c0-7.386,2.048-14.451,5.657-20.559L119.678,436.466z M159.368,207.904c0-4.143-3.357-7.5-7.5-7.5
			s-7.5,3.357-7.5,7.5v0.516h-4.523c-3.537,0-6.928-1.506-9.303-4.131c-2.406-2.659-3.532-6.114-3.17-9.729
			c0.63-6.292,6.612-11.221,13.618-11.221h10.878c12.976,0,23.532-10.557,23.532-23.545l-0.08-48.097
			c-0.007-4.138-3.363-7.487-7.5-7.487c-0.004,0-0.009,0-0.013,0c-4.142,0.007-7.494,3.37-7.487,7.513l0.08,48.084
			c0,4.705-3.827,8.532-8.532,8.532H140.99c-2.673,0-5.275,0.367-7.754,1.045l-12.728-31.82l12.536-12.535
			c2.009-2.009,2.71-4.98,1.812-7.676l-12.742-38.225h21.659c4.143,0,7.5-3.357,7.5-7.5v-32.58h32.58c1.623,0,3.202-0.526,4.5-1.5
			l29.209-21.907l28.601,7.151c0.942,0.234,1.921,0.283,2.88,0.148l52.401-7.486l21.396,21.397c1.407,1.406,3.314,2.196,5.304,2.196
			h37.019l-11.918,29.795c-0.924,2.311-0.642,4.929,0.753,6.99c1.396,2.061,3.723,3.295,6.211,3.295h29.675l-12.742,38.225
			c-0.898,2.695-0.197,5.667,1.812,7.676l12.536,12.535l-12.631,31.576c-2.126-0.522-4.321-0.802-6.545-0.802h-12.025
			c-4.705,0-8.532-3.827-8.532-8.569l-0.079-16.032c-0.013-2.494-1.265-4.819-3.34-6.203l-48.097-32.064
			c-2.302-1.535-5.261-1.677-7.699-0.372c-2.438,1.305-3.961,3.847-3.961,6.612v19.141l-44.893-25.652
			c-3.423-1.956-7.773-0.929-9.961,2.352l-12.459,18.688l-18.2-8.494c-3.754-1.754-8.217-0.13-9.968,3.624
			c-1.752,3.754-0.129,8.217,3.624,9.968l24.039,11.219c3.359,1.568,7.356,0.446,9.412-2.636l12.149-18.223l50.035,28.591
			c2.319,1.328,5.172,1.318,7.485-0.025c2.313-1.342,3.735-3.813,3.735-6.486v-18.051l33.116,22.078l0.06,12.005
			c0,12.976,10.557,23.532,23.532,23.532h12.025c3.537,0,6.928,1.506,9.303,4.131c2.406,2.659,3.532,6.113,3.17,9.728
			c-0.63,6.293-6.611,11.222-13.618,11.222h-3.383v-0.438c0-4.141-3.356-7.498-7.497-7.5c-0.001,0-0.002,0-0.003,0
			c-4.14,0-7.497,3.354-7.5,7.494c-0.039,53.287-43.421,96.639-96.706,96.639C202.752,304.614,159.368,261.229,159.368,207.904z
			 M202.369,396.299c-0.051,0.044-0.182,0.157-0.425,0.117c-0.238-0.042-0.322-0.189-0.359-0.253l-25.262-44.207l10.493-20.985
			c0.024-0.049,0.099-0.197,0.309-0.263c0.213-0.063,0.357,0.017,0.404,0.043l55.403,30.779L202.369,396.299z M264.014,440.886
			h-16.033c-0.284,0-0.516-0.231-0.516-0.516v-62.97l8.532-7.313l8.532,7.313v62.97h0.001
			C264.53,440.654,264.299,440.886,264.014,440.886z M310.41,396.164c-0.036,0.063-0.12,0.21-0.358,0.252
			c-0.241,0.04-0.374-0.073-0.425-0.117l-40.563-34.769l6.612-3.673c3.62-2.012,4.925-6.578,2.914-10.199
			c-2.012-3.62-6.579-4.924-10.199-2.914l-12.393,6.885l-48.613-27.008v-16.194c14.726,7.162,31.248,11.185,48.693,11.185
			c17.381,0,33.847-3.998,48.533-11.115v16.124l-8.926,4.959c-3.621,2.012-4.925,6.578-2.913,10.199
			c2.011,3.621,6.576,4.928,10.198,2.913l21.496-11.941c0.047-0.026,0.193-0.107,0.404-0.043c0.21,0.065,0.284,0.214,0.309,0.263
			l10.493,20.985L310.41,396.164z"/>
	</g>
</g>
<g>
</g>
<g>
</g>
<g>
</g>
<g>
</g>
<g>
</g>
<g>
</g>
<g>
</g>
<g>
</g>
<g>
</g>
<g>
</g>
<g>
</g>
<g>
</g>
<g>
</g>
<g>
</g>
<g>
</g>
</svg>
