<?xml version="1.0" encoding="iso-8859-1"?>
<!-- Generator: Adobe Illustrator 19.0.0, SVG Export Plug-In . SVG Version: 6.00 Build 0)  -->
<svg version="1.1" id="Capa_1" xmlns="http://www.w3.org/2000/svg" xmlns:xlink="http://www.w3.org/1999/xlink" x="0px" y="0px"
	 viewBox="0 0 512.001 512.001" style="enable-background:new 0 0 512.001 512.001;" xml:space="preserve">
<g>
	<g>
		<path d="M207.904,176.355c-4.142,0-7.5,3.358-7.5,7.5v8.016c0,4.142,3.358,7.5,7.5,7.5c4.142,0,7.5-3.358,7.5-7.5v-8.016
			C215.404,179.713,212.047,176.355,207.904,176.355z"/>
	</g>
</g>
<g>
	<g>
		<path d="M304.097,176.355c-4.143,0-7.5,3.358-7.5,7.5v8.016c0,4.142,3.357,7.5,7.5,7.5s7.5-3.358,7.5-7.5v-8.016
			C311.597,179.713,308.24,176.355,304.097,176.355z"/>
	</g>
</g>
<g>
	<g>
		<path d="M223.372,156.962c-0.464-4.116-4.172-7.076-8.293-6.612l-16.032,1.809c-4.116,0.464-7.076,4.177-6.612,8.293
			c0.432,3.831,3.677,6.66,7.443,6.66c0.281,0,0.564-0.016,0.85-0.048l16.032-1.809
			C220.876,164.791,223.836,161.078,223.372,156.962z"/>
	</g>
</g>
<g>
	<g>
		<path d="M312.955,152.158l-16.032-1.809c-4.115-0.467-7.829,2.495-8.294,6.612c-0.464,4.116,2.496,7.829,6.612,8.293l16.032,1.809
			c0.286,0.032,0.569,0.048,0.851,0.048c3.765,0,7.011-2.83,7.443-6.66C320.031,156.335,317.072,152.623,312.955,152.158z"/>
	</g>
</g>
<g>
	<g>
		<path d="M410.779,389.909l-57.215-20.193l-0.974-9.248c-0.605-5.753-0.912-11.603-0.912-17.384
			c0-14.574,1.921-29.098,5.709-43.169l20.77-77.143c12.348-2.718,21.618-13.74,21.618-26.892c0-5.715-1.751-11.028-4.743-15.433
			c3.135-11.917,4.743-24.235,4.743-36.671C399.776,64.497,335.279,0,256,0S112.227,64.497,112.227,143.774
			c0,12.433,1.608,24.753,4.743,36.671c-2.992,4.405-4.743,9.719-4.743,15.434c0,13.153,9.27,24.175,21.618,26.892l20.769,77.143
			c3.789,14.071,5.71,28.595,5.71,43.169c0,5.783-0.307,11.631-0.913,17.383l-0.974,9.248l-57.214,20.194
			c-22.187,7.83-37.093,28.899-37.093,52.427V504.5c0,4.142,3.358,7.5,7.5,7.5c4.142,0,7.5-3.358,7.5-7.5v-62.165
			c0-17.18,10.885-32.564,27.085-38.282l50.483-17.818l-12.366,117.48c-0.434,4.12,2.555,7.811,6.674,8.244
			c0.267,0.028,0.532,0.042,0.794,0.042c3.789,0,7.044-2.863,7.45-6.715l15.079-143.248c0.082-0.778,0.144-1.562,0.215-2.344h25.86
			V504.5c0,4.142,3.358,7.5,7.5,7.5c4.142,0,7.5-3.358,7.5-7.5v-67.838c12.228,7.287,26.214,11.209,40.597,11.209
			s28.369-3.922,40.597-11.209V504.5c0,4.142,3.357,7.5,7.5,7.5s7.5-3.358,7.5-7.5V400.291c0-4.142-3.357-7.5-7.5-7.5
			s-7.5,3.358-7.5,7.5v18.136c-11.514,9.334-25.804,14.444-40.597,14.444s-29.083-5.11-40.597-14.444V311.975
			c12.589,4.928,26.282,7.638,40.597,7.638s28.007-2.71,40.597-7.638v56.254c0,4.142,3.357,7.5,7.5,7.5s7.5-3.358,7.5-7.5v-8.535
			h25.86c0.072,0.781,0.133,1.565,0.215,2.343l15.079,143.248c0.405,3.853,3.66,6.715,7.45,6.715c0.262,0,0.527-0.014,0.794-0.042
			c4.119-0.434,7.107-4.125,6.674-8.244l-12.367-117.479l50.484,17.818c16.2,5.718,27.085,21.102,27.085,38.282V504.5
			c0,4.142,3.357,7.5,7.5,7.5s7.5-3.358,7.5-7.5v-62.165C447.872,418.808,432.966,397.739,410.779,389.909z M200.404,344.693
			h-25.101c0.005-0.536,0.021-1.075,0.021-1.61c0-5.163-0.245-10.318-0.685-15.454h25.765V344.693z M200.404,312.629h-27.673
			c-0.953-5.587-2.158-11.133-3.633-16.614l-7.781-28.901c9.74,15.52,23.183,28.492,39.087,37.656V312.629z M256,304.612
			c-53.325,0.001-96.709-43.383-96.709-96.709c0-4.142-3.358-7.5-7.5-7.5c-4.142,0-7.5,3.358-7.5,7.5
			c0,0.173,0.006,0.344,0.007,0.516h-4.531c-6.915,0-12.541-5.625-12.541-12.541c0-6.915,5.625-12.54,12.539-12.54l6.011,0.001
			c7.902,0,7.924,0.001,9.606-0.917c2.508-1.368,3.923-3.96,3.909-6.63v-7.97c0-23.88,7.482-44.707,22.239-61.899
			c2.698-3.143,2.336-7.878-0.807-10.576c-3.144-2.697-7.878-2.337-10.576,0.807c-17.157,19.99-25.856,44.103-25.856,71.669v0.517
			c-2.434,0-4.523,0-4.524,0c-3.464,0-6.778,0.649-9.835,1.822c-1.797-8.639-2.706-17.48-2.706-26.386
			C127.227,72.768,184.995,15,256,15c71.007,0,128.774,57.768,128.774,128.774c0,8.908-0.913,17.747-2.71,26.385
			c-3.056-1.172-6.369-1.82-9.832-1.82c0,0-2.089,0-4.522,0V150.6c0.173,0,0.342,0.005,0.516,0.005c4.143,0,7.5-3.358,7.5-7.5
			c0-4.142-3.357-7.5-7.5-7.5c-62.787,0-108.183-20.323-135.208-37.372c-29.375-18.531-44.076-37.338-44.221-37.526
			c-2.523-3.278-7.225-3.895-10.508-1.376c-3.287,2.521-3.907,7.229-1.386,10.516c0.642,0.837,16.093,20.739,47.487,40.678
			c26.506,16.834,69.584,36.631,128.32,39.667v25.646h0.007c0.003,2.545,1.293,5.026,3.634,6.431
			c1.784,1.071,1.795,1.064,9.873,1.07l6.01-0.001c6.915,0,12.54,5.625,12.54,12.54c0,6.915-5.625,12.541-12.54,12.541h-4.531
			c0.001-0.172,0.007-0.344,0.007-0.516c0-4.142-3.357-7.5-7.5-7.5s-7.5,3.358-7.5,7.5C352.711,261.229,309.326,304.612,256,304.612
			z M336.699,344.694h-25.102v-17.065h25.766c-0.44,5.137-0.685,10.292-0.685,15.455
			C336.678,343.619,336.694,344.158,336.699,344.694z M342.904,296.015c-1.475,5.481-2.679,11.027-3.633,16.614h-27.673v-7.859
			c15.904-9.164,29.346-22.136,39.087-37.655L342.904,296.015z"/>
	</g>
</g>
<g>
	<g>
		<path d="M292.073,220.415h-72.145c-4.142,0-7.5,3.358-7.5,7.5c0,21.816,19.547,39.564,43.573,39.564
			c24.025,0,43.572-17.749,43.572-39.564C299.573,223.773,296.216,220.415,292.073,220.415z M256,252.479
			c-12.714,0-23.516-7.176-27.211-17.064h54.422C279.516,245.304,268.714,252.479,256,252.479z"/>
	</g>
</g>
<g>
</g>
<g>
</g>
<g>
</g>
<g>
</g>
<g>
</g>
<g>
</g>
<g>
</g>
<g>
</g>
<g>
</g>
<g>
</g>
<g>
</g>
<g>
</g>
<g>
</g>
<g>
</g>
<g>
</g>
</svg>
