<?xml version="1.0" encoding="iso-8859-1"?>
<!-- Generator: Adobe Illustrator 19.0.0, SVG Export Plug-In . SVG Version: 6.00 Build 0)  -->
<svg version="1.1" id="Capa_1" xmlns="http://www.w3.org/2000/svg" xmlns:xlink="http://www.w3.org/1999/xlink" x="0px" y="0px"
	 viewBox="0 0 512.003 512.003" style="enable-background:new 0 0 512.003 512.003;" xml:space="preserve">
<g>
	<g>
		<path d="M207.901,152.307c-4.142,0-7.5,3.358-7.5,7.5v8.016c0,4.142,3.358,7.5,7.5,7.5c4.142,0,7.5-3.358,7.5-7.5v-8.016
			C215.401,155.665,212.044,152.307,207.901,152.307z"/>
	</g>
</g>
<g>
	<g>
		<path d="M304.094,152.307c-4.142,0-7.5,3.358-7.5,7.5v8.016c0,4.142,3.358,7.5,7.5,7.5c4.142,0,7.5-3.358,7.5-7.5v-8.016
			C311.594,155.665,308.237,152.307,304.094,152.307z"/>
	</g>
</g>
<g>
	<g>
		<path d="M285.385,210.652c-2.91-2.949-7.659-2.98-10.606-0.071c-2.737,2.701-9.298,5.855-18.781,5.855
			c-9.483,0-16.043-3.154-18.781-5.855c-2.95-2.91-7.698-2.877-10.606,0.071c-2.909,2.948-2.877,7.697,0.071,10.606
			c6.459,6.373,17.418,10.177,29.316,10.177c11.898,0,22.857-3.804,29.316-10.177C288.263,218.349,288.294,213.6,285.385,210.652z"
			/>
	</g>
</g>
<g>
	<g>
		<path d="M256.078,400.807h-0.08c-4.142,0-7.46,3.358-7.46,7.5c0,4.142,3.398,7.5,7.54,7.5c4.142,0,7.5-3.358,7.5-7.5
			C263.578,404.165,260.22,400.807,256.078,400.807z"/>
	</g>
</g>
<g>
	<g>
		<path d="M256.078,464.936h-0.08c-4.142,0-7.46,3.358-7.46,7.5c0,4.142,3.398,7.5,7.54,7.5c4.142,0,7.5-3.358,7.5-7.5
			C263.578,468.294,260.22,464.936,256.078,464.936z"/>
	</g>
</g>
<g>
	<g>
		<path d="M215.917,128.258h-16.032c-4.142,0-7.5,3.358-7.5,7.5c0,4.142,3.358,7.5,7.5,7.5h16.032c4.142,0,7.5-3.358,7.5-7.5
			C223.417,131.616,220.059,128.258,215.917,128.258z"/>
	</g>
</g>
<g>
	<g>
		<path d="M312.111,128.258h-16.032c-4.142,0-7.5,3.358-7.5,7.5c0,4.142,3.358,7.5,7.5,7.5h16.032c4.142,0,7.5-3.358,7.5-7.5
			C319.611,131.616,316.252,128.258,312.111,128.258z"/>
	</g>
</g>
<g>
	<g>
		<path d="M352.191,416.841c-4.142,0-7.5,3.358-7.5,7.5V504.5c0,4.142,3.358,7.5,7.5,7.5c4.142,0,7.5-3.358,7.5-7.5v-80.159
			C359.691,420.199,356.333,416.841,352.191,416.841z"/>
	</g>
</g>
<g>
	<g>
		<path d="M415.976,350.876l-30.042-8.836c-20.488-33.077-53.169-47.028-66.323-51.506v-14.91
			c25.013-17.396,42.617-44.741,47.019-76.253h4.459c14.617,0,27.154-10.861,28.543-24.727c0.778-7.771-1.765-15.531-6.975-21.288
			c-4.426-4.891-10.459-8.011-16.933-8.843V111.05c2.833,0.094,5.678,0.143,8.533,0.143c4.142,0,7.5-3.358,7.5-7.5V87.661
			C391.757,39.325,352.431,0,304.094,0h-96.193c-39.496,0-71.629,32.133-71.629,71.629v73.029
			c-12.55,2.006-22.667,11.986-23.907,24.358c-0.778,7.771,1.764,15.531,6.974,21.289c5.213,5.762,12.658,9.067,20.425,9.067h5.598
			c4.399,31.522,22.003,58.87,47.023,76.264v14.899c-13.154,4.478-45.835,18.429-66.323,51.506l-30.042,8.836
			c-23.498,6.912-39.909,28.845-39.909,53.338V504.5c0,4.142,3.358,7.5,7.5,7.5c4.142,0,7.5-3.358,7.5-7.5V404.214
			c0-17.885,11.983-33.9,29.142-38.947l16.667-4.902c-0.694,1.781-1.353,3.602-1.973,5.466c-2.365,7.107-1.388,14.684,2.681,20.786
			l8.479,12.718l-21.494,21.494c-5.72,5.719-8.086,13.848-6.332,21.745l14.123,63.554c0.777,3.496,3.876,5.875,7.314,5.875
			c0.539,0,1.086-0.058,1.634-0.18c4.043-0.898,6.593-4.905,5.694-8.948l-14.123-63.554c-0.636-2.863,0.222-5.811,2.296-7.884
			l25.842-25.841c2.528-2.528,2.92-6.489,0.937-9.463l-11.889-17.834c-1.484-2.226-1.823-5.043-0.929-7.729
			c13.087-39.329,46.752-57.316,63.207-63.967v4.943c0,8.703-3.389,16.884-9.542,23.038l-9.559,9.559
			c-13.529,13.529-20.979,31.517-20.979,50.649V504.5c0,4.142,3.358,7.5,7.5,7.5c4.142,0,7.5-3.358,7.5-7.5V394.789
			c0-15.126,5.89-29.347,16.586-40.043l0.479-0.479v25.036c0,5.417,2.751,10.351,7.359,13.199c2.508,1.55,5.322,2.332,8.148,2.332
			c2.366,0,4.74-0.548,6.948-1.652l49.174-24.587l49.174,24.587c2.208,1.104,4.582,1.652,6.948,1.652
			c2.826,0,5.641-0.782,8.148-2.332c4.608-2.848,7.359-7.782,7.359-13.199v-25.036l0.479,0.479
			c10.696,10.696,16.586,24.917,16.586,40.043c0,4.142,3.358,7.5,7.5,7.5c4.142,0,7.5-3.358,7.5-7.5
			c0-19.133-7.451-37.121-20.979-50.649l-9.559-9.559c-6.154-6.153-9.542-14.335-9.542-23.038v-4.976
			c16.433,6.594,50.061,24.493,63.207,64c0.894,2.686,0.555,5.503-0.929,7.729l-11.889,17.833c-1.983,2.975-1.591,6.936,0.937,9.463
			l25.842,25.841c2.074,2.074,2.932,5.021,2.296,7.884l-14.123,63.554c-0.898,4.043,1.651,8.05,5.694,8.948
			c0.548,0.122,1.095,0.18,1.634,0.18c3.438,0,6.538-2.379,7.314-5.875l14.123-63.554c1.754-7.896-0.612-16.025-6.332-21.745
			l-21.494-21.494l8.479-12.717c4.069-6.103,5.046-13.68,2.681-20.787c-0.62-1.865-1.28-3.686-1.973-5.466l16.667,4.902
			c17.158,5.047,29.142,21.063,29.142,38.947V504.5c0,4.142,3.358,7.5,7.5,7.5c4.142,0,7.5-3.358,7.5-7.5V404.214
			C455.885,379.721,439.474,357.788,415.976,350.876z M159.288,183.855c0-4.142-3.358-7.5-7.5-7.5c-4.142,0-7.5,3.358-7.5,7.5v0.516
			h-4.524c-3.537,0-6.927-1.506-9.303-4.131c-2.407-2.66-3.533-6.115-3.17-9.729c0.63-6.292,6.612-11.221,13.617-11.221h2.863h0.001
			c1.989,0,3.896-0.79,5.303-2.196c1.407-1.407,2.197-3.314,2.197-5.304v-49.002c11.525-0.986,34.145-4.485,52.773-16.903
			c3.447-2.297,4.378-6.954,2.08-10.4c-2.297-3.446-6.955-4.377-10.4-2.08c-15.124,10.082-34.135,13.285-44.453,14.301V71.629
			c0-31.225,25.404-56.629,56.629-56.629h96.193c40.066,0,72.662,32.596,72.662,72.661v8.413
			c-81.97-2.583-156.071-46.366-156.98-46.909c-3.554-2.132-8.159-0.979-10.29,2.572c-2.131,3.552-0.979,8.159,2.572,10.29
			c3.049,1.829,69.41,41.127,148.665,48.105v41.658c0,4.142,3.358,7.5,7.5,7.5h4.008c3.537,0,6.927,1.505,9.303,4.13
			c2.407,2.66,3.533,6.115,3.171,9.729c-0.63,6.292-6.611,11.221-13.617,11.221h-3.385v-0.439c0-4.141-3.356-7.499-7.497-7.5
			c0,0-0.002,0-0.003,0c-4.14,0-7.497,3.354-7.5,7.495c-0.039,53.286-43.421,96.638-96.706,96.638
			C202.672,280.564,159.288,237.181,159.288,183.855z M200.117,379.766c-0.096,0.048-0.256,0.129-0.502-0.023
			c-0.245-0.151-0.245-0.332-0.245-0.439v-38.188c0-0.108,0-0.288,0.245-0.439c0.106-0.065,0.196-0.087,0.272-0.087
			c0.1,0,0.175,0.038,0.23,0.065l39.111,19.556L200.117,379.766z M255.999,351.824l-49.174-24.587
			c-0.598-0.299-1.209-0.557-1.828-0.775c1.564-4.752,2.389-9.771,2.389-14.92v-27.125c14.705,7.138,31.199,11.147,48.613,11.147
			c17.412,0,33.906-4.012,48.613-11.153v27.132c0,5.148,0.826,10.167,2.389,14.919c-0.619,0.218-1.23,0.476-1.828,0.775
			L255.999,351.824z M312.627,379.304c0,0.107,0,0.288-0.245,0.439c-0.246,0.152-0.406,0.07-0.502,0.023L272.77,360.21
			l39.111-19.556c0.097-0.048,0.258-0.128,0.502,0.022c0.245,0.151,0.245,0.332,0.245,0.439V379.304z"/>
	</g>
</g>
<g>
</g>
<g>
</g>
<g>
</g>
<g>
</g>
<g>
</g>
<g>
</g>
<g>
</g>
<g>
</g>
<g>
</g>
<g>
</g>
<g>
</g>
<g>
</g>
<g>
</g>
<g>
</g>
<g>
</g>
</svg>
