<?xml version="1.0" encoding="iso-8859-1"?>
<!-- Generator: Adobe Illustrator 19.0.0, SVG Export Plug-In . SVG Version: 6.00 Build 0)  -->
<svg version="1.1" id="Capa_1" xmlns="http://www.w3.org/2000/svg" xmlns:xlink="http://www.w3.org/1999/xlink" x="0px" y="0px"
	 viewBox="0 0 512 512" style="enable-background:new 0 0 512 512;" xml:space="preserve">
<g>
	<g>
		<path d="M410.779,373.876l-82.793-29.221c-9.803-3.46-16.389-12.769-16.389-23.164v-32.71c7.322-4.208,14.205-9.267,20.504-15.131
			c16.898-15.731,28.357-36.026,33.12-58.247h7.014c15.186,0,27.54-12.354,27.54-27.54c0-11.079-6.579-20.645-16.032-25.012v-75.19
			c0-39.496-32.133-71.629-71.629-71.629h-1.754C304.464,9.87,297.067,5.146,288.562,2.5C283.224,0.841,277.662,0,272.033,0H256
			c-34.146,0-68.73,14.266-94.884,39.141c-27.435,26.093-42.544,60.405-42.544,96.617c0,54.063-6.028,77.316-6.085,77.528
			c-0.73,2.693,0.094,5.569,2.141,7.466c1.409,1.307,3.237,1.999,5.099,1.999c0.841,0,1.689-0.142,2.508-0.432
			c0.634-0.225,9.563-3.427,23.931-10.003c4.414,23.836,16.497,45.64,34.628,62.156c6.051,5.512,12.631,10.291,19.61,14.3v32.718
			c0,10.396-6.586,19.704-16.389,23.164l-82.793,29.221c-22.187,7.831-37.093,28.899-37.093,52.428V504.5c0,4.143,3.357,7.5,7.5,7.5
			s7.5-3.357,7.5-7.5v-78.196c0-6.841,1.731-13.394,4.83-19.169l7.988,6.847c1.414,1.212,3.15,1.806,4.877,1.806
			c2.114,0,4.215-0.889,5.698-2.619c2.695-3.145,2.331-7.88-0.813-10.575l-8.34-7.148c3.721-3.184,8.047-5.731,12.844-7.424
			l56.845-20.063l7.188,16.173c15.045,33.851,48.702,55.724,85.76,55.724c37.044,0,70.701-21.873,85.746-55.724l7.188-16.173
			l56.845,20.063c4.798,1.693,9.124,4.24,12.844,7.424l-36.072,30.918c-8.78,7.525-13.816,18.475-13.816,30.04V504.5
			c0,4.143,3.357,7.5,7.5,7.5s7.5-3.357,7.5-7.5v-48.097c0-7.181,3.127-13.979,8.578-18.651l35.72-30.617
			c3.1,5.775,4.831,12.328,4.831,19.169V504.5c0,4.143,3.357,7.5,7.5,7.5s7.5-3.357,7.5-7.5v-78.196
			C447.872,402.775,432.966,381.707,410.779,373.876z M129.579,203.204c1.848-12.736,3.993-34.597,3.993-67.446
			c0-32.063,13.453-62.515,37.882-85.749C194.847,27.761,225.664,15,256,15h16.032c4.119,0,8.182,0.613,12.075,1.823
			c16.739,5.207,27.498,21.872,26.165,40.526c-0.296,4.132,2.814,7.721,6.945,8.016c4.147,0.31,7.721-2.814,8.016-6.945
			c0.679-9.495-0.967-18.625-4.493-26.731c27.146,4.167,48.001,27.68,48.001,55.973v67.517c-14.908-6.665-43.955-22.936-64.61-55.15
			c2.317-2.494,4.62-5.023,6.898-7.603c2.742-3.105,2.447-7.845-0.658-10.586c-3.106-2.742-7.846-2.445-10.586,0.658
			C238.239,152.213,159.574,190.373,129.579,203.204z M264.607,152.851l1.278,8.945c-3.099-1.117-6.431-1.723-9.885-1.723
			c-3.454,0-6.786,0.606-9.885,1.723l1.278-8.945c0.074-0.52,0.091-1.041,0.056-1.556c15.206-11.664,30.858-25.05,46.009-40.199
			c9.187,13.651,19.645,24.563,29.918,33.195h-11.263h-16.032h-24.049c-2.174,0-4.241,0.943-5.666,2.586
			S264.3,150.698,264.607,152.851z M296.081,159.291L296.081,159.291l16.032-0.001h23.417l-3.844,26.906
			c-1.165,8.152-8.146,14.208-16.382,14.208h-7.447c-11.042,0-20.663-7.505-23.615-17.902c-0.001-0.005-0.002-0.01-0.003-0.016
			c-0.288-1.281-0.549-2.563-0.742-3.861c-0.829-5.592-2.818-19.334-2.818-19.334H296.081z M208.133,191.351
			c4.105-0.123,7.27-3.704,7.27-7.811V174c4.971-3.251,10.083-6.713,15.3-10.39l-2.243,15.701c-0.048,0.339-0.798,3.56-1.044,4.292
			c-3.3,9.82-12.625,16.799-23.273,16.799h-7.447c-5.396,0-10.396-2.694-13.454-6.935c1.054-0.589,2.116-1.185,3.188-1.793
			c4.412-2.502,9.091-5.242,13.974-8.211v0.389C200.404,188.073,203.886,191.478,208.133,191.351z M190.896,263.385
			c-16.707-15.22-27.482-35.617-30.632-57.799c3.099-1.539,6.336-3.183,9.713-4.948c5.651,9.062,15.592,14.765,26.719,14.765h7.447
			c18.452,0,34.475-12.996,38.556-30.723c1.788-5.65,7.136-9.608,13.301-9.608c6.165,0,11.513,3.958,13.301,9.608
			c4.082,17.728,20.105,30.723,38.556,30.723h7.447c15.598,0,29.024-11.645,31.231-27.087l3.657-25.602
			c1.103,0.61,2.18,1.19,3.23,1.741c1.98,6.291,7.866,10.867,14.802,10.867h4.009c6.915,0,12.54,5.626,12.54,12.541
			c0,6.915-5.625,12.54-12.54,12.54h-4.848c0.285-4.109-2.797-7.685-6.911-7.998c-4.147-0.315-7.732,2.78-8.047,6.91
			c-1.843,24.232-12.691,46.732-30.548,63.356c-17.947,16.708-41.344,25.909-65.88,25.909
			C231.854,288.581,208.73,279.633,190.896,263.385z M328.047,378.039c-12.64,28.439-40.917,46.815-72.053,46.815
			c-31.122,0-59.399-18.376-72.039-46.815l-6.707-15.089l11.759-4.15c15.788-5.572,26.396-20.565,26.396-37.309v-25.529
			c12.814,4.997,26.555,7.619,40.597,7.619c14.059,0,27.793-2.619,40.597-7.611v25.521c0,16.743,10.608,31.736,26.396,37.309
			l11.759,4.15L328.047,378.039z"/>
	</g>
</g>
<g>
	<g>
		<path d="M285.388,226.684c-2.91-2.948-7.658-2.981-10.606-0.071c-2.737,2.701-9.299,5.855-18.781,5.855
			c-9.482,0-16.044-3.154-18.781-5.855c-2.946-2.907-7.695-2.878-10.606,0.071c-2.909,2.948-2.877,7.697,0.071,10.606
			c6.459,6.373,17.419,10.178,29.316,10.178c11.897,0,22.857-3.805,29.316-10.178C288.265,234.381,288.297,229.632,285.388,226.684z
			"/>
	</g>
</g>
<g>
	<g>
		<path d="M304.097,168.338c-4.143,0-7.5,3.357-7.5,7.5v8.016c0,4.143,3.357,7.5,7.5,7.5c4.143,0,7.5-3.357,7.5-7.5v-8.016
			C311.597,171.695,308.24,168.338,304.097,168.338z"/>
	</g>
</g>
<g>
	<g>
		<path d="M129.441,426.363l-4.848-4.155c-3.145-2.697-7.88-2.331-10.575,0.813s-2.332,7.88,0.813,10.575l4.848,4.155
			c5.451,4.673,8.578,11.471,8.578,18.651V504.5c0,4.143,3.357,7.5,7.5,7.5s7.5-3.357,7.5-7.5v-48.097
			C143.258,444.838,138.222,433.889,129.441,426.363z"/>
	</g>
</g>
<g>
</g>
<g>
</g>
<g>
</g>
<g>
</g>
<g>
</g>
<g>
</g>
<g>
</g>
<g>
</g>
<g>
</g>
<g>
</g>
<g>
</g>
<g>
</g>
<g>
</g>
<g>
</g>
<g>
</g>
</svg>
