<?xml version="1.0" encoding="iso-8859-1"?>
<!-- Generator: Adobe Illustrator 19.0.0, SVG Export Plug-In . SVG Version: 6.00 Build 0)  -->
<svg version="1.1" id="Capa_1" xmlns="http://www.w3.org/2000/svg" xmlns:xlink="http://www.w3.org/1999/xlink" x="0px" y="0px"
	 viewBox="0 0 512 512" style="enable-background:new 0 0 512 512;" xml:space="preserve">
<g>
	<g>
		<path d="M207.904,176.359c-4.142,0-7.5,3.358-7.5,7.5v8.016c0,4.142,3.358,7.5,7.5,7.5c4.142,0,7.5-3.358,7.5-7.5v-8.016
			C215.404,179.717,212.045,176.359,207.904,176.359z"/>
	</g>
</g>
<g>
	<g>
		<path d="M304.097,176.359c-4.142,0-7.5,3.358-7.5,7.5v8.016c0,4.142,3.358,7.5,7.5,7.5c4.142,0,7.5-3.358,7.5-7.5v-8.016
			C311.597,179.717,308.24,176.359,304.097,176.359z"/>
	</g>
</g>
<g>
	<g>
		<path d="M285.388,234.704c-2.909-2.948-7.658-2.98-10.606-0.071c-2.737,2.701-9.298,5.855-18.781,5.855
			c-9.483,0-16.043-3.154-18.781-5.855c-2.95-2.91-7.698-2.877-10.606,0.071c-2.909,2.948-2.877,7.697,0.071,10.606
			c6.459,6.373,17.418,10.177,29.316,10.177s22.857-3.805,29.316-10.177C288.266,242.401,288.297,237.652,285.388,234.704z"/>
	</g>
</g>
<g>
	<g>
		<path d="M199.888,448.906c-4.142,0-7.5,3.358-7.5,7.5V504.5c0,4.142,3.358,7.5,7.5,7.5c4.142,0,7.5-3.358,7.5-7.5v-48.094
			C207.388,452.264,204.029,448.906,199.888,448.906z"/>
	</g>
</g>
<g>
	<g>
		<path d="M410.224,373.236l-22.976-6.758l15.455-19.319c4.243-5.303,5.987-12.178,4.786-18.863s-5.23-12.522-11.054-16.017
			l-54.718-32.831c2.131-2.549,4.15-5.195,6.051-7.928h20.459c39.496,0,71.629-32.133,71.629-71.629
			c0-31.448-20.381-58.208-48.62-67.816c-2.364-27.761-13.004-53.701-30.928-75.194c-17.15-20.565-39.475-35.353-64.834-43.026
			C294.641,6.078,288.044,0,280.049,0h-48.097c-7.994,0-14.592,6.078-15.424,13.855c-25.36,7.673-47.684,22.461-64.834,43.026
			c-17.924,21.493-28.564,47.434-30.928,75.194c-28.24,9.608-48.62,36.368-48.62,67.816c0,39.496,32.133,71.629,71.629,71.629
			h20.446c1.902,2.736,3.922,5.383,6.054,7.934l-54.709,32.826c-5.824,3.494-9.853,9.332-11.054,16.017
			c-1.201,6.685,0.543,13.56,4.786,18.862l15.456,19.32l-22.976,6.758c-26.886,7.907-45.664,33.003-45.664,61.028V504.5
			c0,4.142,3.358,7.5,7.5,7.5c4.142,0,7.5-3.358,7.5-7.5v-70.236c0-21.417,14.35-40.595,34.896-46.637l28.869-8.491l21.818,27.273
			c2.338,2.923,3.626,6.595,3.626,10.338V504.5c0,4.142,3.358,7.5,7.5,7.5c4.142,0,7.5-3.358,7.5-7.5v-87.753
			c0-7.136-2.455-14.135-6.914-19.708l-47.399-59.25c-1.561-1.951-2.177-4.379-1.735-6.838c0.442-2.459,1.866-4.522,4.008-5.808
			l57.644-34.586c3.613,3.285,7.441,6.337,11.461,9.131v124.656c0,4.142,3.358,7.5,7.5,7.5c4.142,0,7.5-3.358,7.5-7.5v-3.714
			c15.135,7.357,31.71,11.214,48.613,11.214s33.478-3.857,48.613-11.214v83.87c0,4.142,3.358,7.5,7.5,7.5c4.142,0,7.5-3.358,7.5-7.5
			V299.677c4.016-2.793,7.841-5.844,11.451-9.126l57.653,34.592c2.143,1.286,3.566,3.348,4.008,5.808
			c0.442,2.459-0.174,4.888-1.735,6.839l-47.399,59.25c-4.458,5.573-6.914,12.572-6.914,19.708V504.5c0,4.142,3.358,7.5,7.5,7.5
			c4.142,0,7.5-3.358,7.5-7.5v-87.753c0-3.743,1.288-7.415,3.626-10.338l21.818-27.273l28.869,8.491
			c20.546,6.042,34.896,25.221,34.896,46.637V504.5c0,4.142,3.358,7.5,7.5,7.5c4.142,0,7.5-3.358,7.5-7.5v-70.236
			C455.888,406.239,437.11,381.144,410.224,373.236z M383.742,145.441L383.742,145.441c23.704,6.765,41.114,28.605,41.114,54.451
			c0,31.225-25.404,56.629-56.629,56.629h-11.672c4.982-10.26,8.443-21.39,10.078-33.097h4.459
			c14.617,0,27.154-10.861,28.542-24.727c0.778-7.771-1.765-15.531-6.975-21.288c-2.521-2.787-5.568-4.992-8.917-6.533V145.441z
			 M231.953,15h48.097c0.285,0,0.516,0.231,0.516,0.516v34.037c0,7.371-2.535,14.599-7.139,20.353l-17.021,21.277
			c-0.047,0.058-0.155,0.194-0.404,0.194c-0.249,0-0.357-0.136-0.403-0.193l-17.022-21.278c-4.604-5.754-7.139-12.982-7.139-20.353
			V15.516h-0.001C231.437,15.231,231.667,15,231.953,15z M143.774,256.521c-31.225,0-56.629-25.404-56.629-56.629
			c0-25.845,17.41-47.686,41.113-54.451v25.768c-8.631,4.115-14.93,12.266-15.891,21.859c-0.778,7.771,1.764,15.531,6.974,21.289
			c5.213,5.762,12.658,9.067,20.425,9.067h5.598c1.634,11.707,5.092,22.837,10.072,33.097H143.774z M304.614,403.643
			c-14.794,8.643-31.513,13.2-48.613,13.2c-17.1,0-33.818-4.557-48.613-13.2v-20.44c13.793,10.674,30.773,16.575,48.613,16.575
			s34.82-5.901,48.613-16.575V403.643z M304.614,362.667c-12.309,14.075-29.874,22.111-48.613,22.111s-36.303-8.037-48.613-22.111
			v-54.196c14.705,7.137,31.199,11.146,48.613,11.146c17.412,0,33.906-4.012,48.613-11.153V362.667z M256,304.617
			c-53.326,0-96.709-43.384-96.709-96.709c0-4.142-3.358-7.5-7.5-7.5c-4.142,0-7.5,3.358-7.5,7.5v0.516h-4.524
			c-3.537,0-6.927-1.506-9.303-4.131c-2.407-2.66-3.533-6.115-3.17-9.73c0.63-6.292,6.611-11.22,13.617-11.22h10.881
			c12.976,0,23.532-10.557,23.532-23.533v-16.548h120.762c4.142,0,7.5-3.358,7.5-7.5c0-4.142-3.358-7.5-7.5-7.5l-159.84,0.024
			c2.899-22.769,12.124-43.999,26.969-61.799c14.25-17.087,32.507-29.69,53.223-36.841v19.906c0,10.764,3.703,21.32,10.426,29.723
			l17.022,21.278c2.96,3.701,7.376,5.823,12.116,5.823s9.155-2.122,12.116-5.823l17.022-21.277
			c6.724-8.404,10.426-18.96,10.426-29.724V29.647c20.715,7.151,38.973,19.754,53.223,36.841
			c14.845,17.8,24.069,39.03,26.969,61.799l-47.609-0.024c-4.142,0-7.5,3.358-7.5,7.5c0,4.142,3.358,7.5,7.5,7.5h8.53v16.549
			c0,12.976,10.557,23.532,23.532,23.532h12.024c3.537,0,6.927,1.505,9.303,4.13c2.407,2.66,3.533,6.115,3.171,9.729
			c-0.63,6.292-6.611,11.221-13.617,11.221h-3.385v-0.439c0-4.141-3.356-7.499-7.497-7.5c0,0-0.002,0-0.003,0
			c-4.14,0-7.497,3.354-7.5,7.495C352.667,261.266,309.286,304.617,256,304.617z M143.258,168.343v-25.081h17.064v16.548
			c0,4.705-3.828,8.533-8.532,8.533H143.258z M368.742,143.262v25.081h-8.532c-4.705,0-8.532-3.828-8.532-8.532v-16.549H368.742z"/>
	</g>
</g>
<g>
	<g>
		<path d="M215.919,152.311h-16.032c-4.142,0-7.5,3.358-7.5,7.5c0,4.142,3.358,7.5,7.5,7.5h16.032c4.142,0,7.5-3.358,7.5-7.5
			C223.419,155.669,220.063,152.311,215.919,152.311z"/>
	</g>
</g>
<g>
	<g>
		<path d="M312.114,152.311h-16.032c-4.143,0-7.5,3.358-7.5,7.5c0,4.142,3.358,7.5,7.5,7.5h16.032c4.142,0,7.5-3.358,7.5-7.5
			C319.614,155.669,316.255,152.311,312.114,152.311z"/>
	</g>
</g>
<g>
</g>
<g>
</g>
<g>
</g>
<g>
</g>
<g>
</g>
<g>
</g>
<g>
</g>
<g>
</g>
<g>
</g>
<g>
</g>
<g>
</g>
<g>
</g>
<g>
</g>
<g>
</g>
<g>
</g>
</svg>
