<?xml version="1.0" encoding="iso-8859-1"?>
<!-- Generator: Adobe Illustrator 19.0.0, SVG Export Plug-In . SVG Version: 6.00 Build 0)  -->
<svg version="1.1" id="Capa_1" xmlns="http://www.w3.org/2000/svg" xmlns:xlink="http://www.w3.org/1999/xlink" x="0px" y="0px"
	 viewBox="0 0 512.003 512.003" style="enable-background:new 0 0 512.003 512.003;" xml:space="preserve">
<g>
	<g>
		<path d="M285.387,274.781c-2.91-2.949-7.659-2.98-10.606-0.071c-2.737,2.701-9.298,5.855-18.781,5.855
			c-9.483,0-16.043-3.154-18.781-5.855c-2.95-2.91-7.698-2.877-10.606,0.071c-2.909,2.948-2.877,7.697,0.071,10.606
			c6.46,6.373,17.419,10.177,29.316,10.177c11.898,0,22.857-3.805,29.316-10.177C288.265,282.478,288.296,277.729,285.387,274.781z"
			/>
	</g>
</g>
<g>
	<g>
		<path d="M207.904,208.42c-4.142,0-7.5,3.358-7.5,7.5v8.016c0,4.142,3.358,7.5,7.5,7.5c4.142,0,7.5-3.358,7.5-7.5v-8.016
			C215.404,211.779,212.046,208.42,207.904,208.42z"/>
	</g>
</g>
<g>
	<g>
		<path d="M304.097,208.42c-4.142,0-7.5,3.358-7.5,7.5v8.016c0,4.142,3.358,7.5,7.5,7.5c4.142,0,7.5-3.358,7.5-7.5v-8.016
			C311.597,211.779,308.239,208.42,304.097,208.42z"/>
	</g>
</g>
<g>
	<g>
		<path d="M410.778,405.941l-67.441-23.803c-0.347-1.176-0.967-2.277-1.873-3.183l-18.38-18.38
			c-3.156-3.156-7.344-4.65-11.488-4.513v-19.228c29.243-16.849,50.174-46.561,55.03-81.35h5.607
			c15.186,0,27.541-12.354,27.541-27.541c0-11.079-6.579-20.644-16.033-25.011v-32.003l45.9-45.9
			c2.434-2.434,2.898-6.211,1.128-9.162l-48.097-80.161c-1.002-1.671-2.616-2.886-4.499-3.388L257.933,0.253
			c-1.267-0.338-2.599-0.338-3.865,0L133.826,32.318c-1.883,0.502-3.496,1.717-4.499,3.388L81.23,115.868
			c-1.771,2.951-1.306,6.729,1.128,9.162l45.9,45.9v32.003c-9.454,4.367-16.033,13.932-16.033,25.011
			c0,11.025,6.515,20.553,15.894,24.949c-0.891,17.535-6.469,30.627-12.859,45.573c-8.926,20.877-19.043,44.54-19.043,85.793v23.739
			c-19.392,9.054-32.089,28.661-32.089,50.37V504.5c0,4.142,3.358,7.5,7.5,7.5c4.142,0,7.5-3.358,7.5-7.5v-46.132
			c0-4.992,0.925-9.83,2.626-14.326l37.925,32.507c5.452,4.673,8.578,11.471,8.578,18.651v9.301c0,4.142,3.358,7.5,7.5,7.5
			c4.142,0,7.5-3.358,7.5-7.5V495.2c0-11.564-5.036-22.513-13.816-30.04l-39.755-34.075c4.423-4.876,10.048-8.712,16.528-10.999
			l66.854-23.596l23.674,53.266c1.993,4.485,5.878,7.696,10.658,8.81c1.188,0.277,2.384,0.413,3.568,0.413
			c3.58,0,7.053-1.244,9.886-3.604l7.284-6.07l1.061,3.184c1.32,3.96,3.626,7.372,6.578,10.032l-6.758,40.753
			c-0.678,4.086,2.085,7.948,6.172,8.626c0.416,0.069,0.828,0.102,1.236,0.102c3.602,0,6.781-2.603,7.39-6.274l6.171-37.209
			c0.51,0.033,1.021,0.061,1.537,0.061h8.954c0.508,0,1.011-0.028,1.513-0.06l6.195,37.212c0.61,3.669,3.788,6.27,7.389,6.27
			c0.409,0,0.824-0.033,1.24-0.103c4.086-0.68,6.847-4.544,6.167-8.63l-6.779-40.728c2.962-2.663,5.277-6.083,6.6-10.052
			l1.061-3.184l7.284,6.07c2.833,2.361,6.306,3.604,9.886,3.604c1.184,0,2.38-0.136,3.568-0.413c4.78-1.113,8.665-4.324,10.658-8.81
			l11.366-25.573c1.682-3.785-0.022-8.217-3.808-9.899c-3.782-1.682-8.217,0.022-9.899,3.808l-11.366,25.573
			c-0.031,0.07-0.104,0.234-0.354,0.293c-0.248,0.058-0.388-0.057-0.448-0.106l-33.638-28.032l44.637-44.638
			c0.201-0.201,0.528-0.202,0.73,0l14.738,14.738l-1.473,3.313c-1.682,3.785,0.022,8.217,3.808,9.899
			c3.382,1.505,7.279,0.296,9.27-2.682l66.965,23.635c6.479,2.287,12.105,6.123,16.528,10.999l-39.755,34.075
			c-8.781,7.526-13.816,18.475-13.816,30.04v9.301c0,4.142,3.358,7.5,7.5,7.5c4.142,0,7.5-3.358,7.5-7.5V495.2
			c0-7.18,3.126-13.978,8.578-18.651l37.925-32.507c1.702,4.496,2.626,9.334,2.626,14.326V504.5c0,4.142,3.358,7.5,7.5,7.5
			c4.142,0,7.5-3.358,7.5-7.5v-46.132C447.872,434.84,432.965,413.771,410.778,405.941z M97.106,118.563l43.521-72.535L256,15.263
			l115.374,30.766l43.521,72.535l-31.153,31.153v-38.007c0-8.556-6.96-15.516-15.516-15.516h-8.012c-4.142,0-7.5,3.358-7.5,7.5
			c0,4.142,3.358,7.5,7.5,7.5h8.012c0.285,0,0.516,0.231,0.516,0.516v32.581H143.259v-32.581c0-0.285,0.231-0.516,0.516-0.516
			h91.243c5.58,4.981,12.932,8.016,20.983,8.016c8.051,0,15.403-3.035,20.983-8.016h51.162c4.142,0,7.5-3.358,7.5-7.5
			c0-4.142-3.358-7.5-7.5-7.5h-41.779c0.764-2.716,1.182-5.575,1.182-8.532V55.597c0-4.142-3.358-7.5-7.5-7.5h-48.097
			c-4.142,0-7.5,3.358-7.5,7.5v32.064c0,2.957,0.418,5.816,1.182,8.532h-81.859c-8.556,0-15.516,6.96-15.516,15.516v38.007
			L97.106,118.563z M147.283,159.292h217.436c-5.681,5.519-16.434,10.516-26.066,13.726c-21.966,7.322-51.319,11.354-82.652,11.354
			s-60.687-4.032-82.652-11.354C163.717,169.808,152.964,164.811,147.283,159.292z M160.323,184.209v7.664
			c0,4.705-3.829,8.533-8.535,8.533l-8.53-0.001v-25.112C147.652,178.342,153.242,181.352,160.323,184.209z M351.678,184.209
			c7.081-2.857,12.671-5.865,17.064-8.916v25.112l-8.529,0.001c-2.28,0-4.423-0.888-6.035-2.5s-2.5-3.754-2.5-6.033V184.209z
			 M239.453,87.662V63.097h33.097v24.564h-0.001c0,9.125-7.423,16.548-16.548,16.548C246.876,104.209,239.453,96.787,239.453,87.662
			z M127.228,227.943c-0.002-6.914,5.624-12.54,12.538-12.54l12.022,0.001c12.978,0,23.535-10.557,23.535-23.533v-2.557
			c22.514,6.5,50.818,10.056,80.677,10.056c29.859,0,58.163-3.557,80.677-10.056v2.557c0,6.286,2.449,12.196,6.895,16.641
			c4.446,4.444,10.355,6.892,16.642,6.892l12.021-0.001c6.915,0,12.541,5.625,12.541,12.54s-5.625,12.541-12.541,12.541h-4.531
			c0.001-0.172,0.007-0.344,0.007-0.516c0-4.142-3.358-7.5-7.5-7.5c-4.142,0-7.5,3.358-7.5,7.5
			c0,53.326-43.384,96.709-96.709,96.709s-96.709-43.384-96.709-96.709c0-4.142-3.358-7.5-7.5-7.5c-4.142,0-7.5,3.358-7.5,7.5
			c0,0.173,0.006,0.344,0.007,0.516h-4.531C132.854,240.485,127.228,234.86,127.228,227.943z M170.536,378.954
			c-0.906,0.906-1.526,2.007-1.873,3.183l-57.445,20.275v-18.155c0.001-38.179,9.068-59.386,17.836-79.895
			c6.488-15.175,12.645-29.616,13.943-48.878h2.377c4.856,34.789,25.787,64.501,55.03,81.35v19.228
			c-4.144-0.137-8.332,1.357-11.488,4.512L170.536,378.954z M211.251,443.852c-0.06,0.049-0.201,0.162-0.448,0.106
			c-0.25-0.059-0.323-0.223-0.354-0.293l-25.664-57.745l14.737-14.738c0.201-0.201,0.528-0.202,0.73,0l44.637,44.638
			L211.251,443.852z M271.489,438.993l-2.917,8.753c-1.163,3.489-4.416,5.834-8.094,5.834h-8.954c-3.678,0-6.931-2.345-8.094-5.834
			l-2.917-8.753L256,426.086L271.489,438.993z M296.597,365.12L256,405.716l-40.597-40.597v-21.08
			c12.589,4.928,26.282,7.638,40.597,7.638c14.315,0,28.007-2.71,40.597-7.638V365.12z"/>
	</g>
</g>
<g>
</g>
<g>
</g>
<g>
</g>
<g>
</g>
<g>
</g>
<g>
</g>
<g>
</g>
<g>
</g>
<g>
</g>
<g>
</g>
<g>
</g>
<g>
</g>
<g>
</g>
<g>
</g>
<g>
</g>
</svg>
