<?xml version="1.0" encoding="iso-8859-1"?>
<!-- Generator: Adobe Illustrator 19.0.0, SVG Export Plug-In . SVG Version: 6.00 Build 0)  -->
<svg version="1.1" id="Capa_1" xmlns="http://www.w3.org/2000/svg" xmlns:xlink="http://www.w3.org/1999/xlink" x="0px" y="0px"
	 viewBox="0 0 512.002 512.002" style="enable-background:new 0 0 512.002 512.002;" xml:space="preserve">
<g>
	<g>
		<path d="M207.902,176.356c-4.143,0-7.5,3.357-7.5,7.5v8.017c0,4.143,3.357,7.5,7.5,7.5s7.5-3.357,7.5-7.5v-8.017
			C215.402,179.714,212.045,176.356,207.902,176.356z"/>
	</g>
</g>
<g>
	<g>
		<path d="M304.096,176.356c-4.143,0-7.5,3.357-7.5,7.5v8.017c0,4.143,3.357,7.5,7.5,7.5s7.5-3.357,7.5-7.5v-8.017
			C311.596,179.714,308.238,176.356,304.096,176.356z"/>
	</g>
</g>
<g>
	<g>
		<path d="M285.386,250.735c-2.908-2.951-7.657-2.981-10.605-0.072c-2.739,2.701-9.301,5.855-18.782,5.855
			s-16.043-3.154-18.782-5.855c-2.949-2.911-7.698-2.879-10.605,0.072c-2.909,2.948-2.877,7.697,0.072,10.605
			c6.46,6.373,17.419,10.178,29.315,10.178s22.855-3.805,29.315-10.178C288.263,258.432,288.295,253.683,285.386,250.735z"/>
	</g>
</g>
<g>
	<g>
		<path d="M215.918,152.308h-16.032c-4.143,0-7.5,3.357-7.5,7.5s3.357,7.5,7.5,7.5h16.032c4.143,0,7.5-3.357,7.5-7.5
			S220.061,152.308,215.918,152.308z"/>
	</g>
</g>
<g>
	<g>
		<path d="M312.112,152.308H296.08c-4.143,0-7.5,3.357-7.5,7.5s3.357,7.5,7.5,7.5h16.032c4.143,0,7.5-3.357,7.5-7.5
			S316.255,152.308,312.112,152.308z"/>
	</g>
</g>
<g>
	<g>
		<path d="M416.638,390.693l-53.28-16.394c-6.987-2.15-11.682-8.507-11.682-15.817V320.13c0-7.835-5.844-14.315-13.398-15.354
			c6.805-11.437,11.294-24.403,12.816-38.252c8.137-13.176,13.406-27.838,15.535-43.105h4.459c0.002,0,0.001,0,0.003,0
			c14.615-0.001,27.152-10.861,28.54-24.727c0.778-7.771-1.764-15.529-6.974-21.287c-4.244-4.69-9.967-7.751-16.138-8.728
			l5.875-55.807c2.597-24.67-5.433-49.393-22.029-67.828c-16.598-18.437-40.344-29.01-65.15-29.01h-79.297
			c-27.751,0-50.292-5.302-58.825-13.836c-1.986-1.986-4.913-2.694-7.593-1.839c-2.675,0.857-4.647,3.139-5.108,5.909
			c-0.176,1.055-3.084,19.703,5.19,41.146c-15.212,18.164-22.471,41.781-19.978,65.457l5.892,55.972
			c-12.189,2.285-21.916,12.106-23.129,24.221c-0.778,7.771,1.763,15.53,6.973,21.288c5.214,5.763,12.659,9.067,20.427,9.067h5.597
			c2.128,15.271,7.398,29.927,15.541,43.11c1.523,13.846,6.011,26.811,12.816,38.246c-7.554,1.039-13.398,7.518-13.398,15.354
			v38.352c0,7.311-4.694,13.667-11.681,15.817L95.36,390.69c-23.475,7.223-39.246,28.577-39.246,53.138v60.674
			c0,4.143,3.357,7.5,7.5,7.5s7.5-3.357,7.5-7.5v-60.671c0-17.934,11.517-33.527,28.658-38.802l48.726-14.992
			c13.385,33.922,57.031,57.836,107.502,57.836c17.839,0,34.877-2.884,50.642-8.572c3.896-1.405,5.916-5.704,4.51-9.6
			c-1.406-3.897-5.707-5.919-9.6-4.51c-13.93,5.025-29.681,7.682-45.552,7.682c-23.32,0-45.876-5.694-63.514-16.035
			c-14.852-8.707-25.395-20.202-30.214-32.776c8.064-5.798,13.05-15.18,13.05-25.579v-38.352c0-0.284,0.231-0.516,0.517-0.516h8.761
			c17.536,19.661,43.044,32.064,71.4,32.064s53.864-12.404,71.4-32.064h8.761c0.285,0,0.517,0.231,0.517,0.516v38.352
			c0,10.401,4.988,19.784,13.054,25.582c-3.692,9.647-10.749,18.673-20.649,26.331c-3.276,2.534-3.878,7.245-1.344,10.521
			c1.478,1.91,3.695,2.911,5.938,2.911c1.603,0,3.218-0.511,4.584-1.567c11.895-9.2,20.501-20.237,25.235-32.226l48.734,14.995
			c17.142,5.274,28.658,20.868,28.658,38.802v60.67c0,4.143,3.357,7.5,7.5,7.5s7.5-3.357,7.5-7.5v-60.671
			C455.886,419.27,440.114,397.916,416.638,390.693z M177.752,27.356c13.983,3.04,28.474,3.678,38.166,3.678h79.297
			c20.562,0,40.245,8.765,54.002,24.046s20.412,35.773,18.26,56.222l-6.004,57.039h-1.264c-4.705,0-8.532-3.827-8.532-8.532v-32.064
			c0-17.396-14.152-31.549-31.549-31.549h-40.08c-49.966,0-85.218-11.623-104.778-34.548c-11.992-14.055-15.46-29.761-16.271-40.384
			C164.278,23.752,170.543,25.789,177.752,27.356z M336.677,256.002c0,44.486-36.192,80.678-80.678,80.678
			s-80.678-36.192-80.678-80.678v-8.017c0-9.124,7.424-16.548,16.549-16.548h128.258c9.125,0,16.549,7.424,16.549,16.548V256.002z
			 M320.127,216.437H191.87c-12.755,0-23.758,7.613-28.726,18.529c-2.542-8.729-3.855-17.828-3.855-27.061
			c0-4.143-3.357-7.5-7.5-7.5s-7.5,3.357-7.5,7.5v0.516h-4.523c-3.537,0-6.929-1.506-9.304-4.131
			c-2.406-2.66-3.532-6.115-3.17-9.729c0.63-6.292,6.611-11.22,13.617-11.22c0.488,0,10.88,0,10.88,0
			c12.976,0,23.532-10.557,23.532-23.532v-40.081c0-3.037,1.637-5.87,4.271-7.395c3.585-2.075,4.811-6.663,2.736-10.248
			c-2.075-3.584-6.663-4.809-10.248-2.736c-7.254,4.197-11.76,12.006-11.76,20.379v40.081c0,4.705-3.827,8.532-8.532,8.532h-1.264
			l-6.004-57.039c-1.834-17.426,2.723-34.802,12.59-49.022c1.912,2.981,4.077,5.953,6.554,8.876
			c22.507,26.567,61.663,40.039,116.383,40.039h40.08c9.125,0,16.549,7.424,16.549,16.549v32.064
			c0,12.976,10.557,23.532,23.532,23.532c0,0,11.332,0,12.023,0c3.537,0,6.928,1.506,9.304,4.131
			c2.406,2.659,3.532,6.114,3.17,9.729c-0.63,6.292-6.609,11.221-13.615,11.221h-3.386v-0.438c0-4.141-3.356-7.498-7.497-7.5h-0.003
			c-4.14,0-7.497,3.354-7.5,7.494c-0.007,9.2-1.323,18.272-3.857,26.977C343.877,224.044,332.877,216.437,320.127,216.437z"/>
	</g>
</g>
<g>
</g>
<g>
</g>
<g>
</g>
<g>
</g>
<g>
</g>
<g>
</g>
<g>
</g>
<g>
</g>
<g>
</g>
<g>
</g>
<g>
</g>
<g>
</g>
<g>
</g>
<g>
</g>
<g>
</g>
</svg>
