<?xml version="1.0" encoding="iso-8859-1"?>
<!-- Generator: Adobe Illustrator 19.0.0, SVG Export Plug-In . SVG Version: 6.00 Build 0)  -->
<svg version="1.1" id="Capa_1" xmlns="http://www.w3.org/2000/svg" xmlns:xlink="http://www.w3.org/1999/xlink" x="0px" y="0px"
	 viewBox="0 0 512 512" style="enable-background:new 0 0 512 512;" xml:space="preserve">
<g>
	<g>
		<path d="M207.972,160.794c-4.142,0-7.5,3.358-7.5,7.5v8.005c0,4.142,3.358,7.5,7.5,7.5c4.142,0,7.5-3.358,7.5-7.5v-8.005
			C215.472,164.152,212.114,160.794,207.972,160.794z"/>
	</g>
</g>
<g>
	<g>
		<path d="M304.03,160.794c-4.142,0-7.5,3.358-7.5,7.5v8.005c0,4.142,3.358,7.5,7.5,7.5c4.142,0,7.5-3.358,7.5-7.5v-8.005
			C311.53,164.152,308.172,160.794,304.03,160.794z"/>
	</g>
</g>
<g>
	<g>
		<path d="M405.225,347.892l-30.209-10.662c0.126-6.622-4.043-12.635-10.445-14.852c-17.221-5.964-35.037-10.504-53.049-13.546
			v-4.473c11.317-6.521,21.383-14.976,29.757-24.902c8.188,4.523,17.324,6.882,26.769,6.881c0.721,0,1.445-0.014,2.169-0.041
			c27.142-1.031,50.469-22.995,53.106-50.005c0.389-3.983,0.353-8.001-0.107-11.942c-0.178-1.522-0.342-5.307,1.981-7.563
			c9.289-9.021,14.404-21.099,14.404-34.008c0-17.255-9.456-33.155-24.677-41.494c-0.97-0.532-1.433-1.807-1.076-2.965
			c2.194-7.12,2.304-14.808,0.318-22.234c-3.688-13.794-15.098-24.727-29.068-27.853c-3.447-0.771-6.886-1.087-10.291-0.979
			c-2.51-14.172-11.325-26.536-24.119-33.469c-4.631-26.382-27.424-45.781-54.671-45.781c-5.42,0-10.768,0.792-15.957,2.361
			C272.202,3.648,262.403,0,251.991,0c-16.7,0-31.224,9.459-38.519,23.297c-32.286,11.4-57.784,34.842-72.144,64.299
			c-4.747-0.656-9.587-0.447-14.441,0.639c-13.969,3.125-25.378,14.058-29.067,27.852c-1.985,7.426-1.875,15.114,0.318,22.233
			c0.357,1.159-0.105,2.434-1.076,2.966c-15.221,8.339-24.676,24.239-24.676,41.494c0,12.909,5.115,24.987,14.405,34.009
			c2.322,2.255,2.159,6.039,1.98,7.563c-0.46,3.94-0.497,7.958-0.107,11.941c2.637,27.009,25.964,48.974,53.105,50.004
			c0.725,0.027,1.448,0.041,2.169,0.041c9.445,0,18.582-2.358,26.769-6.881c8.374,9.926,18.44,18.381,29.756,24.902v4.473
			c-18.012,3.042-35.828,7.582-53.049,13.546c-6.404,2.217-10.573,8.233-10.445,14.857l-30.193,10.656
			c-25.354,8.948-42.389,33.025-42.389,59.912V504.5c0,4.142,3.358,7.5,7.5,7.5c4.142,0,7.5-3.358,7.5-7.5v-96.696
			c0-20.54,13.013-38.932,32.381-45.768l27.343-9.651c5.078,24.202,17.561,46.296,35.981,63.284
			c20.247,18.673,46.073,29.651,73.4,31.354v56.78c0,4.142,3.358,7.5,7.5,7.5c4.142,0,7.5-3.358,7.5-7.5v-56.78
			c27.327-1.704,53.153-12.681,73.4-31.354c18.422-16.99,30.904-39.085,35.982-63.29l27.358,9.656
			c19.368,6.835,32.381,25.228,32.381,45.768V504.5c0,4.142,3.358,7.5,7.5,7.5c4.142,0,7.5-3.358,7.5-7.5v-96.696
			C447.614,380.917,430.579,356.84,405.225,347.892z M381.822,102.873c8.584,1.92,15.591,8.628,17.853,17.089
			c1.274,4.766,1.22,9.457-0.163,13.943c-2.449,7.954,1.001,16.59,8.205,20.536c10.414,5.706,16.883,16.564,16.883,28.339
			c0,8.82-3.5,17.076-9.854,23.248c-5.009,4.864-7.353,12.178-6.43,20.065c0.336,2.88,0.362,5.822,0.077,8.743
			c-1.924,19.7-18.943,35.721-38.747,36.473c-6.791,0.258-13.404-1.148-19.388-4.083c10.948-17.254,17.297-37.7,17.297-59.603
			v-0.505h4.507c15.17,0,27.512-12.342,27.512-27.512c0-11.065-6.569-20.619-16.01-24.983v-11.039
			c0-14.18-2.309-28.068-6.856-41.341C378.399,102.286,380.105,102.489,381.822,102.873z M366.71,123.126
			c1.231,6.707,1.857,13.542,1.857,20.458v8.51h-8.51c-4.692,0-8.51-3.817-8.51-8.51c0-2.204-0.085-4.417-0.236-6.618
			C357.403,133.529,362.66,128.79,366.71,123.126z M251.991,15c7.888,0,15.255,3.226,20.746,9.083
			c2.112,2.253,5.388,2.982,8.256,1.835c4.836-1.933,9.891-2.914,15.025-2.914c20.942,0,38.278,15.695,40.325,36.507
			c0.268,2.72,1.993,5.079,4.504,6.158c11.977,5.143,19.715,16.873,19.715,29.885c0,17.934-14.59,32.524-32.524,32.524
			c-11.35,0-21.702-5.877-27.691-15.721c-1.403-2.306-3.868-3.603-6.412-3.603c-1.104,0-2.223,0.244-3.276,0.757
			c-3.488,1.696-7.071,2.557-10.65,2.557c-13.52,0-24.52-11-24.52-24.52c0-1.884,0.306-3.898,0.961-6.338
			c0.579-2.154,0.169-4.454-1.118-6.276c-1.287-1.822-3.319-2.976-5.543-3.149c-14.759-1.148-26.32-13.563-26.32-28.264
			C223.469,27.795,236.264,15,251.991,15z M142.338,271.309c-19.803-0.752-36.822-16.773-38.746-36.473
			c-0.285-2.922-0.259-5.864,0.077-8.742c0.923-7.888-1.42-15.202-6.429-20.065c-6.355-6.172-9.855-14.429-9.855-23.249
			c0-11.774,6.469-22.633,16.883-28.339c7.204-3.946,10.655-12.583,8.205-20.537c-1.382-4.485-1.437-9.176-0.162-13.942
			c2.262-8.461,9.269-15.169,17.851-17.089c1.719-0.385,3.428-0.588,5.121-0.631c-4.456,13.052-6.864,26.974-6.864,41.341v11.039
			c-9.44,4.364-16.01,13.918-16.01,24.983c0,15.17,12.342,27.512,27.512,27.512h4.507v0.505c0,21.903,6.349,42.349,17.297,59.603
			C155.743,270.158,149.133,271.561,142.338,271.309z M159.429,207.623v-16.01c0-4.142-3.358-7.5-7.5-7.5
			c-4.142,0-7.5,3.358-7.5,7.5v0.505h-4.507c-6.899,0-12.512-5.613-12.512-12.512s5.613-12.512,12.512-12.512h12.007
			c12.963,0,23.51-10.546,23.51-23.51c0-22.397,8.974-43.204,25.267-58.586c3.012-2.843,3.149-7.59,0.305-10.602
			c-2.844-3.012-7.59-3.149-10.602-0.305c-19.327,18.246-29.97,42.925-29.97,69.493c0,4.692-3.817,8.51-8.51,8.51h-8.51v-8.51
			c0-44.275,25.693-83.834,65.101-102.109c-0.032,0.679-0.052,1.361-0.052,2.047c0,19.718,13.566,36.745,32.093,41.816
			c-0.049,0.742-0.073,1.477-0.073,2.211c0,21.791,17.729,39.52,39.52,39.52c3.776,0,7.519-0.566,11.186-1.688
			c8.976,11.183,22.345,17.698,36.844,17.698c2.899,0,5.734-0.275,8.492-0.775c0.007,0.427,0.018,0.854,0.018,1.28
			c0,12.963,10.546,23.51,23.51,23.51h12.007c6.899,0,12.512,5.613,12.512,12.512s-5.613,12.512-12.512,12.512h-4.507v-0.505
			c0-4.142-3.358-7.5-7.5-7.5c-4.142,0-7.5,3.358-7.5,7.5v16.01c0,53.246-43.318,96.564-96.564,96.564
			C202.748,304.187,159.429,260.868,159.429,207.623z M326.724,404.644c-19.313,17.812-44.433,27.621-70.731,27.621
			s-51.417-9.81-70.731-27.621c-19.194-17.702-31.021-41.736-33.302-67.673c-0.007-0.084,0.126-0.336,0.364-0.418
			c15.641-5.417,31.798-9.6,48.14-12.496v3.382c0,30.619,24.91,55.529,55.529,55.529c9.762,0,19.366-2.571,27.773-7.435
			c3.585-2.074,4.81-6.662,2.736-10.248c-2.074-3.586-6.664-4.809-10.248-2.736c-6.127,3.545-13.133,5.418-20.261,5.418
			c-22.348,0-40.529-18.181-40.529-40.529v-15.875c12.569,4.918,26.239,7.622,40.529,7.622c14.29,0,27.96-2.704,40.529-7.622v15.875
			c0,4.717-0.801,9.335-2.38,13.724c-1.402,3.897,0.62,8.194,4.518,9.597c0.839,0.302,1.696,0.445,2.539,0.445
			c3.074,0,5.957-1.904,7.058-4.962c2.167-6.023,3.266-12.35,3.266-18.803v-3.382c16.342,2.896,32.499,7.079,48.141,12.496
			c0.237,0.083,0.371,0.334,0.363,0.418C357.745,362.908,345.918,386.942,326.724,404.644z"/>
	</g>
</g>
<g>
	<g>
		<path d="M296.018,216.132H282.82c2.969-4.806,4.688-10.462,4.688-16.515c0-17.377-14.137-31.515-31.515-31.515
			s-31.515,14.137-31.515,31.515c0,6.052,1.719,11.709,4.688,16.515h-13.198c-4.142,0-7.5,3.358-7.5,7.5
			c0,26.205,21.319,47.525,47.524,47.525c26.205,0,47.526-21.32,47.526-47.525C303.518,219.49,300.16,216.132,296.018,216.132z
			 M255.994,183.103c9.106,0,16.515,7.409,16.515,16.515s-7.409,16.515-16.515,16.515c-9.106,0-16.515-7.409-16.515-16.515
			S246.888,183.103,255.994,183.103z M255.993,256.157c-15.354,0-28.257-10.693-31.652-25.025h63.304
			C284.25,245.464,271.347,256.157,255.993,256.157z"/>
	</g>
</g>
<g>
	<g>
		<path d="M222.677,132.223c-1.852-3.704-6.355-5.206-10.063-3.354l-16.01,8.005c-3.705,1.853-5.206,6.357-3.354,10.063
			c1.314,2.628,3.963,4.147,6.714,4.147c1.127,0,2.271-0.255,3.349-0.793l16.01-8.005
			C223.028,140.433,224.529,135.929,222.677,132.223z"/>
	</g>
</g>
<g>
</g>
<g>
</g>
<g>
</g>
<g>
</g>
<g>
</g>
<g>
</g>
<g>
</g>
<g>
</g>
<g>
</g>
<g>
</g>
<g>
</g>
<g>
</g>
<g>
</g>
<g>
</g>
<g>
</g>
</svg>
