<?xml version="1.0" encoding="iso-8859-1"?>
<!-- Generator: Adobe Illustrator 19.0.0, SVG Export Plug-In . SVG Version: 6.00 Build 0)  -->
<svg version="1.1" id="Capa_1" xmlns="http://www.w3.org/2000/svg" xmlns:xlink="http://www.w3.org/1999/xlink" x="0px" y="0px"
	 viewBox="0 0 512.002 512.002" style="enable-background:new 0 0 512.002 512.002;" xml:space="preserve">
<g>
	<g>
		<path d="M285.009,238.899c-2.912-2.949-7.66-2.98-10.608-0.071c-2.678,2.643-9.104,5.728-18.399,5.728
			c-9.295,0-15.722-3.085-18.399-5.728c-2.947-2.908-7.695-2.878-10.606,0.071c-2.909,2.949-2.877,7.697,0.071,10.606
			c6.378,6.293,17.195,10.05,28.935,10.05c11.74,0,22.557-3.757,28.935-10.05C287.886,246.596,287.918,241.847,285.009,238.899z"/>
	</g>
</g>
<g>
	<g>
		<path d="M200.779,449.667c-4.143,0-7.5,3.358-7.5,7.5V504.5c0,4.142,3.357,7.5,7.5,7.5s7.5-3.358,7.5-7.5v-47.333
			C208.279,453.024,204.922,449.667,200.779,449.667z"/>
	</g>
</g>
<g>
	<g>
		<path d="M312.286,165.667H199.718c-16.6,0-30.104,13.505-30.104,30.104c0,9.871,4.844,19.121,12.957,24.743
			c5.106,3.539,11.104,5.36,17.151,5.36c3.562,0,7.141-0.631,10.566-1.916l17.902-6.713c11.684-4.382,19.534-15.709,19.534-28.188
			v-8.391h16.555v8.391c0,12.478,7.851,23.806,19.534,28.188l17.902,6.713c3.426,1.285,7.004,1.916,10.566,1.916
			c6.048,0,12.045-1.822,17.151-5.36c8.113-5.623,12.957-14.872,12.957-24.743C342.39,179.171,328.886,165.667,312.286,165.667z
			 M232.724,189.058c0,6.26-3.938,11.944-9.802,14.143l-17.902,6.713c-4.704,1.765-9.773,1.135-13.906-1.728
			c-4.132-2.863-6.501-7.388-6.501-12.415c0-8.329,6.775-15.104,15.104-15.104h1.451v7.5c0,4.142,3.357,7.5,7.5,7.5
			s7.5-3.358,7.5-7.5v-7.5h16.556V189.058z M320.889,208.186c-4.132,2.863-9.202,3.493-13.906,1.728l-17.902-6.714
			c-5.863-2.199-9.802-7.882-9.802-14.143v-8.391h16.556v7.5c0,4.142,3.357,7.5,7.5,7.5s7.5-3.358,7.5-7.5v-7.5h1.451
			c8.329,0,15.104,6.776,15.104,15.104C327.39,200.797,325.021,205.322,320.889,208.186z"/>
	</g>
</g>
<g>
	<g>
		<path d="M407.811,367.313l-51.476-15.14c-0.952-3.083-2.544-5.955-4.726-8.413c-5.927-6.677-17.51-17.48-32.886-21.124V295.1
			c4.042-2.814,7.888-5.89,11.511-9.207c62.933-17.331,106.822-74.927,106.822-140.338C437.057,65.296,371.761,0,291.502,0h-71
			C140.242,0,74.946,65.296,74.946,145.556c0,65.341,43.91,123.01,106.814,140.339c3.625,3.319,7.474,6.397,11.519,9.212v27.53
			c-15.376,3.644-26.958,14.447-32.886,21.125c-2.182,2.458-3.773,5.33-4.726,8.412l-51.476,15.14
			c-26.509,7.797-45.023,32.541-45.023,60.173V504.5c0,4.142,3.357,7.5,7.5,7.5s7.5-3.358,7.5-7.5v-77.014
			c0-21.024,14.087-39.851,34.256-45.783l47.221-13.888l4.833,33.83c0.428,2.993-0.81,5.979-3.229,7.793l-15.938,11.954
			c-7.299,5.475-10.736,14.767-8.757,23.672l13.569,61.063c0.776,3.496,3.876,5.875,7.314,5.875c0.539,0,1.086-0.058,1.634-0.18
			c4.044-0.898,6.593-4.905,5.694-8.948l-13.569-61.063c-0.704-3.167,0.519-6.471,3.114-8.417l15.938-11.953
			c6.802-5.101,10.28-13.498,9.078-21.915l-5.608-39.26c-0.346-2.417,0.344-4.803,1.891-6.545
			c4.188-4.717,11.902-12.052,21.669-15.461v87.354c0,4.142,3.357,7.5,7.5,7.5s7.5-3.358,7.5-7.5v-3.467
			c14.865,7.194,31.133,10.966,47.723,10.966c16.59,0,32.857-3.772,47.723-10.966V504.5c0,4.142,3.357,7.5,7.5,7.5
			s7.5-3.358,7.5-7.5V338.258c9.767,3.409,17.481,10.744,21.669,15.46c1.547,1.743,2.236,4.129,1.891,6.547l-5.608,39.259
			c-1.202,8.417,2.276,16.813,9.078,21.914l15.938,11.954c2.596,1.947,3.818,5.251,3.114,8.418l-13.569,61.063
			c-0.898,4.043,1.65,8.05,5.694,8.948c0.548,0.122,1.095,0.18,1.634,0.18c3.438,0,6.538-2.379,7.314-5.875l13.569-61.063
			c1.979-8.906-1.458-18.198-8.757-23.672l-15.938-11.954c-2.419-1.813-3.656-4.8-3.229-7.792l4.833-33.831l47.221,13.888
			c20.169,5.932,34.256,24.759,34.256,45.783V504.5c0,4.142,3.357,7.5,7.5,7.5s7.5-3.358,7.5-7.5v-77.014
			C452.835,399.854,434.32,375.109,407.811,367.313z M303.725,405.17c-14.527,8.473-30.939,12.941-47.723,12.941
			c-16.785,0-33.196-4.468-47.723-12.941v-19.804c13.561,10.427,30.222,16.19,47.723,16.19c17.501,0,34.162-5.763,47.723-16.19
			V405.17z M303.725,364.871c-12.09,13.804-29.331,21.686-47.723,21.686c-18.392,0-35.633-7.881-47.723-21.686v-60.993
			c14.445,6.98,30.634,10.9,47.723,10.9c17.087,0,33.277-3.922,47.723-10.905V364.871z M256.001,299.779
			c-52.414,0-95.056-42.642-95.056-95.056c0-4.142-3.357-7.5-7.5-7.5s-7.5,3.358-7.5,7.5v0.389h-4.333
			c-3.447,0-6.752-1.467-9.067-4.026c-2.346-2.592-3.443-5.96-3.09-9.483c0.614-6.132,6.449-10.935,13.283-10.935h10.707
			c12.836,0,23.278-10.442,23.278-23.278v-39.444c0-4.564,3.713-8.278,8.277-8.278h102.556c4.143,0,7.5-3.358,7.5-7.5
			c0-4.142-3.357-7.5-7.5-7.5H185.002c-12.835,0-23.277,10.442-23.277,23.278v39.444c0,4.564-3.714,8.278-8.278,8.278H142.74
			c-14.445,0-26.836,10.735-28.209,24.44c-0.77,7.681,1.743,15.351,6.894,21.042c5.153,5.696,12.512,8.962,20.189,8.962h5.405
			c2.159,15.363,7.508,29.716,15.345,42.373c-43.62-21.731-72.418-66.813-72.418-116.93C89.946,73.567,148.513,15,220.502,15h71
			c71.988,0,130.556,58.567,130.556,130.556c0,50.177-28.791,95.224-72.432,116.94c7.842-12.661,13.194-27.017,15.354-42.385h4.285
			c14.446,0,26.836-10.736,28.208-24.441c0.769-7.682-1.744-15.351-6.894-21.042c-5.154-5.695-12.513-8.961-20.189-8.961h-11.833
			c-4.564,0-8.278-3.713-8.278-8.278v-39.444c0-12.835-10.442-23.278-23.277-23.278h-7.888c-4.143,0-7.5,3.358-7.5,7.5
			c0,4.142,3.357,7.5,7.5,7.5h7.888c4.564,0,8.277,3.713,8.277,8.278v39.444c0,12.835,10.442,23.278,23.278,23.278h11.833
			c3.447,0,6.752,1.467,9.066,4.026c2.346,2.592,3.443,5.96,3.091,9.483c-0.613,6.132-6.448,10.936-13.282,10.936h-3.212v-0.313
			c0-4.141-3.356-7.499-7.497-7.5c-0.001,0-0.002,0-0.003,0c-4.14,0-7.497,3.354-7.5,7.495
			C351.015,257.169,308.375,299.779,256.001,299.779z"/>
	</g>
</g>
<g>
</g>
<g>
</g>
<g>
</g>
<g>
</g>
<g>
</g>
<g>
</g>
<g>
</g>
<g>
</g>
<g>
</g>
<g>
</g>
<g>
</g>
<g>
</g>
<g>
</g>
<g>
</g>
<g>
</g>
</svg>
