<?xml version="1.0" encoding="iso-8859-1"?>
<!-- Generator: Adobe Illustrator 19.0.0, SVG Export Plug-In . SVG Version: 6.00 Build 0)  -->
<svg version="1.1" id="Capa_1" xmlns="http://www.w3.org/2000/svg" xmlns:xlink="http://www.w3.org/1999/xlink" x="0px" y="0px"
	 viewBox="0 0 512 512" style="enable-background:new 0 0 512 512;" xml:space="preserve">
<g>
	<g>
		<path d="M207.903,200.403c-4.142,0-7.5,3.358-7.5,7.5v8.016c0,4.142,3.358,7.5,7.5,7.5c4.142,0,7.5-3.358,7.5-7.5v-8.016
			C215.403,203.761,212.045,200.403,207.903,200.403z"/>
	</g>
</g>
<g>
	<g>
		<path d="M304.096,200.403c-4.143,0-7.5,3.358-7.5,7.5v8.016c0,4.142,3.357,7.5,7.5,7.5s7.5-3.358,7.5-7.5v-8.016
			C311.596,203.761,308.239,200.403,304.096,200.403z"/>
	</g>
</g>
<g>
	<g>
		<path d="M285.385,274.78c-2.909-2.948-7.658-2.98-10.606-0.071c-2.737,2.701-9.299,5.855-18.78,5.855
			c-9.482,0-16.043-3.154-18.781-5.855c-2.949-2.91-7.698-2.876-10.606,0.071c-2.909,2.949-2.877,7.698,0.071,10.606
			c6.459,6.373,17.418,10.177,29.316,10.177c11.898,0,22.856-3.805,29.315-10.177C288.263,282.477,288.294,277.728,285.385,274.78z"
			/>
	</g>
</g>
<g>
	<g>
		<path d="M415.978,382.939l-65.521-19.271c10.92-17.254,17.252-37.687,17.252-59.573v-56.629h4.629
			c7.768,0,15.212-3.305,20.426-9.067c5.21-5.758,7.751-13.518,6.973-21.288c-0.931-9.3-6.882-17.242-15.108-21.468
			c15.189-20.295,23.162-43.551,23.162-67.902C407.79,57.305,339.697,0,256,0S104.21,57.305,104.21,127.742
			c0,24.368,7.983,47.637,23.191,67.941c-8.187,4.236-14.104,12.158-15.033,21.429c-0.779,7.771,1.763,15.53,6.973,21.289
			c5.214,5.762,12.659,9.067,20.426,9.067h4.524v56.629c0,21.886,6.332,42.319,17.252,59.573l-65.52,19.271
			c-23.498,6.912-39.909,28.845-39.909,53.337V504.5c0,4.142,3.358,7.5,7.5,7.5c4.142,0,7.5-3.358,7.5-7.5v-68.222
			c0-17.885,11.983-33.9,29.142-38.947l19.987-5.877v113.045c0,4.142,3.358,7.5,7.5,7.5c4.142,0,7.5-3.358,7.5-7.5V387.043
			l35.781-10.521c1.709,2.002,3.487,3.943,5.331,5.819v25.964c0,4.142,3.358,7.5,7.5,7.5c4.142,0,7.5-3.358,7.5-7.5v-13.152
			c18.258,13,40.575,20.652,64.645,20.652s46.387-7.653,64.645-20.652V504.5c0,4.142,3.357,7.5,7.5,7.5s7.5-3.358,7.5-7.5V382.342
			c1.833-1.865,3.601-3.793,5.3-5.782l35.813,10.506V504.5c0,4.142,3.357,7.5,7.5,7.5s7.5-3.358,7.5-7.5V391.466l19.987,5.864
			c17.158,5.047,29.142,21.062,29.142,38.947v68.222c0,4.142,3.357,7.5,7.5,7.5s7.5-3.358,7.5-7.5v-68.222
			C455.887,411.784,439.476,389.851,415.978,382.939z M392.79,127.742c0,23.092-8.368,45.135-24.222,64.004
			c-12.233-5.787-53.71-27.11-101.516-70.358c23.581-22.692,48.054-50.448,70.834-83.9C371.198,58.07,392.79,90.866,392.79,127.742z
			 M280.189,152.307h-48.265c7.808-6.277,15.891-13.144,24.141-20.643C264.312,139.16,272.392,146.036,280.189,152.307z
			 M119.211,127.742C119.21,65.576,180.574,15,256,15c25.006,0,48.463,5.563,68.655,15.261
			c-73.02,106.588-163.129,152.985-181.193,161.52C127.589,172.904,119.211,150.85,119.211,127.742z M256,400.806
			c-53.326,0-96.709-43.384-96.709-96.71v-48.613h152.822c4.143,0,7.5-3.358,7.5-7.5c0-4.142-3.357-7.5-7.5-7.5H159.291v-8.532
			c0-4.142-3.358-7.5-7.5-7.5c-4.142,0-7.5,3.358-7.5,7.5v0.516h-4.524c-3.537,0-6.928-1.506-9.303-4.131
			c-2.407-2.66-3.533-6.115-3.171-9.729c0.63-6.292,6.612-11.221,13.618-11.22c3.067,0,6.016-0.657,8.767-1.952
			c8.293-3.907,32.083-15.913,62.639-38.128h87.479c30.334,22.065,53.994,34.059,62.632,38.129c2.75,1.294,5.699,1.951,8.766,1.951
			c7.006,0,12.987,4.928,13.617,11.221c0.362,3.614-0.764,7.069-3.17,9.729c-2.375,2.625-5.766,4.131-9.303,4.131h-4.629v-0.516
			c0-4.142-3.357-7.5-7.5-7.5s-7.5,3.358-7.5,7.5v8.532h-8.529c-4.143,0-7.5,3.358-7.5,7.5c0,4.142,3.357,7.5,7.5,7.5h8.529v48.613
			C352.708,357.423,309.325,400.806,256,400.806z"/>
	</g>
</g>
<g>
	<g>
		<path d="M183.855,432.87c-4.142,0-7.5,3.358-7.5,7.5v64.128c0,4.142,3.358,7.5,7.5,7.5c4.142,0,7.5-3.358,7.5-7.5V440.37
			C191.355,436.228,187.997,432.87,183.855,432.87z"/>
	</g>
</g>
<g>
	<g>
		<path d="M256.08,440.886H256c-4.142,0-7.46,3.358-7.46,7.5c0,4.142,3.398,7.5,7.54,7.5c4.143,0,7.5-3.358,7.5-7.5
			C263.58,444.244,260.223,440.886,256.08,440.886z"/>
	</g>
</g>
<g>
	<g>
		<path d="M256.08,488.982H256c-4.142,0-7.46,3.358-7.46,7.5c0,4.142,3.398,7.5,7.54,7.5c4.143,0,7.5-3.358,7.5-7.5
			C263.58,492.34,260.223,488.982,256.08,488.982z"/>
	</g>
</g>
<g>
</g>
<g>
</g>
<g>
</g>
<g>
</g>
<g>
</g>
<g>
</g>
<g>
</g>
<g>
</g>
<g>
</g>
<g>
</g>
<g>
</g>
<g>
</g>
<g>
</g>
<g>
</g>
<g>
</g>
</svg>
