<?xml version="1.0" encoding="iso-8859-1"?>
<!-- Generator: Adobe Illustrator 19.0.0, SVG Export Plug-In . SVG Version: 6.00 Build 0)  -->
<svg version="1.1" id="Capa_1" xmlns="http://www.w3.org/2000/svg" xmlns:xlink="http://www.w3.org/1999/xlink" x="0px" y="0px"
	 viewBox="0 0 512 512" style="enable-background:new 0 0 512 512;" xml:space="preserve">
<g>
	<g>
		<path d="M410.956,374.108l-38.121-13.455c24.296-29.457,36.327-66.285,34.014-104.829l-7.244-120.746
			C395.06,59.333,332.059,0,256.178,0S117.297,59.333,112.752,135.079l-7.244,120.746c-2.309,38.48,9.697,75.285,33.936,104.73
			l-38.401,13.553c-22.187,7.83-37.093,28.899-37.093,52.427V504.5c0,4.142,3.357,7.5,7.5,7.5s7.5-3.358,7.5-7.5v-77.965
			c0-5.176,0.994-10.185,2.817-14.82l38.092,32.65c5.451,4.673,8.578,11.471,8.578,18.651v41.366c0,4.142,3.357,7.5,7.5,7.5
			s7.5-3.358,7.5-7.5v-41.366c0-11.564-5.036-22.513-13.816-30.04l-39.773-34.091c4.37-4.701,9.872-8.404,16.187-10.633
			l53.338-18.825c1.006,23.438,6.804,42.297,12.043,54.857c7.613,18.253,27.024,28.031,46.177,23.244l38.587-9.646l38.586,9.646
			c3.263,0.816,6.531,1.208,9.75,1.208c15.668,0,30.111-9.309,36.427-24.452c5.229-12.537,11.015-31.354,12.036-54.733
			l52.986,18.701c6.392,2.256,11.951,6.021,16.346,10.804l-39.574,33.92c-8.78,7.527-13.816,18.476-13.816,30.04v41.366
			c0,4.142,3.357,7.5,7.5,7.5s7.5-3.358,7.5-7.5v-41.366c0-7.18,3.127-13.978,8.578-18.651l37.823-32.419
			c1.766,4.57,2.728,9.499,2.728,14.589V504.5c0,4.142,3.357,7.5,7.5,7.5s7.5-3.358,7.5-7.5v-77.965
			C448.049,403.007,433.143,381.938,410.956,374.108z M159.508,352.43c-0.021,0.357-0.025,0.702-0.044,1.058l-4.868,1.718
			c-24.209-27.168-36.305-61.992-34.116-98.483l5.904-98.408c22.462-3.395,106.642-17.729,154.359-48.091v25.416
			c0,4.142,3.357,7.5,7.5,7.5c1.073,0,26.594-0.094,53.749-8.3c2.565-0.774,5.277-0.299,7.442,1.309
			c2.194,1.629,3.453,4.129,3.453,6.859v64.896c0,26.696-10.642,51.551-29.964,69.985c-19.312,18.422-44.669,27.874-71.431,26.614
			c-24.93-1.174-48.165-12.197-65.428-31.04c-17.151-18.721-26.597-43.049-26.597-68.503v-29.238c0-4.142-3.357-7.5-7.5-7.5
			s-7.5,3.358-7.5,7.5v29.238c0,29.215,10.845,57.142,30.537,78.636c7.605,8.301,16.223,15.286,25.575,20.832v18.461l-25.276,8.595
			C166.273,334.632,160.073,342.854,159.508,352.43z M327.098,418.51c-4.736,11.354-16.808,17.437-28.694,14.466l-40.405-10.102
			c-1.195-0.299-2.443-0.299-3.639,0l-40.406,10.102c-11.889,2.971-23.959-3.112-28.694-14.466
			c-5.843-14.009-12.455-36.692-10.774-65.197c0.207-3.509,2.467-6.517,5.704-7.646l20.393-6.934v13.316
			c0,30.656,24.941,55.597,55.598,55.597c10.976,0,21.593-3.196,30.703-9.241c3.452-2.291,4.393-6.945,2.103-10.396
			c-2.289-3.451-6.944-4.393-10.396-2.103c-6.646,4.41-14.395,6.74-22.41,6.74c-22.386,0-40.598-18.211-40.598-40.597V311.83
			c11.13,4.464,22.989,7.08,35.207,7.656c1.824,0.086,3.643,0.129,5.455,0.129c14.089,0,27.772-2.591,40.532-7.565v39.999
			c0,4.654-0.779,9.214-2.316,13.554c-1.382,3.904,0.662,8.19,4.566,9.573c0.828,0.293,1.673,0.432,2.504,0.432
			c3.088,0,5.98-1.922,7.07-4.999c2.107-5.952,3.176-12.196,3.176-18.561v-13.316l20.339,6.916c3.291,1.147,5.551,4.156,5.758,7.665
			C339.553,381.817,332.94,404.5,327.098,418.51z M352.896,353.616c-0.021-0.398-0.026-0.785-0.049-1.186
			c-0.565-9.576-6.765-17.798-15.85-20.964l-25.222-8.576v-18.031c7.686-4.431,14.901-9.819,21.502-16.117
			c22.319-21.292,34.61-50.001,34.61-80.838v-64.896c0-7.525-3.467-14.415-9.512-18.902c-6.013-4.465-13.564-5.787-20.724-3.624
			c-16.558,5.003-32.79,6.739-41.909,7.34V95.559c0-2.91-1.684-5.558-4.319-6.792c-2.635-1.235-5.746-0.832-7.982,1.03
			c-38.684,32.237-128.304,48.708-156.136,53.172l0.419-6.992C131.796,68.14,188.219,15,256.179,15
			c67.959,0,124.382,53.14,128.453,120.977l7.244,120.746c2.194,36.555-9.934,71.399-34.206,98.578L352.896,353.616z"/>
	</g>
</g>
<g>
	<g>
		<path d="M285.565,242.716c-2.911-2.949-7.66-2.979-10.606-0.07c-2.737,2.701-9.298,5.854-18.78,5.854s-16.044-3.154-18.781-5.855
			c-2.948-2.908-7.697-2.877-10.606,0.071s-2.877,7.698,0.071,10.606c6.459,6.373,17.418,10.178,29.316,10.178
			s22.857-3.805,29.315-10.178C288.442,250.413,288.474,245.664,285.565,242.716z"/>
	</g>
</g>
<g>
	<g>
		<path d="M208.081,184.252c-4.143,0-7.5,3.358-7.5,7.5v8.016c0,4.142,3.357,7.5,7.5,7.5s7.5-3.358,7.5-7.5v-8.016
			C215.581,187.61,212.224,184.252,208.081,184.252z"/>
	</g>
</g>
<g>
	<g>
		<path d="M304.275,184.252c-4.143,0-7.5,3.358-7.5,7.5v8.016c0,4.142,3.357,7.5,7.5,7.5s7.5-3.358,7.5-7.5v-8.016
			C311.775,187.61,308.418,184.252,304.275,184.252z"/>
	</g>
</g>
<g>
	<g>
		<path d="M216.097,160.204h-16.032c-4.143,0-7.5,3.358-7.5,7.5c0,4.142,3.358,7.5,7.5,7.5h16.032c4.143,0,7.5-3.358,7.5-7.5
			C223.597,163.562,220.24,160.204,216.097,160.204z"/>
	</g>
</g>
<g>
	<g>
		<path d="M312.291,160.204h-16.032c-4.143,0-7.5,3.358-7.5,7.5c0,4.142,3.357,7.5,7.5,7.5h16.032c4.143,0,7.5-3.358,7.5-7.5
			C319.791,163.562,316.434,160.204,312.291,160.204z"/>
	</g>
</g>
<g>
</g>
<g>
</g>
<g>
</g>
<g>
</g>
<g>
</g>
<g>
</g>
<g>
</g>
<g>
</g>
<g>
</g>
<g>
</g>
<g>
</g>
<g>
</g>
<g>
</g>
<g>
</g>
<g>
</g>
</svg>
