<?xml version="1.0" encoding="iso-8859-1"?>
<!-- Generator: Adobe Illustrator 19.0.0, SVG Export Plug-In . SVG Version: 6.00 Build 0)  -->
<svg version="1.1" id="Capa_1" xmlns="http://www.w3.org/2000/svg" xmlns:xlink="http://www.w3.org/1999/xlink" x="0px" y="0px"
	 viewBox="0 0 512 512" style="enable-background:new 0 0 512 512;" xml:space="preserve">
<g>
	<g>
		<path d="M207.902,152.307c-4.142,0-7.5,3.357-7.5,7.5v8.016c0,4.143,3.358,7.5,7.5,7.5c4.142,0,7.5-3.357,7.5-7.5v-8.016
			C215.402,155.664,212.044,152.307,207.902,152.307z"/>
	</g>
</g>
<g>
	<g>
		<path d="M304.096,152.307c-4.142,0-7.5,3.357-7.5,7.5v8.016c0,4.143,3.358,7.5,7.5,7.5c4.142,0,7.5-3.357,7.5-7.5v-8.016
			C311.596,155.664,308.238,152.307,304.096,152.307z"/>
	</g>
</g>
<g>
	<g>
		<path d="M285.385,210.652c-2.909-2.949-7.658-2.98-10.606-0.071c-2.737,2.701-9.298,5.855-18.78,5.855s-16.043-3.154-18.78-5.855
			c-2.949-2.908-7.697-2.879-10.606,0.071c-2.91,2.948-2.878,7.696,0.07,10.606c6.459,6.373,17.418,10.178,29.316,10.178
			c11.898,0,22.857-3.805,29.316-10.178C288.263,218.348,288.295,213.6,285.385,210.652z"/>
	</g>
</g>
<g>
	<g>
		<path d="M415.977,350.876l-60.791-17.88l-21.632-28.842c-3.253-4.337-8.219-6.995-13.625-7.293c-0.107-0.006-0.211,0.004-0.318,0
			v-21.238c25.013-17.396,42.617-44.741,47.019-76.252h4.459c14.617,0,27.154-10.861,28.543-24.727
			c0.778-7.771-1.765-15.531-6.975-21.289c-2.522-2.786-5.568-4.991-8.917-6.532v-43.13h-0.006c0-0.607-0.068-1.218-0.218-1.819
			l-19.494-77.977C360.505,9.827,347.919,0,333.416,0H178.582c-14.503,0-27.089,9.827-30.606,23.896l-19.494,77.978
			c-0.15,0.602-0.218,1.212-0.218,1.819h-0.006v43.463c-8.631,4.115-14.93,12.266-15.891,21.859
			c-0.778,7.771,1.764,15.53,6.974,21.289c5.214,5.762,12.658,9.066,20.425,9.066h5.598c4.399,31.522,22.003,58.87,47.023,76.264
			v21.227c-0.106,0.004-0.211-0.006-0.318,0c-5.406,0.298-10.372,2.956-13.625,7.293l-21.632,28.842l-60.79,17.879
			c-23.498,6.911-39.909,28.845-39.909,53.338V504.5c0,4.143,3.358,7.5,7.5,7.5c4.142,0,7.5-3.357,7.5-7.5V404.214
			c0-17.885,11.983-33.9,29.142-38.947l61.064-17.96c8.299,8.515,18.328,15.727,29.576,21.436h-31.088
			c-21.816,0-39.565,17.749-39.565,39.564c0,4.143,3.358,7.5,7.5,7.5c4.142,0,7.5-3.357,7.5-7.5
			c0-13.545,11.02-24.564,24.565-24.564h96.192c37.488,0,72.345-13.518,94.682-36.436l61.064,17.96
			c17.158,5.047,29.142,21.063,29.142,38.947V504.5c0,4.143,3.358,7.5,7.5,7.5c4.142,0,7.5-3.357,7.5-7.5V404.214
			C455.886,379.721,439.475,357.787,415.977,350.876z M149.629,79.129h154.464c4.142,0,7.5-3.357,7.5-7.5c0-4.143-3.358-7.5-7.5-7.5
			H153.379l9.148-36.594C164.373,20.154,170.974,15,178.582,15h154.834c7.608,0,14.209,5.154,16.055,12.535l9.148,36.594H336.16
			c-4.142,0-7.5,3.357-7.5,7.5c0,4.143,3.358,7.5,7.5,7.5h26.209l4.266,17.064H145.363L149.629,79.129z M368.741,111.194v33.096
			h-8.532c-4.705,0-8.532-3.827-8.532-8.532v-24.564H368.741z M143.257,111.193h17.064v24.564c0,4.705-3.828,8.532-8.532,8.532
			h-8.532V111.193z M159.29,183.854c0-4.143-3.358-7.5-7.5-7.5c-4.142,0-7.5,3.357-7.5,7.5v0.517h-4.524
			c-3.537,0-6.927-1.506-9.303-4.131c-2.407-2.66-3.533-6.115-3.17-9.729c0.63-6.292,6.612-11.221,13.618-11.221h10.88
			c12.976,0,23.532-10.557,23.532-23.532v-24.564h161.354v24.564c0,12.976,10.557,23.532,23.532,23.532h12.024
			c3.537,0,6.927,1.506,9.302,4.131c2.407,2.659,3.533,6.115,3.171,9.729c-0.63,6.292-6.611,11.221-13.617,11.221h-3.385v-0.438
			c0-4.141-3.356-7.498-7.497-7.5c0,0-0.002,0-0.003,0c-4.14,0-7.497,3.354-7.5,7.494c-0.039,53.286-43.421,96.638-96.706,96.638
			C202.673,280.564,159.29,237.181,159.29,183.854z M172.409,337.199l18.034-24.045c0.587-0.782,1.48-1.262,2.45-1.315
			c0.616-0.03,1.508,0.091,2.244,0.876c8.659,9.229,21.849,16.366,37.14,20.097c0.04,0.02,0.188,0.179,0.188,0.438l0.002,33.501
			C208.519,362.624,187.239,352.257,172.409,337.199z M264.534,333.249l-0.002,35.235c-5.641,0.342-11.424,0.342-17.064,0
			l-0.002-35.235c0-7.167-4.783-13.339-11.633-15.01c-11.532-2.814-21.775-8.038-28.445-14.463v-19.358
			c14.705,7.137,31.199,11.146,48.613,11.146c17.412,0,33.906-4.012,48.613-11.154v19.365c-6.671,6.425-16.913,11.649-28.446,14.463
			C269.317,319.91,264.534,326.082,264.534,333.249z M279.532,366.75l0.002-33.501c0-0.259,0.148-0.418,0.188-0.438
			c15.291-3.73,28.48-10.867,37.14-20.097c0.668-0.712,1.462-0.881,2.064-0.881c0.062,0,0.122,0.002,0.18,0.005
			c0.97,0.054,1.862,0.533,2.449,1.315l18.034,24.045C324.759,352.257,303.479,362.624,279.532,366.75z"/>
	</g>
</g>
<g>
	<g>
		<path d="M215.918,128.258h-16.032c-4.142,0-7.5,3.357-7.5,7.5s3.358,7.5,7.5,7.5h16.032c4.142,0,7.5-3.357,7.5-7.5
			S220.061,128.258,215.918,128.258z"/>
	</g>
</g>
<g>
	<g>
		<path d="M312.112,128.258H296.08c-4.142,0-7.5,3.357-7.5,7.5s3.357,7.5,7.5,7.5h16.032c4.142,0,7.5-3.357,7.5-7.5
			S316.254,128.258,312.112,128.258z"/>
	</g>
</g>
<g>
	<g>
		<path d="M127.741,432.871c-4.142,0-7.5,3.357-7.5,7.5V504.5c0,4.143,3.358,7.5,7.5,7.5s7.5-3.357,7.5-7.5v-64.129
			C135.241,436.229,131.883,432.871,127.741,432.871z"/>
	</g>
</g>
<g>
	<g>
		<path d="M159.886,408.822h-0.08c-4.142,0-7.46,3.357-7.46,7.5s3.398,7.5,7.54,7.5c4.142,0,7.5-3.357,7.5-7.5
			S164.028,408.822,159.886,408.822z"/>
	</g>
</g>
<g>
	<g>
		<path d="M352.273,408.822h-0.081c-4.142,0-7.46,3.357-7.46,7.5s3.398,7.5,7.541,7.5c4.143,0,7.5-3.357,7.5-7.5
			S356.415,408.822,352.273,408.822z"/>
	</g>
</g>
<g>
	<g>
		<path d="M352.273,448.903h-0.081c-4.142,0-7.46,3.357-7.46,7.5s3.398,7.5,7.541,7.5c4.143,0,7.5-3.357,7.5-7.5
			S356.415,448.903,352.273,448.903z"/>
	</g>
</g>
<g>
	<g>
		<path d="M159.886,448.903h-0.08c-4.142,0-7.46,3.357-7.46,7.5s3.398,7.5,7.54,7.5c4.142,0,7.5-3.357,7.5-7.5
			S164.028,448.903,159.886,448.903z"/>
	</g>
</g>
<g>
	<g>
		<path d="M352.273,488.983h-0.081c-4.142,0-7.46,3.357-7.46,7.5s3.398,7.5,7.541,7.5c4.143,0,7.5-3.357,7.5-7.5
			S356.415,488.983,352.273,488.983z"/>
	</g>
</g>
<g>
	<g>
		<path d="M159.886,488.983h-0.08c-4.142,0-7.46,3.357-7.46,7.5s3.398,7.5,7.54,7.5c4.142,0,7.5-3.357,7.5-7.5
			S164.028,488.983,159.886,488.983z"/>
	</g>
</g>
<g>
</g>
<g>
</g>
<g>
</g>
<g>
</g>
<g>
</g>
<g>
</g>
<g>
</g>
<g>
</g>
<g>
</g>
<g>
</g>
<g>
</g>
<g>
</g>
<g>
</g>
<g>
</g>
<g>
</g>
</svg>
