<?xml version="1.0" encoding="iso-8859-1"?>
<!-- Generator: Adobe Illustrator 19.0.0, SVG Export Plug-In . SVG Version: 6.00 Build 0)  -->
<svg version="1.1" id="Capa_1" xmlns="http://www.w3.org/2000/svg" xmlns:xlink="http://www.w3.org/1999/xlink" x="0px" y="0px"
	 viewBox="0 0 512 512" style="enable-background:new 0 0 512 512;" xml:space="preserve">
<g>
	<g>
		<path d="M285.388,266.765c-2.909-2.949-7.658-2.98-10.606-0.071c-2.738,2.701-9.299,5.855-18.781,5.855
			c-9.482,0-16.043-3.154-18.781-5.855c-2.95-2.911-7.698-2.878-10.606,0.071c-2.909,2.949-2.877,7.697,0.071,10.606
			c6.46,6.373,17.419,10.178,29.316,10.178c11.897,0,22.856-3.805,29.316-10.178C288.265,274.462,288.297,269.714,285.388,266.765z"
			/>
	</g>
</g>
<g>
	<g>
		<path d="M207.904,208.301c-4.142,0-7.5,3.357-7.5,7.5v8.016c0,4.143,3.358,7.5,7.5,7.5c4.142,0,7.5-3.357,7.5-7.5v-8.016
			C215.404,211.658,212.045,208.301,207.904,208.301z"/>
	</g>
</g>
<g>
	<g>
		<path d="M304.097,208.3c-4.142,0-7.5,3.357-7.5,7.5v8.016c0,4.143,3.358,7.5,7.5,7.5c4.142,0,7.5-3.357,7.5-7.5V215.8
			C311.597,211.657,308.24,208.3,304.097,208.3z"/>
	</g>
</g>
<g>
	<g>
		<path d="M411.143,398.158l-11.368-4.024v-17.892c0-21.816-17.749-39.564-39.565-39.564h-48.613v-7.86
			c29.243-16.85,50.174-46.561,55.03-81.35h5.607c15.186,0,27.541-12.354,27.541-27.54v-44.089
			c0-54.486-36.588-100.584-86.484-115.026c4.081-6.311,6.322-13.669,6.322-21.249C319.614,17.749,301.865,0,280.049,0h-48.097
			c-21.816,0-39.564,17.749-39.564,39.564c0,7.58,2.242,14.938,6.322,21.249c-49.896,14.442-86.484,60.54-86.484,115.026v44.089
			c0,15.186,12.354,27.54,27.541,27.54h5.607c4.856,34.789,25.787,64.501,55.03,81.35v7.86h-48.613
			c-21.816,0-39.565,17.748-39.565,39.564v17.893l-11.362,4.021c-22.187,7.83-37.093,28.899-37.093,52.427V504.5
			c0,4.143,3.358,7.5,7.5,7.5c4.142,0,7.5-3.357,7.5-7.5v-53.917c0-17.18,10.885-32.564,27.092-38.284l30.412-10.764V504.5
			c0,4.143,3.358,7.5,7.5,7.5c4.142,0,7.5-3.357,7.5-7.5v-64.646h25.081V504.5c0,4.143,3.358,7.5,7.5,7.5c4.142,0,7.5-3.357,7.5-7.5
			v-85.207c5.131,5.626,10.984,10.596,17.454,14.753c14.076,9.045,30.395,13.825,47.191,13.825s33.115-4.78,47.191-13.825
			c6.469-4.157,12.323-9.127,17.454-14.753v29.094c0,4.143,3.358,7.5,7.5,7.5c4.142,0,7.5-3.357,7.5-7.5v-8.532h25.081V504.5
			c0,4.143,3.358,7.5,7.5,7.5c4.142,0,7.5-3.357,7.5-7.5V401.535l30.418,10.766c16.201,5.718,27.085,21.103,27.085,38.282V504.5
			c0,4.143,3.358,7.5,7.5,7.5c4.142,0,7.5-3.357,7.5-7.5v-53.917C448.229,427.056,433.323,405.986,411.143,398.158z M231.951,15
			h48.097c13.545,0,24.564,11.02,24.564,24.564c0,6.756-2.754,13.013-7.766,17.733c-5.491-0.774-11.097-1.184-16.798-1.184h-48.097
			c-5.701,0-11.307,0.41-16.798,1.184c-5.012-4.719-7.766-10.976-7.766-17.733C207.388,26.019,218.407,15,231.951,15z
			 M159.292,231.952c0-4.143-3.358-7.5-7.5-7.5c-4.142,0-7.5,3.357-7.5,7.5c0,0.172,0.006,0.344,0.007,0.516h-4.531
			c-6.915,0-12.541-5.625-12.541-12.54c0-6.915,5.625-12.541,12.541-12.541h4.008c8.556,0,15.516-6.96,15.516-15.516v-0.517h8.529
			c4.142,0,7.5-3.357,7.5-7.5s-3.358-7.5-7.5-7.5h-16.029c-4.142,0-7.5,3.357-7.5,7.5v8.017c0,0.284-0.231,0.516-0.516,0.516h-4.008
			c-4.515,0-8.776,1.099-12.541,3.033v-19.581c0-57.746,46.98-104.726,104.726-104.726h48.097
			c57.746,0,104.726,46.979,104.726,104.726v19.582c-3.765-1.935-8.027-3.034-12.544-3.034l-3.99,0.001
			c-0.055,0-0.221,0-0.378-0.157c-0.152-0.151-0.152-0.308-0.152-0.358v-8.018c0-4.143-3.358-7.5-7.5-7.5h-42.241l-6.596-26.384
			c-0.655-2.621-2.67-4.688-5.274-5.408c-2.604-0.721-5.395,0.016-7.305,1.924l-29.868,29.868h-69.039c-4.142,0-7.5,3.357-7.5,7.5
			s3.358,7.5,7.5,7.5h72.145c1.989,0,3.897-0.79,5.303-2.196l22.698-22.698l4.804,19.214c0.834,3.339,3.834,5.681,7.276,5.681
			h40.597v0.518c0,4.147,1.619,8.047,4.559,10.979c2.934,2.926,6.83,4.537,10.969,4.537c0.001,0,0.002,0,0.003,0l3.993-0.001
			c6.915,0,12.541,5.626,12.541,12.541c0,6.915-5.625,12.54-12.541,12.54h-4.531c0.001-0.172,0.007-0.343,0.007-0.516
			c0-4.143-3.358-7.5-7.5-7.5c-4.142,0-7.5,3.357-7.5,7.5c0,53.325-43.384,96.709-96.709,96.709S159.292,285.277,159.292,231.952z
			 M176.355,424.854h-25.08v-32.006c0-2.134,1.28-4.025,3.261-4.817l21.819-8.728V424.854z M189.378,366.827l-2.413,0.854
			c-0.549-0.519-1.126-1.013-1.763-1.444c-3.854-2.609-8.734-3.136-13.054-1.406l-23.182,9.272c-5.17,2.068-9.103,6.063-11.14,10.97
			l-10.6,3.752v-12.583h0.001c0-13.545,11.02-24.564,24.565-24.564h48.595C200.201,358.491,195.831,364.544,189.378,366.827z
			 M320.646,393.193c-12.507,24.515-37.121,39.678-64.645,39.678s-52.138-15.163-64.645-39.678v-11.154l3.026-1.071
			c12.574-4.45,21.022-16.402,21.022-29.74v-15.204c12.589,4.928,26.282,7.638,40.597,7.638c14.315,0,28.007-2.71,40.597-7.638
			v15.204c0,13.338,8.448,25.29,21.022,29.74l3.026,1.071V393.193z M360.725,424.854h-25.08v-45.551l21.819,8.728
			c1.981,0.792,3.261,2.684,3.261,4.817V424.854z M384.774,388.825l-10.6-3.752c-2.037-4.908-5.97-8.902-11.14-10.97l-23.181-9.271
			c-4.32-1.729-9.201-1.204-13.055,1.405c-0.637,0.431-1.214,0.925-1.763,1.444l-2.413-0.854
			c-6.453-2.284-10.823-8.337-11.009-15.149h48.595c13.546,0,24.566,11.019,24.566,24.564V388.825z"/>
	</g>
</g>
<g>
	<g>
		<path d="M328.146,472.95c-4.142,0-7.5,3.357-7.5,7.5v24.05c0,4.143,3.358,7.5,7.5,7.5c4.142,0,7.5-3.357,7.5-7.5v-24.05
			C335.646,476.308,332.287,472.95,328.146,472.95z"/>
	</g>
</g>
<g>
</g>
<g>
</g>
<g>
</g>
<g>
</g>
<g>
</g>
<g>
</g>
<g>
</g>
<g>
</g>
<g>
</g>
<g>
</g>
<g>
</g>
<g>
</g>
<g>
</g>
<g>
</g>
<g>
</g>
</svg>
