<?xml version="1.0" encoding="iso-8859-1"?>
<!-- Generator: Adobe Illustrator 19.0.0, SVG Export Plug-In . SVG Version: 6.00 Build 0)  -->
<svg version="1.1" id="Capa_1" xmlns="http://www.w3.org/2000/svg" xmlns:xlink="http://www.w3.org/1999/xlink" x="0px" y="0px"
	 viewBox="0 0 512 512" style="enable-background:new 0 0 512 512;" xml:space="preserve">
<g>
	<g>
		<path d="M207.903,168.338c-4.143,0-7.5,3.358-7.5,7.5v8.016c0,4.142,3.357,7.5,7.5,7.5s7.5-3.358,7.5-7.5v-8.016
			C215.403,171.696,212.046,168.338,207.903,168.338z"/>
	</g>
</g>
<g>
	<g>
		<path d="M304.097,168.338c-4.143,0-7.5,3.358-7.5,7.5v8.016c0,4.142,3.357,7.5,7.5,7.5s7.5-3.358,7.5-7.5v-8.016
			C311.597,171.696,308.239,168.338,304.097,168.338z"/>
	</g>
</g>
<g>
	<g>
		<path d="M285.387,226.684c-2.908-2.95-7.658-2.981-10.605-0.072c-2.738,2.701-9.301,5.855-18.782,5.855
			c-9.481,0-16.044-3.154-18.782-5.855c-2.948-2.909-7.698-2.876-10.605,0.072c-2.909,2.949-2.877,7.697,0.072,10.606
			c6.459,6.373,17.419,10.177,29.315,10.177c11.896,0,22.856-3.804,29.315-10.177C288.264,234.381,288.296,229.632,285.387,226.684z
			"/>
	</g>
</g>
<g>
	<g>
		<path d="M415.979,366.908l-84.486-24.849c-6.994-2.057-11.879-8.585-11.879-15.876v-34.435
			c19.671-13.594,34.341-33.054,42.03-55.442c3.054,1.982,6.687,3.146,10.591,3.146c10.766,0,19.524-8.759,19.524-19.524
			c0-3.828-1.124-7.391-3.035-10.408c6.003-4.501,10.146-11.216,10.91-18.844c0.777-7.771-1.765-15.53-6.976-21.288
			c-1.016-1.123-2.12-2.15-3.292-3.08c12.087-11.645,18.425-24.816,18.425-38.565c0-21.246-15.096-40.298-40.081-54.439V45.319
			c0-13.1-7.975-24.685-20.317-29.514C320.966,5.465,289.362,0,256,0s-64.966,5.465-91.393,15.805
			c-12.343,4.829-20.317,16.414-20.317,29.514v27.984c-24.985,14.142-40.081,33.194-40.081,54.439
			c0,13.837,6.416,27.082,18.649,38.779c-5.777,4.497-9.746,11.076-10.492,18.526c-0.778,7.771,1.764,15.531,6.975,21.289
			c1.154,1.275,2.422,2.423,3.774,3.448c-1.811,2.961-2.874,6.426-2.874,10.144c0,10.766,8.759,19.524,19.524,19.524
			c3.902,0,7.533-1.163,10.586-3.143c10.025,29.198,31.918,53.411,61.314,66.125l22.026,22.026
			c6.151,6.151,14.229,9.226,22.309,9.226c8.078,0,16.158-3.076,22.309-9.226l22.025-22.025c1.445-0.625,2.871-1.277,4.279-1.957
			v25.705c0,13.898,9.313,26.345,22.646,30.267l44.309,13.032c-17.091,19.313-63.87,68.804-115.568,94.608
			c-51.646-25.779-98.46-75.29-115.566-94.609l44.306-13.031c13.334-3.922,22.646-16.368,22.646-30.267v-6.053
			c0-4.142-3.357-7.5-7.5-7.5s-7.5,3.358-7.5,7.5v6.053c0,7.291-4.885,13.819-11.879,15.876l-84.486,24.849
			c-23.498,6.912-39.909,28.845-39.909,53.338V504.5c0,4.142,3.357,7.5,7.5,7.5s7.5-3.358,7.5-7.5v-84.254
			c0-17.885,11.983-33.9,29.142-38.947l24.33-7.156c12.516,14.752,66.39,75.538,128.183,105.061
			c1.022,0.489,2.128,0.733,3.233,0.733c1.105,0,2.211-0.244,3.233-0.733c61.793-29.523,115.667-90.309,128.183-105.061l24.33,7.156
			c17.158,5.047,29.142,21.063,29.142,38.947V504.5c0,4.142,3.357,7.5,7.5,7.5s7.5-3.358,7.5-7.5v-84.254
			C455.888,395.752,439.477,373.819,415.979,366.908z M372.234,224.452c-2.495,0-4.524-2.03-4.524-4.524s2.029-4.524,4.524-4.524
			s4.524,2.029,4.524,4.524S374.729,224.452,372.234,224.452z M170.072,29.774C194.775,20.109,224.488,15,256,15
			c31.512,0,61.225,5.109,85.928,14.774c6.55,2.563,10.782,8.665,10.782,15.545v20.589C326.623,54.731,293.061,48.097,256,48.097
			c-37.061,0-70.623,6.635-96.71,17.811V45.319h0C159.29,38.439,163.522,32.337,170.072,29.774z M139.766,224.452
			c-2.495,0-4.524-2.03-4.524-4.524s2.029-4.524,4.524-4.524s4.524,2.029,4.524,4.524S142.261,224.452,139.766,224.452z
			 M267.701,313.854c-6.451,6.452-16.951,6.452-23.402,0l-15.034-15.033L256,288.126l26.735,10.694L267.701,313.854z
			 M295.979,287.963L263.5,274.971v-2.939c0-4.142-3.357-7.5-7.5-7.5c-4.143,0-7.5,3.358-7.5,7.5v2.939l-32.481,12.993
			c-34.562-15.687-56.729-49.922-56.729-88.078c0-4.142-3.357-7.5-7.5-7.5s-7.5,3.358-7.5,7.5v0.516h-4.524
			c-3.537,0-6.928-1.505-9.303-4.131c-2.407-2.66-3.533-6.115-3.171-9.729c0.63-6.292,6.611-11.22,13.617-11.22h10.881
			c12.976,0,23.532-10.557,23.532-23.532v-32.063c0-3.704,5.471-10.018,20.89-15.625c15.854-5.765,37.087-8.94,59.788-8.94
			c13.465,0,26.851,1.165,38.71,3.37c4.075,0.762,7.988-1.93,8.745-6.003c0.757-4.072-1.931-7.987-6.003-8.744
			c-12.932-2.404-26.878-3.623-41.452-3.623c-24.405,0-47.459,3.496-64.914,9.843c-25.427,9.246-30.764,21.266-30.764,29.722v32.063
			c0,4.705-3.827,8.532-8.532,8.532h-13.233c-9.243-7.327-19.348-18.546-19.348-32.58c0-35.042,62.643-64.646,136.791-64.646
			S392.791,92.7,392.791,127.742c0,14.055-10.146,25.285-19.348,32.58H360.21c-4.705,0-8.532-3.828-8.532-8.532v-32.063
			c0-6.721-3.487-16.533-20.099-25.108c-3.68-1.898-8.203-0.457-10.104,3.224c-1.9,3.681-0.457,8.205,3.224,10.105
			c7.501,3.872,11.979,8.276,11.979,11.779v32.063c0,12.976,10.557,23.532,23.532,23.532h12.024c3.536,0,6.927,1.505,9.302,4.13
			c2.407,2.66,3.533,6.115,3.172,9.729c-0.63,6.292-6.61,11.221-13.616,11.221h-3.386v-0.438c0-4.141-3.356-7.499-7.497-7.5
			c-0.001,0-0.002,0-0.003,0c-4.14,0-7.497,3.354-7.5,7.495C352.678,238.074,330.509,272.289,295.979,287.963z"/>
	</g>
</g>
<g>
	<g>
		<path d="M215.919,144.29h-16.032c-4.143,0-7.5,3.358-7.5,7.5c0,4.142,3.357,7.5,7.5,7.5h16.032c4.143,0,7.5-3.358,7.5-7.5
			C223.419,147.648,220.062,144.29,215.919,144.29z"/>
	</g>
</g>
<g>
	<g>
		<path d="M312.113,144.29h-16.032c-4.143,0-7.5,3.358-7.5,7.5c0,4.142,3.357,7.5,7.5,7.5h16.032c4.143,0,7.5-3.358,7.5-7.5
			C319.613,147.648,316.256,144.29,312.113,144.29z"/>
	</g>
</g>
<g>
</g>
<g>
</g>
<g>
</g>
<g>
</g>
<g>
</g>
<g>
</g>
<g>
</g>
<g>
</g>
<g>
</g>
<g>
</g>
<g>
</g>
<g>
</g>
<g>
</g>
<g>
</g>
<g>
</g>
</svg>
