<?xml version="1.0" encoding="iso-8859-1"?>
<!-- Generator: Adobe Illustrator 19.0.0, SVG Export Plug-In . SVG Version: 6.00 Build 0)  -->
<svg version="1.1" id="Capa_1" xmlns="http://www.w3.org/2000/svg" xmlns:xlink="http://www.w3.org/1999/xlink" x="0px" y="0px"
	 viewBox="0 0 512 512" style="enable-background:new 0 0 512 512;" xml:space="preserve">
<g>
	<g>
		<path d="M207.969,160.794c-4.142,0-7.5,3.358-7.5,7.5v8.005c0,4.142,3.358,7.5,7.5,7.5c4.142,0,7.5-3.358,7.5-7.5v-8.005
			C215.469,164.152,212.112,160.794,207.969,160.794z"/>
	</g>
</g>
<g>
	<g>
		<path d="M304.028,160.794c-4.143,0-7.5,3.358-7.5,7.5v8.005c0,4.142,3.357,7.5,7.5,7.5s7.5-3.358,7.5-7.5v-8.005
			C311.528,164.152,308.171,160.794,304.028,160.794z"/>
	</g>
</g>
<g>
	<g>
		<path d="M285.352,219.059c-2.912-2.948-7.66-2.977-10.606-0.069c-2.732,2.695-9.281,5.843-18.747,5.843
			c-9.466,0-16.015-3.148-18.747-5.844c-2.95-2.91-7.698-2.877-10.606,0.071c-2.909,2.949-2.877,7.697,0.071,10.606
			c6.452,6.366,17.398,10.166,29.282,10.166c11.885,0,22.831-3.8,29.282-10.167C288.229,226.756,288.261,222.007,285.352,219.059z"
			/>
	</g>
</g>
<g>
	<g>
		<path d="M410.563,357.782l-57.967-20.459c-0.025-0.502-0.033-0.992-0.062-1.498c-0.563-9.567-6.757-17.781-15.833-20.945
			l-25.188-8.565v-17.96c3.754-2.163,7.369-4.541,10.832-7.112c8.096,3.935,16.84,5.936,25.832,5.936
			c3.678,0,7.398-0.335,11.13-1.009c20.928-3.78,38.771-19.409,45.458-39.817c2.601-7.937,3.536-16.06,2.782-24.144
			c-0.275-2.95,1.067-5.813,3.502-7.471c16.023-10.91,23.613-29.601,19.809-48.778c-3.755-18.922-19.079-33.851-38.133-37.15
			c-3.055-0.529-6.118-0.762-9.16-0.717v-0.519C383.564,57.229,326.335,0,255.991,0S128.417,57.229,128.417,127.574v0.517
			c-2.97-0.031-5.958,0.202-8.939,0.719c-19.055,3.299-34.379,18.229-38.133,37.15c-3.805,19.178,3.785,37.869,19.809,48.778
			c2.435,1.658,3.776,4.52,3.501,7.47c-0.753,8.087,0.183,16.21,2.783,24.144c6.688,20.408,24.53,36.037,45.458,39.817
			c3.725,0.673,7.437,1.007,11.112,1.007c8.94,0,17.648-1.984,25.711-5.874c3.439,2.548,7.026,4.906,10.751,7.052v17.96
			l-25.243,8.584c-9.021,3.146-15.215,11.359-15.779,20.926c-0.03,0.508-0.037,1-0.063,1.504l-57.951,20.454
			c-22.16,7.821-37.048,28.864-37.048,52.363V504.5c0,4.142,3.358,7.5,7.5,7.5c4.142,0,7.5-3.358,7.5-7.5v-94.354
			c0-4.979,0.921-9.804,2.617-14.289l37.86,32.452c5.441,4.664,8.563,11.45,8.563,18.617V504.5c0,4.142,3.358,7.5,7.5,7.5
			c4.142,0,7.5-3.358,7.5-7.5v-57.575c0-11.552-5.03-22.488-13.801-30.005l-39.69-34.021c4.414-4.864,10.028-8.691,16.493-10.973
			l52.91-18.674c1.06,23.192,6.802,41.868,12,54.33c7.604,18.234,27.003,27.999,46.124,23.217l31.031-7.757v24.73
			c0,4.142,3.358,7.5,7.5,7.5c4.143,0,7.5-3.358,7.5-7.5v-24.73l31.03,7.757c3.259,0.815,6.524,1.207,9.739,1.207
			c15.65,0,30.076-9.298,36.385-24.424c5.198-12.461,10.941-31.139,12-54.336l52.925,18.68c6.465,2.282,12.079,6.109,16.493,10.973
			l-39.691,34.021c-8.771,7.518-13.801,18.454-13.801,30.005V504.5c0,4.142,3.357,7.5,7.5,7.5s7.5-3.358,7.5-7.5v-57.575
			c0-7.167,3.121-13.952,8.563-18.617l37.861-32.452c1.695,4.484,2.617,9.31,2.617,14.289V504.5c0,4.142,3.357,7.5,7.5,7.5
			s7.5-3.358,7.5-7.5v-94.354C447.612,386.646,432.723,365.603,410.563,357.782z M383.565,143.112
			c2.185-0.047,4.391,0.095,6.601,0.477c12.78,2.212,23.463,12.612,25.979,25.289c2.613,13.174-2.573,25.995-13.537,33.46
			c-6.947,4.73-10.777,12.876-9.996,21.262c0.563,6.026-0.145,12.109-2.101,18.081c-4.995,15.244-18.29,26.913-33.87,29.727
			c-7.393,1.334-14.697,0.908-21.538-1.212c16.603-16.713,27.957-38.641,31.37-63.079h5.59c15.17,0,27.512-12.342,27.512-27.512
			c0-11.065-6.57-20.619-16.01-24.983V143.112z M155.562,271.408c-15.58-2.814-28.874-14.483-33.87-29.728
			c-1.957-5.969-2.664-12.053-2.102-18.081c0.782-8.385-3.048-16.532-9.995-21.262c-10.963-7.464-16.151-20.286-13.537-33.46
			c2.515-12.677,13.198-23.077,25.979-25.289c2.134-0.37,4.266-0.514,6.38-0.481v11.515c-9.44,4.364-16.01,13.918-16.01,24.983
			c0,15.17,12.342,27.512,27.512,27.512h5.59c3.416,24.461,14.788,46.408,31.417,63.127
			C170.13,272.318,162.883,272.73,155.562,271.408z M159.427,191.612c0-4.142-3.358-7.5-7.5-7.5c-4.142,0-7.5,3.358-7.5,7.5
			c0,0.169,0.006,0.336,0.006,0.505h-4.514c-6.899,0-12.512-5.613-12.512-12.512s5.613-12.512,12.512-12.512
			c1.794,0,3.059,0,4.002-0.031v0.028c53.568,0,95.935-46.436,111.664-66.4c0.05-0.063,0.166-0.211,0.405-0.211
			c0.239,0,0.355,0.147,0.404,0.21c9.583,12.164,29.621,34.865,56.151,50.234c3.585,2.076,8.175,0.855,10.249-2.73
			c2.077-3.584,0.854-8.173-2.729-10.249c-24.368-14.116-42.969-35.216-51.888-46.537c-2.968-3.767-7.409-5.928-12.187-5.928
			c0,0,0,0-0.001,0c-4.777,0-9.219,2.161-12.187,5.928c-43.15,54.77-84.225,60.683-99.882,60.683c-0.035,0-0.319,0.001-0.505,0.001
			v-24.518C143.417,65.5,193.918,15,255.991,15s112.573,50.5,112.573,112.574v24.519c-0.185,0-0.47-0.002-0.505-0.002
			c-7.238,0-14.659-1.027-22.055-3.054c-4.006-1.095-8.121,1.258-9.216,5.251c-1.095,3.995,1.257,8.121,5.251,9.215
			c8.688,2.38,17.441,3.587,26.02,3.587v-0.028c0.943,0.031,2.209,0.031,4.003,0.031c6.899,0,12.512,5.613,12.512,12.512
			s-5.612,12.512-12.512,12.512h-4.514c0.001-0.169,0.006-0.336,0.006-0.505c0-4.142-3.357-7.5-7.5-7.5s-7.5,3.358-7.5,7.5
			c0,53.246-43.318,96.564-96.563,96.564C202.745,288.176,159.427,244.858,159.427,191.612z M296.52,335.444
			c0,22.348-18.182,40.529-40.529,40.529c-22.348,0-40.529-18.181-40.529-40.529l0.008-39.886
			c12.566,4.916,26.233,7.619,40.521,7.619c14.288,0,27.955-2.703,40.521-7.619L296.52,335.444z M326.801,401.809
			c-4.728,11.334-16.774,17.406-28.642,14.439l-40.35-10.087c-1.195-0.299-2.444-0.299-3.638,0l-40.35,10.087
			c-11.87,2.965-23.915-3.106-28.643-14.439c-5.834-13.99-12.437-36.64-10.758-65.101c0.207-3.5,2.461-6.5,5.689-7.626l20.351-6.92
			v13.283c0,30.619,24.91,55.529,55.529,55.529s55.529-24.91,55.529-55.529v-13.283l20.297,6.902
			c3.282,1.145,5.536,4.145,5.742,7.645C339.238,365.172,332.635,387.82,326.801,401.809z"/>
	</g>
</g>
<g>
	<g>
		<path d="M255.991,472.289c-4.142,0-7.5,3.358-7.5,7.5v8.005c0,4.142,3.358,7.5,7.5,7.5c4.143,0,7.5-3.358,7.5-7.5v-8.005
			C263.491,475.647,260.134,472.289,255.991,472.289z"/>
	</g>
</g>
<g>
</g>
<g>
</g>
<g>
</g>
<g>
</g>
<g>
</g>
<g>
</g>
<g>
</g>
<g>
</g>
<g>
</g>
<g>
</g>
<g>
</g>
<g>
</g>
<g>
</g>
<g>
</g>
<g>
</g>
</svg>
