<?xml version="1.0" encoding="iso-8859-1"?>
<!-- Generator: Adobe Illustrator 19.0.0, SVG Export Plug-In . SVG Version: 6.00 Build 0)  -->
<svg version="1.1" id="Capa_1" xmlns="http://www.w3.org/2000/svg" xmlns:xlink="http://www.w3.org/1999/xlink" x="0px" y="0px"
	 viewBox="0 0 512.002 512.002" style="enable-background:new 0 0 512.002 512.002;" xml:space="preserve">
<g>
	<g>
		<path d="M207.904,160.322c-4.142,0-7.5,3.357-7.5,7.5v8.017c0,4.142,3.358,7.5,7.5,7.5c4.142,0,7.5-3.357,7.5-7.5v-8.017
			C215.404,163.679,212.046,160.322,207.904,160.322z"/>
	</g>
</g>
<g>
	<g>
		<path d="M304.098,160.322c-4.142,0-7.5,3.357-7.5,7.5v8.017c0,4.143,3.358,7.5,7.5,7.5c4.142,0,7.5-3.357,7.5-7.5v-8.017
			C311.598,163.68,308.24,160.322,304.098,160.322z"/>
	</g>
</g>
<g>
	<g>
		<path d="M226.307,144.676l-24.048-8.016c-3.932-1.312-8.177,0.813-9.487,4.744c-1.309,3.928,0.814,8.176,4.744,9.486l24.048,8.016
			c0.787,0.263,1.586,0.387,2.373,0.387c3.14,0,6.067-1.987,7.114-5.131C232.361,150.233,230.237,145.985,226.307,144.676z"/>
	</g>
</g>
<g>
	<g>
		<path d="M319.23,141.403c-1.31-3.931-5.559-6.052-9.487-4.744l-24.049,8.016c-3.93,1.31-6.053,5.558-4.744,9.486
			c1.048,3.144,3.973,5.131,7.114,5.131c0.786,0,1.586-0.125,2.373-0.387l24.049-8.016
			C318.416,149.579,320.539,145.331,319.23,141.403z"/>
	</g>
</g>
<g>
	<g>
		<path d="M256,440.887c-4.142,0-7.5,3.357-7.5,7.5V504.5c0,4.143,3.358,7.5,7.5,7.5c4.142,0,7.5-3.357,7.5-7.5v-56.113
			C263.5,444.244,260.143,440.887,256,440.887z"/>
	</g>
</g>
<g>
	<g>
		<path d="M416.874,358.537l-56.879-17.775l49.849-95.543c2.292-4.393,2.341-9.663,0.13-14.098
			c-2.21-4.436-6.448-7.569-11.336-8.384l-33.811-5.635c0.74-3.189,1.345-6.429,1.804-9.716h4.458
			c14.618,0,27.155-10.861,28.544-24.727c0.778-7.771-1.764-15.53-6.974-21.288c-2.521-2.786-5.568-4.991-8.917-6.533v-51.146
			C383.742,46.517,337.226,0,280.049,0h-48.097c-57.177,0-103.693,46.517-103.693,103.693v51.48
			c-8.63,4.115-14.929,12.266-15.89,21.858c-0.779,7.771,1.762,15.53,6.972,21.288c5.213,5.763,12.658,9.067,20.426,9.067h5.598
			c0.459,3.287,1.064,6.527,1.803,9.716l-33.806,5.634c-4.888,0.814-9.125,3.948-11.335,8.384c-2.21,4.435-2.162,9.705,0.13,14.099
			l49.849,95.542l-56.878,17.775c-23.335,7.291-39.014,28.617-39.014,53.065V504.5c0,4.143,3.358,7.5,7.5,7.5
			c4.142,0,7.5-3.357,7.5-7.5v-92.897c0-5.4,1.054-10.588,2.986-15.35l37.565,32.198c5.451,4.673,8.578,11.471,8.578,18.651V504.5
			c0,4.143,3.358,7.5,7.5,7.5c4.142,0,7.5-3.357,7.5-7.5v-57.397c0-11.564-5.036-22.514-13.816-30.04l-39.104-33.517
			c4.636-4.845,10.514-8.578,17.279-10.692l59.453-18.58l32.411,62.121L181.464,436.4c-3.908,7.816-3.181,17.09,1.898,24.202
			l34.47,48.258c1.464,2.05,3.769,3.142,6.109,3.142c1.509,0,3.032-0.454,4.353-1.398c3.371-2.407,4.151-7.091,1.744-10.462
			l-34.47-48.258c-1.841-2.578-2.105-5.94-0.688-8.775l11.715-23.432c1.076-2.151,1.054-4.689-0.059-6.823L143.332,291.71
			l106.887,129.389c1.425,1.725,3.545,2.724,5.782,2.724c2.237,0,4.357-0.999,5.782-2.724l106.886-129.387l-63.204,121.141
			c-1.113,2.134-1.135,4.672-0.059,6.823l11.715,23.433c1.417,2.834,1.153,6.196-0.688,8.774l-34.47,48.258
			c-2.408,3.371-1.627,8.055,1.744,10.462c1.321,0.944,2.844,1.398,4.353,1.398c2.34,0,4.646-1.093,6.109-3.142l34.471-48.258
			c5.079-7.112,5.806-16.386,1.898-24.201l-10.002-20.006l32.411-62.121l59.454,18.58c6.764,2.114,12.643,5.847,17.278,10.692
			l-39.104,33.517c-8.78,7.526-13.816,18.476-13.816,30.04V504.5c0,4.143,3.358,7.5,7.5,7.5c4.142,0,7.5-3.357,7.5-7.5v-57.397
			c0-7.181,3.126-13.979,8.578-18.651l37.565-32.198c1.933,4.762,2.986,9.95,2.986,15.35V504.5c0,4.143,3.358,7.5,7.5,7.5
			c4.142,0,7.5-3.357,7.5-7.5v-92.897C455.888,387.154,440.209,365.828,416.874,358.537z M144.292,191.871v0.516h-4.524
			c-3.537,0-6.928-1.506-9.303-4.131c-2.407-2.659-3.532-6.114-3.17-9.729c0.63-6.292,6.612-11.221,13.618-11.221h12.251
			c7.382,0,13.622-5.052,15.174-12.285c2.237-10.429,7.813-31.173,20.033-52.924c2.028-3.611,0.746-8.184-2.866-10.213
			c-3.612-2.028-8.184-0.747-10.212,2.865c-13.188,23.476-19.207,45.868-21.621,57.126c-0.056,0.262-0.255,0.431-0.508,0.431h-9.905
			v-48.613c0-48.905,39.788-88.693,88.693-88.693h48.097c48.906,0,88.693,39.788,88.693,88.693v48.613h-9.905
			c-0.252,0-0.452-0.169-0.508-0.431c-3.664-17.085-15.768-60.405-48.929-93.566c-2.927-2.925-7.674-2.926-10.604-0.002
			c-0.221,0.22-21.514,21.311-42.796,29.408c-21.283-8.098-42.576-29.188-42.793-29.406c-2.928-2.927-7.677-2.929-10.606,0
			c-2.894,2.893-5.73,5.971-8.431,9.149c-2.682,3.156-2.298,7.89,0.859,10.571c3.155,2.682,7.888,2.299,10.572-0.858
			c0.862-1.015,1.739-2.018,2.628-3.006c8.856,7.884,26.896,22.459,45.399,28.627c1.54,0.514,3.204,0.514,4.744,0
			c18.503-6.168,36.544-20.744,45.4-28.628c26.597,29.545,36.697,65.968,39.891,80.857c1.552,7.232,7.792,12.284,15.174,12.284
			h13.397c3.537,0,6.927,1.506,9.302,4.13c2.407,2.66,3.533,6.115,3.171,9.729c-0.63,6.292-6.612,11.221-13.618,11.221h-3.383
			v-0.438c0-4.141-3.356-7.498-7.497-7.5c-0.001,0-0.002,0-0.003,0c-4.14,0-7.497,3.354-7.5,7.494
			c-0.039,53.287-43.421,96.639-96.706,96.639c-53.326,0-96.709-43.384-96.709-96.71c0-4.143-3.358-7.5-7.5-7.5
			C147.649,184.37,144.292,187.729,144.292,191.871z M192.388,327.542l-74.622-90.331l33.816-5.636
			c8.086,21.195,22.45,39.314,40.806,52.076V327.542z M304.612,345.699L256,404.546l-48.613-58.847v-53.265
			c14.705,7.137,31.199,11.147,48.613,11.147c17.412,0,33.906-4.012,48.612-11.153V345.699z M319.614,327.541V283.64
			c18.35-12.762,32.711-30.879,40.799-52.068l33.823,5.637L319.614,327.541z"/>
	</g>
</g>
<g>
	<g>
		<path d="M311.396,208.978c-0.957-4.03-4.997-6.526-9.029-5.565c-13.803,3.275-29.836,5.007-46.365,5.007
			s-32.562-1.731-46.365-5.007c-4.033-0.96-8.074,1.534-9.031,5.565c-0.957,4.03,1.535,8.072,5.565,9.028
			c1.315,0.312,2.669,0.595,4.019,0.881l14.958,32.252c1.212,2.613,3.813,4.302,6.693,4.344c0.037,0.001,0.074,0.001,0.111,0.001
			c2.837,0,5.436-1.603,6.708-4.146l13.982-27.963c1.12,0.015,2.235,0.044,3.359,0.044c1.124,0,2.239-0.029,3.359-0.044
			l13.982,27.963c1.271,2.543,3.87,4.146,6.708,4.146c0.037,0,0.074,0,0.111-0.001c2.88-0.042,5.481-1.73,6.693-4.344l14.958-32.252
			c1.35-0.286,2.704-0.569,4.019-0.881C309.861,217.05,312.353,213.008,311.396,208.978z M232.206,230.705l-4.131-8.908
			c2.693,0.317,5.41,0.604,8.171,0.828L232.206,230.705z M279.795,230.705l-4.04-8.08c2.761-0.224,5.478-0.511,8.171-0.828
			L279.795,230.705z"/>
	</g>
</g>
<g>
</g>
<g>
</g>
<g>
</g>
<g>
</g>
<g>
</g>
<g>
</g>
<g>
</g>
<g>
</g>
<g>
</g>
<g>
</g>
<g>
</g>
<g>
</g>
<g>
</g>
<g>
</g>
<g>
</g>
</svg>
