<?xml version="1.0" encoding="iso-8859-1"?>
<!-- Generator: Adobe Illustrator 19.0.0, SVG Export Plug-In . SVG Version: 6.00 Build 0)  -->
<svg version="1.1" id="Capa_1" xmlns="http://www.w3.org/2000/svg" xmlns:xlink="http://www.w3.org/1999/xlink" x="0px" y="0px"
	 viewBox="0 0 512.003 512.003" style="enable-background:new 0 0 512.003 512.003;" xml:space="preserve">
<g>
	<g>
		<path d="M207.905,176.355c-4.143,0-7.5,3.358-7.5,7.5v8.016c0,4.142,3.357,7.5,7.5,7.5s7.5-3.358,7.5-7.5v-8.016
			C215.405,179.713,212.048,176.355,207.905,176.355z"/>
	</g>
</g>
<g>
	<g>
		<path d="M304.099,176.355c-4.143,0-7.5,3.358-7.5,7.5v8.016c0,4.142,3.357,7.5,7.5,7.5s7.5-3.358,7.5-7.5v-8.016
			C311.599,179.713,308.242,176.355,304.099,176.355z"/>
	</g>
</g>
<g>
	<g>
		<path d="M410.78,381.892l-11.206-3.955c-4.89-26.472-12.239-40.328-18.746-52.591c-4.978-9.381-9.372-17.696-11.96-30.747
			c17.665-3.96,30.908-19.757,30.908-38.599c0-14.484-7.828-27.168-19.471-34.063c10.363-3.422,18.246-12.417,19.329-23.245
			c0.778-7.771-1.764-15.53-6.974-21.288c-0.291-0.322-0.597-0.627-0.901-0.933v-40.714C391.76,60.901,330.859,0,256.003,0
			S120.244,60.901,120.244,135.758v40.702c-0.306,0.308-0.609,0.621-0.901,0.945c-5.21,5.758-7.752,13.517-6.974,21.287
			c1.084,10.828,8.966,19.823,19.329,23.245c-11.643,6.895-19.471,19.579-19.471,34.063c0,21.816,17.749,39.564,39.564,39.564
			c11.198,0,21.784-4.805,29.203-12.904c6,5.441,12.508,10.169,19.41,14.136v32.71c0,10.395-6.586,19.704-16.389,23.164
			l-82.793,29.221c-22.187,7.831-37.093,28.899-37.093,52.427v70.18c0,4.142,3.357,7.5,7.5,7.5s7.5-3.358,7.5-7.5v-70.18
			c0-17.18,10.885-32.564,27.085-38.282l21.718-7.665c4.057,23.252,8.467,47.443,13.366,69.65c0.772,3.501,3.874,5.886,7.317,5.886
			c0.535,0,1.078-0.058,1.623-0.178c4.044-0.892,6.6-4.895,5.708-8.94c-5.011-22.714-9.527-47.647-13.673-71.48l11.368-4.012
			c14.248,46.518,32.05,97.397,56.28,129.703c1.474,1.965,3.726,3,6.006,3c1.565,0,3.146-0.489,4.494-1.5
			c3.313-2.485,3.985-7.187,1.5-10.5c-25.597-34.13-44.944-95.524-54.124-125.698l14.901-5.259
			c4.637,8.875,14.822,26.183,32.901,46.96c23.669,27.199,66.059,65.823,133.59,95.368c0.979,0.428,1.998,0.631,3.002,0.631
			c2.889,0,5.643-1.68,6.875-4.496c1.66-3.795-0.07-8.217-3.865-9.877c-38.462-16.828-68.389-36.661-91.088-55.414
			c38.807-31.929,57.963-61.019,64.962-73.252l15.117,5.335c-8.279,26.72-17.374,50.688-27.063,71.29
			c-1.763,3.748-0.153,8.216,3.596,9.979c1.031,0.485,2.117,0.715,3.187,0.715c2.815,0,5.515-1.593,6.792-4.31
			c9.916-21.085,19.207-45.514,27.645-72.677l47.439,16.743c16.2,5.718,27.085,21.102,27.085,38.282v70.18
			c0,4.142,3.357,7.5,7.5,7.5s7.5-3.358,7.5-7.5v-70.18C447.873,410.792,432.967,389.723,410.78,381.892z M384.776,256
			c0,13.545-11.02,24.564-24.564,24.564c-7.272,0-14.13-3.265-18.757-8.722c9.975-11.823,17.338-25.504,21.686-40.226
			C375.31,233.07,384.776,243.447,384.776,256z M256.708,15.002c66.635,0.383,120.052,55.449,120.052,122.084v31.252h-9.875
			c-5.118,0-10.058-0.649-14.683-1.93c-16.442-4.552-56.658-20.139-85.822-67.856c-1.901-3.11-2.878-6.7-2.878-10.344V71.943
			c0-4.107-3.165-7.688-7.27-7.811c-4.248-0.127-7.73,3.278-7.73,7.497v16.579c0,3.645-0.978,7.235-2.878,10.344
			c-29.164,47.717-69.381,63.304-85.822,67.856c-4.625,1.281-9.564,1.93-14.683,1.93h-5.351c-1.526,0-3.038,0.132-4.524,0.381
			v-32.961h0C135.244,68.937,189.8,14.618,256.708,15.002z M151.792,280.564c-13.545,0-24.564-11.02-24.564-24.564
			c0-12.553,9.467-22.93,21.635-24.384c4.348,14.721,11.711,28.403,21.686,40.226C165.923,277.299,159.064,280.564,151.792,280.564z
			 M190.123,270.687c-17.856-16.623-28.705-39.124-30.548-63.356c-0.314-4.13-3.915-7.222-8.047-6.91
			c-4.114,0.313-7.197,3.889-6.911,7.998h-3.705c-7.006,0-12.986-4.929-13.616-11.221c-0.362-3.614,0.764-7.069,3.171-9.729
			c2.375-2.625,5.766-4.131,9.303-4.131h5.351c6.471,0,12.757-0.832,18.685-2.474c17.739-4.912,60.466-21.346,92.198-70.595
			c31.732,49.249,74.459,65.683,92.198,70.595c5.928,1.641,12.214,2.474,18.685,2.474h5.351c3.537,0,6.928,1.506,9.303,4.131
			c2.407,2.66,3.533,6.115,3.171,9.729c-0.63,6.292-6.61,11.221-13.616,11.221h-3.705c0.284-4.108-2.799-7.681-6.911-7.994
			c-4.159-0.317-7.733,2.78-8.048,6.909c-1.844,24.232-12.692,46.731-30.549,63.354c-17.947,16.707-41.344,25.908-65.879,25.908
			C231.467,296.597,208.069,287.395,190.123,270.687z M252.603,432.256c-10.097-9.139-18.452-17.825-25.199-25.539
			c-16.637-19.02-26.293-35.089-30.817-43.532c11.509-7.101,18.818-19.784,18.818-33.678v-25.521
			c12.804,4.992,26.538,7.611,40.597,7.611c14.059,0,27.793-2.619,40.597-7.611v25.521c0,13.79,7.2,26.388,18.56,33.518
			C308.023,375.067,289.336,402.478,252.603,432.256z M327.987,352.672c-9.803-3.46-16.389-12.769-16.389-23.164v-32.71
			c6.902-3.967,13.41-8.695,19.411-14.136c5.956,6.501,13.954,10.864,22.673,12.335c2.91,16.64,8.258,26.757,13.896,37.381
			c5.499,10.363,11.156,21.03,15.475,39.729L327.987,352.672z"/>
	</g>
</g>
<g>
	<g>
		<path d="M168.576,502.075c-1.589-4.646-3.21-9.906-4.82-15.636c-1.121-3.988-5.261-6.313-9.25-5.191
			c-3.987,1.121-6.312,5.262-5.191,9.25c1.686,5.996,3.391,11.523,5.067,16.429c1.065,3.116,3.978,5.076,7.096,5.076
			c0.805,0,1.623-0.13,2.427-0.405C167.826,510.258,169.917,505.994,168.576,502.075z"/>
	</g>
</g>
<g>
	<g>
		<path d="M292.074,220.415H219.93c-4.143,0-7.5,3.358-7.5,7.5c0,21.816,19.547,39.564,43.572,39.564
			c24.025,0,43.573-17.748,43.573-39.564C299.574,223.773,296.217,220.415,292.074,220.415z M256.003,252.479
			c-12.714,0-23.515-7.175-27.211-17.064h54.422C279.517,245.304,268.716,252.479,256.003,252.479z"/>
	</g>
</g>
<g>
</g>
<g>
</g>
<g>
</g>
<g>
</g>
<g>
</g>
<g>
</g>
<g>
</g>
<g>
</g>
<g>
</g>
<g>
</g>
<g>
</g>
<g>
</g>
<g>
</g>
<g>
</g>
<g>
</g>
</svg>
