<?xml version="1.0" encoding="iso-8859-1"?>
<!-- Generator: Adobe Illustrator 19.0.0, SVG Export Plug-In . SVG Version: 6.00 Build 0)  -->
<svg version="1.1" id="Capa_1" xmlns="http://www.w3.org/2000/svg" xmlns:xlink="http://www.w3.org/1999/xlink" x="0px" y="0px"
	 viewBox="0 0 512 512" style="enable-background:new 0 0 512 512;" xml:space="preserve">
<g>
	<g>
		<path d="M410.957,374.107l-11.385-4.018c0.008-0.482,0.023-0.963,0.023-1.446c0-10.335-3.105-19.095-9.468-26.654
			c12.557-33.883,17.515-73.772,14.466-118.476l-4.988-88.436C395.061,59.333,332.061,0,256.179,0
			c-76.068,0-139.228,59.479-143.788,135.411l-7.232,120.414c-1.776,29.572,4.904,58.147,19.086,83.158
			c-8.092,8.354-12.199,18.321-12.199,29.661c0,0.525,0.016,1.048,0.025,1.572l-11.028,3.892
			c-22.228,7.845-37.093,28.855-37.093,52.427v77.651c0,4.106,3.164,7.688,7.269,7.811c4.247,0.127,7.731-3.277,7.731-7.497v-77.966
			c0-17.212,10.854-32.554,27.085-38.282l7.649-2.7c1.77,9.042,4.968,17.852,9.576,26.334c1.359,2.502,3.936,3.92,6.597,3.92
			c1.554,0,3.139-0.484,4.523-1.521c3.002-2.248,3.741-6.448,1.959-9.748c-6.166-11.417-9.292-23.492-9.292-35.894
			c0-6.2,1.844-11.633,5.599-16.491c4.022,5.639,8.451,11.054,13.296,16.198c29.117,30.918,68.647,47.802,111.178,47.451
			c56.759-0.468,102.394-46.927,102.394-103.688v-48.097c0-43.697-11.496-94.691-30.75-136.411
			c-9.581-20.759-20.708-38.131-32.177-50.237c-13.361-14.104-27.077-21.255-40.766-21.255c-13.689,0-27.404,7.151-40.766,21.255
			c-11.47,12.106-22.596,29.479-32.177,50.237c-19.255,41.72-30.751,92.714-30.751,136.411v48.097
			c0,21.605,6.645,41.686,17.995,58.312c-4.64-3.791-9.071-7.911-13.26-12.359c-25.956-27.561-39-63.552-36.73-101.343
			l7.232-120.414C131.45,68.286,188.032,15,256.179,15c67.959,0,124.383,53.14,128.452,120.949l4.992,88.496
			c5.193,76.165-13.732,137.082-54.73,176.165c-36.71,34.995-89.702,51.108-149.819,45.724c-4.449-0.398-8.74-1.879-12.507-4.28
			c-6.482-4.13-12.478-8.775-17.885-13.902c-2.961-2.808-7.701-2.985-10.619-0.131c-3.05,2.984-2.997,7.876,0.065,10.795
			c27.416,26.133,68.126,41.12,111.693,41.12c38.032,0,73.868-11.341,100.905-31.934c22.433-17.086,36.686-38.866,41.263-62.565
			l7.976,2.815c16.231,5.728,27.085,21.069,27.085,38.281v77.653c0,4.106,3.164,7.688,7.269,7.811
			c4.247,0.127,7.731-3.277,7.731-7.497v-77.967C448.05,402.962,433.185,381.952,410.957,374.107z M255.821,71.113
			c14.178,0,29.263,12.752,42.897,33.097h-85.795C226.557,83.865,241.643,71.113,255.821,71.113z M203.875,119.21h103.892
			c18.887,34.595,33.471,83.08,36.259,129.164c-16.596,35.996-52.786,57.982-92.531,56.128
			c-18.325-0.863-35.921-7.094-50.887-18.018c-14.319-10.452-25.636-24.697-32.784-41.224
			C171.063,200.115,185.412,153.026,203.875,119.21z M167.304,317.642c18.233,25.199,51.089,42.052,88.516,42.052
			c14.907,0,29.295-2.612,42.763-7.765c3.869-1.479,5.805-5.816,4.325-9.685c-1.479-3.868-5.814-5.804-9.685-4.325
			c-11.75,4.495-24.335,6.774-37.403,6.774c-48.074,0-87.336-31.497-88.657-70.625c6.904,9.377,15.189,17.661,24.6,24.531
			c17.346,12.662,37.757,19.884,59.025,20.885c1.804,0.085,3.602,0.128,5.397,0.128c21.127,0,41.567-5.866,59.418-17.101
			c11.113-6.994,20.786-15.785,28.721-25.972c-1.29,17.202-9.92,33.357-24.666,45.891c-3.156,2.684-3.54,7.416-0.857,10.572
			c1.483,1.745,3.594,2.643,5.718,2.643c1.717,0,3.443-0.587,4.854-1.785c5.773-4.908,10.773-10.296,14.953-16.057
			c-2.944,46.263-41.512,83.003-88.506,83.003C208.772,400.807,170.169,363.981,167.304,317.642z M255.821,464.936
			c-11.112,0-22.003-1.055-32.468-3.086c48.134-3.089,90.386-20.35,121.89-50.382c15.548-14.822,28.154-32.454,37.749-52.569
			c1.09,2.913,1.603,6.095,1.603,9.745C384.595,421.739,326.827,464.936,255.821,464.936z"/>
	</g>
</g>
<g>
	<g>
		<path d="M285.565,242.716c-2.909-2.949-7.658-2.98-10.606-0.071c-2.737,2.701-9.298,5.855-18.78,5.855s-16.043-3.154-18.78-5.855
			c-2.949-2.909-7.697-2.878-10.606,0.071c-2.91,2.948-2.878,7.696,0.07,10.606c6.459,6.373,17.418,10.178,29.316,10.178
			s22.857-3.805,29.316-10.178C288.443,250.412,288.475,245.664,285.565,242.716z"/>
	</g>
</g>
<g>
	<g>
		<path d="M208.083,184.252c-4.142,0-7.5,3.357-7.5,7.5v8.017c0,4.143,3.358,7.5,7.5,7.5c4.142,0,7.5-3.357,7.5-7.5v-8.017
			C215.583,187.609,212.225,184.252,208.083,184.252z"/>
	</g>
</g>
<g>
	<g>
		<path d="M304.276,184.252c-4.142,0-7.5,3.357-7.5,7.5v8.017c0,4.143,3.358,7.5,7.5,7.5c4.142,0,7.5-3.357,7.5-7.5v-8.017
			C311.776,187.609,308.418,184.252,304.276,184.252z"/>
	</g>
</g>
<g>
	<g>
		<path d="M216.098,160.204h-16.032c-4.142,0-7.5,3.357-7.5,7.5s3.358,7.5,7.5,7.5h16.032c4.142,0,7.5-3.357,7.5-7.5
			S220.24,160.204,216.098,160.204z"/>
	</g>
</g>
<g>
	<g>
		<path d="M312.292,160.204H296.26c-4.142,0-7.5,3.357-7.5,7.5s3.358,7.5,7.5,7.5h16.032c4.142,0,7.5-3.357,7.5-7.5
			S316.434,160.204,312.292,160.204z"/>
	</g>
</g>
<g>
</g>
<g>
</g>
<g>
</g>
<g>
</g>
<g>
</g>
<g>
</g>
<g>
</g>
<g>
</g>
<g>
</g>
<g>
</g>
<g>
</g>
<g>
</g>
<g>
</g>
<g>
</g>
<g>
</g>
</svg>
