<?xml version="1.0" encoding="iso-8859-1"?>
<!-- Generator: Adobe Illustrator 19.0.0, SVG Export Plug-In . SVG Version: 6.00 Build 0)  -->
<svg version="1.1" id="Capa_1" xmlns="http://www.w3.org/2000/svg" xmlns:xlink="http://www.w3.org/1999/xlink" x="0px" y="0px"
	 viewBox="0 0 512.003 512.003" style="enable-background:new 0 0 512.003 512.003;" xml:space="preserve">
<g>
	<g>
		<path d="M159.808,424.853c-4.142,0-7.5,3.358-7.5,7.5V504.5c0,4.142,3.358,7.5,7.5,7.5c4.142,0,7.5-3.358,7.5-7.5v-72.147
			C167.308,428.211,163.95,424.853,159.808,424.853z"/>
	</g>
</g>
<g>
	<g>
		<path d="M352.195,424.855c-4.142,0-7.5,3.358-7.5,7.5V504.5c0,4.142,3.358,7.5,7.5,7.5c4.142,0,7.5-3.358,7.5-7.5v-72.145
			C359.695,428.213,356.337,424.855,352.195,424.855z"/>
	</g>
</g>
<g>
	<g>
		<path d="M415.98,349.484l-30.044-8.836c-20.488-33.077-53.168-47.028-66.321-51.506v-13.483
			c8.041-5.576,15.356-12.222,21.722-19.75c44.154-4.497,70.542-25.225,71.657-26.117c2.762-2.209,3.605-6.047,2.023-9.21
			c-2.499-4.998-6.025-13.511-6.979-18.521l22.303-29.737c1.245-1.66,1.747-3.76,1.386-5.803
			c-0.791-4.482-19.961-109.163-82.132-125.594C326.163,15.719,292.746,0,256.002,0c-36.948,0-70.276,15.774-93.621,40.934
			C100.233,57.388,81.068,162.038,80.277,166.52c-0.361,2.043,0.141,4.144,1.386,5.803l22.306,29.742
			c-0.938,4.988-4.411,13.365-6.982,18.517c-1.582,3.163-0.739,7.001,2.023,9.21c1.115,0.892,27.501,21.619,71.654,26.117
			c6.368,7.529,13.683,14.176,21.725,19.752v13.481c-13.153,4.478-45.834,18.429-66.322,51.506l-30.044,8.836
			c-23.498,6.912-39.909,28.845-39.909,53.338V504.5c0,4.142,3.358,7.5,7.5,7.5c4.142,0,7.5-3.358,7.5-7.5V402.822
			c0-17.885,11.983-33.9,29.142-38.947l16.668-4.902c-0.694,1.782-1.354,3.604-1.975,5.471c-2.365,7.106-1.388,14.681,2.681,20.782
			l8.479,12.718l-21.523,21.523c-5.693,5.692-8.068,13.787-6.353,21.653l14.166,64.979c0.765,3.509,3.871,5.904,7.321,5.904
			c0.529,0,1.067-0.056,1.605-0.174c4.047-0.882,6.612-4.878,5.73-8.925l-14.166-64.979c-0.622-2.852,0.239-5.786,2.303-7.85
			l25.871-25.871c2.528-2.528,2.92-6.489,0.937-9.464l-11.89-17.833c-1.483-2.225-1.822-5.041-0.929-7.726
			c13.085-39.33,46.75-57.319,63.207-63.971v4.944c0,8.703-3.389,16.884-9.542,23.038l-9.559,9.558
			c-13.529,13.529-20.979,31.517-20.979,50.649v6.892c0,4.142,3.358,7.5,7.5,7.5c4.142,0,7.5-3.358,7.5-7.5v-6.892
			c0-12.461,4.006-24.302,11.394-34.069l20.218,24.262c4.222,5.066,10.423,8.144,17.012,8.442c0.354,0.016,0.707,0.024,1.059,0.024
			c3.991,0,7.898-1.026,11.352-2.926l0.857,2.57c1.353,4.058,3.739,7.545,6.797,10.232l-11.496,101.724
			c-0.465,4.116,2.495,7.83,6.61,8.295c0.286,0.032,0.57,0.048,0.852,0.048c3.765,0,7.01-2.829,7.443-6.658l11.029-97.595
			c0.363,0.017,0.723,0.043,1.089,0.043h8.954c0.36,0,0.715-0.026,1.071-0.043l11.047,97.596c0.434,3.829,3.679,6.657,7.443,6.657
			c0.282,0,0.566-0.016,0.853-0.048c4.116-0.466,7.075-4.18,6.609-8.296l-11.513-101.709c3.066-2.689,5.458-6.182,6.814-10.248
			l0.857-2.57c3.455,1.899,7.361,2.926,11.352,2.926c0.352,0,0.706-0.008,1.059-0.024c6.589-0.299,12.79-3.376,17.012-8.443
			l20.218-24.261c7.388,9.768,11.394,21.609,11.394,34.069v6.894c0,4.142,3.358,7.5,7.5,7.5c4.142,0,7.5-3.358,7.5-7.5v-6.894
			c0-19.132-7.451-37.12-20.979-50.649l-9.559-9.558c-6.153-6.154-9.542-14.335-9.542-23.038v-4.975
			c16.433,6.594,50.062,24.494,63.207,64.003c0.893,2.685,0.555,5.5-0.929,7.725l-11.89,17.833
			c-1.983,2.975-1.591,6.936,0.937,9.464l25.871,25.872c2.064,2.063,2.925,4.998,2.303,7.85l-14.166,64.979
			c-0.882,4.047,1.683,8.043,5.73,8.925c0.539,0.118,1.076,0.174,1.605,0.174c3.45,0,6.556-2.395,7.321-5.904l14.166-64.979
			c1.715-7.866-0.659-15.961-6.352-21.653l-21.523-21.523l8.479-12.717c4.068-6.102,5.045-13.677,2.681-20.782
			c-0.621-1.866-1.281-3.689-1.975-5.471l16.668,4.902c17.158,5.047,29.142,21.063,29.142,38.947V504.5c0,4.142,3.358,7.5,7.5,7.5
			c4.142,0,7.5-3.358,7.5-7.5V402.822C455.889,378.329,439.478,356.396,415.98,349.484z M143.258,127.742h0.002
			C143.26,65.576,193.836,15,256.002,15c59.198,0,108.612,46.218,112.495,105.219c0.272,4.133,3.84,7.26,7.977,6.991
			c4.133-0.272,7.263-3.843,6.991-7.977c-1.2-18.235-6.245-35.387-14.298-50.698c14.241,12.647,24.559,31.317,31.434,47.333
			c9.273,21.604,14.122,42.426,15.733,50.129l-22.042,29.389c-0.974,1.298-1.5,2.877-1.5,4.5c0,6.352,3.412,15.416,6.049,21.472
			c-2.947,1.865-7.201,4.331-12.625,6.889c-7.689,3.626-18.992,8.002-33.096,10.77c6.93-12.227,11.53-25.706,13.496-39.647h4.476
			c14.617,0,27.154-10.861,28.542-24.727c0.778-7.771-1.765-15.531-6.975-21.288c-5.213-5.762-12.658-9.066-20.425-9.066
			c-0.695,0-36.589,0-36.589,0v-0.516c0-4.142-3.358-7.5-7.5-7.5h-56.113c-4.142,0-7.5,3.358-7.5,7.5v2.124
			c-2.647-1.034-5.523-1.608-8.532-1.608s-5.885,0.574-8.532,1.608v-2.124c0-4.142-3.358-7.5-7.5-7.5h-56.113
			c-4.142,0-7.5,3.358-7.5,7.5v0.516h-33.097V127.742z M300.091,167.307c4.142,0,7.5-3.358,7.5-7.5v-8.016
			c0-0.174-0.014-0.345-0.026-0.516h13.082v16.548c0,4.705-3.828,8.532-8.532,8.532h-24.048c-4.705,0-8.532-3.828-8.532-8.532
			v-16.548h13.083c-0.012,0.171-0.026,0.342-0.026,0.516v8.016C292.591,163.949,295.949,167.307,300.091,167.307z M211.913,167.307
			c4.142,0,7.5-3.358,7.5-7.5v-8.016c0-0.174-0.014-0.345-0.026-0.516h13.083v16.548c0,4.705-3.828,8.532-8.532,8.532H199.89
			c-4.705,0-8.532-3.828-8.532-8.532v-16.548h13.082c-0.012,0.171-0.026,0.342-0.026,0.516v8.016
			C204.413,163.949,207.771,167.307,211.913,167.307z M125.786,228.249c-5.424-2.558-9.679-5.025-12.625-6.889
			c2.637-6.056,6.049-15.121,6.049-21.473c0-1.623-0.526-3.202-1.5-4.5l-22.042-29.389c1.611-7.705,6.459-28.526,15.733-50.129
			c10.042-23.393,21.036-38.111,31.417-47.298c-9.292,17.701-14.559,37.831-14.559,59.171v19.415
			c-8.631,4.115-14.93,12.266-15.891,21.859c-0.778,7.771,1.763,15.531,6.974,21.289c5.213,5.762,12.658,9.067,20.425,9.067h5.615
			c1.966,13.941,6.566,27.419,13.496,39.647C144.777,236.25,133.475,231.874,125.786,228.249z M223.032,374.557
			c-1.716,1.716-3.993,2.594-6.42,2.49c-2.424-0.11-4.615-1.197-6.168-3.061l-21.446-25.735l4.455-4.455
			c3.937-3.937,7.098-8.442,9.409-13.33l40.894,23.368L223.032,374.557z M256.002,311.597c13.298,0,24.692-8.274,29.327-19.941
			c6.649-1.809,13.105-4.242,19.286-7.242v25.738c0,1.833,0.115,3.648,0.318,5.443l-48.931,27.961l-48.931-27.961
			c0.203-1.795,0.318-3.61,0.318-5.443v-25.737c6.181,3,12.637,5.433,19.286,7.242C231.31,303.323,242.704,311.597,256.002,311.597z
			 M239.453,280.048V263.5h33.097v16.548c0,9.125-7.423,16.548-16.548,16.548S239.453,289.173,239.453,280.048z M268.573,386.957
			c-0.674,2.021-2.061,3.638-3.813,4.658c-0.211,0.103-0.416,0.214-0.615,0.335c-1.121,0.534-2.364,0.841-3.665,0.841h-8.954
			c-3.678,0-6.931-2.345-8.094-5.834l-2.896-8.689l15.467-15.467l15.467,15.467L268.573,386.957z M323.006,348.251l-21.446,25.735
			c-1.553,1.864-3.744,2.952-6.168,3.062c-2.42,0.104-4.704-0.774-6.42-2.49l-20.724-20.724l40.894-23.368
			c2.311,4.888,5.472,9.393,9.409,13.33L323.006,348.251z M287.55,275.275V256c0-4.142-3.358-7.5-7.5-7.5h-48.097
			c-4.142,0-7.5,3.358-7.5,7.5v19.276c-17.143-5.937-32.515-16.707-43.963-30.994c-13.868-17.305-21.198-38.2-21.198-60.427
			c0-4.142-3.358-7.5-7.5-7.5c-4.142,0-7.5,3.358-7.5,7.5v0.516h-4.524c-3.537,0-6.927-1.506-9.303-4.131
			c-2.407-2.66-3.533-6.115-3.17-9.73c0.63-6.292,6.611-11.22,13.617-11.22c0.49,0,35.445,0,35.445,0v8.532
			c0,12.976,10.557,23.532,23.532,23.532h24.048c12.976,0,23.532-10.557,23.532-23.532c0-4.705,3.828-8.532,8.532-8.532
			c4.704,0,8.532,3.828,8.532,8.532c0,12.976,10.557,23.532,23.532,23.532h24.048c12.976,0,23.532-10.557,23.532-23.532v-8.532
			c0,0,35.894,0,36.589,0c3.537,0,6.927,1.505,9.303,4.13c2.407,2.66,3.533,6.115,3.171,9.729
			c-0.63,6.292-6.611,11.221-13.617,11.221h-3.385v-0.439c0-4.141-3.356-7.499-7.497-7.5c-0.001,0-0.002,0-0.003,0
			c-4.14,0-7.497,3.354-7.5,7.495c-0.016,22.211-7.353,43.09-21.216,60.379C320.046,258.58,304.682,269.342,287.55,275.275z"/>
	</g>
</g>
<g>
	<g>
		<path d="M285.389,210.653c-2.91-2.949-7.659-2.98-10.606-0.071c-2.737,2.701-9.298,5.855-18.781,5.855
			c-9.483,0-16.043-3.154-18.781-5.855c-2.95-2.91-7.698-2.877-10.606,0.071c-2.909,2.948-2.877,7.697,0.071,10.606
			c6.459,6.372,17.418,10.177,29.316,10.177s22.857-3.805,29.316-10.177C288.267,218.35,288.298,213.601,285.389,210.653z"/>
	</g>
</g>
<g>
	<g>
		<path d="M223.937,112.226h-24.048c-4.142,0-7.5,3.358-7.5,7.5c0,4.142,3.358,7.5,7.5,7.5h24.048c4.142,0,7.5-3.358,7.5-7.5
			C231.437,115.584,228.079,112.226,223.937,112.226z"/>
	</g>
</g>
<g>
	<g>
		<path d="M312.114,112.226h-24.048c-4.142,0-7.5,3.358-7.5,7.5c0,4.142,3.358,7.5,7.5,7.5h24.048c4.142,0,7.5-3.358,7.5-7.5
			C319.614,115.584,316.256,112.226,312.114,112.226z"/>
	</g>
</g>
<g>
</g>
<g>
</g>
<g>
</g>
<g>
</g>
<g>
</g>
<g>
</g>
<g>
</g>
<g>
</g>
<g>
</g>
<g>
</g>
<g>
</g>
<g>
</g>
<g>
</g>
<g>
</g>
<g>
</g>
</svg>
