<?xml version="1.0" encoding="iso-8859-1"?>
<!-- Generator: Adobe Illustrator 19.0.0, SVG Export Plug-In . SVG Version: 6.00 Build 0)  -->
<svg version="1.1" id="Capa_1" xmlns="http://www.w3.org/2000/svg" xmlns:xlink="http://www.w3.org/1999/xlink" x="0px" y="0px"
	 viewBox="0 0 512 512" style="enable-background:new 0 0 512 512;" xml:space="preserve">
<g>
	<g>
		<path d="M207.903,176.354c-4.143,0-7.5,3.358-7.5,7.5v8.016c0,4.142,3.357,7.5,7.5,7.5s7.5-3.358,7.5-7.5v-8.016
			C215.403,179.712,212.046,176.354,207.903,176.354z"/>
	</g>
</g>
<g>
	<g>
		<path d="M304.097,176.354c-4.143,0-7.5,3.358-7.5,7.5v8.016c0,4.142,3.357,7.5,7.5,7.5s7.5-3.358,7.5-7.5v-8.016
			C311.597,179.712,308.239,176.354,304.097,176.354z"/>
	</g>
</g>
<g>
	<g>
		<path d="M285.386,250.732c-2.91-2.951-7.659-2.98-10.606-0.071c-2.737,2.701-9.298,5.854-18.78,5.854
			c-9.482,0-16.043-3.154-18.78-5.854c-2.946-2.909-7.695-2.879-10.606,0.071c-2.909,2.948-2.877,7.697,0.071,10.606
			c6.458,6.373,17.417,10.178,29.315,10.178c11.898,0,22.857-3.805,29.315-10.178C288.263,258.429,288.295,253.68,285.386,250.732z"
			/>
	</g>
</g>
<g>
	<g>
		<path d="M416.268,358.983c3.006-8.937,5.097-25.087-8.195-43.474c-8.925-12.347-9.067-19.676-9.352-34.279
			c-0.027-1.429-0.057-2.908-0.095-4.444c-0.541-21.448-6.906-31.407-12.521-40.194c-2.906-4.548-5.497-8.613-7.269-14.216
			c11.079-3.029,19.663-12.351,20.797-23.684c0.778-7.771-1.764-15.53-6.974-21.288c-2.522-2.787-5.568-4.992-8.918-6.534v-29.556
			c4.775-2.649,8.017-7.738,8.017-13.574V95.677c0-8.556-6.961-15.516-15.517-15.516h-2.423
			c-7.103-21.89-21.612-41.571-41.358-55.88C310.542,8.396,284.103,0,256,0c-28.103,0-54.542,8.396-76.461,24.281
			c-19.746,14.309-34.254,33.991-41.358,55.88h-2.423c-8.556,0-15.517,6.96-15.517,15.516v32.064c0,5.836,3.242,10.925,8.017,13.574
			v29.889c-8.631,4.115-14.93,12.266-15.892,21.859c-0.778,7.771,1.764,15.531,6.975,21.289c3.691,4.08,8.504,6.92,13.755,8.235
			c-1.77,5.494-4.331,9.515-7.201,14.005c-5.615,8.787-11.98,18.746-12.521,40.194c-0.038,1.537-0.067,3.015-0.095,4.444
			c-0.284,14.603-0.427,21.932-9.352,34.279c-13.292,18.387-11.202,34.537-8.195,43.474c-23.342,7.007-39.619,28.854-39.619,53.246
			v92.27c0,4.142,3.357,7.5,7.5,7.5s7.5-3.358,7.5-7.5v-92.27c0-17.885,11.983-33.901,29.142-38.947l28.004-8.236v139.453
			c0,4.142,3.357,7.5,7.5,7.5s7.5-3.358,7.5-7.5V360.634l23.192-6.821c0.59,1.563,1.22,3.106,1.888,4.629v146.057
			c0,4.142,3.357,7.5,7.5,7.5s7.5-3.358,7.5-7.5V382.301c17.562,20.495,43.619,33.505,72.661,33.505
			c40.906,0,75.893-25.807,89.549-61.993l23.19,6.821V504.5c0,4.142,3.357,7.5,7.5,7.5s7.5-3.358,7.5-7.5V365.045l28.006,8.237
			c17.158,5.046,29.142,21.062,29.142,38.947v92.27c0,4.142,3.357,7.5,7.5,7.5s7.5-3.358,7.5-7.5v-92.27
			C455.887,387.837,439.609,365.99,416.268,358.983z M135.242,95.677c0-0.285,0.231-0.516,0.517-0.516h176.354
			c4.143,0,7.5-3.358,7.5-7.5c0-4.142-3.357-7.5-7.5-7.5H154.097c6.589-17.027,18.483-32.313,34.243-43.735
			C207.684,22.409,231.08,15,256,15s48.316,7.409,67.659,21.427c15.76,11.421,27.655,26.708,34.243,43.735h-13.728
			c-4.143,0-7.5,3.358-7.5,7.5c0,4.142,3.357,7.5,7.5,7.5h32.066c0.285,0,0.517,0.231,0.517,0.516v32.064
			c0,0.285-0.231,0.516-0.517,0.516H135.759c-0.285,0-0.517-0.231-0.517-0.516V95.677z M368.741,143.258v25.081h-8.532
			c-4.705,0-8.532-3.828-8.532-8.532v-16.549H368.741z M160.323,143.258v16.548c0,4.705-3.827,8.532-8.532,8.532h-8.532v-25.08
			H160.323z M110.087,354.754c-1.943-5.366-3.929-16.727,5.997-30.457c11.675-16.15,11.892-27.318,12.192-42.775
			c0.027-1.401,0.056-2.851,0.094-4.358c0.435-17.27,4.943-24.325,10.165-32.495c2.692-4.213,5.629-8.812,7.918-14.856
			c2.51,12.602,7.184,24.695,13.87,35.766v54.549c0,6.601,0.672,13.048,1.951,19.277L110.087,354.754z M336.677,320.128
			c0,44.486-36.192,80.677-80.677,80.677s-80.677-36.192-80.677-80.677v-72.145c0-9.125,7.424-16.548,16.548-16.548h128.258
			c9.124,0,16.548,7.423,16.548,16.548V320.128z M320.129,216.437H191.871c-12.759,0-23.765,7.618-28.73,18.541
			c-2.541-8.735-3.85-17.841-3.85-27.073c0-4.142-3.357-7.5-7.5-7.5s-7.5,3.358-7.5,7.5v0.516h-4.524
			c-3.536,0-6.928-1.506-9.303-4.131c-2.407-2.662-3.533-6.117-3.171-9.731c0.63-6.292,6.611-11.22,13.617-11.22h10.881
			c12.976,0,23.532-10.557,23.532-23.532v-16.548h161.354v16.548c0,12.976,10.557,23.532,23.532,23.532h12.024
			c3.537,0,6.928,1.506,9.304,4.131c2.406,2.659,3.532,6.115,3.17,9.729c-0.63,6.292-6.61,11.221-13.616,11.221h-3.386v-0.439
			c0-4.141-3.356-7.499-7.497-7.5c-0.001,0-0.002,0-0.003,0c-4.14,0-7.497,3.354-7.5,7.495c-0.006,9.205-1.315,18.285-3.848,26.997
			C343.891,224.053,332.886,216.437,320.129,216.437z M401.894,354.75l-52.169-15.344c1.28-6.229,1.952-12.676,1.952-19.278v-54.553
			c6.685-11.071,11.358-23.165,13.868-35.768c2.289,6.048,5.227,10.648,7.92,14.863c5.222,8.169,9.73,15.225,10.165,32.495
			c0.038,1.507,0.066,2.957,0.094,4.358c0.301,15.457,0.518,26.625,12.192,42.775C405.804,337.976,403.827,349.362,401.894,354.75z"
			/>
	</g>
</g>
<g>
	<g>
		<path d="M336.161,400.808c-4.143,0-7.5,3.358-7.5,7.5v96.191c0,4.142,3.357,7.5,7.5,7.5s7.5-3.358,7.5-7.5v-96.191
			C343.661,404.166,340.304,400.808,336.161,400.808z"/>
	</g>
</g>
<g>
	<g>
		<path d="M223.159,157.845c-1.084-3.998-5.201-6.362-9.2-5.279l-16.032,4.342c-3.998,1.083-6.361,5.202-5.278,9.2
			c0.905,3.342,3.93,5.542,7.234,5.542c0.649,0,1.309-0.085,1.966-0.263l16.032-4.342
			C221.879,165.962,224.242,161.843,223.159,157.845z"/>
	</g>
</g>
<g>
	<g>
		<path d="M314.073,156.909l-16.032-4.342c-3.999-1.081-8.117,1.28-9.2,5.279s1.28,8.117,5.278,9.199l16.032,4.342
			c0.657,0.178,1.316,0.263,1.966,0.263c3.303,0,6.329-2.2,7.234-5.541C320.434,162.111,318.071,157.992,314.073,156.909z"/>
	</g>
</g>
<g>
</g>
<g>
</g>
<g>
</g>
<g>
</g>
<g>
</g>
<g>
</g>
<g>
</g>
<g>
</g>
<g>
</g>
<g>
</g>
<g>
</g>
<g>
</g>
<g>
</g>
<g>
</g>
<g>
</g>
</svg>
