<?xml version="1.0" encoding="iso-8859-1"?>
<!-- Generator: Adobe Illustrator 19.0.0, SVG Export Plug-In . SVG Version: 6.00 Build 0)  -->
<svg version="1.1" id="Capa_1" xmlns="http://www.w3.org/2000/svg" xmlns:xlink="http://www.w3.org/1999/xlink" x="0px" y="0px"
	 viewBox="0 0 512 512" style="enable-background:new 0 0 512 512;" xml:space="preserve">
<g>
	<g>
		<path d="M207.903,176.355c-4.142,0-7.5,3.358-7.5,7.5v8.016c0,4.142,3.358,7.5,7.5,7.5c4.142,0,7.5-3.358,7.5-7.5v-8.016
			C215.403,179.713,212.045,176.355,207.903,176.355z"/>
	</g>
</g>
<g>
	<g>
		<path d="M304.096,176.355c-4.143,0-7.5,3.358-7.5,7.5v8.016c0,4.142,3.357,7.5,7.5,7.5s7.5-3.358,7.5-7.5v-8.016
			C311.596,179.713,308.239,176.355,304.096,176.355z"/>
	</g>
</g>
<g>
	<g>
		<path d="M285.387,234.7c-2.909-2.948-7.656-2.981-10.606-0.071c-2.737,2.701-9.299,5.855-18.781,5.855
			c-9.482,0-16.043-3.154-18.781-5.855c-2.949-2.91-7.698-2.877-10.606,0.071c-2.909,2.949-2.877,7.697,0.071,10.606
			c6.459,6.373,17.418,10.177,29.316,10.177c11.897,0,22.856-3.805,29.316-10.177C288.263,242.397,288.296,237.648,285.387,234.7z"
			/>
	</g>
</g>
<g>
	<g>
		<path d="M410.778,389.909l-11.004-3.884V143.774C399.773,64.497,335.277,0,256,0S112.226,64.497,112.226,143.774v61.457
			c0,57.308,18.762,99.89,34.501,125.521c9.566,15.578,19.124,26.901,25.837,33.978l-71.341,25.179
			c-22.187,7.83-37.093,28.899-37.093,52.427V504.5c0,4.142,3.358,7.5,7.5,7.5c4.142,0,7.5-3.358,7.5-7.5v-62.165
			c0-4.992,0.925-9.83,2.626-14.326l37.925,32.507c5.452,4.673,8.578,11.471,8.578,18.651V504.5c0,4.142,3.358,7.5,7.5,7.5
			c4.142,0,7.5-3.358,7.5-7.5v-25.333c0-11.564-5.036-22.513-13.816-30.04l-39.755-34.075c4.423-4.876,10.048-8.712,16.528-10.999
			l31.671-11.178c19.603,47.513,66.331,79.044,118.114,79.044c28.488,0,55.975-9.466,78.311-26.814
			c10.185,17.714,18.399,35.832,18.399,59.395c0,4.142,3.357,7.5,7.5,7.5s7.5-3.358,7.5-7.5c0-33.365-14.285-56.986-28.101-79.83
			c-14.406-23.82-28.013-46.319-28.013-80.493v-8.016c0-4.142-3.357-7.5-7.5-7.5s-7.5,3.358-7.5,7.5v8.016
			c0,23.851,5.933,42.678,13.987,59.406c-14.924,13.744-34.158,21.271-54.584,21.271c-31.927,0-60.742-18.911-73.641-47.676
			l6.647-2.346c15.789-5.573,26.397-20.566,26.397-37.309v-25.55c12.59,4.928,26.282,7.639,40.597,7.639
			c56.313,0,103.051-41.921,110.632-96.193h4.457c4.912,0,9.587-1.231,13.686-3.386V504.5c0,4.142,3.357,7.5,7.5,7.5
			s7.5-3.358,7.5-7.5v-50.374l30.47-26.117c1.702,4.496,2.626,9.334,2.626,14.326V504.5c0,4.142,3.357,7.5,7.5,7.5
			s7.5-3.358,7.5-7.5v-62.165C447.871,418.808,432.965,397.739,410.778,389.909z M256,439.855c22.899,0,44.534-7.979,61.782-22.62
			c2.864,5.053,5.835,9.977,8.79,14.863C306.604,448.142,281.768,456.92,256,456.92c-45.443,0-86.468-27.514-103.943-69.046
			l16.127-5.692C183.229,416.928,217.725,439.855,256,439.855z M200.404,337.523h-0.001c0,8.942-4.881,17.07-12.483,21.373
			c-12.401-11.944-55.185-58.651-60.204-138.268c3.72,1.811,7.836,2.791,12.05,2.791h5.598c4.855,34.791,25.795,64.501,55.04,81.351
			V337.523z M384.707,197.198c-0.63,6.292-6.612,11.221-13.618,11.221h-3.383v-0.439c0-4.141-3.356-7.499-7.497-7.5
			c-0.001,0-0.002,0-0.003,0c-4.14,0-7.497,3.354-7.5,7.495c-0.04,53.286-43.422,96.638-96.706,96.638
			c-53.326,0-96.71-43.384-96.71-96.709c0-4.142-3.358-7.5-7.5-7.5c-4.142,0-7.5,3.358-7.5,7.5v0.516h-4.524
			c-3.537,0-6.927-1.506-9.303-4.131c-2.407-2.66-3.533-6.115-3.171-9.729c0.631-6.292,6.613-11.221,13.62-11.221h2.861h0.001
			c8.426,0,16.349-3.282,22.307-9.24c5.959-5.958,9.241-13.881,9.241-22.308v-8.016c0-10.343,4.75-19.845,13.033-26.068
			c3.312-2.488,3.979-7.19,1.491-10.501c-2.488-3.311-7.19-3.979-10.501-1.491c-12.089,9.083-19.022,22.956-19.022,38.06v8.016
			c0,4.42-1.721,8.576-4.847,11.702c-3.125,3.125-7.281,4.847-11.701,4.847h-2.862c-4.913,0-9.588,1.231-13.687,3.387v-27.951
			c0-39.683,18.047-75.225,46.359-98.866c17.819,39.501,44.174,73.299,76.621,98.143c33.932,25.98,72.999,40.288,110.004,40.288
			h12.023c3.537,0,6.928,1.505,9.304,4.131C383.943,190.129,385.069,193.584,384.707,197.198z M384.773,171.368
			c-3.846-1.967-8.141-3.029-12.541-3.029H360.21c-33.728,0-69.556-13.21-100.886-37.198
			c-31.284-23.953-56.569-56.847-73.378-95.366C206.122,22.642,230.184,15,256,15c71.007,0,128.774,57.768,128.774,128.774V171.368z
			 M399.773,434.371v-32.439l6.012,2.122c6.479,2.287,12.104,6.123,16.527,10.999L399.773,434.371z"/>
	</g>
</g>
<g>
	<g>
		<path d="M223.035,149.418c-1.31-3.929-5.559-6.052-9.487-4.743l-24.048,8.016c-3.93,1.31-6.053,5.558-4.744,9.487
			c1.048,3.143,3.974,5.13,7.114,5.13c0.786,0,1.586-0.125,2.373-0.387l24.048-8.016
			C222.221,157.595,224.344,153.348,223.035,149.418z"/>
	</g>
</g>
<g>
</g>
<g>
</g>
<g>
</g>
<g>
</g>
<g>
</g>
<g>
</g>
<g>
</g>
<g>
</g>
<g>
</g>
<g>
</g>
<g>
</g>
<g>
</g>
<g>
</g>
<g>
</g>
<g>
</g>
</svg>
