<?xml version="1.0" encoding="iso-8859-1"?>
<!-- Generator: Adobe Illustrator 19.0.0, SVG Export Plug-In . SVG Version: 6.00 Build 0)  -->
<svg version="1.1" id="Capa_1" xmlns="http://www.w3.org/2000/svg" xmlns:xlink="http://www.w3.org/1999/xlink" x="0px" y="0px"
	 viewBox="0 0 512.002 512.002" style="enable-background:new 0 0 512.002 512.002;" xml:space="preserve">
<g>
	<g>
		<path d="M410.999,373.7l-82.911-29.264c-9.821-3.467-16.42-12.793-16.42-23.208v-31.941c35.032-18.85,59.526-54.963,61.815-97.307
			l9.491-175.589c0.329-6.098-2.814-11.67-8.204-14.542c-5.39-2.87-11.77-2.372-16.646,1.304l-37.662,28.384
			c-19.153-12.058-41.382-18.536-64.46-18.536c-22.893,0-45.261,6.507-64.447,18.547L153.88,3.154
			c-4.876-3.676-11.255-4.176-16.646-1.305c-5.391,2.871-8.534,8.443-8.205,14.543l9.491,175.588
			c2.289,42.344,26.783,78.458,61.815,97.307v31.941c0,10.415-6.599,19.741-16.42,23.208L101.005,373.7
			c-22.214,7.839-37.139,28.935-37.139,52.491v78.31c0,4.143,3.357,7.5,7.5,7.5c4.143,0,7.5-3.357,7.5-7.5v-78.31
			c0-17.182,10.869-32.568,27.054-38.317c15.141,24.621,36.21,45.293,61.168,59.922c26.863,15.745,57.608,24.067,88.915,24.067
			c31.45,0,62.318-8.395,89.27-24.276c24.813-14.621,45.75-35.207,60.82-59.71c16.181,5.751,27.047,21.136,27.047,38.315v78.31
			c0,4.143,3.357,7.5,7.5,7.5s7.5-3.357,7.5-7.5v-78.31C448.138,402.634,433.212,381.539,410.999,373.7z M367.152,15.133
			c0.125-0.096,0.27-0.203,0.566-0.045s0.287,0.337,0.278,0.495l-3.488,64.528c-6.33-12.652-14.893-24.223-25.431-34.157
			c-1.919-1.809-3.892-3.543-5.908-5.212L367.152,15.133z M150.004,126.494c1.343-18.292,7.46-36.029,17.703-51.311
			c2.306-3.441,1.386-8.1-2.055-10.406c-3.441-2.307-8.1-1.385-10.406,2.055c-2.871,4.284-5.454,8.74-7.747,13.33l-3.491-64.579
			c-0.009-0.158-0.018-0.337,0.278-0.495c0.298-0.156,0.44-0.049,0.566,0.045l33.981,25.609c-0.175,0.145-0.353,0.285-0.527,0.431
			c-3.177,2.659-3.597,7.389-0.938,10.565c2.66,3.177,7.391,3.596,10.565,0.938C206.946,36.764,231.119,28,256.001,28
			c27.19,0,53.039,10.252,72.787,28.868c19.474,18.358,31.262,43.073,33.213,69.619l-2.237,41.38h-16.019
			c0.019-0.504,0.032-1.009,0.032-1.517c0-16.87-13.725-30.595-30.595-30.595H295.15c-15.011,0-27.522,10.869-30.1,25.149
			c-2.749-0.69-5.791-1.066-9.051-1.066c-3.26,0-6.302,0.376-9.051,1.066c-2.578-14.28-15.089-25.149-30.1-25.149h-18.032
			c-16.87,0-30.594,13.725-30.594,30.595c0,0.508,0.013,1.013,0.032,1.517H152.24L150.004,126.494z M328.779,166.351
			c0,11.314-7.665,21.133-18.641,23.876c-0.001,0-0.001,0-0.001,0l-9.976,2.494c-4.988,1.246-10.174,0.147-14.227-3.017
			c-4.054-3.165-6.378-7.929-6.378-13.071v-10.282h0.001c0-8.599,6.996-15.595,15.595-15.595h18.032
			C321.783,150.756,328.779,157.752,328.779,166.351z M232.447,176.632c0,5.143-2.324,9.906-6.378,13.071
			c-4.053,3.164-9.24,4.265-14.227,3.017l-9.977-2.494c-10.976-2.743-18.641-12.562-18.641-23.876
			c0-8.599,6.996-15.595,15.595-15.595h18.032c8.599,0,15.595,6.996,15.595,15.595v10.282H232.447z M153.499,191.17l-0.449-8.303
			h18.776c4.891,10.675,14.418,18.916,26.404,21.912l9.976,2.494c2.566,0.642,5.159,0.957,7.73,0.957
			c6.947,0,13.732-2.305,19.366-6.703c7.698-6.011,12.121-15.054,12.144-24.817c1.183-0.731,4.112-1.871,8.558-1.871
			c4.446,0,7.375,1.14,8.558,1.871c0.023,9.763,4.446,18.806,12.144,24.817c5.635,4.398,12.418,6.703,19.366,6.703
			c2.57,0,5.164-0.315,7.73-0.957l9.975-2.494c11.986-2.996,21.513-11.237,26.405-21.912h18.776l-0.449,8.303
			c-2.943,54.456-47.968,97.112-102.503,97.112S156.443,245.626,153.499,191.17z M256.004,320.392
			c-24.833,0-38.617-6.209-40.666-9.045v-15.3c12.69,4.678,26.392,7.235,40.664,7.235c14.273,0,27.975-2.557,40.666-7.234v15.276
			c-0.265,0.327-0.986,1.061-2.689,2.043c-2.026,1.168-4.798,2.292-8.014,3.251c-3.97,1.185-6.228,5.361-5.044,9.331
			c0.971,3.255,3.954,5.358,7.185,5.358c0.71,0,1.432-0.102,2.146-0.314c2.58-0.77,4.944-1.629,7.084-2.565
			c1.042,5.617,3.278,10.885,6.485,15.475c-4.67,3.427-21.172,8.601-47.818,8.601s-43.148-5.174-47.818-8.601
			c3.207-4.59,5.443-9.858,6.485-15.476c1.486,0.651,3.111,1.28,4.904,1.877c9.842,3.281,22.78,5.088,36.43,5.088
			c4.143,0,7.5-3.357,7.5-7.5S260.147,320.392,256.004,320.392z M337.657,434.664c-22.5,13.258-47.993,20.789-74.154,22.004v-8.36
			c0-4.143-3.357-7.5-7.5-7.5c-4.143,0-7.5,3.357-7.5,7.5v8.36c-26.033-1.209-51.414-8.675-73.83-21.813
			c-21.909-12.841-40.542-30.773-54.256-52.099l68.492-24.174c3.04-1.073,5.885-2.497,8.502-4.213
			c3.654,3.261,9.25,5.988,16.796,8.144c11.266,3.219,26.108,4.991,41.795,4.991s30.53-1.772,41.795-4.991
			c7.546-2.156,13.143-4.882,16.796-8.144c2.617,1.716,5.463,3.14,8.502,4.213l68.489,24.173
			C377.94,403.974,359.433,421.833,337.657,434.664z"/>
	</g>
</g>
<g>
	<g>
		<path d="M285.424,226.294c-2.911-2.949-7.66-2.979-10.606-0.071c-2.742,2.706-9.315,5.866-18.815,5.866
			c-9.5,0-16.073-3.16-18.815-5.866c-2.946-2.907-7.695-2.878-10.606,0.071c-2.909,2.948-2.877,7.697,0.071,10.606
			c6.466,6.38,17.438,10.188,29.351,10.188c11.913,0,22.883-3.808,29.349-10.188C288.301,233.991,288.333,229.242,285.424,226.294z"
			/>
	</g>
</g>
<g>
	<g>
		<path d="M207.836,159.839c-4.143,0-7.5,3.357-7.5,7.5v8.028c0,4.143,3.357,7.5,7.5,7.5s7.5-3.357,7.5-7.5v-8.028
			C215.336,163.197,211.979,159.839,207.836,159.839z"/>
	</g>
</g>
<g>
	<g>
		<path d="M304.168,159.84c-4.143,0-7.5,3.357-7.5,7.5v8.028c0,4.142,3.358,7.5,7.5,7.5c4.143,0,7.5-3.357,7.5-7.5v-8.028
			C311.668,163.197,308.311,159.84,304.168,159.84z"/>
	</g>
</g>
<g>
</g>
<g>
</g>
<g>
</g>
<g>
</g>
<g>
</g>
<g>
</g>
<g>
</g>
<g>
</g>
<g>
</g>
<g>
</g>
<g>
</g>
<g>
</g>
<g>
</g>
<g>
</g>
<g>
</g>
</svg>
