<?xml version="1.0" encoding="iso-8859-1"?>
<!-- Generator: Adobe Illustrator 19.0.0, SVG Export Plug-In . SVG Version: 6.00 Build 0)  -->
<svg version="1.1" id="Capa_1" xmlns="http://www.w3.org/2000/svg" xmlns:xlink="http://www.w3.org/1999/xlink" x="0px" y="0px"
	 viewBox="0 0 512 512" style="enable-background:new 0 0 512 512;" xml:space="preserve">
<g>
	<g>
		<path d="M410.957,390.85l-58.06-20.492c-0.021-0.398-0.026-0.785-0.049-1.186c-0.565-9.576-6.765-17.798-15.85-20.964
			l-25.222-8.576v-18.829c29.243-16.85,50.174-46.562,55.03-81.351h5.607c15.186,0,27.54-12.354,27.54-27.54
			c0-4.709-1.19-9.145-3.282-13.026c7.398-14.506,11.299-30.702,11.299-47.095c0-55.004-43.051-100.135-97.226-103.486
			c0.673-2.859,1.032-5.775,1.032-8.74C311.776,17.749,294.027,0,272.212,0h-32.064c-21.816,0-39.565,17.749-39.565,39.564
			c0,2.965,0.359,5.881,1.032,8.74c-54.175,3.351-97.226,48.482-97.226,103.486c0,16.384,3.899,32.601,11.296,47.101
			c-2.09,3.879-3.28,8.313-3.28,13.02c0,15.186,12.354,27.54,27.54,27.54h5.607c4.856,34.789,25.787,64.501,55.03,81.351v18.83
			l-25.276,8.595c-9.03,3.147-15.229,11.369-15.795,20.945c-0.021,0.357-0.025,0.702-0.044,1.058l-58.424,20.62
			c-22.187,7.83-37.093,28.899-37.093,52.427V504.5c0,4.143,3.357,7.5,7.5,7.5s7.5-3.357,7.5-7.5v-61.224
			c0-5.175,0.994-10.185,2.817-14.82l38.092,32.65c5.451,4.673,8.578,11.472,8.578,18.651v24.623c0,4.143,3.357,7.5,7.5,7.5
			s7.5-3.357,7.5-7.5v-24.623c0-11.564-5.036-22.514-13.816-30.04l-39.773-34.091c4.37-4.701,9.872-8.404,16.187-10.633
			l53.338-18.825c1.006,23.438,6.804,42.297,12.043,54.856c7.613,18.254,27.033,28.027,46.177,23.245l38.587-9.647l38.586,9.647
			c3.263,0.815,6.531,1.208,9.75,1.208c15.668-0.001,30.111-9.31,36.427-24.453c5.229-12.537,11.015-31.353,12.036-54.732
			l52.986,18.701c6.392,2.256,11.951,6.021,16.346,10.804l-39.574,33.92c-8.78,7.526-13.816,18.476-13.816,30.04v24.623
			c0,4.143,3.357,7.5,7.5,7.5s7.5-3.357,7.5-7.5v-24.623c0-7.18,3.127-13.979,8.578-18.651l37.823-32.419
			c1.766,4.57,2.728,9.499,2.728,14.589V504.5c0,4.143,3.357,7.5,7.5,7.5s7.5-3.357,7.5-7.5v-61.224
			C448.05,419.749,433.144,398.681,410.957,390.85z M240.147,15h32.064c13.545,0,24.564,11.02,24.564,24.564
			c0,2.904-0.559,5.76-1.639,8.532H217.22c-1.08-2.772-1.639-5.628-1.639-8.532C215.582,26.02,226.602,15,240.147,15z
			 M119.386,151.791c0.003-48.906,39.791-88.694,88.696-88.694h96.194c48.905,0,88.693,39.788,88.693,88.693
			c0,12.379-2.595,24.623-7.552,35.853c-3.876-2.085-8.304-3.271-13.005-3.271h-12.538v-16.548c0-30.656-24.94-55.597-55.597-55.597
			c-4.143,0-7.5,3.357-7.5,7.5s3.357,7.5,7.5,7.5c22.385,0,40.597,18.212,40.597,40.597v16.548h-8.74
			c-7.21-9.78-18.804-16.139-31.859-16.139c-16.312,0-30.346,9.923-36.392,24.049h-23.41c-6.046-14.125-20.081-24.049-36.393-24.049
			c-13.055,0-24.649,6.359-31.859,16.139h-8.735v-16.548c0-22.385,18.212-40.597,40.597-40.597h64.129c4.143,0,7.5-3.357,7.5-7.5
			s-3.357-7.5-7.5-7.5h-64.129c-30.656,0-55.597,24.94-55.597,55.597v16.548h-12.543c-4.699,0-9.125,1.185-13,3.269
			C121.988,176.413,119.386,164.161,119.386,151.791z M328.84,207.796c0,13.544-11.02,24.564-24.564,24.564
			s-24.564-11.02-24.564-24.564c0-13.544,11.019-24.564,24.564-24.564C317.821,183.232,328.84,194.252,328.84,207.796z
			 M232.647,207.796c0,13.544-11.02,24.564-24.565,24.564c-13.545,0-24.564-11.02-24.564-24.564
			c0-13.544,11.019-24.564,24.564-24.564C221.628,183.232,232.647,194.252,232.647,207.796z M159.47,223.936
			c0-4.143-3.357-7.5-7.5-7.5s-7.5,3.357-7.5,7.5c0,0.172,0.006,0.344,0.007,0.516h-4.531c-6.915,0-12.54-5.625-12.54-12.54
			c0-6.915,5.625-12.54,12.54-12.54h29.484c-0.592,2.717-0.912,5.534-0.912,8.426c0,21.816,17.748,39.564,39.564,39.564
			c21.816,0,39.565-17.748,39.565-39.564c0-0.173-0.011-0.343-0.013-0.516h17.091c-0.002,0.172-0.013,0.343-0.013,0.516
			c0,21.816,17.748,39.564,39.564,39.564c21.816,0,39.564-17.748,39.564-39.564c0-2.892-0.32-5.709-0.912-8.426h29.484
			c6.915,0,12.54,5.625,12.54,12.54c0,6.915-5.625,12.54-12.54,12.54h-4.531c0.001-0.172,0.007-0.343,0.007-0.516
			c0-4.143-3.357-7.5-7.5-7.5s-7.5,3.357-7.5,7.5c0,53.326-43.384,96.71-96.71,96.71C202.854,320.646,159.47,277.262,159.47,223.936
			z M327.099,435.252c-4.736,11.354-16.805,17.442-28.694,14.466L258,439.616c-1.195-0.299-2.443-0.299-3.639,0l-40.406,10.102
			c-11.893,2.977-23.959-3.111-28.694-14.466c-5.843-14.01-12.455-36.693-10.774-65.197c0.207-3.509,2.467-6.517,5.704-7.646
			l20.393-6.934v13.315c0,30.656,24.941,55.597,55.598,55.597c10.975,0,21.592-3.195,30.703-9.241
			c3.451-2.29,4.394-6.944,2.103-10.396c-2.29-3.451-6.944-4.395-10.396-2.103c-6.646,4.409-14.395,6.739-22.41,6.739
			c-22.386,0-40.598-18.212-40.598-40.597v-40.783c12.59,4.928,26.283,7.638,40.598,7.638c14.314,0,28.007-2.71,40.597-7.638v40.782
			c0,4.654-0.779,9.214-2.315,13.553c-1.383,3.904,0.661,8.191,4.565,9.573c0.828,0.294,1.673,0.433,2.504,0.433
			c3.088,0,5.98-1.922,7.069-4.998c2.108-5.951,3.177-12.196,3.177-18.561v-13.315l20.339,6.916
			c3.291,1.147,5.551,4.155,5.758,7.664C339.554,398.559,332.941,421.242,327.099,435.252z"/>
	</g>
</g>
<g>
	<g>
		<path d="M285.565,259.457c-2.909-2.948-7.657-2.979-10.606-0.069c-2.736,2.7-9.297,5.854-18.779,5.854
			c-9.482,0-16.044-3.154-18.781-5.855c-2.946-2.907-7.695-2.879-10.606,0.071c-2.909,2.948-2.877,7.697,0.071,10.606
			c6.459,6.373,17.419,10.178,29.316,10.178c11.898,0,22.857-3.804,29.316-10.179C288.444,267.154,288.475,262.405,285.565,259.457z
			"/>
	</g>
</g>
<g>
	<g>
		<path d="M208.082,192.977c-4.143,0-7.5,3.357-7.5,7.5v8.017c0,4.143,3.357,7.5,7.5,7.5s7.5-3.357,7.5-7.5v-8.017
			C215.582,196.334,212.225,192.977,208.082,192.977z"/>
	</g>
</g>
<g>
	<g>
		<path d="M304.276,192.977c-4.143,0-7.5,3.357-7.5,7.5v8.017c0,4.143,3.358,7.5,7.5,7.5c4.143,0,7.5-3.357,7.5-7.5v-8.017
			C311.776,196.334,308.419,192.977,304.276,192.977z"/>
	</g>
</g>
<g>
	<g>
		<path d="M256.26,480.968h-0.08c-4.143,0-7.46,3.357-7.46,7.5s3.397,7.5,7.54,7.5c4.143,0,7.5-3.357,7.5-7.5
			S260.402,480.968,256.26,480.968z"/>
	</g>
</g>
<g>
</g>
<g>
</g>
<g>
</g>
<g>
</g>
<g>
</g>
<g>
</g>
<g>
</g>
<g>
</g>
<g>
</g>
<g>
</g>
<g>
</g>
<g>
</g>
<g>
</g>
<g>
</g>
<g>
</g>
</svg>
