<?xml version="1.0" encoding="iso-8859-1"?>
<!-- Generator: Adobe Illustrator 19.0.0, SVG Export Plug-In . SVG Version: 6.00 Build 0)  -->
<svg version="1.1" id="Capa_1" xmlns="http://www.w3.org/2000/svg" xmlns:xlink="http://www.w3.org/1999/xlink" x="0px" y="0px"
	 viewBox="0 0 512 512" style="enable-background:new 0 0 512 512;" xml:space="preserve">
<g>
	<g>
		<path d="M207.903,177.052c-4.143,0-7.5,3.358-7.5,7.5v8.016c0,4.142,3.357,7.5,7.5,7.5s7.5-3.358,7.5-7.5v-8.016
			C215.403,180.41,212.046,177.052,207.903,177.052z"/>
	</g>
</g>
<g>
	<g>
		<path d="M304.097,177.052c-4.143,0-7.5,3.358-7.5,7.5v8.016c0,4.142,3.357,7.5,7.5,7.5c4.143,0,7.5-3.358,7.5-7.5v-8.016
			C311.597,180.41,308.24,177.052,304.097,177.052z"/>
	</g>
</g>
<g>
	<g>
		<path d="M285.387,235.398c-2.908-2.95-7.657-2.981-10.605-0.072c-2.738,2.701-9.301,5.855-18.782,5.855
			s-16.044-3.154-18.782-5.855c-2.949-2.909-7.698-2.876-10.605,0.072c-2.909,2.949-2.877,7.697,0.072,10.606
			c6.459,6.372,17.419,10.177,29.315,10.177s22.856-3.804,29.315-10.177C288.264,243.095,288.296,238.346,285.387,235.398z"/>
	</g>
</g>
<g>
	<g>
		<path d="M352.702,207.903C352.702,207.779,352.696,208.026,352.702,207.903L352.702,207.903z"/>
	</g>
</g>
<g>
	<g>
		<path d="M410.778,381.893l-11.004-3.884V143.774C399.774,64.497,335.277,0,256,0S112.226,64.497,112.226,143.774v234.235
			l-11.004,3.884c-22.187,7.83-37.093,28.899-37.093,52.427v70.18c0,4.142,3.357,7.5,7.5,7.5c4.143,0,7.5-3.358,7.5-7.5v-70.181
			c0-4.992,0.925-9.83,2.626-14.326L119.68,452.5c5.451,4.673,8.578,11.471,8.578,18.651V504.5c0,4.142,3.357,7.5,7.5,7.5
			s7.5-3.358,7.5-7.5v-33.349c0-11.565-5.036-22.514-13.816-30.04l-39.755-34.076c4.422-4.876,10.048-8.712,16.527-10.999
			l41.885-14.783l0.636,4.769c3.467,26.001,16.245,49.837,35.981,67.117c19.736,17.279,45.053,26.795,71.284,26.795
			c26.231,0,51.548-9.516,71.284-26.795c19.736-17.28,32.515-41.116,35.981-67.117l0.636-4.769l41.885,14.783
			c6.479,2.287,12.104,6.123,16.527,10.999l-39.754,34.076c-8.78,7.526-13.816,18.475-13.816,30.04V504.5c0,4.142,3.357,7.5,7.5,7.5
			s7.5-3.358,7.5-7.5v-33.349c0-7.18,3.127-13.978,8.578-18.651l37.924-32.507c1.702,4.496,2.626,9.334,2.626,14.326V504.5
			c0,4.142,3.357,7.5,7.5,7.5s7.5-3.358,7.5-7.5v-70.181C447.871,410.792,432.965,389.723,410.778,381.893z M348.396,384.041
			c-6.148,46.118-45.87,80.895-92.396,80.895s-86.248-34.777-92.396-80.896l-1.052-7.887l10.516-3.712l23.673,53.267
			c1.994,4.485,5.879,7.696,10.66,8.809c1.188,0.277,2.383,0.413,3.566,0.413c3.58,0,7.053-1.244,9.886-3.604L256,402.037
			l35.146,29.288c2.833,2.361,6.306,3.605,9.886,3.605c1.184,0,2.379-0.136,3.566-0.413c4.781-1.113,8.666-4.324,10.66-8.81
			l11.365-25.573c1.683-3.785-0.022-8.217-3.808-9.899c-3.786-1.681-8.218,0.022-9.899,3.808l-11.365,25.572
			c-0.031,0.071-0.104,0.235-0.355,0.294c-0.247,0.057-0.387-0.057-0.446-0.106l-33.64-28.032l44.637-44.637
			c0.2-0.201,0.528-0.202,0.73,0l14.738,14.738l-1.473,3.314c-1.683,3.785,0.022,8.217,3.808,9.899
			c3.384,1.504,7.28,0.295,9.27-2.682l10.627,3.751L348.396,384.041z M244.89,391.771l-33.64,28.032
			c-0.06,0.049-0.199,0.163-0.446,0.106c-0.251-0.059-0.324-0.223-0.355-0.293l-25.664-57.745l14.737-14.737
			c0.202-0.202,0.532-0.199,0.73,0L244.89,391.771z M215.403,341.07v-29.092c12.587,4.926,26.277,7.635,40.589,7.635
			c14.317,0,28.013-2.711,40.604-7.641v29.098L256,381.667L215.403,341.07z M384.774,372.715l-41.437-14.625
			c-0.347-1.176-0.967-2.278-1.873-3.184l-18.381-18.38c-3.156-3.156-7.344-4.649-11.487-4.512v-27.249
			c17.043-9.822,31.263-24.013,41.124-41.032v72.428c0,4.142,3.357,7.5,7.5,7.5s7.5-3.358,7.5-7.5V191.066
			c0-11.726-8.48-21.91-19.727-23.689c-13.251-2.097-47.503-11.915-79.274-57.688c-2.903-4.183-7.661-6.68-12.728-6.679
			c-5.067,0-9.824,2.499-12.727,6.681c-5.039,7.262-10.844,14.455-16.787,20.801c-2.832,3.023-2.677,7.77,0.347,10.601
			c3.024,2.832,7.771,2.675,10.601-0.347c6.526-6.969,12.638-14.54,18.164-22.504c0.084-0.121,0.19-0.232,0.403-0.232
			c0.214,0,0.32,0.111,0.404,0.232c6.621,9.54,17.622,23.552,32.43,36.134c18.067,15.352,37.186,24.71,56.823,27.817
			c4.03,0.638,7.07,4.453,7.07,8.874l-0.019,16.837c0,53.326-43.384,96.709-96.71,96.709c-53.121,0-96.37-43.051-96.702-96.095
			v-17.454c0-4.421,3.04-8.236,7.07-8.874c15.651-2.477,31.077-8.98,45.849-19.33c3.393-2.377,4.216-7.054,1.839-10.446
			c-2.376-3.392-7.054-4.215-10.446-1.839c-12.888,9.03-26.206,14.682-39.585,16.799c-11.246,1.779-19.727,11.964-19.727,23.689
			V336.16c0,4.142,3.357,7.5,7.5,7.5s7.5-3.358,7.5-7.5v-72.383c9.863,17.004,24.078,31.183,41.113,40.996v27.24
			c-4.144-0.137-8.332,1.357-11.488,4.512l-18.38,18.38c-0.906,0.906-1.526,2.008-1.873,3.184l-41.437,14.625v-228.94
			C127.226,72.768,184.993,15,256,15s128.774,57.768,128.774,128.774V372.715z"/>
	</g>
</g>
<g>
</g>
<g>
</g>
<g>
</g>
<g>
</g>
<g>
</g>
<g>
</g>
<g>
</g>
<g>
</g>
<g>
</g>
<g>
</g>
<g>
</g>
<g>
</g>
<g>
</g>
<g>
</g>
<g>
</g>
</svg>
