<?xml version="1.0" encoding="iso-8859-1"?>
<!-- Generator: Adobe Illustrator 19.0.0, SVG Export Plug-In . SVG Version: 6.00 Build 0)  -->
<svg version="1.1" id="Capa_1" xmlns="http://www.w3.org/2000/svg" xmlns:xlink="http://www.w3.org/1999/xlink" x="0px" y="0px"
	 viewBox="0 0 512 512" style="enable-background:new 0 0 512 512;" xml:space="preserve">
<g>
	<g>
		<path d="M207.903,168.338c-4.142,0-7.5,3.358-7.5,7.5v8.016c0,4.142,3.358,7.5,7.5,7.5c4.142,0,7.5-3.358,7.5-7.5v-8.016
			C215.403,171.696,212.045,168.338,207.903,168.338z"/>
	</g>
</g>
<g>
	<g>
		<path d="M304.097,168.338c-4.142,0-7.5,3.358-7.5,7.5v8.016c0,4.142,3.358,7.5,7.5,7.5c4.142,0,7.5-3.358,7.5-7.5v-8.016
			C311.597,171.696,308.239,168.338,304.097,168.338z"/>
	</g>
</g>
<g>
	<g>
		<path d="M285.387,226.683c-2.908-2.948-7.658-2.98-10.606-0.071c-2.737,2.701-9.299,5.855-18.781,5.855
			c-9.482,0-16.043-3.154-18.781-5.855c-2.95-2.91-7.698-2.876-10.606,0.071c-2.909,2.949-2.877,7.698,0.071,10.606
			c6.459,6.373,17.418,10.177,29.316,10.177c11.898,0,22.856-3.805,29.316-10.177C288.264,234.38,288.296,229.631,285.387,226.683z"
			/>
	</g>
</g>
<g>
	<g>
		<path d="M415.978,366.907l-84.486-24.849c-6.994-2.057-11.879-8.585-11.879-15.876v-34.527
			c25.013-17.396,42.617-44.741,47.019-76.253h4.459c14.617,0,27.154-10.861,28.542-24.727c0.778-7.771-1.764-15.531-6.975-21.288
			c-4.294-4.746-10.102-7.819-16.357-8.757l5.856-76.125c10.74-8.731,17.617-22.038,17.617-36.926
			C399.774,21.345,378.429,0,352.193,0H198.604c-20.199,0-39.557,8.589-53.11,23.565c-13.553,14.977-20.173,35.093-18.164,55.19
			l8.206,82.062c-12.207,2.271-21.954,12.101-23.169,24.23c-0.778,7.771,1.764,15.53,6.974,21.289
			c5.214,5.762,12.659,9.066,20.425,9.066h5.598c4.399,31.522,22.003,58.87,47.023,76.264v34.516
			c0,7.291-4.885,13.819-11.879,15.876l-84.486,24.849c-23.498,6.912-39.909,28.844-39.909,53.337v84.254c0,4.142,3.358,7.5,7.5,7.5
			c4.142,0,7.5-3.358,7.5-7.5v-84.254c0-17.885,11.983-33.9,29.142-38.947l28.003-8.236v131.437c0,4.142,3.358,7.5,7.5,7.5
			c4.142,0,7.5-3.358,7.5-7.5V368.65l25.081-7.377v6.952c0,48.336,39.325,87.661,87.661,87.661c15.411,0,30.571-4.058,43.84-11.735
			c3.585-2.074,4.81-6.662,2.736-10.248c-2.075-3.586-6.663-4.809-10.248-2.736c-10.989,6.358-23.551,9.718-36.328,9.718
			c-40.065,0-72.661-32.596-72.661-72.661V356.86l1.402-0.412c13.334-3.922,22.646-16.368,22.646-30.267V300.45
			c14.705,7.137,31.199,11.146,48.613,11.146c17.412,0,33.906-4.012,48.613-11.153v25.74c0,13.898,9.313,26.345,22.646,30.267
			l1.402,0.412v11.364c0,15.87-5.022,30.945-14.525,43.595c-2.488,3.312-1.82,8.013,1.492,10.501
			c1.35,1.014,2.931,1.504,4.499,1.504c2.278,0,4.529-1.034,6.002-2.996c11.469-15.268,17.532-33.458,17.532-52.604v-6.952
			l25.079,7.376V504.5c0,4.142,3.358,7.5,7.5,7.5c4.142,0,7.5-3.358,7.5-7.5V373.061l28.005,8.237
			c17.158,5.046,29.142,21.062,29.142,38.947v84.254c0,4.142,3.358,7.5,7.5,7.5c4.142,0,7.5-3.358,7.5-7.5v-84.254
			C455.887,395.751,439.476,373.819,415.978,366.907z M239.968,64.13h-97.469c1.512-11.262,6.374-21.943,14.117-30.499
			C167.331,21.791,182.635,15,198.604,15h153.589c17.965,0,32.581,14.616,32.581,32.581c0,17.965-14.616,32.581-32.581,32.581
			c-12.973,0-24.704-7.687-29.887-19.583c-1.654-3.798-6.074-5.534-9.872-3.88c-3.797,1.655-5.535,6.074-3.88,9.872
			c0.681,1.564,1.443,3.076,2.274,4.537c-2.792,5.488-8.472,9.054-14.748,9.054c-9.125,0-16.548-7.423-16.548-16.548
			c0-4.079,1.496-7.996,4.212-11.031c2.763-3.087,2.5-7.828-0.586-10.59c-3.088-2.763-7.829-2.5-10.59,0.586
			c-5.182,5.79-8.036,13.26-8.036,21.035c0,17.396,14.152,31.548,31.548,31.548c9.762,0,18.765-4.534,24.646-11.884
			c8.526,7.511,19.643,11.884,31.467,11.884c4.969,0,9.761-0.769,14.268-2.188l-0.864,11.237H144.951l-2.508-25.081h97.525
			c4.142,0,7.5-3.358,7.5-7.5C247.468,67.488,244.11,64.13,239.968,64.13z M364.443,119.209l-3.163,41.113h-1.071
			c-4.705,0-8.532-3.828-8.532-8.532v-32.581H364.443z M160.323,119.209v32.581c0,4.705-3.828,8.532-8.532,8.532h-1.229
			l-4.111-41.113H160.323z M255.999,296.597c-53.325-0.001-96.708-43.385-96.708-96.71c0-4.142-3.358-7.5-7.5-7.5
			c-4.142,0-7.5,3.358-7.5,7.5v0.516h-4.524c-3.537,0-6.927-1.506-9.303-4.131c-2.407-2.66-3.533-6.115-3.171-9.729
			c0.63-6.292,6.611-11.22,13.617-11.22h10.88c12.976,0,23.532-10.557,23.532-23.532V119.21h161.354v32.581
			c0,12.976,10.557,23.532,23.532,23.532h12.024c3.537,0,6.928,1.505,9.303,4.13c2.407,2.66,3.533,6.115,3.171,9.729
			c-0.629,6.292-6.61,11.221-13.616,11.221h-3.385v-0.439c0-4.141-3.356-7.499-7.497-7.5c0,0-0.002,0-0.003,0
			c-4.14,0-7.497,3.354-7.5,7.495C352.666,253.245,309.284,296.597,255.999,296.597z"/>
	</g>
</g>
<g>
	<g>
		<path d="M215.919,144.29h-16.032c-4.142,0-7.5,3.358-7.5,7.5c0,4.142,3.358,7.5,7.5,7.5h16.032c4.142,0,7.5-3.358,7.5-7.5
			C223.419,147.648,220.062,144.29,215.919,144.29z"/>
	</g>
</g>
<g>
	<g>
		<path d="M312.113,144.29h-16.032c-4.142,0-7.5,3.358-7.5,7.5c0,4.142,3.358,7.5,7.5,7.5h16.032c4.142,0,7.5-3.358,7.5-7.5
			C319.613,147.648,316.255,144.29,312.113,144.29z"/>
	</g>
</g>
<g>
</g>
<g>
</g>
<g>
</g>
<g>
</g>
<g>
</g>
<g>
</g>
<g>
</g>
<g>
</g>
<g>
</g>
<g>
</g>
<g>
</g>
<g>
</g>
<g>
</g>
<g>
</g>
<g>
</g>
</svg>
