<?xml version="1.0" encoding="iso-8859-1"?>
<!-- Generator: Adobe Illustrator 19.0.0, SVG Export Plug-In . SVG Version: 6.00 Build 0)  -->
<svg version="1.1" id="Capa_1" xmlns="http://www.w3.org/2000/svg" xmlns:xlink="http://www.w3.org/1999/xlink" x="0px" y="0px"
	 viewBox="0 0 512.001 512.001" style="enable-background:new 0 0 512.001 512.001;" xml:space="preserve">
<g>
	<g>
		<path d="M285.387,274.782c-2.908-2.951-7.657-2.981-10.605-0.072c-2.738,2.7-9.3,5.854-18.782,5.854s-16.043-3.154-18.781-5.854
			c-2.949-2.911-7.698-2.878-10.606,0.071c-2.909,2.949-2.877,7.697,0.071,10.606c6.46,6.373,17.419,10.177,29.316,10.177
			c11.897,0,22.856-3.805,29.315-10.177C288.264,282.479,288.296,277.73,285.387,274.782z"/>
	</g>
</g>
<g>
	<g>
		<path d="M207.903,208.419c-4.142,0-7.5,3.357-7.5,7.5v8.017c0,4.142,3.358,7.5,7.5,7.5c4.142,0,7.5-3.357,7.5-7.5v-8.017
			C215.403,211.776,212.045,208.419,207.903,208.419z"/>
	</g>
</g>
<g>
	<g>
		<path d="M304.097,208.419c-4.143,0-7.5,3.357-7.5,7.5v8.017c0,4.142,3.357,7.5,7.5,7.5c4.143,0,7.5-3.357,7.5-7.5v-8.017
			C311.597,211.776,308.24,208.419,304.097,208.419z"/>
	</g>
</g>
<g>
	<g>
		<path d="M410.778,405.94l-85.473-30.166c-3.404-1.202-5.692-4.436-5.692-8.046V348.04c5.135,2.366,10.771,3.637,16.547,3.637
			c21.816,0,39.565-17.749,39.565-39.564c0-0.993-0.045-1.995-0.138-3.034c5.225-5.774,8.153-13.23,8.153-21.015
			c0-12.219-7.005-23.149-17.776-28.368c0.25-1.395,0.465-2.801,0.662-4.213h5.607c15.186,0,27.54-12.354,27.54-27.54
			c0-11.079-6.579-20.644-16.032-25.011v-89.975c14.349-8.203,24.048-23.649,24.048-41.328c0-26.235-21.345-47.58-47.58-47.58
			h-36.321C312.943,9.246,295.452,0,276.04,0h-40.081c-19.412,0-36.903,9.246-47.848,24.049H151.79
			c-26.236,0-47.581,21.345-47.581,47.58c0,17.679,9.699,33.126,24.049,41.329v89.975c-9.454,4.367-16.033,13.932-16.033,25.011
			c0,15.186,12.354,27.54,27.541,27.54h5.607c0.197,1.412,0.412,2.818,0.662,4.213c-10.771,5.219-17.776,16.147-17.776,28.368
			c0,7.783,2.93,15.24,8.153,21.015c-0.092,1.04-0.137,2.041-0.137,3.034c0,21.815,17.749,39.564,39.564,39.564
			c5.776,0,11.412-1.272,16.548-3.637v19.688c0,3.61-2.288,6.844-5.693,8.046l-85.472,30.166
			c-22.187,7.83-37.093,28.899-37.093,52.427V504.5c0,4.143,3.358,7.5,7.5,7.5c4.142,0,7.5-3.357,7.5-7.5v-46.133
			c0-4.992,0.925-9.83,2.626-14.326l37.925,32.508c5.451,4.672,8.578,11.47,8.578,18.65v9.301c0,4.143,3.358,7.5,7.5,7.5
			c4.142,0,7.5-3.357,7.5-7.5v-9.301c0-11.565-5.036-22.515-13.816-30.039l-39.755-34.076c4.423-4.876,10.048-8.712,16.528-10.999
			l61.794-21.809c16.227,20.523,50.058,33.563,88.038,33.563c14.047,0,27.554-1.808,39.825-5.12l1.547,1.547
			c4.64,4.641,7.195,10.81,7.195,17.371V504.5c0,4.143,3.357,7.5,7.5,7.5s7.5-3.357,7.5-7.5v-58.863
			c0-8.865-2.906-17.279-8.251-24.175c13.796-5.744,25.152-13.652,32.692-23.164l61.732,21.787
			c6.479,2.287,12.104,6.123,16.527,10.999l-39.753,34.076c-8.781,7.525-13.817,18.475-13.817,30.04v9.301
			c0,4.143,3.357,7.5,7.5,7.5s7.5-3.357,7.5-7.5V495.2c0-7.181,3.126-13.979,8.578-18.65l37.924-32.508
			c1.702,4.496,2.626,9.334,2.626,14.326V504.5c0,4.143,3.357,7.5,7.5,7.5s7.5-3.357,7.5-7.5v-46.133
			C447.871,434.84,432.965,413.771,410.778,405.94z M368.741,288.064c0,4.789-2.165,9.366-5.94,12.56
			c-2.049,1.733-3.016,4.431-2.535,7.071c0.313,1.721,0.46,3.125,0.46,4.418c0,13.545-11.02,24.564-24.565,24.564
			c-5.725,0-11.234-2.003-15.601-5.592c19.277-13.698,34.033-33.355,41.575-56.259C366.217,277.892,368.741,282.747,368.741,288.064
			z M119.209,71.629c0-17.965,14.616-32.58,32.581-32.58h28.264c-0.804,2.205-1.495,4.472-2.047,6.806
			c-0.954,4.03,1.541,8.071,5.571,9.025c0.581,0.137,1.162,0.203,1.733,0.203c3.397-0.001,6.476-2.325,7.292-5.775
			C197.383,29.108,215.212,15,235.959,15h40.081c20.748,0,38.577,14.108,43.356,34.309c0.954,4.031,4.996,6.522,9.026,5.571
			c4.03-0.954,6.524-4.995,5.571-9.026c-0.552-2.333-1.243-4.6-2.047-6.805h28.263c17.965,0,32.58,14.615,32.58,32.58
			c0,17.965-14.615,32.581-32.58,32.581c-4.143,0-7.5,3.357-7.5,7.5c0,4.143,3.357,7.5,7.5,7.5c2.914,0,5.762-0.277,8.532-0.781
			v17.846h-24.566c-4.143,0-7.5,3.357-7.5,7.5s3.357,7.5,7.5,7.5h24.566v17.064H143.258v-17.064h168.851c4.143,0,7.5-3.357,7.5-7.5
			s-3.357-7.5-7.5-7.5H143.258v-17.846c2.771,0.504,5.619,0.781,8.532,0.781c4.142,0,7.5-3.357,7.5-7.5c0-4.143-3.358-7.5-7.5-7.5
			C133.825,104.21,119.209,89.594,119.209,71.629z M368.742,183.339v17.064h-0.489c-4.424,0-8.586-1.723-11.719-4.851
			c-3.132-3.126-4.856-7.28-4.856-11.697v-0.516H368.742z M160.323,183.34v0.516c0,4.417-1.725,8.571-4.856,11.697
			c-3.133,3.128-7.294,4.851-11.719,4.851h-0.001h-0.488V183.34H160.323z M175.839,336.677
			c-13.545,0.001-24.564-11.019-24.564-24.564c0-1.293,0.146-2.697,0.459-4.42c0.48-2.641-0.486-5.336-2.535-7.068
			c-3.775-3.194-5.94-7.772-5.94-12.561c0-5.317,2.525-10.173,6.608-13.238c7.542,22.904,22.298,42.561,41.574,56.259
			C187.073,334.674,181.565,336.677,175.839,336.677z M159.29,239.967c0-4.143-3.358-7.5-7.5-7.5c-4.142,0-7.5,3.357-7.5,7.5
			c0,0.172,0.006,0.344,0.007,0.516h-4.531v0c-6.915,0-12.541-5.625-12.541-12.54s5.625-12.54,12.541-12.54h3.98
			c0.001,0,0.001,0,0.002,0c8.425,0,16.351-3.28,22.316-9.235c5.97-5.961,9.258-13.885,9.258-22.313v-0.517h161.355v0.517
			c0,8.428,3.288,16.352,9.258,22.313c5.966,5.956,13.893,9.236,22.318,9.235h3.98c6.915,0,12.54,5.625,12.54,12.54
			s-5.625,12.54-12.54,12.54h-4.531c0.001-0.172,0.007-0.343,0.007-0.516c0-4.143-3.357-7.5-7.5-7.5s-7.5,3.357-7.5,7.5
			c0,53.326-43.384,96.71-96.71,96.71C202.673,336.677,159.29,293.293,159.29,239.967z M256.046,416.839
			c-30.406,0-58.226-9.378-72.785-23.946l8.426-2.974c7.057-2.491,12.372-8.146,14.579-15.029c2.47,0.911,4.958,1.766,7.46,2.535
			c0.734,0.225,1.475,0.332,2.205,0.332c3.208,0,6.176-2.074,7.167-5.3c1.216-3.96-1.008-8.155-4.967-9.372
			c-3.62-1.111-7.215-2.405-10.743-3.844v-18.708c14.705,7.137,31.199,11.145,48.613,11.145s33.908-4.008,48.613-11.145v18.709
			c-15.416,6.3-31.744,9.5-48.613,9.5c-2.526,0-5.079-0.074-7.587-0.22c-4.125-0.246-7.681,2.917-7.922,7.052
			c-0.24,4.136,2.917,7.683,7.052,7.923c2.797,0.163,5.643,0.245,8.458,0.245c17.181,0,33.864-2.978,49.737-8.844
			c2.208,6.879,7.523,12.531,14.577,15.021l8.48,2.993C314.202,407.452,286.309,416.839,256.046,416.839z"/>
	</g>
</g>
<g>
</g>
<g>
</g>
<g>
</g>
<g>
</g>
<g>
</g>
<g>
</g>
<g>
</g>
<g>
</g>
<g>
</g>
<g>
</g>
<g>
</g>
<g>
</g>
<g>
</g>
<g>
</g>
<g>
</g>
</svg>
