<?xml version="1.0" encoding="iso-8859-1"?>
<!-- Generator: Adobe Illustrator 19.0.0, SVG Export Plug-In . SVG Version: 6.00 Build 0)  -->
<svg version="1.1" id="Capa_1" xmlns="http://www.w3.org/2000/svg" xmlns:xlink="http://www.w3.org/1999/xlink" x="0px" y="0px"
	 viewBox="0 0 512 512" style="enable-background:new 0 0 512 512;" xml:space="preserve">
<g>
	<g>
		<path d="M207.903,177.052c-4.143,0-7.5,3.358-7.5,7.5v8.016c0,4.142,3.357,7.5,7.5,7.5s7.5-3.358,7.5-7.5v-8.016
			C215.403,180.41,212.046,177.052,207.903,177.052z"/>
	</g>
</g>
<g>
	<g>
		<path d="M304.097,177.052c-4.143,0-7.5,3.358-7.5,7.5v8.016c0,4.142,3.357,7.5,7.5,7.5s7.5-3.358,7.5-7.5v-8.016
			C311.597,180.41,308.239,177.052,304.097,177.052z"/>
	</g>
</g>
<g>
	<g>
		<path d="M410.778,389.909l-82.793-29.221c-9.803-3.46-16.389-12.769-16.389-23.165v-23.599
			c10.384,3.775,21.298,5.689,32.584,5.689c52.757,0,95.677-42.92,95.677-95.677c0-31.087-14.912-59.889-40.083-77.865v-2.296
			C399.774,64.497,335.277,0,256,0S112.226,64.497,112.226,143.774v2.298c-25.169,17.977-40.08,46.778-40.08,77.864
			c0,52.757,42.921,95.677,95.677,95.677c11.285,0,22.198-1.913,32.581-5.688v23.598c0,10.396-6.586,19.705-16.389,23.165
			l-82.793,29.221c-22.187,7.83-37.093,28.899-37.093,52.427V504.5c0,4.142,3.357,7.5,7.5,7.5s7.5-3.358,7.5-7.5v-8.532h353.742
			v8.532c0,4.142,3.357,7.5,7.5,7.5s7.5-3.358,7.5-7.5v-62.165C447.871,418.808,432.965,397.739,410.778,389.909z M405.786,404.053
			c10.37,3.66,18.556,11.285,23.109,20.802H322.849c10.191-12.001,17.231-26.779,19.763-43.098L405.786,404.053z M399.757,196.19
			c0.004-0.104,0.016-0.206,0.016-0.311V165.46c15.908,15.096,25.084,36.084,25.084,58.476c0,44.486-36.191,80.677-80.677,80.677
			c-8.874,0-17.475-1.397-25.69-4.163c25.611-17.351,43.664-45.044,48.128-77.031h5.606
			C387.306,223.419,399.589,211.232,399.757,196.19z M167.823,304.614c-44.486-0.001-80.677-36.193-80.677-80.678
			c0-22.39,9.176-43.377,25.08-58.472v30.108c-0.001,0.103-0.008,0.205-0.008,0.308c0,15.186,12.354,27.541,27.54,27.541h5.607
			c4.465,31.989,22.521,59.684,48.135,77.035C185.288,303.219,176.692,304.614,167.823,304.614z M159.283,207.904
			c0-4.142-3.357-7.5-7.5-7.5s-7.5,3.358-7.5,7.5c0,0.173,0.006,0.344,0.007,0.516h-4.531c-6.889,0-12.494-5.584-12.536-12.463
			c0-0.026,0.004-0.051,0.004-0.077v-0.154c0.084-6.843,5.669-12.386,12.532-12.386c1.797,0,3.064,0,4.009-0.031v0.028
			c53.637,0,96.062-46.498,111.813-66.49c0.051-0.064,0.169-0.215,0.413-0.215c0.244,0,0.362,0.151,0.413,0.215
			c9.598,12.181,29.663,34.914,56.227,50.302c3.585,2.076,8.173,0.855,10.249-2.73c2.077-3.584,0.854-8.173-2.729-10.249
			c-24.4-14.135-43.03-35.267-51.963-46.605c-2.971-3.77-7.416-5.933-12.196-5.933c-4.78,0-9.226,2.163-12.196,5.932
			c-43.214,54.851-84.35,60.772-100.029,60.772c-0.035,0-0.069,0-0.104,0.001c-0.46,0.002-3.906,0.003-3.905,0.002
			c-4.512,0-8.77,1.098-12.532,3.029v-27.594C127.226,72.768,184.993,15,256,15s128.774,57.768,128.774,128.774v27.602
			c-3.766-1.937-8.03-3.037-12.549-3.037c0.002,0-3.437,0-3.902-0.002c-0.035,0-0.07-0.001-0.105-0.001
			c-7.251,0-14.683-1.029-22.089-3.059c-3.997-1.092-8.121,1.256-9.216,5.251c-1.095,3.995,1.256,8.121,5.251,9.216
			c8.697,2.384,17.463,3.592,26.054,3.592v-0.028c0.944,0.031,2.211,0.031,4.008,0.031c6.915,0,12.541,5.625,12.541,12.54
			c0,6.915-5.626,12.541-12.541,12.541h-4.53c0.001-0.172,0.007-0.344,0.007-0.516c0-4.142-3.357-7.5-7.5-7.5s-7.5,3.358-7.5,7.5
			c0,53.326-43.384,96.709-96.71,96.709S159.283,261.229,159.283,207.904z M189.007,374.833
			c15.789-5.573,26.396-20.566,26.396-37.309v-25.545c12.587,4.926,26.277,7.635,40.589,7.635c14.317,0,28.013-2.711,40.604-7.641
			v25.551c0,16.743,10.607,31.736,26.396,37.309l5.177,1.827c-4.198,36.318-35.169,64.227-72.171,64.227
			c-36.902,0-67.971-27.949-72.173-64.227L189.007,374.833z M432.872,480.968H79.129v-38.632c0-0.832,0.033-1.658,0.084-2.48h24.481
			c4.143,0,7.5-3.358,7.5-7.5c0-4.142-3.357-7.5-7.5-7.5H83.105c4.553-9.517,12.739-17.142,23.109-20.802l63.184-22.3
			c2.538,16.311,9.594,31.096,19.808,43.102h-53.448c-4.143,0-7.5,3.358-7.5,7.5c0,4.142,3.357,7.5,7.5,7.5h69.837
			c14.32,10.106,31.745,16.032,50.405,16.032c18.719,0,36.158-5.924,50.475-16.032h126.313c0.051,0.823,0.084,1.649,0.084,2.48
			V480.968z"/>
	</g>
</g>
<g>
	<g>
		<path d="M292.072,224.452h-72.145c-4.143,0-7.5,3.358-7.5,7.5c0,21.816,19.547,39.564,43.572,39.564
			c24.025,0,43.572-17.749,43.572-39.564C299.572,227.81,296.215,224.452,292.072,224.452z M256,256.516
			c-12.714,0-23.515-7.176-27.211-17.064h54.422C279.515,249.34,268.714,256.516,256,256.516z"/>
	</g>
</g>
<g>
</g>
<g>
</g>
<g>
</g>
<g>
</g>
<g>
</g>
<g>
</g>
<g>
</g>
<g>
</g>
<g>
</g>
<g>
</g>
<g>
</g>
<g>
</g>
<g>
</g>
<g>
</g>
<g>
</g>
</svg>
