<?xml version="1.0" encoding="iso-8859-1"?>
<!-- Generator: Adobe Illustrator 19.0.0, SVG Export Plug-In . SVG Version: 6.00 Build 0)  -->
<svg version="1.1" id="Capa_1" xmlns="http://www.w3.org/2000/svg" xmlns:xlink="http://www.w3.org/1999/xlink" x="0px" y="0px"
	 viewBox="0 0 512 512" style="enable-background:new 0 0 512 512;" xml:space="preserve">
<g>
	<g>
		<path d="M207.903,168.339c-4.142,0-7.5,3.358-7.5,7.5v8.016c0,4.142,3.358,7.5,7.5,7.5c4.142,0,7.5-3.358,7.5-7.5v-8.016
			C215.403,171.697,212.045,168.339,207.903,168.339z"/>
	</g>
</g>
<g>
	<g>
		<path d="M304.097,168.339c-4.142,0-7.5,3.358-7.5,7.5v8.016c0,4.142,3.358,7.5,7.5,7.5c4.142,0,7.5-3.358,7.5-7.5v-8.016
			C311.597,171.697,308.239,168.339,304.097,168.339z"/>
	</g>
</g>
<g>
	<g>
		<path d="M285.387,226.685c-2.91-2.949-7.659-2.98-10.606-0.071c-2.737,2.701-9.298,5.855-18.781,5.855
			c-9.483,0-16.043-3.154-18.781-5.855c-2.95-2.91-7.698-2.877-10.606,0.071c-2.909,2.948-2.877,7.697,0.071,10.606
			c6.459,6.372,17.418,10.177,29.316,10.177s22.857-3.805,29.316-10.177C288.265,234.382,288.296,229.633,285.387,226.685z"/>
	</g>
</g>
<g>
	<g>
		<path d="M415.978,366.908l-80.557-23.693l9.253-7.792c45.206-38.068,71.133-93.796,71.133-152.896v-22.721
			C415.807,71.689,344.118,0,256,0C167.883,0,96.194,71.689,96.194,159.806v22.721c0,59.099,25.927,114.828,71.132,152.896
			l9.253,7.792l-80.557,23.693c-23.498,6.912-39.909,28.845-39.909,53.338V504.5c0,4.142,3.358,7.5,7.5,7.5
			c4.142,0,7.5-3.358,7.5-7.5v-84.254c0-5.486,1.132-10.794,3.191-15.666l45.566,39.871c5.331,4.665,8.389,11.402,8.389,18.486
			V504.5c0,4.142,3.358,7.5,7.5,7.5c4.142,0,7.5-3.358,7.5-7.5v-41.563c0-11.41-4.925-22.262-13.511-29.775l-47.083-41.198
			c4.76-4.908,10.763-8.657,17.59-10.665l84.486-24.849c1.792-0.527,3.503-1.219,5.137-2.037l51.576,43.432
			c-5.466,4.313-8.986,10.99-8.986,18.477v16.032c0,10.354,6.724,19.16,16.032,22.3V504.5c0,4.142,3.358,7.5,7.5,7.5
			c4.142,0,7.5-3.358,7.5-7.5v-49.845c9.308-3.139,16.032-11.946,16.032-22.3v-16.032c0-7.487-3.519-14.164-8.986-18.477
			l51.576-43.432c1.634,0.818,3.345,1.51,5.137,2.037l84.486,24.849c6.827,2.008,12.831,5.757,17.59,10.665l-47.082,41.198
			c-8.586,7.513-13.511,18.366-13.511,29.775V504.5c0,4.142,3.358,7.5,7.5,7.5c4.142,0,7.5-3.358,7.5-7.5v-41.563
			c0-7.084,3.058-13.822,8.389-18.486l45.566-39.87c2.059,4.872,3.19,10.18,3.19,15.666V504.5c0,4.142,3.358,7.5,7.5,7.5
			c4.142,0,7.5-3.358,7.5-7.5v-84.254C455.887,395.753,439.476,373.82,415.978,366.908z M256,15
			c50.334,0,94.745,25.82,120.704,64.904l-5.201,57.209c-55.888-48.815-124.16-55.321-127.209-55.587
			c-2.601-0.227-5.126,0.912-6.678,3.006s-1.905,4.845-0.933,7.264l7.624,18.957c-43.735-6.226-84.1-21.375-108.31-31.909
			C162.051,40.35,206.121,15,256,15z M369.788,155.977l-0.395,4.346h-9.184c-4.705,0-8.532-3.828-8.532-8.532v-11.479
			C357.866,145.018,363.939,150.23,369.788,155.977z M140.91,175.323h10.881c12.976,0,23.532-10.557,23.532-23.532v-18.705
			c0-4.142-3.358-7.5-7.5-7.5c-4.142,0-7.5,3.358-7.5,7.5v18.705c0,4.705-3.828,8.532-8.532,8.532h-8.532V98.132
			c28.085,11.267,68.972,24.754,111.996,29.056c2.606,0.259,5.168-0.861,6.744-2.959c1.576-2.099,1.94-4.868,0.961-7.302
			l-7.457-18.541c17.113,3.254,49.332,11.588,81.175,31.568v21.836c0,12.976,10.557,23.532,23.532,23.532h12.024
			c3.537,0,6.927,1.505,9.303,4.13c2.407,2.66,3.533,6.115,3.171,9.729c-0.629,6.292-6.611,11.221-13.617,11.221h-3.385v-0.439
			c0-4.141-3.356-7.499-7.497-7.5c0,0-0.002,0-0.003,0c-4.14,0-7.497,3.354-7.5,7.495c-0.039,53.286-43.421,96.638-96.706,96.638
			c-53.326,0-96.709-43.384-96.709-96.709c0-4.142-3.358-7.5-7.5-7.5c-4.142,0-7.5,3.358-7.5,7.5v0.516h-4.524
			c-3.537,0-6.927-1.505-9.303-4.131c-2.407-2.66-3.533-6.115-3.171-9.729C127.922,180.251,133.904,175.323,140.91,175.323z
			 M192.386,326.185c0,3.121-0.901,6.099-2.474,8.65l-12.925-10.884c-41.812-35.213-65.793-86.76-65.793-141.424v-22.721
			c0-24.565,6.156-47.717,16.995-68.005c0.024,0.01,0.045,0.02,0.069,0.031v71.358c-8.631,4.115-14.93,12.266-15.892,21.859
			c-0.778,7.771,1.764,15.53,6.974,21.289c5.214,5.762,12.659,9.066,20.425,9.066h5.598c4.399,31.522,22.003,58.87,47.023,76.264
			V326.185z M264.532,432.355c0,4.705-3.828,8.532-8.532,8.532c-4.704,0-8.532-3.828-8.532-8.532v-16.032
			c0-4.705,3.828-8.532,8.532-8.532s8.532,3.828,8.532,8.532V432.355z M322.087,334.833c-1.573-2.551-2.474-5.529-2.474-8.65v-6.055
			c0-4.142-3.358-7.5-7.5-7.5c-4.142,0-7.5,3.358-7.5,7.5v6.055c0,6.727,2.196,13.102,5.959,18.346L256,390.485l-54.572-45.955
			c3.763-5.244,5.959-11.62,5.959-18.346V300.45c14.705,7.137,31.199,11.146,48.613,11.146c56.313,0,103.051-41.921,110.631-96.193
			h4.459c14.617,0,27.155-10.861,28.542-24.727c0.778-7.771-1.765-15.531-6.975-21.288c-2.405-2.657-5.287-4.784-8.454-6.313
			l5.378-59.157c7.225,17.206,11.224,36.087,11.224,55.887v22.722h0.002c0,54.665-23.981,106.211-65.795,141.422L322.087,334.833z"
			/>
	</g>
</g>
<g>
	<g>
		<path d="M215.919,144.291h-16.032c-4.142,0-7.5,3.358-7.5,7.5c0,4.142,3.358,7.5,7.5,7.5h16.032c4.142,0,7.5-3.358,7.5-7.5
			C223.419,147.649,220.061,144.291,215.919,144.291z"/>
	</g>
</g>
<g>
	<g>
		<path d="M312.113,144.291h-16.032c-4.142,0-7.5,3.358-7.5,7.5c0,4.142,3.357,7.5,7.5,7.5h16.032c4.142,0,7.5-3.358,7.5-7.5
			C319.613,147.649,316.255,144.291,312.113,144.291z"/>
	</g>
</g>
<g>
</g>
<g>
</g>
<g>
</g>
<g>
</g>
<g>
</g>
<g>
</g>
<g>
</g>
<g>
</g>
<g>
</g>
<g>
</g>
<g>
</g>
<g>
</g>
<g>
</g>
<g>
</g>
<g>
</g>
</svg>
