<?xml version="1.0" encoding="iso-8859-1"?>
<!-- Generator: Adobe Illustrator 19.0.0, SVG Export Plug-In . SVG Version: 6.00 Build 0)  -->
<svg version="1.1" id="Capa_1" xmlns="http://www.w3.org/2000/svg" xmlns:xlink="http://www.w3.org/1999/xlink" x="0px" y="0px"
	 viewBox="0 0 512 512" style="enable-background:new 0 0 512 512;" xml:space="preserve">
<g>
	<g>
		<path d="M460.62,137.572L260.217,1.297c-2.547-1.73-5.889-1.73-8.436,0L51.378,137.572c-2.722,1.852-3.919,5.262-2.95,8.408
			c0.969,3.146,3.876,5.294,7.168,5.294h72.661v19.931c-8.63,4.115-14.929,12.266-15.891,21.858
			c-0.778,7.771,1.763,15.53,6.973,21.288c5.214,5.763,12.659,9.067,20.427,9.067h5.598c4.398,31.522,22.003,58.87,47.022,76.264
			v26.5c0,7.29-4.885,13.818-11.879,15.876l-78.731,23.156c-26.886,7.907-45.663,33.003-45.663,61.028V504.5
			c0,4.143,3.357,7.5,7.5,7.5s7.5-3.357,7.5-7.5v-78.256c0-21.417,14.35-40.595,34.896-46.638l37.287-10.967
			c7.959,22.206,22.146,41.349,41.246,55.577c18.763,13.977,40.741,21.979,63.958,23.402V504.5c0,4.143,3.357,7.5,7.5,7.5
			s7.5-3.357,7.5-7.5v-56.882c23.468-1.436,45.646-9.587,64.533-23.833c18.55-13.992,32.805-33.411,40.646-55.153l37.312,10.974
			c20.546,6.043,34.896,25.221,34.896,46.638V504.5c0,4.143,3.357,7.5,7.5,7.5s7.5-3.357,7.5-7.5v-78.256
			c0-28.025-18.777-53.121-45.663-61.028l-78.731-23.156c-6.994-2.058-11.879-8.586-11.879-15.876v-26.511
			c25.013-17.396,42.617-44.741,47.019-76.253h4.458c0.002,0,0.001,0,0.003,0c14.615,0,27.152-10.861,28.54-24.727
			c0.778-7.771-1.764-15.529-6.974-21.287c-2.521-2.786-5.568-4.992-8.917-6.533v-19.598h72.661c3.292,0,6.199-2.147,7.168-5.294
			C464.541,142.833,463.342,139.424,460.62,137.572z M323.51,355.052c-3.554,8.889-8.881,17.082-15.623,23.958
			c-2.899,2.958-2.853,7.706,0.104,10.606c1.46,1.431,3.355,2.145,5.251,2.145c1.943,0,3.887-0.751,5.355-2.249
			c8.392-8.56,14.963-18.817,19.247-29.948l16.412,4.827c-6.919,18.679-19.26,35.352-35.258,47.418
			c-18.267,13.778-40.052,21.062-63.001,21.062c-22.722,0-44.333-7.152-62.497-20.684c-16.226-12.088-28.783-28.924-35.77-47.794
			l16.427-4.831c5.904,15.31,16.181,28.95,29.387,38.826c15.237,11.396,33.375,17.419,52.453,17.419
			c12.188,0,23.986-2.456,35.068-7.299c3.795-1.658,5.527-6.08,3.868-9.876c-1.658-3.795-6.082-5.529-9.876-3.868
			c-9.175,4.01-18.952,6.043-29.061,6.043c-30.12,0-56.585-18.167-67.519-45.751c11.296-4.973,18.906-16.319,18.906-28.872v-17.717
			c12.577,6.104,26.463,9.918,41.113,10.894v24.817c0,4.143,3.357,7.5,7.5,7.5s7.5-3.357,7.5-7.5v-24.818
			c14.649-0.977,28.535-4.793,41.113-10.901v17.724C304.612,338.734,312.219,350.078,323.51,355.052z M215.918,136.273
			c-4.143,0-7.5,3.357-7.5,7.5s3.357,7.5,7.5,7.5h120.759v8.532c0,12.976,10.557,23.532,23.532,23.532h12.023
			c3.537,0,6.928,1.506,9.304,4.131c2.406,2.659,3.532,6.114,3.17,9.729c-0.63,6.292-6.609,11.221-13.614,11.221
			c-0.001,0-0.002,0-0.002,0h-3.385v-0.438c0-4.141-3.356-7.498-7.497-7.5c-0.001,0-0.002,0-0.003,0c-4.14,0-7.497,3.354-7.5,7.494
			c-0.037,50.764-39.409,92.509-89.206,96.35v-8.243c0-4.143-3.357-7.5-7.5-7.5s-7.5,3.357-7.5,7.5v8.243
			c-49.835-3.84-89.21-45.619-89.21-96.421c0-4.143-3.357-7.5-7.5-7.5s-7.5,3.357-7.5,7.5v0.516h-4.523
			c-3.537,0-6.929-1.506-9.304-4.131c-2.406-2.66-3.532-6.115-3.17-9.729c0.63-6.292,6.611-11.221,13.617-11.221h10.88
			c12.976,0,23.532-10.557,23.532-23.532v-8.532h8.53c4.143,0,7.5-3.357,7.5-7.5s-3.357-7.5-7.5-7.5H79.963L255.999,16.568
			l176.036,119.705H215.918z M368.741,151.275v17.064h-8.532c-4.705,0-8.532-3.827-8.532-8.532v-8.532H368.741z M143.257,168.338
			v-17.064h17.064v8.532c0,4.705-3.827,8.532-8.532,8.532H143.257z"/>
	</g>
</g>
<g>
	<g>
		<path d="M280.048,224.45h-24.049H231.95c-17.395,0-31.548,14.153-31.548,31.549v16.032c0,4.143,3.357,7.5,7.5,7.5
			s7.5-3.357,7.5-7.5V263.5h16.548c9.628,0,18.257-4.34,24.049-11.161c5.792,6.821,14.42,11.161,24.049,11.161h16.548v8.532
			c0,4.143,3.357,7.5,7.5,7.5s7.5-3.357,7.5-7.5v-16.032C311.596,238.604,297.444,224.45,280.048,224.45z M231.95,248.499h-14.749
			c2.739-5.366,8.322-9.049,14.749-9.049h14.75C243.96,244.817,238.377,248.499,231.95,248.499z M280.048,248.499
			c-6.427,0-12.01-3.683-14.75-9.049h14.75c6.427,0,12.01,3.683,14.749,9.049H280.048z"/>
	</g>
</g>
<g>
	<g>
		<path d="M215.918,176.354h-16.032c-4.143,0-7.5,3.358-7.5,7.5c0,4.143,3.357,7.5,7.5,7.5h16.032c4.143,0,7.5-3.357,7.5-7.5
			S220.061,176.354,215.918,176.354z"/>
	</g>
</g>
<g>
	<g>
		<path d="M312.112,176.354H296.08c-4.143,0-7.5,3.357-7.5,7.5s3.357,7.5,7.5,7.5h16.032c4.143,0,7.5-3.357,7.5-7.5
			S316.255,176.354,312.112,176.354z"/>
	</g>
</g>
<g>
</g>
<g>
</g>
<g>
</g>
<g>
</g>
<g>
</g>
<g>
</g>
<g>
</g>
<g>
</g>
<g>
</g>
<g>
</g>
<g>
</g>
<g>
</g>
<g>
</g>
<g>
</g>
<g>
</g>
</svg>
