<?xml version="1.0" encoding="iso-8859-1"?>
<!-- Generator: Adobe Illustrator 19.0.0, SVG Export Plug-In . SVG Version: 6.00 Build 0)  -->
<svg version="1.1" id="Capa_1" xmlns="http://www.w3.org/2000/svg" xmlns:xlink="http://www.w3.org/1999/xlink" x="0px" y="0px"
	 viewBox="0 0 512 512" style="enable-background:new 0 0 512 512;" xml:space="preserve">
<g>
	<g>
		<path d="M410.958,374.107l-58.06-20.492c-0.021-0.398-0.026-0.785-0.049-1.185c-0.564-9.575-6.765-17.797-15.85-20.965
			l-25.222-8.576V304.77c1.144-0.659,2.271-1.344,3.388-2.042c9.302,3.387,17.535,4.728,24.704,4.728
			c11.693,0,20.585-3.517,26.782-7.321c6.734-4.136,11.189-9.081,13.742-12.503c39.327-0.515,43.533-38.519,43.572-38.917
			c0.203-2.07-0.463-4.132-1.839-5.691c-1.375-1.561-3.337-2.479-5.417-2.537c-0.041-0.001-4.348-0.222-8.556-2.589
			c-5.519-3.104-8.201-8.436-8.201-16.3V111.71c0-44.691-33.445-82.141-77.795-87.111c-2.944-0.33-5.459-1.66-6.729-3.557
			C306.087,7.079,286.151,0,256.178,0c-32.042,0-67.046,11.728-93.634,31.372c-22.873,16.898-50.138,47.335-50.138,96.37v93.855
			c0,17.267-14.009,18.766-16.757,18.889c-2.08,0.058-4.042,0.977-5.417,2.537c-1.376,1.56-2.042,3.621-1.839,5.691
			c0.039,0.398,4.23,38.411,43.572,38.917c2.553,3.422,7.008,8.367,13.742,12.503c10,6.138,27.018,11.517,51.494,2.597
			c1.115,0.696,2.24,1.38,3.381,2.037v18.12l-25.277,8.595c-9.029,3.149-15.229,11.371-15.794,20.946
			c-0.021,0.357-0.025,0.701-0.044,1.057l-58.424,20.62c-22.187,7.831-37.093,28.899-37.093,52.428V504.5c0,4.143,3.357,7.5,7.5,7.5
			s7.5-3.357,7.5-7.5v-77.965c0-5.176,0.994-10.185,2.817-14.82l38.092,32.65c5.451,4.673,8.578,11.471,8.578,18.65v41.365
			c0,4.143,3.357,7.5,7.5,7.5s7.5-3.357,7.5-7.5v-41.365c0-11.563-5.036-22.513-13.816-30.039l-39.774-34.091
			c4.37-4.701,9.872-8.404,16.188-10.633l53.337-18.825c1.006,23.438,6.804,42.297,12.043,54.856
			c7.612,18.253,27.024,28.027,46.177,23.245l38.587-9.647l38.586,9.647c3.263,0.815,6.532,1.208,9.75,1.208
			c15.669-0.001,30.111-9.31,36.427-24.452c5.23-12.537,11.015-31.353,12.036-54.733l52.986,18.701
			c6.392,2.256,11.952,6.022,16.347,10.804l-39.574,33.92c-8.78,7.526-13.816,18.476-13.816,30.039v41.365
			c0,4.143,3.357,7.5,7.5,7.5s7.5-3.357,7.5-7.5v-41.365c0-7.18,3.127-13.978,8.578-18.65l37.823-32.419
			c1.766,4.57,2.728,9.499,2.728,14.589V504.5c0,4.143,3.357,7.5,7.5,7.5s7.5-3.357,7.5-7.5v-77.965
			C448.051,403.007,433.145,381.938,410.958,374.107z M407.424,253.926c-2.841,7.952-10.458,19.743-30.594,18.634
			c-2.889-0.134-5.631,1.339-7.003,3.917c-0.513,0.929-11.684,20.399-39.568,14.963c19.409-17.232,32.791-41.104,36.548-68.021
			h5.607c4.515,0,8.776-1.099,12.54-3.033v1.212C384.954,241.562,396.938,250.628,407.424,253.926z M142.56,276.526
			c-1.371-2.577-4.121-4.109-7.029-3.967c-20.167,1.106-27.762-10.695-30.597-18.633c10.487-3.297,22.473-12.363,22.473-32.329
			v-1.212c3.764,1.934,8.025,3.033,12.54,3.033h5.607c3.757,26.917,17.139,50.789,36.548,68.021
			C154.218,296.876,143.049,277.412,142.56,276.526z M159.471,207.901c0-4.143-3.357-7.5-7.5-7.5s-7.5,3.357-7.5,7.5
			c0,0.172,0.006,0.343,0.007,0.516h-4.531c-6.915,0-12.54-5.625-12.54-12.54s5.625-12.54,12.54-12.54h4.008
			c12.976,0,23.532-10.557,23.532-23.532c0-8.419,4.173-15.456,11.115-21.548l0.537,0.583c1.479,1.605,3.495,2.418,5.518,2.418
			c1.816,0,3.639-0.656,5.08-1.984c2.712-2.499,3.157-6.53,1.243-9.535c14.784-8.283,34.712-14.754,54.302-21.113
			c33.737-10.952,65.604-21.297,73.977-42.229c1.538-3.846-0.332-8.21-4.179-9.749c-3.842-1.537-8.21,0.332-9.749,4.179
			c-5.762,14.405-35.714,24.128-64.68,33.531c-20.784,6.747-42.961,13.948-59.874,24.124l-21.386-23.206
			c-2.807-3.047-7.552-3.24-10.598-0.434c-3.047,2.808-3.24,7.552-0.434,10.598l20.144,21.86
			c-9.841,8.619-16.017,19.137-16.017,32.506c0,4.705-3.827,8.532-8.532,8.532h-4.008c-4.515,0-8.776,1.099-12.54,3.033v-43.63
			c0-42.779,23.955-69.458,44.051-84.304C195.558,25.63,227.229,15,256.178,15c24.311,0,40.489,4.974,46.787,14.385
			c3.749,5.603,10.136,9.291,17.522,10.12c36.752,4.119,64.467,35.16,64.467,72.205v59.662c-3.765-1.934-8.026-3.034-12.542-3.034
			c0,0-2.089,0-4.522,0v-8.532c0-24.932-13.229-35.543-27.233-46.777c-5.41-4.339-11.004-8.826-16.666-14.591
			c-2.901-2.956-7.651-2.997-10.605-0.096c-2.956,2.902-2.998,7.65-0.096,10.605c6.284,6.399,12.499,11.384,17.981,15.782
			c13.481,10.814,21.619,17.342,21.619,35.076v16.032h0.007c0.003,2.545,1.293,5.026,3.634,6.432
			c1.784,1.07,1.793,1.076,9.873,1.069l6.01-0.001c6.915,0,12.54,5.625,12.54,12.54s-5.625,12.54-12.54,12.54h-4.531
			c0.001-0.172,0.007-0.343,0.007-0.516c0-4.143-3.357-7.5-7.5-7.5s-7.5,3.357-7.5,7.5c0,53.326-43.384,96.71-96.71,96.71
			C202.855,304.611,159.471,261.227,159.471,207.901z M327.1,418.51c-4.736,11.354-16.808,17.437-28.694,14.466l-40.405-10.102
			c-1.195-0.299-2.443-0.299-3.639,0l-40.406,10.102c-11.889,2.973-23.959-3.11-28.694-14.467
			c-5.843-14.008-12.455-36.69-10.774-65.195c0.207-3.509,2.467-6.518,5.704-7.646l20.393-6.934v13.315
			c0,30.656,24.941,55.597,55.598,55.597c10.977,0,21.594-3.195,30.704-9.241c3.451-2.29,4.392-6.944,2.102-10.396
			c-2.29-3.451-6.944-4.392-10.396-2.102c-6.644,4.409-14.393,6.739-22.409,6.739c-22.386,0-40.598-18.212-40.598-40.597v-40.073
			c12.59,4.928,26.283,7.638,40.598,7.638s28.007-2.71,40.597-7.638v40.072c0,4.654-0.779,9.215-2.315,13.554
			c-1.383,3.904,0.661,8.19,4.565,9.573c0.828,0.294,1.673,0.433,2.504,0.433c3.088,0,5.98-1.922,7.069-4.998
			c2.108-5.951,3.177-12.196,3.177-18.562v-13.315l20.338,6.916c3.292,1.147,5.552,4.156,5.759,7.665
			C339.555,381.818,332.942,404.501,327.1,418.51z"/>
	</g>
</g>
<g>
	<g>
		<path d="M285.566,242.715c-2.909-2.948-7.658-2.979-10.606-0.069c-2.736,2.7-9.297,5.854-18.779,5.854s-16.044-3.154-18.781-5.855
			c-2.946-2.907-7.695-2.879-10.606,0.071c-2.909,2.948-2.877,7.697,0.071,10.606c6.459,6.373,17.419,10.178,29.316,10.178
			c11.898,0,22.857-3.805,29.316-10.179C288.445,250.412,288.476,245.663,285.566,242.715z"/>
	</g>
</g>
<g>
	<g>
		<path d="M208.083,184.252c-4.143,0-7.5,3.357-7.5,7.5v8.017c0,4.143,3.357,7.5,7.5,7.5s7.5-3.357,7.5-7.5v-8.017
			C215.583,187.609,212.226,184.252,208.083,184.252z"/>
	</g>
</g>
<g>
	<g>
		<path d="M304.277,184.252c-4.143,0-7.5,3.357-7.5,7.5v8.017c0,4.143,3.357,7.5,7.5,7.5s7.5-3.357,7.5-7.5v-8.017
			C311.777,187.609,308.42,184.252,304.277,184.252z"/>
	</g>
</g>
<g>
	<g>
		<path d="M216.1,160.204h-16.032c-4.143,0-7.5,3.357-7.5,7.5s3.357,7.5,7.5,7.5H216.1c4.143,0,7.5-3.357,7.5-7.5
			S220.242,160.204,216.1,160.204z"/>
	</g>
</g>
<g>
	<g>
		<path d="M312.293,160.204h-16.032c-4.143,0-7.5,3.358-7.5,7.5c0,4.143,3.357,7.5,7.5,7.5h16.032c4.143,0,7.5-3.357,7.5-7.5
			S316.436,160.204,312.293,160.204z"/>
	</g>
</g>
<g>
</g>
<g>
</g>
<g>
</g>
<g>
</g>
<g>
</g>
<g>
</g>
<g>
</g>
<g>
</g>
<g>
</g>
<g>
</g>
<g>
</g>
<g>
</g>
<g>
</g>
<g>
</g>
<g>
</g>
</svg>
