<?xml version="1.0" encoding="iso-8859-1"?>
<!-- Generator: Adobe Illustrator 19.0.0, SVG Export Plug-In . SVG Version: 6.00 Build 0)  -->
<svg version="1.1" id="Capa_1" xmlns="http://www.w3.org/2000/svg" xmlns:xlink="http://www.w3.org/1999/xlink" x="0px" y="0px"
	 viewBox="0 0 512 512" style="enable-background:new 0 0 512 512;" xml:space="preserve">
<g>
	<g>
		<path d="M207.902,177.052c-4.142,0-7.5,3.358-7.5,7.5v8.016c0,4.142,3.358,7.5,7.5,7.5c4.142,0,7.5-3.358,7.5-7.5v-8.016
			C215.402,180.41,212.044,177.052,207.902,177.052z"/>
	</g>
</g>
<g>
	<g>
		<path d="M304.096,177.052c-4.142,0-7.5,3.358-7.5,7.5v8.016c0,4.142,3.358,7.5,7.5,7.5c4.142,0,7.5-3.358,7.5-7.5v-8.016
			C311.596,180.41,308.238,177.052,304.096,177.052z"/>
	</g>
</g>
<g>
	<g>
		<path d="M410.777,389.909l-41.142-14.521c5.541-8.978,17.477-29.437,29.522-57.292c27.011-62.462,32.681-111.836,32.681-142.257
			C431.838,78.881,352.957,0,255.999,0h-16.032c-21.021,0-40.807,6.399-55.714,18.02c-6.575,5.126-11.879,11.012-15.815,17.419
			c-25.203,14.87-45.142,35.521-58.549,58.708c-14.407,24.915-21.712,53.076-21.712,83.703c0,57.248,15.454,110.227,28.419,144.589
			c9.385,24.873,18.693,43.589,24.014,53.568l-39.388,13.901c-22.187,7.83-37.093,28.899-37.093,52.427V504.5
			c0,4.142,3.358,7.5,7.5,7.5c4.142,0,7.5-3.358,7.5-7.5v-62.165c0-17.18,10.885-32.564,27.085-38.282l12.237-4.319
			c28.714,39.69,80.937,64.169,137.549,64.169c25.526,0,50.915-5.042,73.422-14.579c3.814-1.617,5.595-6.019,3.979-9.832
			c-1.617-3.814-6.018-5.596-9.832-3.979c-20.671,8.76-44.037,13.39-67.569,13.39c-50.122,0-96.282-20.655-122.72-54.403
			l55.726-19.668c15.789-5.573,26.397-20.566,26.397-37.309v-25.548c12.589,4.928,26.282,7.638,40.597,7.638
			c14.315,0,28.007-2.71,40.597-7.638v25.548c0,16.743,10.608,31.736,26.397,37.309l55.723,19.667
			c-7.693,9.817-17.148,18.63-28.209,26.272c-3.408,2.354-4.262,7.025-1.907,10.434c1.456,2.107,3.796,3.237,6.177,3.237
			c1.47,0,2.955-0.431,4.256-1.33c13.79-9.527,25.372-20.742,34.51-33.38l12.242,4.321c16.201,5.718,27.085,21.102,27.085,38.282
			V504.5c0,4.142,3.358,7.5,7.5,7.5c4.142,0,7.5-3.358,7.5-7.5v-62.165C447.87,418.808,432.963,397.739,410.777,389.909z
			 M200.402,337.523c0,10.396-6.586,19.705-16.389,23.165l-29.069,10.26c-11.525-21.373-51.768-102.506-51.768-193.098
			c0-27.956,6.627-53.591,19.697-76.194c9.56-16.533,22.205-30.86,37.685-42.777c-0.141,1.568-0.237,3.144-0.237,4.734
			c0,12.302,5.644,23.308,14.478,30.57c-18.083,9.185-30.51,27.958-30.51,49.591v24.048c0,0.285-0.231,0.516-0.516,0.516h-4.008
			c-15.186,0-27.54,12.354-27.54,27.54c0,12.254,8.046,22.66,19.131,26.223c-4.993,9.186-11.115,22.725-11.115,33.898
			c0,12.976,10.557,23.532,23.532,23.532c7.899,0,14.896-3.916,19.166-9.904c9.588,14.408,22.425,26.477,37.463,35.141V337.523z
			 M135.241,256c0-7.165,4.329-17.273,8.532-25.263c4.204,7.99,8.532,18.098,8.532,25.263c0,4.705-3.828,8.532-8.532,8.532
			C139.069,264.532,135.241,260.705,135.241,256z M327.985,360.688c-9.803-3.46-16.389-12.769-16.389-23.165V304.77
			c15.038-8.665,27.875-20.734,37.463-35.142c4.27,5.988,11.267,9.904,19.166,9.904c12.976,0,23.532-10.557,23.532-23.532
			c0-11.173-6.122-24.712-11.115-33.898c11.085-3.563,19.131-13.969,19.131-26.223c0-15.186-12.354-27.54-27.541-27.54h-4.008
			c-0.285,0-0.516-0.231-0.516-0.516v-24.048c0-30.656-24.941-55.597-55.597-55.597h-8.015c-4.142,0-7.5,3.358-7.5,7.5
			c0,4.142,3.358,7.5,7.5,7.5h8.015c22.385,0,40.597,18.212,40.597,40.597v24.048c0,8.556,6.96,15.516,15.516,15.516h4.008
			c6.915,0,12.541,5.625,12.541,12.54s-5.625,12.541-12.541,12.541h-4.53c0.001-0.172,0.007-0.344,0.007-0.516
			c0-4.142-3.358-7.5-7.5-7.5c-4.142,0-7.5,3.358-7.5,7.5c0,53.326-43.384,96.709-96.71,96.709s-96.709-43.384-96.709-96.709
			c0-4.142-3.358-7.5-7.5-7.5c-4.142,0-7.5,3.358-7.5,7.5c0,0.173,0.006,0.344,0.007,0.516h-4.531
			c-6.915,0-12.54-5.625-12.54-12.541c0-6.915,5.625-12.54,12.54-12.54h4.008c8.556,0,15.516-6.96,15.516-15.516v-24.048
			c0-22.385,18.211-40.597,40.597-40.597h72.147c4.142,0,7.5-3.358,7.5-7.5c0-4.142-3.358-7.5-7.5-7.5h-72.147
			c-13.545,0-24.564-11.02-24.564-24.564c0-26.805,29-48.613,64.645-48.613h16.031c88.687,0,160.839,72.152,160.839,160.839
			c0,92.977-53.124,180.849-61.706,194.431L327.985,360.688z M359.693,256c0-7.165,4.329-17.273,8.532-25.263
			c4.204,7.99,8.532,18.098,8.532,25.263c0,4.705-3.828,8.532-8.532,8.532C363.521,264.532,359.693,260.705,359.693,256z"/>
	</g>
</g>
<g>
	<g>
		<path d="M285.386,242.716c-2.91-2.948-7.658-2.98-10.606-0.071c-2.737,2.701-9.298,5.855-18.781,5.855
			c-9.483,0-16.043-3.154-18.781-5.855c-2.95-2.91-7.698-2.877-10.606,0.071c-2.909,2.948-2.877,7.697,0.071,10.606
			c6.459,6.373,17.418,10.177,29.316,10.177c11.898,0,22.857-3.805,29.316-10.177C288.264,250.413,288.295,245.664,285.386,242.716z
			"/>
	</g>
</g>
<g>
	<g>
		<path d="M216.183,152.588c-1.773-3.744-6.244-5.34-9.989-3.567l-9.519,4.509c-3.743,1.773-5.34,6.245-3.567,9.989
			c1.282,2.707,3.975,4.291,6.783,4.291c1.076,0,2.169-0.233,3.206-0.724l9.519-4.509
			C216.359,160.804,217.956,156.332,216.183,152.588z"/>
	</g>
</g>
<g>
	<g>
		<path d="M315.323,153.529l-9.519-4.509c-3.743-1.772-8.215-0.177-9.989,3.567c-1.774,3.744-0.176,8.216,3.567,9.989l9.519,4.509
			c1.037,0.491,2.13,0.724,3.206,0.724c2.808,0,5.501-1.585,6.783-4.291C320.663,159.774,319.066,155.302,315.323,153.529z"/>
	</g>
</g>
<g>
</g>
<g>
</g>
<g>
</g>
<g>
</g>
<g>
</g>
<g>
</g>
<g>
</g>
<g>
</g>
<g>
</g>
<g>
</g>
<g>
</g>
<g>
</g>
<g>
</g>
<g>
</g>
<g>
</g>
</svg>
