<?xml version="1.0" encoding="iso-8859-1"?>
<!-- Generator: Adobe Illustrator 19.0.0, SVG Export Plug-In . SVG Version: 6.00 Build 0)  -->
<svg version="1.1" id="Capa_1" xmlns="http://www.w3.org/2000/svg" xmlns:xlink="http://www.w3.org/1999/xlink" x="0px" y="0px"
	 viewBox="0 0 512 512" style="enable-background:new 0 0 512 512;" xml:space="preserve">
<g>
	<g>
		<path d="M207.903,184.371c-4.142,0-7.5,3.358-7.5,7.5v8.016c0,4.142,3.358,7.5,7.5,7.5c4.142,0,7.5-3.358,7.5-7.5v-8.016
			C215.403,187.729,212.044,184.371,207.903,184.371z"/>
	</g>
</g>
<g>
	<g>
		<path d="M304.096,184.371c-4.142,0-7.5,3.358-7.5,7.5v8.016c0,4.142,3.358,7.5,7.5,7.5c4.142,0,7.5-3.358,7.5-7.5v-8.016
			C311.596,187.729,308.239,184.371,304.096,184.371z"/>
	</g>
</g>
<g>
	<g>
		<path d="M285.387,242.717c-2.91-2.948-7.659-2.98-10.606-0.071c-2.737,2.701-9.298,5.855-18.781,5.855
			c-9.483,0-16.043-3.154-18.781-5.855c-2.95-2.91-7.698-2.877-10.606,0.071c-2.909,2.948-2.877,7.697,0.071,10.606
			c6.459,6.372,17.418,10.177,29.316,10.177s22.857-3.805,29.316-10.177C288.265,250.414,288.296,245.665,285.387,242.717z"/>
	</g>
</g>
<g>
	<g>
		<path d="M410.778,389.909l-82.792-29.221c-7.268-2.565-12.761-8.35-15.119-15.406c37.467-7.642,72.465-20.447,90.477-27.617
			c5.907-2.352,10.519-6.876,12.985-12.739c2.445-5.813,2.459-12.205,0.04-17.999c-6.198-14.838-16.595-45.875-16.595-87.041
			v-56.113C399.773,64.497,335.277,0,256,0S112.226,64.497,112.226,143.774v56.113c0,41.166-10.397,72.203-16.594,87.041
			c-2.42,5.793-2.406,12.185,0.039,17.998c2.466,5.864,7.078,10.389,12.985,12.74c18.012,7.17,53.011,19.975,90.477,27.617
			c-2.358,7.055-7.85,12.84-15.119,15.406l-82.792,29.221c-22.187,7.83-37.093,28.899-37.093,52.427V504.5
			c0,4.142,3.358,7.5,7.5,7.5c4.142,0,7.5-3.358,7.5-7.5v-62.165c0-4.992,0.925-9.83,2.626-14.326l37.925,32.507
			c5.452,4.673,8.578,11.471,8.578,18.651V504.5c0,4.142,3.358,7.5,7.5,7.5c4.142,0,7.5-3.358,7.5-7.5v-25.333
			c0-11.564-5.036-22.513-13.816-30.04l-39.755-34.075c4.423-4.876,10.048-8.712,16.528-10.999l50.404-17.79
			c33.991,51.887,69.37,70.459,93.321,76.847c1.975,0.526,4.014,0.793,6.061,0.793s4.086-0.267,6.062-0.793
			c23.929-6.382,59.311-24.949,93.317-76.847l50.406,17.791c6.479,2.287,12.105,6.123,16.528,10.999l-39.755,34.075
			c-8.781,7.526-13.816,18.475-13.816,30.04V504.5c0,4.142,3.358,7.5,7.5,7.5c4.142,0,7.5-3.358,7.5-7.5v-25.333
			c0-7.18,3.126-13.978,8.578-18.651l37.925-32.507c1.702,4.496,2.626,9.334,2.626,14.326V504.5c0,4.142,3.358,7.5,7.5,7.5
			c4.142,0,7.5-3.358,7.5-7.5v-62.165C447.871,418.808,432.964,397.739,410.778,389.909z M114.203,303.728
			c-2.14-0.851-3.811-2.492-4.706-4.618c-0.873-2.076-0.882-4.349-0.025-6.401c8.099-19.389,17.753-51.232,17.753-92.822v-56.113
			C127.226,72.768,184.994,15,256,15s128.774,57.768,128.774,128.774v56.113c0,41.588,9.655,73.432,17.753,92.821
			c0.857,2.052,0.849,4.326-0.025,6.402c-0.895,2.126-2.566,3.767-4.706,4.619c-17.262,6.872-50.526,19.06-86.2,26.504V304.77
			c33.507-19.306,56.113-55.496,56.113-96.866V175.84c0-21.816-17.749-39.564-39.564-39.564h-12.926L277.335,98.39
			c-2.145-2.146-5.371-2.786-8.173-1.626c-2.803,1.161-4.63,3.896-4.63,6.929v32.581h-40.596c-4.142,0-7.5,3.358-7.5,7.5
			c0,4.142,3.358,7.5,7.5,7.5h48.096c4.142,0,7.5-3.358,7.5-7.5V121.8l27.277,27.277c1.406,1.407,3.314,2.197,5.303,2.197h16.032
			c13.545,0,24.564,11.02,24.564,24.564v32.064c0,53.326-43.384,96.709-96.709,96.709s-96.709-43.384-96.709-96.709v-32.064
			c0-13.545,11.02-24.564,24.564-24.564h8.02c4.142,0,7.5-3.358,7.5-7.5c0-4.142-3.358-7.5-7.5-7.5h-8.02
			c-21.816,0-39.564,17.749-39.564,39.564v32.064c0,41.37,22.605,77.56,56.113,96.866v25.464
			C164.73,322.787,131.466,310.6,114.203,303.728z M258.198,448.616c-1.43,0.381-2.968,0.38-4.395,0
			c-20.946-5.587-51.871-21.922-82.595-67.502l16.688-5.89c14.731,21.012,37.312,46.093,65.732,55.535
			c0.768,0.255,1.566,0.382,2.365,0.382c0.804,0,1.608-0.129,2.38-0.388c13.278-4.444,26.571-12.852,39.509-24.991
			c3.021-2.834,3.172-7.581,0.338-10.601c-2.834-3.021-7.581-3.172-10.601-0.338c-10.554,9.901-21.185,16.909-31.639,20.862
			c-22.961-8.586-41.934-29.562-54.864-47.739c8.862-7.378,14.287-18.452,14.287-30.423v-25.548
			c12.589,4.928,26.282,7.638,40.597,7.638s28.007-2.71,40.597-7.638v25.548c0,11.97,5.424,23.044,14.286,30.423
			c-1.544,2.144-3.111,4.247-4.691,6.281c-2.541,3.271-1.948,7.983,1.323,10.523c1.368,1.063,2.987,1.577,4.595,1.577
			c2.237,0,4.451-0.997,5.929-2.9c2.054-2.645,4.085-5.394,6.075-8.2l16.677,5.886C310.052,426.707,279.125,443.035,258.198,448.616
			z"/>
	</g>
</g>
<g>
	<g>
		<path d="M215.919,159.626h-16.032c-4.142,0-7.5,3.358-7.5,7.5c0,4.142,3.358,7.5,7.5,7.5h16.032c4.142,0,7.5-3.358,7.5-7.5
			C223.419,162.984,220.06,159.626,215.919,159.626z"/>
	</g>
</g>
<g>
	<g>
		<path d="M312.113,159.626h-16.032c-4.142,0-7.5,3.358-7.5,7.5c0,4.142,3.357,7.5,7.5,7.5h16.032c4.142,0,7.5-3.358,7.5-7.5
			C319.613,162.984,316.255,159.626,312.113,159.626z"/>
	</g>
</g>
<g>
</g>
<g>
</g>
<g>
</g>
<g>
</g>
<g>
</g>
<g>
</g>
<g>
</g>
<g>
</g>
<g>
</g>
<g>
</g>
<g>
</g>
<g>
</g>
<g>
</g>
<g>
</g>
<g>
</g>
</svg>
