<?xml version="1.0" encoding="iso-8859-1"?>
<!-- Generator: Adobe Illustrator 19.0.0, SVG Export Plug-In . SVG Version: 6.00 Build 0)  -->
<svg version="1.1" id="Capa_1" xmlns="http://www.w3.org/2000/svg" xmlns:xlink="http://www.w3.org/1999/xlink" x="0px" y="0px"
	 viewBox="0 0 512.002 512.002" style="enable-background:new 0 0 512.002 512.002;" xml:space="preserve">
<g>
	<g>
		<path d="M207.905,176.354c-4.142,0-7.5,3.357-7.5,7.5v8.017c0,4.143,3.358,7.5,7.5,7.5c4.142,0,7.5-3.357,7.5-7.5v-8.017
			C215.405,179.711,212.047,176.354,207.905,176.354z"/>
	</g>
</g>
<g>
	<g>
		<path d="M304.098,176.354c-4.142,0-7.5,3.357-7.5,7.5v8.017c0,4.143,3.358,7.5,7.5,7.5c4.142,0,7.5-3.357,7.5-7.5v-8.017
			C311.598,179.711,308.24,176.354,304.098,176.354z"/>
	</g>
</g>
<g>
	<g>
		<path d="M415.98,366.908l-84.316-24.799c56.912-28.03,96.168-86.636,96.168-154.246c0-30.854-8.18-59.83-22.476-84.886
			c16.316-10.01,26.484-27.822,26.484-47.381C431.84,24.94,406.899,0,376.243,0c-21.331,0-40.662,12.266-49.916,31.093
			c-21.477-9.672-45.283-15.061-70.326-15.061c-25.043,0-48.849,5.388-70.326,15.061C176.422,12.266,157.091,0,135.76,0
			c-30.656,0-55.597,24.94-55.597,55.597c0,19.558,10.168,37.371,26.484,47.381c-14.296,25.055-22.476,54.032-22.476,84.885
			c0,67.61,39.257,126.216,96.168,154.246l-84.316,24.799c-23.498,6.911-39.909,28.845-39.909,53.338V504.5
			c0,4.143,3.358,7.5,7.5,7.5c4.142,0,7.5-3.357,7.5-7.5v-84.254c0-17.885,11.983-33.9,29.142-38.947l84.487-24.849
			c4.715-1.388,8.969-3.812,12.517-7.102c18.336,6.69,38.119,10.345,58.741,10.345s40.406-3.655,58.741-10.345
			c3.549,3.29,7.802,5.714,12.518,7.102l84.486,24.849c17.158,5.047,29.142,21.063,29.142,38.947V504.5c0,4.143,3.358,7.5,7.5,7.5
			c4.142,0,7.5-3.357,7.5-7.5v-84.254C455.889,395.753,439.478,373.819,415.98,366.908z M376.243,15
			c22.385,0,40.597,18.212,40.597,40.597c0,14.34-7.485,27.395-19.484,34.689c-3.282-4.739-6.794-9.306-10.523-13.685
			c7.67-3.883,12.943-11.837,12.943-21.005c0-12.976-10.557-23.532-23.533-23.532c-9.954,0-18.478,6.216-21.911,14.967
			c-4.704-3.294-9.58-6.357-14.612-9.176C346.448,24.023,360.608,15,376.243,15z M384.776,55.597c0,4.705-3.828,8.532-8.533,8.532
			c-0.418,0-0.832-0.04-1.241-0.099c-2.284-2.195-4.627-4.329-7.028-6.397c-0.162-0.663-0.263-1.343-0.263-2.036
			c0-4.705,3.828-8.532,8.532-8.532C380.948,47.065,384.776,50.892,384.776,55.597z M95.163,55.597
			C95.163,33.212,113.375,15,135.76,15c15.635,0,29.795,9.023,36.523,22.855c-5.031,2.819-9.908,5.882-14.612,9.176
			c-3.433-8.751-11.957-14.967-21.911-14.967c-12.976,0-23.533,10.557-23.533,23.532c0,9.168,5.273,17.122,12.943,21.005
			c-3.729,4.378-7.241,8.945-10.523,13.685C102.648,82.992,95.163,69.937,95.163,55.597z M144.292,55.597
			c0,0.693-0.101,1.373-0.263,2.036c-2.402,2.068-4.745,4.202-7.028,6.397c-0.409,0.059-0.823,0.099-1.241,0.099
			c-4.705,0-8.533-3.827-8.533-8.532c0-4.705,3.828-8.532,8.533-8.532C140.465,47.065,144.292,50.892,144.292,55.597z
			 M256.001,344.693c-86.477,0-156.83-70.353-156.83-156.83S169.525,31.032,256.002,31.032s156.831,70.354,156.831,156.831
			S342.478,344.693,256.001,344.693z"/>
	</g>
</g>
<g>
	<g>
		<path d="M215.921,152.307h-16.032c-4.142,0-7.5,3.357-7.5,7.5s3.358,7.5,7.5,7.5h16.032c4.142,0,7.5-3.358,7.5-7.5
			C223.421,155.664,220.063,152.307,215.921,152.307z"/>
	</g>
</g>
<g>
	<g>
		<path d="M312.114,152.307h-16.032c-4.142,0-7.5,3.357-7.5,7.5s3.358,7.5,7.5,7.5h16.032c4.142,0,7.5-3.358,7.5-7.5
			C319.614,155.664,316.256,152.307,312.114,152.307z"/>
	</g>
</g>
<g>
	<g>
		<path d="M127.743,448.903c-4.142,0-7.5,3.357-7.5,7.5V504.5c0,4.143,3.358,7.5,7.5,7.5c4.142,0,7.5-3.357,7.5-7.5v-48.097
			C135.243,452.261,131.885,448.903,127.743,448.903z"/>
	</g>
</g>
<g>
	<g>
		<path d="M384.26,448.903c-4.142,0-7.5,3.357-7.5,7.5V504.5c0,4.143,3.358,7.5,7.5,7.5c4.142,0,7.5-3.357,7.5-7.5v-48.097
			C391.76,452.261,388.402,448.903,384.26,448.903z"/>
	</g>
</g>
<g>
	<g>
		<path d="M358.148,503.258c-4.018-23.902-16.41-45.775-34.893-61.591c-18.71-16.011-42.594-24.828-67.254-24.828
			c-24.66,0-48.544,8.817-67.254,24.828c-18.483,15.816-30.875,37.689-34.893,61.59c-0.687,4.084,2.068,7.952,6.152,8.64
			c4.084,0.684,7.953-2.068,8.64-6.153c7.2-42.823,43.938-73.904,87.355-73.904s80.155,31.081,87.355,73.904
			c0.616,3.664,3.792,6.258,7.387,6.258c0.413,0,0.832-0.034,1.253-0.104C356.08,511.21,358.835,507.342,358.148,503.258z"/>
	</g>
</g>
<g>
	<g>
		<path d="M191.873,64.129c-4.142,0-7.5,3.357-7.5,7.5c0,4.143,3.357,7.5,7.5,7.5h0.08c4.142,0,7.46-3.357,7.46-7.5
			C199.413,67.486,196.015,64.129,191.873,64.129z"/>
	</g>
</g>
<g>
	<g>
		<path d="M320.13,64.129c-4.142,0-7.5,3.357-7.5,7.5c0,4.143,3.358,7.5,7.5,7.5h0.08c4.142,0,7.46-3.357,7.46-7.5
			C327.67,67.486,324.272,64.129,320.13,64.129z"/>
	</g>
</g>
<g>
	<g>
		<path d="M321.82,109.772c-5.767-4.221-11.941-7.871-18.4-10.908c0.106-1.048,0.161-2.111,0.161-3.187
			c0-15.173-10.767-27.875-25.062-30.875c-2.933-9.657-11.917-16.706-22.519-16.706c-10.602,0-19.586,7.049-22.519,16.706
			c-14.294,3-25.062,15.702-25.062,30.875c0,1.031,0.053,2.049,0.151,3.055c-11.708,5.474-22.308,12.911-31.561,22.164
			c-18.962,18.963-30.457,44.118-32.365,70.832c-1.887,26.412,5.657,52.685,21.24,73.979c1.469,2.007,3.748,3.071,6.058,3.071
			c1.537,0,3.088-0.472,4.423-1.448c3.343-2.446,4.069-7.14,1.623-10.482c-13.486-18.43-20.014-41.177-18.38-64.051
			c1.651-23.114,11.598-44.883,28.009-61.294c7.659-7.658,16.385-13.865,25.983-18.535c5.645,8.579,15.353,14.257,26.369,14.257
			h32.064c10.978,0,20.66-5.64,26.313-14.171c5.116,2.5,10.014,5.454,14.615,8.821c1.335,0.978,2.886,1.449,4.424,1.449
			c2.31,0,4.589-1.064,6.058-3.071C325.889,116.91,325.163,112.218,321.82,109.772z M256.001,63.097
			c4.705,0,8.532,3.827,8.532,8.532c0,4.705-3.828,8.532-8.532,8.532c-4.704,0-8.532-3.827-8.532-8.532
			C247.469,66.924,251.297,63.097,256.001,63.097z M272.035,112.225h-32.064c-9.125,0-16.548-7.423-16.548-16.548
			c-0.002-7.056,4.446-13.079,10.679-15.454c3.441,8.736,11.957,14.938,21.9,14.938c9.943,0,18.459-6.202,21.9-14.938
			c6.233,2.375,10.681,8.398,10.681,15.454C288.583,104.802,281.16,112.225,272.035,112.225z"/>
	</g>
</g>
<g>
	<g>
		<path d="M346.117,134.067c-2.446-3.342-7.138-4.068-10.482-1.622c-3.342,2.446-4.069,7.139-1.623,10.481
			c13.488,18.43,20.017,41.177,18.383,64.05c-1.651,23.115-11.598,44.883-28.009,61.294s-38.18,26.359-61.295,28.01
			c-22.868,1.635-45.62-4.894-64.05-18.383c-3.342-2.444-8.035-1.72-10.481,1.623c-2.446,3.343-1.72,8.036,1.623,10.482
			c19.147,14.013,42.32,21.524,66.001,21.524c2.654,0,5.315-0.095,7.977-0.285c26.714-1.908,51.87-13.402,70.833-32.364
			c18.962-18.963,30.457-44.118,32.365-70.833C369.244,181.633,361.7,155.36,346.117,134.067z"/>
	</g>
</g>
<g>
	<g>
		<path d="M292.074,220.415h-72.146c-4.142,0-7.5,3.357-7.5,7.5c0.001,21.816,19.548,39.564,43.573,39.564
			c24.026,0,43.573-17.748,43.573-39.564C299.574,223.772,296.216,220.415,292.074,220.415z M256.001,252.479
			c-12.714,0-23.516-7.176-27.211-17.064h54.422C279.517,245.304,268.715,252.479,256.001,252.479z"/>
	</g>
</g>
<g>
</g>
<g>
</g>
<g>
</g>
<g>
</g>
<g>
</g>
<g>
</g>
<g>
</g>
<g>
</g>
<g>
</g>
<g>
</g>
<g>
</g>
<g>
</g>
<g>
</g>
<g>
</g>
<g>
</g>
</svg>
