<?xml version="1.0" encoding="iso-8859-1"?>
<!-- Generator: Adobe Illustrator 19.0.0, SVG Export Plug-In . SVG Version: 6.00 Build 0)  -->
<svg version="1.1" id="Capa_1" xmlns="http://www.w3.org/2000/svg" xmlns:xlink="http://www.w3.org/1999/xlink" x="0px" y="0px"
	 viewBox="0 0 512 512" style="enable-background:new 0 0 512 512;" xml:space="preserve">
<g>
	<g>
		<path d="M207.772,177.059c-4.142,0-7.5,3.358-7.5,7.5v8.016c0,4.142,3.358,7.5,7.5,7.5c4.142,0,7.5-3.358,7.5-7.5v-8.016
			C215.272,180.417,211.913,177.059,207.772,177.059z"/>
	</g>
</g>
<g>
	<g>
		<path d="M303.97,177.059c-4.142,0-7.5,3.358-7.5,7.5v8.016c0,4.142,3.358,7.5,7.5,7.5c4.142,0,7.5-3.358,7.5-7.5v-8.016
			C311.47,180.417,308.111,177.059,303.97,177.059z"/>
	</g>
</g>
<g>
	<g>
		<path d="M407.889,363.18l-64.815-25.926c-9.381-3.752-15.442-12.706-15.442-22.809v-0.832c0.98-0.666,1.949-1.349,2.909-2.041
			c32.998-0.354,62.102-7.913,76.706-12.465c4.8-1.496,8.449-5.08,10.012-9.832c1.586-4.822,0.713-10.181-2.336-14.334
			c-13.437-18.308-14.95-40.032-15.12-54.072c9.442-4.372,16.01-13.931,16.01-25.001c0-11.129-6.64-20.731-16.163-25.071V143.78
			C399.65,64.5,335.15,0,255.871,0S112.09,64.5,112.09,143.78v27.133c-9.384,4.395-15.903,13.925-15.903,24.953
			c0,11.07,6.569,20.629,16.01,25.001c-0.171,14.041-1.683,35.765-15.12,54.072c-3.049,4.154-3.922,9.513-2.336,14.334
			c1.563,4.752,5.212,8.336,10.012,9.832c14.603,4.552,43.708,12.111,76.706,12.465c0.961,0.693,1.929,1.375,2.909,2.041v0.832
			c0,10.104-6.062,19.057-15.442,22.809l-64.816,25.926c-24.292,9.717-39.989,32.901-39.989,59.065V504.5c0,4.142,3.358,7.5,7.5,7.5
			c4.142,0,7.5-3.358,7.5-7.5v-82.255c0-19.995,11.996-37.712,30.56-45.139l15.14-6.056c10.833,24.103,28.025,44.674,49.969,59.719
			c17.195,11.789,36.515,19.566,56.827,23.032l-7.091,49.637c-0.585,4.101,2.264,7.899,6.364,8.485
			c0.36,0.051,0.717,0.076,1.07,0.076c3.672,0,6.881-2.7,7.416-6.44l7.143-50.003c3.146,0.205,6.306,0.327,9.481,0.327
			c3.176,0,6.335-0.123,9.481-0.327l7.143,50.003c0.535,3.741,3.743,6.44,7.416,6.44c0.353,0,0.71-0.025,1.07-0.076
			c4.101-0.586,6.95-4.385,6.364-8.485l-7.091-49.637c20.489-3.496,39.961-11.376,57.269-23.337
			c21.751-15.032,38.761-35.489,49.514-59.42l15.152,6.061c18.564,7.426,30.56,25.144,30.56,45.139V504.5c0,4.142,3.358,7.5,7.5,7.5
			c4.142,0,7.5-3.358,7.5-7.5v-82.255C447.879,396.081,432.181,372.896,407.889,363.18z M402.83,283.815
			c0.271,0.369,0.216,0.664,0.18,0.773c-0.037,0.111-0.069,0.148-0.227,0.198c-11.008,3.431-30.719,8.671-54.003,10.825
			c18.31-19.356,30.644-44.417,34.023-72.204h2.036C385.174,239.283,387.441,262.848,402.83,283.815z M109.218,284.786
			c-0.158-0.049-0.191-0.086-0.227-0.198c-0.036-0.11-0.091-0.405,0.18-0.773c15.389-20.967,17.656-44.532,17.991-60.408h2.036
			c3.38,27.787,15.713,52.848,34.023,72.204C139.935,293.457,120.226,288.217,109.218,284.786z M143.252,207.891
			c0-4.142-3.358-7.5-7.5-7.5c-4.142,0-7.5,3.358-7.5,7.5c0,0.173,0.006,0.344,0.007,0.516h-4.531
			c-6.916,0-12.542-5.626-12.542-12.541c0-6.915,5.626-12.541,12.542-12.541h11.775c12.975,0,24.473-7.785,29.292-19.833l8.1-20.25
			H296.08c4.142,0,7.5-3.358,7.5-7.5c0-4.142-3.358-7.5-7.5-7.5H151.786c-4.142,0-7.5,3.358-7.5,7.5c0,4.142,3.358,7.5,7.5,7.5
			h4.955l-5.872,14.679c-2.528,6.32-8.56,10.403-15.366,10.403h-8.414V143.78C127.09,72.771,184.861,15,255.869,15
			c71.01,0,128.78,57.771,128.78,128.78v24.545h-8.154c-6.806,0-12.837-4.083-15.366-10.403l-5.872-14.679h4.955
			c4.142,0,7.5-3.358,7.5-7.5c0-4.142-3.358-7.5-7.5-7.5h-32.067c-4.142,0-7.5,3.358-7.5,7.5c0,4.142,3.358,7.5,7.5,7.5h10.957
			l8.1,20.25c4.819,12.047,16.317,19.832,29.292,19.832h11.775c6.916,0,12.542,5.626,12.542,12.541
			c0,6.915-5.626,12.541-12.542,12.541h-4.531c0.001-0.172,0.007-0.344,0.007-0.516c0-4.142-3.358-7.5-7.5-7.5
			c-4.142,0-7.5,3.358-7.5,7.5c0,62.168-50.578,112.747-112.747,112.747S143.252,270.06,143.252,207.891z M329.124,418.125
			c-21.544,14.889-46.83,22.759-73.124,22.759c-26.123,0-51.271-7.776-72.728-22.487c-19.489-13.361-34.784-31.586-44.502-52.927
			l23.335-9.334c7.786,16.606,19.785,30.815,35.009,41.334c17.354,11.992,37.717,18.331,58.885,18.331
			c15.075,0,29.614-3.165,43.214-9.407c3.765-1.728,5.416-6.181,3.688-9.945c-1.728-3.764-6.181-5.416-9.945-3.688
			c-11.624,5.335-24.058,8.04-36.957,8.04c-34.498,0-65.245-19.542-79.965-50.276c11.893-5.336,20.205-15.981,22.613-28.509
			c17.256,8.707,36.74,13.621,57.352,13.621s40.096-4.913,57.352-13.621c2.408,12.524,10.717,23.167,22.606,28.505
			c-4.572,9.471-10.878,18.204-18.469,25.508c-2.985,2.872-3.076,7.62-0.204,10.604c1.472,1.53,3.437,2.3,5.405,2.3
			c1.871,0,3.745-0.696,5.199-2.096c9.106-8.761,16.632-19.285,22.008-30.701l23.324,9.33
			C363.575,386.655,348.441,404.776,329.124,418.125z"/>
	</g>
</g>
<g>
	<g>
		<path d="M296.084,228.894h-80.165c-4.143,0-7.501,3.358-7.501,7.5c0,23.781,21.345,43.128,47.583,43.128
			c26.238,0,47.583-19.347,47.583-43.128C303.584,232.252,300.225,228.894,296.084,228.894z M255.999,264.522
			c-14.958,0-27.595-8.748-31.407-20.628h62.814C283.595,255.774,270.957,264.522,255.999,264.522z"/>
	</g>
</g>
<g>
</g>
<g>
</g>
<g>
</g>
<g>
</g>
<g>
</g>
<g>
</g>
<g>
</g>
<g>
</g>
<g>
</g>
<g>
</g>
<g>
</g>
<g>
</g>
<g>
</g>
<g>
</g>
<g>
</g>
</svg>
