<?xml version="1.0" encoding="iso-8859-1"?>
<!-- Generator: Adobe Illustrator 19.0.0, SVG Export Plug-In . SVG Version: 6.00 Build 0)  -->
<svg version="1.1" id="Capa_1" xmlns="http://www.w3.org/2000/svg" xmlns:xlink="http://www.w3.org/1999/xlink" x="0px" y="0px"
	 viewBox="0 0 512 512" style="enable-background:new 0 0 512 512;" xml:space="preserve">
<g>
	<g>
		<path d="M285.387,242.716c-2.91-2.948-7.659-2.981-10.606-0.071c-2.737,2.701-9.299,5.855-18.781,5.855
			c-9.482,0-16.043-3.154-18.78-5.855c-2.949-2.908-7.698-2.879-10.606,0.071c-2.91,2.948-2.878,7.696,0.07,10.606
			c6.459,6.373,17.418,10.178,29.316,10.178c11.897,0,22.857-3.805,29.316-10.178C288.264,250.413,288.296,245.664,285.387,242.716z
			"/>
	</g>
</g>
<g>
	<g>
		<path d="M207.903,184.371c-4.142,0-7.5,3.357-7.5,7.5v8.016c0,4.143,3.358,7.5,7.5,7.5c4.142,0,7.5-3.357,7.5-7.5v-8.016
			C215.403,187.729,212.044,184.371,207.903,184.371z"/>
	</g>
</g>
<g>
	<g>
		<path d="M304.096,184.371c-4.143,0-7.5,3.357-7.5,7.5v8.016c0,4.143,3.357,7.5,7.5,7.5s7.5-3.357,7.5-7.5v-8.016
			C311.596,187.729,308.238,184.371,304.096,184.371z"/>
	</g>
</g>
<g>
	<g>
		<path d="M215.919,160.322h-16.032c-4.142,0-7.5,3.357-7.5,7.5s3.358,7.5,7.5,7.5h16.032c4.142,0,7.5-3.357,7.5-7.5
			S220.06,160.322,215.919,160.322z"/>
	</g>
</g>
<g>
	<g>
		<path d="M312.113,160.322H296.08c-4.143,0-7.5,3.357-7.5,7.5s3.358,7.5,7.5,7.5h16.032c4.143,0,7.5-3.357,7.5-7.5
			S316.256,160.322,312.113,160.322z"/>
	</g>
</g>
<g>
	<g>
		<path d="M483.252,392.301c-5.79-13.345-12.354-28.469-12.003-52.691c0.475-32.726-6.839-47.618-13.911-62.021
			c-3.296-6.71-6.408-13.048-8.751-21.3c-3.429-12.074-3.548-22.444-3.675-33.423c-0.147-12.758-0.299-25.95-5.382-42.693
			c-3.65-12.026-8.441-20.011-13.073-27.73c-6.539-10.897-12.715-21.191-15.38-43.621c-4.812-40.497-30.383-66.728-50.988-81.601
			C337.181,10.685,308.385,0,286.728,0c-10.29,0-19.032,2.332-25.984,6.93c-2.925,1.938-6.561,1.938-9.488,0
			C244.302,2.332,235.561,0,225.272,0c-21.657,0-50.454,10.685-73.362,27.221c-20.604,14.873-46.176,41.104-50.988,81.601
			c-2.665,22.43-8.841,32.724-15.38,43.621c-4.632,7.72-9.423,15.704-13.074,27.73c-5.083,16.744-5.235,29.936-5.382,42.693
			c-0.126,10.979-0.246,21.349-3.674,33.423c-2.343,8.252-5.456,14.59-8.75,21.3c-7.073,14.402-14.387,29.295-13.912,62.021
			c0.351,24.223-6.212,39.347-12.003,52.691c-6.572,15.145-12.779,29.449-5.636,50.482c7.893,23.242,31.066,37.282,41.018,42.393
			V504.5c0,4.143,3.358,7.5,7.5,7.5c4.142,0,7.5-3.357,7.5-7.5v-62.164c0-7.302,1.972-14.276,5.477-20.325l35.432,30.37
			c5.452,4.673,8.578,11.471,8.578,18.651V504.5c0,4.143,3.358,7.5,7.5,7.5c4.142,0,7.5-3.357,7.5-7.5v-33.468
			c0-11.564-5.036-22.514-13.816-30.04l-35.416-30.356c3.486-2.793,7.463-5.042,11.83-6.583l47.713-16.84
			c32.279,42.292,65.665,70.608,99.267,84.161c0.9,0.363,1.853,0.545,2.806,0.545c0.953,0,1.905-0.182,2.806-0.544
			c20.446-8.247,41.137-22.243,61.496-41.6c3.002-2.854,3.121-7.602,0.268-10.604c-2.855-3.003-7.603-3.121-10.604-0.268
			c-18.034,17.147-36.175,29.713-53.965,37.388c-35.47-15.312-66.203-47.551-87.179-74.336l20.185-7.124
			c15.789-5.572,26.397-20.565,26.397-37.309v-25.548c12.589,4.928,26.282,7.638,40.597,7.638c14.315,0,28.007-2.71,40.597-7.638
			v25.548c0,16.743,10.608,31.736,26.396,37.309l20.178,7.122c-4.189,5.354-8.428,10.518-12.668,15.394
			c-2.719,3.126-2.388,7.863,0.737,10.581c1.421,1.235,3.174,1.841,4.919,1.841c2.095,0,4.18-0.873,5.662-2.578
			c5.455-6.273,10.901-12.991,16.24-19.982l47.725,16.844c4.522,1.596,8.629,3.947,12.202,6.879l-35.071,30.061
			c-8.78,7.525-13.816,18.475-13.816,30.04V504.5c0,4.143,3.357,7.5,7.5,7.5s7.5-3.357,7.5-7.5v-33.468
			c0-7.181,3.127-13.979,8.578-18.651l34.952-29.958c3.357,5.953,5.241,12.777,5.241,19.914V504.5c0,4.143,3.357,7.5,7.5,7.5
			s7.5-3.357,7.5-7.5v-19.324c9.951-5.111,33.124-19.15,41.019-42.393C496.032,421.75,489.824,407.445,483.252,392.301z
			 M474.686,437.959c-4.753,13.993-17.548,24.146-26.815,29.943v-25.566c0-23.528-14.906-44.597-37.093-52.428l-82.793-29.221
			c-9.803-3.46-16.389-12.769-16.389-23.164V304.77c33.508-19.307,56.113-55.497,56.113-96.867v-26.561
			c0.551,0.39,1.099,0.777,1.639,1.157c16.121,11.368,26.771,18.879,28.81,44.698c0.311,3.929,3.594,6.909,7.469,6.909
			c0.197,0,0.397-0.008,0.599-0.023c4.129-0.326,7.212-3.938,6.886-8.067c-2.593-32.838-18.392-43.979-35.117-55.775
			c-11.918-8.404-24.241-17.096-35.468-35.11c-18.182-29.175-38.024-34.175-53.969-38.192c-7.711-1.943-14.274-3.604-19.995-7.604
			c-3.19-2.231-5.063-5.905-5.063-9.798v-15.61c0-4.106-3.164-7.688-7.269-7.811c-4.247-0.127-7.731,3.277-7.731,7.497v15.923
			c0,3.893-1.873,7.567-5.063,9.798c-5.721,4-12.284,5.661-19.995,7.604c-15.944,4.018-35.787,9.018-53.968,38.192
			c-11.227,18.015-23.55,26.706-35.467,35.11c-16.726,11.796-32.525,22.938-35.117,55.776c-0.326,4.129,2.757,7.74,6.886,8.066
			c4.135,0.333,7.741-2.757,8.067-6.887c2.039-25.818,12.688-33.329,28.809-44.698c11.905-8.396,26.721-18.844,39.553-39.435
			c14.982-24.041,29.516-27.703,44.903-31.581c9.812-2.473,19.896-5.013,28.893-12.947c8.996,7.935,19.08,10.475,28.893,12.947
			c15.387,3.878,29.921,7.54,44.903,31.581c7.297,11.709,15.234,20.135,22.914,26.772v36.833c0,53.243-42.515,97.422-95.755,97.938
			c-53.762,0.521-97.664-43.061-97.664-96.705v-2.692c0-4.106-3.164-7.688-7.269-7.811c-4.247-0.127-7.731,3.277-7.731,7.497v3.006
			c0,41.37,22.605,77.56,56.113,96.867v32.753c0,10.396-6.586,19.704-16.389,23.164l-82.792,29.221
			c-22.187,7.831-37.093,28.899-37.093,52.428v25.596c-9.255-5.771-22.036-15.902-26.815-29.973
			c-5.281-15.55-1.115-25.152,5.193-39.688c6.077-14.003,13.639-31.43,13.241-58.879c-0.422-29.128,5.795-41.788,12.378-55.192
			c3.443-7.011,7.004-14.262,9.716-23.813c3.975-13.998,4.111-25.868,4.244-37.348c0.141-12.245,0.274-23.812,4.736-38.509
			c3.113-10.255,7.227-17.111,11.583-24.371c7.064-11.772,14.369-23.946,17.413-49.568c4.169-35.093,26.703-58.093,44.872-71.208
			C184.023,22.539,209.939,15,225.272,15c7.296,0,13.254,1.494,17.709,4.44c7.908,5.231,18.129,5.232,26.039,0.001
			C273.475,16.494,279.433,15,286.728,15c21.278,0,47.769,12.246,64.582,24.383c18.17,13.115,40.703,36.115,44.873,71.208
			c3.044,25.622,10.348,37.796,17.412,49.568c4.355,7.26,8.47,14.116,11.582,24.371c4.462,14.697,4.596,26.264,4.736,38.509
			c0.133,11.479,0.27,23.35,4.244,37.348c2.712,9.553,6.272,16.803,9.716,23.814c6.582,13.403,12.8,26.064,12.378,55.191
			c-0.397,27.449,7.165,44.877,13.241,58.879C475.801,412.807,479.967,422.409,474.686,437.959z"/>
	</g>
</g>
<g>
</g>
<g>
</g>
<g>
</g>
<g>
</g>
<g>
</g>
<g>
</g>
<g>
</g>
<g>
</g>
<g>
</g>
<g>
</g>
<g>
</g>
<g>
</g>
<g>
</g>
<g>
</g>
<g>
</g>
</svg>
