<?xml version="1.0" encoding="iso-8859-1"?>
<!-- Generator: Adobe Illustrator 19.0.0, SVG Export Plug-In . SVG Version: 6.00 Build 0)  -->
<svg version="1.1" id="Capa_1" xmlns="http://www.w3.org/2000/svg" xmlns:xlink="http://www.w3.org/1999/xlink" x="0px" y="0px"
	 viewBox="0 0 512 512" style="enable-background:new 0 0 512 512;" xml:space="preserve">
<g>
	<g>
		<path d="M215.919,128.258c-17.396,0-31.548,14.152-31.548,31.549c0,17.396,14.152,31.548,31.548,31.548
			s31.548-14.152,31.548-31.548C247.468,142.41,233.315,128.258,215.919,128.258z M215.919,176.354
			c-9.125,0-16.548-7.423-16.548-16.548s7.423-16.549,16.548-16.549s16.548,7.424,16.548,16.549S225.044,176.354,215.919,176.354z"
			/>
	</g>
</g>
<g>
	<g>
		<path d="M296.081,128.258c-17.396,0-31.548,14.152-31.548,31.549c0,17.396,14.152,31.548,31.548,31.548
			s31.548-14.152,31.548-31.548C327.629,142.41,313.477,128.258,296.081,128.258z M296.081,176.354
			c-9.125,0-16.548-7.423-16.548-16.548s7.423-16.549,16.548-16.549s16.548,7.424,16.548,16.549S305.206,176.354,296.081,176.354z"
			/>
	</g>
</g>
<g>
	<g>
		<path d="M256,184.371c-4.142,0-7.5,3.357-7.5,7.5v8.016c0,4.143,3.358,7.5,7.5,7.5c4.142,0,7.5-3.357,7.5-7.5v-8.016
			C263.5,187.729,260.142,184.371,256,184.371z"/>
	</g>
</g>
<g>
	<g>
		<path d="M415.978,350.876l-61.469-18.079c-7.814-2.298-14.815-6.448-20.521-12.121c29.961-31.567,57.77-71.242,57.77-128.805
			v-56.113C391.758,60.9,330.857,0,256,0S120.242,60.9,120.242,135.758v56.113c0,57.562,27.807,97.236,57.767,128.803
			c-5.704,5.673-12.699,9.823-20.518,12.123l-61.469,18.079c-23.498,6.911-39.909,28.845-39.909,53.338V504.5
			c0,4.143,3.358,7.5,7.5,7.5c4.142,0,7.5-3.357,7.5-7.5V404.214c0-5.486,1.132-10.794,3.19-15.666l45.566,39.87
			c5.332,4.665,8.389,11.403,8.389,18.486V504.5c0,4.143,3.358,7.5,7.5,7.5c4.142,0,7.5-3.357,7.5-7.5v-57.596
			c0-11.409-4.925-22.262-13.511-29.775l-47.083-41.197c4.76-4.908,10.763-8.657,17.59-10.665l61.47-18.079
			c10.205-3.002,19.337-8.414,26.79-15.807c5.437,5.383,10.847,10.538,16.079,15.524c23.56,22.451,43.907,41.841,43.907,61.402
			c0,4.143,3.358,7.5,7.5,7.5c4.142,0,7.5-3.357,7.5-7.5c0-19.562,20.347-38.951,43.908-61.402
			c5.231-4.985,10.64-10.14,16.076-15.521c7.456,7.395,16.596,12.804,26.793,15.804l61.469,18.079
			c6.827,2.008,12.831,5.757,17.59,10.665l-47.083,41.197c-8.586,7.514-13.511,18.366-13.511,29.775V504.5
			c0,4.143,3.358,7.5,7.5,7.5c4.142,0,7.5-3.357,7.5-7.5v-57.596c0-7.083,3.058-13.821,8.389-18.486l45.566-39.87
			c2.059,4.872,3.19,10.18,3.19,15.666V504.5c0,4.143,3.358,7.5,7.5,7.5c4.142,0,7.5-3.357,7.5-7.5V404.214
			C455.887,379.721,439.476,357.787,415.978,350.876z M272.549,360.423c-6.661,7.272-12.373,14.478-16.549,21.851
			c-4.176-7.374-9.888-14.579-16.548-21.851v-0.73h33.097V360.423z M239.451,312.628v-15.573c5.431,1.471,10.989,2.223,16.549,2.223
			c5.56,0,11.118-0.753,16.548-2.223v15.573H239.451z M272.549,344.693h-33.097v-17.064h33.097V344.693z M237.946,280.782
			l-39.166-15.667c-9.38-3.752-15.441-12.704-15.441-22.807v-26.671l17.746,5.915c2.531,10.265,11.816,17.899,22.851,17.899h0.516
			v0.517c0,4.143,3.358,7.5,7.5,7.5c4.142,0,7.5-3.357,7.5-7.5v-0.517h9.048v0.517c0,4.143,3.358,7.5,7.5,7.5
			c4.142,0,7.5-3.357,7.5-7.5v-0.517h9.048v0.517c0,4.143,3.358,7.5,7.5,7.5c4.142,0,7.5-3.357,7.5-7.5v-0.517h0.516
			c11.035,0,20.32-7.635,22.851-17.899l17.746-5.915v26.671c0,10.103-6.061,19.055-15.441,22.807l-39.165,15.667
			C262.412,285.44,249.589,285.439,237.946,280.782z M297.06,336.045c-3.238,3.086-6.419,6.118-9.511,9.115v-53.62l31.242-12.498
			c15.108-6.043,24.871-20.462,24.871-36.734v-32.307c9.775-5.516,16.032-15.906,16.032-27.447v-46.796
			c0-25.306-9.217-49.676-25.953-68.622c-2.742-3.105-7.481-3.398-10.586-0.656c-3.104,2.742-3.398,7.482-0.656,10.586
			c14.313,16.203,22.195,37.047,22.195,58.692v46.796c0,7.134-4.547,13.443-11.315,15.699l-31.653,10.551
			c-3.063,1.021-5.128,3.887-5.128,7.115c0,4.705-3.828,8.532-8.532,8.532h-64.129c-4.705,0-8.532-3.827-8.532-8.532
			c0-3.229-2.066-6.095-5.128-7.115l-31.653-10.551c-6.768-2.256-11.315-8.565-11.315-15.699v-46.796
			c0-48.905,39.788-88.693,88.693-88.693c15.6,0,30.937,4.104,44.355,11.868c3.584,2.074,8.172,0.851,10.248-2.734
			c2.074-3.586,0.85-8.174-2.735-10.248c-15.701-9.085-33.636-13.887-51.87-13.887c-57.177,0-103.693,46.517-103.693,103.693v46.796
			c0,11.542,6.257,21.932,16.032,27.447v32.307c0,16.272,9.762,30.691,24.87,36.734l31.243,12.498v53.62
			c-3.092-2.996-6.273-6.029-9.511-9.115c-17.936-17.092-38.266-36.465-53.709-59.849c-17.488-26.479-25.989-54.062-25.989-84.325
			v-56.113C135.242,69.172,189.414,15,256,15s120.758,54.172,120.758,120.758v56.113c0,30.264-8.501,57.847-25.989,84.325
			C335.326,299.58,314.996,318.953,297.06,336.045z"/>
	</g>
</g>
<g>
	<g>
		<path d="M256,432.871c-4.142,0-7.5,3.357-7.5,7.5V504.5c0,4.143,3.358,7.5,7.5,7.5c4.142,0,7.5-3.357,7.5-7.5v-64.129
			C263.5,436.229,260.142,432.871,256,432.871z"/>
	</g>
</g>
<g>
</g>
<g>
</g>
<g>
</g>
<g>
</g>
<g>
</g>
<g>
</g>
<g>
</g>
<g>
</g>
<g>
</g>
<g>
</g>
<g>
</g>
<g>
</g>
<g>
</g>
<g>
</g>
<g>
</g>
</svg>
