<?xml version="1.0" encoding="UTF-8" standalone="no"?>
<svg xmlns:rdf="http://www.w3.org/1999/02/22-rdf-syntax-ns#" xmlns="http://www.w3.org/2000/svg" height="946" viewBox="0 0 399 946" width="399" version="1.1" xmlns:cc="http://creativecommons.org/ns#" xmlns:dc="http://purl.org/dc/elements/1.1/">
<path d="m195 945.36c-1.375-0.20184-5.875-0.83986-10-1.4178-21.891-3.0672-38.013-12.502-36.215-21.193 0.55226-2.6702 1.9544-2.0985 3.6794 1.5 10.026 20.915 108.96 19.895 113.17-1.1671 1.0499-5.2494 4.3666-3.3778 4.3666 2.4641 0 12.59-44.365 24.311-75 19.814zm4-9.9162c-1.375-0.2329-6.3082-0.93903-10.963-1.5692-39.765-5.3835-46.293-23.848-16.287-46.067 5.196-3.8476 5.2516-4.3976 0.53456-5.2825-2.0435-0.38336-5.0231-1.3732-6.6212-2.1997l-2.9058-1.5026 0.42361-14.912c0.39-13.85 0.3-14.9-1.38-14.9-1.764 0-2.4633 5.3278-2.1174 16.132 0.0808 2.5245-0.18717 2.6588-6.5504 3.2839-10.723 1.0534-19.015-0.52943-36.098-6.8912-4.2236-1.5728-5.1376-1.5528-17 0.37228-6.895 1.119-17.936 2.7857-24.536 3.7038-6.6 0.91813-12.225 1.9738-12.5 2.346-0.275 0.37218-3.011 1.2265-6.0801 1.8986-14.169 3.1026-14.982 3.7803-7.4199 6.1846 8.0913 2.5725 16.719 7.3905 22.547 12.591 6.9215 6.176 8.0197 6.227 28.453 1.3207 8.5363-2.0497 45.083-7.9418 49.261-7.9418 16.266 0-16.578 10.008-55.261 16.839-24.323 4.2951-29.34 4.9799-45.252 6.1772-14.981 1.1272-36.619 0.013-38.621-1.9886-0.568-0.57-1.6089-1.03-2.3165-1.03-2.1944 0-8.2579-7.32-8.2799-10-0.068358-8.35 13.76-17.07 38.108-24.01 7.897-2.25 15.483-4.51 16.858-5.02 1.375-0.50941 7.45-1.6365 13.5-2.5046 6.05-0.86809 12.575-1.9794 14.5-2.4696 1.925-0.49019 8.9383-1.4239 15.585-2.0748l12.085-1.1836-0.0852-10.703c-0.10977-13.787 0.68471-15.063 7.1364-11.461 6.5868 3.6774 5.8392-25.855-1.4049-55.493-1.8421-7.5369-1.2793-8.4076 6.1551-9.5225 13.29-1.99 23.53-25.5 23.53-54.03 0-20.352-2.5154-21.325-3.2802-1.2686-0.84292 22.104-5.5794 40.82-12.272 48.491-4.0792 4.6757-4.6272 4.1766-7.4012-6.7412-4.9681-19.553-24.172-73.574-32.527-91.5-0.76905-1.65-2.9193-6.7956-4.7783-11.435-1.859-4.639-4.0239-8.7527-4.8109-9.1414-0.78697-0.38869-6.1989-3.021-12.026-5.8495-17.034-8.27-17.383-9.01-21.485-45.08-6.74-59.28 12.191-175.74 37.873-233 1.1101-2.475 3.9204-9.0847 6.245-14.688 6.0154-14.501 18.432-27.329 33.212-34.314 2.3375-1.1046 4.25-2.4428 4.25-2.9736 0-3.3398 7.985-17.567 13.725-24.455 4.2303-5.076 4.222-5.1257-2.0786-12.401-8.8117-10.175-18.008-26.421-22.478-39.706-7.5103-22.325-6.215-55.409 3.2918-84.072 0.6718-2.0256 0.32277-2.1293-8.7641-2.6046-18.729-0.98-25.182-9.06-18.667-23.36 3.066-6.73 18.467-20.43 22.967-20.43 4.1405 0 6.716-2.9746 7.2763-8.4039 3.277-31.751 33.029-33.415 35.425-1.9811 0.66649 8.7423 0.75919 8.6713-11.633 8.9087-21.083 0.4038-42.16 10.785-48.593 23.934-6.0142 12.293 3.5307 14.928 40.023 11.051 23.697-2.5177 29.5-1.9339 29.5 2.9673 0 3.3343-0.42836 3.4782-14.1 4.7353l-12.137 1.1159 0.59804 5.0884c0.62293 5.3002 4.7225 18.3 8.6202 27.334 2.0222 4.6874 2.5912 5.25 5.3088 5.25 7.1792 0 26.71 14.417 26.71 19.716 0 2.9314-2.3335 2.9502-4.2446 0.0342-14.987-22.868-37.879-17.981-38.297 8.1762-0.12017 7.5256-1.3708 10.233-2.6015 5.631-2.8099-10.507 2.8165-27.974 10.355-32.146 1.5705-0.86922 1.4762-1.4415-1.144-6.9426-2.6641-5.5933-6.5812-17.345-9.0723-27.218-1.2162-4.82-4.9508-5.891-8.7176-2.5-5.0369 4.5344-9.4843 32.165-8.6515 53.75 0.93159 24.144 4.7206 34.18 23.785 63 3.6382 5.5 8.7466 14.37 11.352 19.71 2.6053 5.3407 5.473 9.9672 6.3726 10.281 5.7206 1.9962 30.513-2.7189 45.782-8.7069l8.4174-3.3011 0.12463-11.492c0.15408-14.207 1.9918-20.025 14.053-44.492 4.6092-9.35 8.9388-18.956 9.6214-21.347l1.2411-4.3474-4.1911-3.6526c-4.12-3.59-5.51-7.14-2.79-7.14 0.76616 0 1.6147 0.57781 1.8857 1.284 7.9098 20.613 33.874-7.5774 32.498-35.284-1.1295-22.743-21.974-29.217-30.255-9.3966-4.3747 10.47-16.918-11.112-13.042-22.44 0.70436-2.0587 0.51828-2.2964-1.5652-2-10.423 1.4831 2.4932-8.0793 14.336-10.613 3.4086-0.72933 3.4451-2.2048 0.22311-9.0156-2.9191-6.1705-3.2949-6.3761-13.178-7.2115l-7.4095-0.62633-2.024-3.9674c-2.5609-5.0198-1.5788-6.1334 4.2288-4.7947 9.8071 2.2606 9.9018 1.7058 1.4092-8.2475-6.98-8.182-7.95-10.686-4.13-10.686 3.8859 0 11.318 6.8579 18.407 16.984 3.2717 4.6736 3.4049 4.7451 10.022 5.3814 9.4566 0.90937 11.092 1.5141 12.746 4.7116 3.4802 6.7299 1.3874 8.9026-6.1178 6.3515-7.5657-2.5717-7.1114 9.8378 0.46569 12.719 10.395 3.9522 13.525 7.6049 12.746 14.873-0.40922 3.8144-0.11409 4.8773 1.8898 6.806 14.746 14.193 3.9439 67.071-13.726 67.189-3.5047 0.0234-8.7976 7.3294-8.7976 12.144 0 0.49761-2.509 6.4029-5.5756 13.123-12.575 27.557-19.304 51.421-13.916 49.353 4.6585-1.7876 6.6494 0.98998 5.9315 8.2753-0.6776 6.8765-0.66584 6.9217 2.1893 8.4122 11.273 5.8849 13.954 11.794 12.44 27.414-1.68 17.334-7.65 59.775-8.6316 61.364-0.54914 0.88853-1.0006 0.97104-18.938 3.4615-12.803 1.7776-14.584 2.4615-12.386 4.7568 8.6892 9.0724 16.049 19.89 15.387 22.615-1.299 5.3481-8.6519 15.843-16.183 23.098-9.9361 9.5718-33.108 29.737-41.267 35.913-9.5074 7.196-25.863 21.617-33.71 29.722l-8.1597 8.4283-5.6861-11.797c-15.25-31.64-28.49-76.37-28.49-96.27 0-7.6568-0.16859-7.384 9.0237-14.606 7.1979-5.655 7.2168-5.7783 1.2263-7.9828-6.6453-2.4454-6.6869-2.5194-5.3219-9.4575 2.1905-11.134 8.6326-25.232 16.353-35.788 4.724-6.4586 4.3627-7.7341-0.62654-2.2117-6.0148 6.6577-22.825 43.337-21.123 46.09 0.323 0.52 1.475 0.95 2.56 0.95 8.618 0 10.185 3.6805 3.4055 8-15.176 9.6701-5.0937 69.754 18.371 109.47 2.3279 3.9405 4.6014 9.4227 5.2275 12.606 1.6713 8.4952 2.3507 9.0588 5.9333 4.9214 6.7759-7.8253 18.909-19.402 25.971-24.779 4.125-3.1409 8.1714-6.3523 8.992-7.1365 0.82062-0.78417 5.5456-4.4782 10.5-8.209s11.708-8.8694 15.008-11.419c6.9375-5.3601 28.064-24.771 30.973-28.456 3.6966-4.6849 11.38-12.48 11.818-11.989 0.23986 0.26922 0.0867 3.8645-0.34036 7.9895s-1.0462 11.1-1.3759 15.5c-0.32966 4.4-0.84467 10.475-1.1445 13.5-0.2998 3.025-0.90482 9.1-1.3445 13.5-0.43967 4.4-0.88072 13.4-0.98011 20-0.23094 15.335-0.78311 23.599-3.1361 46.934-2.1918 21.736-2.5696 20.479 7.0872 23.584 9.6998 3.1189 11.592 0.98905 2.2264-2.5066-9.391-3.5053-8.8954-0.41505-5.7752-36.011 0.77136-8.8 1.6656-19.375 1.9873-23.5 0.32166-4.125 0.75315-8.85 0.95888-10.5 0.20572-1.65 0.66151-7.5 1.0129-13 0.541-8.4688 3.1193-37.339 5.026-56.277 0.40322-4.005 0.18862-5.4083-0.89037-5.8224-0.78191-0.30004-1.6739-1.5255-1.9822-2.7232-0.49527-1.9239-5.0679-7.7019-14.658-18.522-4.0635-4.5846-3.59-4.8593 9.786-5.6765 16.574-1.0126 18.267-1.157 18.668-1.5926 0.69261-0.75071 3.5711-23.549 4.5942-36.387 0.56981-7.15 1.5518-16.6 2.1822-21 0.63039-4.4 1.088-9.2375 1.0169-10.75-0.21194-4.5093 2.0356-3.2711 9.8978 5.4529 4.0659 4.5116 8.3146 9.2048 9.4416 10.429 8.6294 9.376 25.551 54.427 32.441 86.368 0.41523 1.925 1.9049 8.45 3.3103 14.5 2.5686 11.057 4.479 20.546 9.1604 45.5 6.6373 35.38 7.5885 41.048 8.6209 51.375l1.1063 11.066-2.5268 2.1735c-1.3897 1.1954-3.0998 2.3645-3.8002 2.5979-1.0284 0.3428-1.0327 1.7305-0.0225 7.2131 1.6978 9.2141-0.6223 12.208-15.154 19.558-4.175 2.1116-3.1328 10.181 1.8506 14.328 4.8141 4.0067 7.0395 8.2058 8.4606 15.965l1.2413 6.7771 5.1436 2.5186c7.576 3.7096 12.58 12.71 12.609 22.677 0.0119 4.1177 1.3874 4.6979 6.5154 2.7483 8.1282-3.0903 16.033-3.2282 26.187-0.45668 5.3948 1.4726 11.834 3.1096 14.309 3.6379 21.482 4.5854 19.522-3.535 19.388 80.321-0.13618 84.973 4.9499 75.783-49.388 89.238-40.685 10.075-55.552 14.018-71 18.832-4.125 1.2854-12.9 3.729-19.5 5.4303s-14.772 3.9955-18.16 5.0982l-6.1604 2.005-0.39189 5.6983c-0.53724 7.8117-0.28293 8.2541 4.572 7.9541l4.14-0.24-0.10232 6c-0.0991 5.8112-1.062 15.711-1.9635 20.186-0.28119 1.396-1.7045 2.6435-3.9373 3.4509-4.792 1.7328-4.5548 2.1386 4.0152 6.8694 17.956 9.9118 27.362 26.435 19.183 33.697-8.6532 7.6835-44.131 14.546-60.695 11.741zm29.386-7.5638c12.85-1.68 29.61-7.81 29.61-10.84 0-5.2193-56.151-11.381-83.189-9.1285-16.785 1.3983-21.264 4.3073-15.061 9.7824 10.956 9.6693 39.807 13.951 68.636 10.186zm25.019-21.1c-3.9034-4.5475-5.6268-5.7634-21.097-14.884l-7.8081-4.6034-20.113-0.54881-20.113-0.54881-7.6737 5.792c-7.36 5.55-11.6 9.57-11.6 10.98 0 0.36548 8.6728 0.46575 19.273 0.22282 19.71-0.45171 46.597 1.4374 60.727 4.2667 10.24 2.0505 10.715 2.0121 8.405-0.67944zm-193.66-10.14c13.176-1.5413 13.401-1.6646 9.0624-4.9584-14.157-10.74-33.604-16.74-42.443-13.08-37.381 15.48-20.898 24.39 33.381 18.04zm139.23-57.89c-0.0109-1.7875-0.69579-9.325-1.5219-16.75-2.6523-23.838-4.4983-113.56-2.6206-127.37l0.66239-4.8704 6.5-2.2677c9.3658-3.2675 30.445-8.8071 45.5-11.957 7.15-1.4961 19.3-4.2178 27-6.0482 7.7-1.8305 18.5-4.3125 24-5.5157s16.3-3.7001 24-5.5487 17.15-3.8266 21-4.3956c3.85-0.56903 8.8-1.514 11-2.0999 2.2-0.58592 5.125-1.2978 6.5-1.582s4.525-1.1169 7-1.8505c2.475-0.73359 6.6375-1.6223 9.25-1.975 5.8858-0.7945 6.0707-2.1017 0.5-3.5352-2.3375-0.60153-6.275-1.7414-8.75-2.533-13.666-4.3708-14.801-4.4725-25.5-2.2838-14.833 3.0342-18.224 5.6704-6.4178 4.9903 4.4485-0.25625 5.9212-0.008 5.9314 1.0011 0.008 0.73811 0.28524 2.3554 0.61718 3.5941 0.78233 2.9193-2.2718 4.1965-17.424 7.2864-14.382 2.9327-14.657 2.7598-12.797-8.0385 2.3285-13.52 0.35717-19.444-3.396-10.206-2.7745 6.829-3.4351 7.7486-6.8687 9.561-1.4546 0.76782-3.9948 2.1038-5.6448 2.9688-3.56 1.87-13.94 4.68-17.28 4.68-1.4958 0-4.064 1.7518-7.0399 4.8022-8.6239 8.8394-32.805 10.26-33.154 1.9478-0.0173-0.4125-0.5138-0.75-1.1034-0.75-0.71378 0-0.84615 1.8073-0.39615 5.4089 0.82869 6.6326-0.44926 7.7591-12.107 10.672-9.8917 2.4719-12.39 2.4165-16.52-0.36644-6.3839-4.3021-4.0347-7.3005 7.6149-9.7189 5.2265-1.085 7.5431-2.9959 3.6321-2.9959-5.733 0-55.021 12.464-53.864 13.621 0.23977 0.23978 5.9527 1.9474 12.695 3.7948 11.685 3.2014 15.02 4.9815 13.04 6.961-0.99277 0.99277-5.9044-0.0402-19.2-4.038-13.276-3.9919-12.133-7.92-11.466 39.422 0.59986 42.549 0.7249 45.411 3.1562 72.24 2.2071 24.355 2.7095 26.791 6.1041 29.595 2.8254 2.3339 11.141 7.4053 12.142 7.4053 0.55728 0-0.19049-13.585-1.8164-33-4.1529-49.589-4.8979-105.29-1.3609-101.75 0.24792 0.24793 0.66338 8.2808 0.92323 17.851 0.25985 9.5701 0.91243 23.025 1.4502 29.9 0.53775 6.875 1.474 21.05 2.0806 31.5 0.60656 10.45 1.7466 27.03 2.5333 36.844 0.78677 9.8143 1.4305 18.846 1.4305 20.071 0 1.461 1.4619 3.3068 4.25 5.3662 5.3463 3.9489 5.7544 3.9466 5.7301-0.0317zm19.52-1.3c5.5-1.4566 15.625-4.1374 22.5-5.9574s19.7-5.4342 28.5-8.0316c17.537-5.1762 41.231-11.408 54.5-14.335 22.204-4.8972 65.198-17.141 67.405-19.196 1.0707-0.99678 1.1035-2.2735 2.0237-78.932 0.86154-71.771 4.5336-64.494-28.929-57.331-6.6 1.4128-14.25 2.9166-17 3.3419-2.75 0.42528-7.6412 1.5052-10.869 2.3997-3.2282 0.89457-11.553 2.7683-18.5 4.1639-6.9468 1.3956-14.206 2.9499-16.131 3.4542-1.925 0.50425-10.475 2.5285-19 4.4984s-18.005 4.2322-21.066 5.0274c-3.0611 0.7952-6.6291 1.4458-7.929 1.4458s-3.7453 0.43531-5.4344 0.96737c-1.689 0.53205-13.159 3.4425-25.489 6.4678-12.33 3.0252-22.868 5.9509-23.419 6.5015-4.7378 4.7378 2.1872 150.13 7.0817 148.68 0.96521-0.2853 6.2549-1.7105 11.755-3.1671zm4.1253-165.02c9.5738-2.2203 12.517-4.4956 11.255-8.7-3.5229-11.737 0.68764-24.188 10.513-31.088 1.8347-1.2884 1.8384-1.4733 0.11956-5.974-2.6663-6.9816-3.6308-7.3758-9.0038-3.6791-11.541 7.9403-15.07 20.31-10.1 35.398 2.9253 8.8802 2.6168 10.005-3.0343 11.066-4.3918 0.8239-8.3753 2.5852-8.3753 3.7031 0 1.1478 0.85752 1.0757 8.6253-0.7258zm42.56-13.357c6.7539-2.6905 7.9875-5.4038 7.7008-16.938-0.15377-6.186 0.12874-10.615 0.67489-10.581 1.8988 0.11974 3.4103 5.108 3.4246 11.302l0.0147 6.3613 3.75-0.6603c9.4845-1.67 18.691-5.8987 23.066-10.595 5.5232-5.9284 5.9689-37.468 0.6284-44.462-1.8095-2.37-3.3921-0.76406-3.4443 3.4951-0.0168 1.375-0.455 3.1712-0.97367 3.9916-1.9303 3.0532-3.0306-0.75735-3.674-12.723-0.83244-15.482-0.0811-14.679-11.41-12.185-5.1933 1.1434-14.167 2.3799-19.942 2.7477l-10.5 0.68-0.5 3.44c-0.4796 3.2993-0.76516 3.5067-7 5.0851-16.218 4.1055-23.758 13.763-20.859 26.717 1.3619 6.0855 1.2515 6.0354 6.0734 2.7588 2.0235-1.375 4.17-2.5 4.77-2.5 0.59999 0 0.96137-1.2215 0.80305-2.7145-0.20842-1.9654 0.2156-2.8174 1.5366-3.0876 2.0613-0.42166 5.6756 2.4167 5.6756 4.4571 0 0.73975 0.45 1.345 1 1.345s1 0.81 1 1.8 0.40804 2.2275 0.90675 2.75c2.7739 2.9062 8.0304 27.913 6.2431 29.7-0.77908 0.77908-1.2033 0.68537-1.5069-0.3329-3.5659-11.959-4.9336-12.882-9.9333-6.7l-3.0064 3.7172 1.7202 4.5043c3.266 8.552 14.096 12.489 23.761 8.639zm63.745-8.6294c10.678-2.2276 12.328-3.711 3.2702-2.9393l-7.3003 0.62191 0.68655-9.9683c0.76651-11.129-0.98184-16.969-6.3424-21.186-5.0299-3.9565-8.1382 2.9827-3.6991 8.2582 3.0806 3.6611 3.8725 8.2133 3.0806 17.709-0.85188 10.215-1.261 9.9168 10.304 7.504zm-45.335-80.961c8.0912-1.63 15.003-3.7736 20.88-6.4761l8.7852-4.0396-0.55089-4.1072c-0.77239-5.7586-1.8614-6.5339-6.4256-4.5746-13.24 5.69-35.5 9.72-53.7 9.72h-14.319l-0.5504 4.75c-1.0194 8.7975 16.668 10.624 45.885 4.7379zm-157.05-95.74c0.38444-1.7812 1.5441-4.9081 2.5769-6.9487 2.6872-5.309 2.5577-5.6866-4.5801-13.353-7.5096-8.0661-7.985-7.4335-4.9314 6.5634 3.9512 18.112 5.3798 20.942 6.9345 13.739zm11.382-23.11c3.8075-6.6548 4.0912-5.3433-2.6766-12.373-3.1625-3.285-8.8198-9.2289-12.572-13.209-7.642-8.106-7.3969-8.0256-7.7618-2.5463-0.76784 11.528-0.32674 12.971 6.3336 20.718 13.125 15.267 12.373 14.933 16.677 7.4098zm9.32-15.22c4.6189-7.609 4.4838-7.875-12.705-25.005-17.884-17.822-18.041-17.893-18.957-8.6-0.90827 9.2176-0.77385 9.4581 13.838 24.756 14.509 15.19 14.098 14.986 17.824 8.8486zm6.03-22.16c0.62454-8.8891 2.4251-6.0556-15.881-24.991-11.498-11.893-12.006-12.045-15.936-4.7731l-2.9649 5.486 15.988 16.014c18.621 18.651 18.08 18.413 18.793 8.264zm13.288-7.5c3.7437-5.6375 7.9594-11.951 9.3683-14.029 1.4089-2.0787 3.0197-4.5537 3.5795-5.5 0.55978-0.94632 3.0771-4.8706 5.5941-8.7206 7.1419-10.924 15.287-24.334 19.437-32 2.0843-3.85 4.7652-8.575 5.9576-10.5s3.2916-5.75 4.6649-8.5 2.9982-5.9 3.611-7c6.3265-11.357 7.9547-17.044 8.3921-29.312 0.41119-11.533-0.80158-16.547-2.4644-10.188-0.28766 1.1-1.2273 2-2.0881 2-0.86081 0-4.1597 1.1475-7.331 2.5499-11.7 5.17-36.12 10.45-48.36 10.45-5.5658 0-5.9797 0.66302-2.4712 3.9591 5.3109 4.9894 15.612 22.429 18.484 31.291 0.66824 2.0625 1.4587 3.75 1.7566 3.75 0.99662 0 12.736-7.3636 18.663-11.706 8.0138-5.8718 12.663-5.8471 7.2081 0.0383-3.8685 4.1742-22.197 15.738-25.794 16.274l-3.274 0.48764-5.3136-11.047c-5.7096-11.87-7.347-13.162-9.2441-7.2966-1.8591 5.748-4.8988 11.469-7.6615 14.419-1.3746 1.4678-2.2319 3.1012-1.9052 3.6298 3.023 4.8913 4.6837 44.903 2.6854 64.701-1.568 15.535-2.1739 15.325 6.509 2.25zm-11.57-16.72v-8.8554l-9.6806-9.0856c-11.312-10.617-11.187-10.582-14.736-4.0617-3.4279 6.2982-4.2637 4.7247 10.313 19.418 14.24 14.35 14.1 14.33 14.1 2.58zm-29-23.625c0-1.4719 12.852-19.577 16.735-23.575 4.4796-4.6124 5.2321-7.827 1.832-7.827-2.1654 0-3.327-2.7606-4.1233-9.799-0.83945-7.4198-1.0286-7.4714-5.2306-1.4286-7.9604 11.448-8.9535 13.665-11.526 25.728-6.2512 29.318-6.3787 31.814-1.1844 23.2 1.93-3.19 3.5-6.02 3.5-6.3zm28.792-0.60309c-0.79515-10.993-9.9284-17.761-15.145-11.223l-2.8531 3.5758 2.3531 2.6291c1.2942 1.446 2.9101 3.2385 3.5909 3.9834 0.68079 0.7449 3.6058 3.2989 6.5 5.6755 5.9661 4.8992 6.2282 4.6801 5.554-4.6408zm-2.7853-24.188c-0.81767-0.81474-1.6268-0.44467-3.0383 1.3895-2.5823 3.3558-2.4586 4.4678 0.78176 7.0257l2.75 2.1709 0.31049-4.7378c0.17077-2.6058-0.19103-5.2375-0.80399-5.8483zm5.82-11.36c2.3012-3.2429 7.7162-18.052 6.8994-18.869-1.86-1.85-19.72 9.69-19.72 12.74 0 7.6195 8.7782 11.817 12.815 6.128zm-19.094-16.946c1.8193-1.758 4.3999-5.358 5.7346-8 2.5963-5.1392 5.057-7.6967 8.4377-8.7697 3.6585-1.1612 0.67819-13.466-3.275-13.522-1.6017-0.0225-7.3982 6.8588-10.292 12.218-9.053 16.767-13.519 33.846-6.4207 24.552 1.379-1.8054 3.9958-4.7209 5.8152-6.4789zm11.54 0.7c1.3984-1.1 2.813-2 3.1435-2 0.33051 0 2.3877-1.2943 4.5716-2.8763l3.9706-2.8763-2.4315-2.6237c-3.8575-4.1623-7.9574-2.6562-11.412 4.1924-4.1433 8.2138-3.342 10.51 2.158 6.1839zm-5.93-220.64c9.0021-0.76506 9.3838-1.1807 7.6649-8.3459-3.475-14.485-16.48-12.338-19.968 3.2972-1.2399 5.5576-0.67289 7.0899 2.3263 6.2871 1.1754-0.31466 5.6649-0.87191 9.9766-1.2384zm-6.34-2.669c0-2.2055 10.883-4.5021 12.089-2.5511 1.302 2.1068-0.5717 3.1489-6.5536 3.645-4.54 0.376-5.54 0.178-5.54-1.094zm-119 826.34c-7.3539-0.95241-17.401-5.8331-17.803-8.6482-0.42895-3.0063 1.7945-3.467 6.3646-1.3186 15.964 7.5047 54.329 4.5657 114.2-8.7484 8.945-1.9891 16.595-3.2839 17-2.8774 1.2646 1.2693-3.6704 4.4415-9.5916 6.1653-3.1196 0.90818-6.5719 2.0298-7.6719 2.4926-1.1 0.46275-4.7199 1.3096-8.0443 1.8819-3.3244 0.57232-9.1744 1.8988-13 2.9478-23.111 6.33-63.834 10.38-81.46 8.1zm133.67-667.46c-6.7478-1.8138-13.091-6.449-13.489-9.8571-0.4264-3.6523 1.2593-3.4464 5.8674 0.71676 6.7316 6.0816 17.284 5.7932 22.295-0.60926 3.3492-4.2795 17.297 1.645 19.523 8.2927 0.5768 1.7226-6.0289-0.0151-8.4329-2.2184-2.6727-2.4495-3.3545-2.3893-6.8341 0.6032-5.0649 4.3558-10.732 5.2755-18.929 3.0721zm25.68-131.83c-10.58-6.09-13.9-11.59-13.74-22.74 0.38625-26.287 26.636-38.718 42.535-20.144 16.749 19.568-7.2308 55.279-28.793 42.879zm14.489-7.7492c17.343-7.8698 16.39-33.482-1.3545-36.418-16.126-2.6682-26.988 23.112-14.604 34.663 4.7595 4.4396 9.0121 4.9072 15.959 1.7548zm-10.64-14.732c-4.5344-0.25646-6.4671-0.79132-6.8957-1.9082-0.9229-2.405 1.5351-3.2464 8.1402-2.7865 11.02 0.767 13.56 1.428 13.56 3.525 0 2.0526 0.33252 2.0263-14.8 1.1704zm-38.7-33.849c-15.77-3.337-26.5-10.431-26.5-17.524 0-6.1589 1.2318-6.7695 6.3327-3.1389 14.648 10.426 34.629 11.332 59.126 2.6806 14.257-5.0351 15.934-5.3763 26.541-5.3993 21.378-0.0465 54 8.4204 54 14.016 0 5.0996-12.77 11.795-19.909 10.438-3.3188-0.63052-50.224-0.66633-80.591-0.06152-7.7277 0.15391-15.433-0.25585-19-1.0104zm12.18-17.159c-0.2401-0.4125-1.1492-3.225-2.0203-6.25-1.5307-5.3158-3.3809-8.5697-10.527-18.514-3.9574-5.5068-3.4239-7.7049 2.8832-11.879 7.8235-5.1773 14.735-5.5625 13.428-0.74824-2.5895 9.5352 2.5879 15.825 9.8709 11.991 3.839-2.0207 4.935-7.4304 2.6977-13.315-1.4929-3.9267 2.0518-4.8774 15.487-4.1535 20.573 1.1085 35.407 6.0802 43.25 14.496 3.5538 3.8133 3.0999 6.1049-3.4678 17.508-1.1655 2.0236-1.9817 2.1171-19 2.1781l-17.782 0.06375-13 4.6853c-12.05 4.343-20.68 5.9-21.82 3.937z"/>
</svg>
