<?xml version="1.0" encoding="utf-8"?>
<!DOCTYPE svg PUBLIC "-//W3C//DTD SVG 1.1//EN" "http://www.w3.org/Graphics/SVG/1.1/DTD/svg11.dtd">
<svg version="1.1" id="Layer_1" xmlns="http://www.w3.org/2000/svg" xmlns:xlink="http://www.w3.org/1999/xlink" x="0px" y="0px"
	 viewBox="0 0 1920 1372" enable-background="new 0 0 1920 1372" xml:space="preserve">
<g id="_x23_fefefeff">
</g>
<g>
	<path fill="#41210A" stroke="#41210A" stroke-width="0.0938" d="M180.34,75.76c523.88-0.04,1047.75,0,1571.63-0.02
		c40.1,122.18,80.28,244.33,120.3201,366.53c-0.54,0-1.61-0.01-2.15-0.02c-211.4-0.19-422.8-0.02-634.1901-0.09
		c-388.65,0.01-777.2999,0-1165.96,0c-7.96-0.13-15.95,0.33-23.9-0.34C90.67,319.74,135.62,197.79,180.34,75.76 M344.33,185.4
		c-11.44,3.82-21.54,10.66-31.18,17.74c-15.99,11.88-30.49,26.5-39.4,44.51c-3.93,8.43-6.63,18.04-4.52,27.33
		c1.52,6.9,6.49,12.97,13.12,15.51c8.18,3.32,17.39,2.25,25.55-0.54c15.72-5.38,29.41-15.31,41.63-26.35
		c3.05-2.94,6.4-5.63,8.9-9.07c1.67-2.23,1.48-5.14,1.77-7.76c-12.73,10.38-25.9,20.48-40.79,27.58c-6.05,2.8-12.58,5.42-19.37,4.81
		c-4.05-0.24-8.11-2.39-9.99-6.07c-2.61-5.18-2.01-11.32-0.65-16.77c3.26-11.9,10.15-22.52,18.53-31.47
		c7.91-9.04,16.64-17.47,26.62-24.2c5.7-3.86,12.14-6.71,19.03-7.48c0.4,2.05,1.05,4.25-0.08,6.2
		c-4.62,9.35-12.27,16.69-19.77,23.75c-0.28-0.85-0.83-2.55-1.11-3.39c-5.15,2.09-8.57,6.63-12.78,10.04
		c-3.93,3.43-8.54,6.69-10.35,11.81c-1.41,3.45,0.62,8.12,4.51,8.66c3.96,0.49,7.71-1.4,11.15-3.13
		c10.02-5.5,18.5-13.37,26.12-21.81c5.77-6.94,11.47-14.36,13.97-23.18c1.42-5.29,0.82-11.88-3.72-15.52
		C356.59,182.95,349.86,183.68,344.33,185.4 M685.93,191.81c-6.43,2.49-12.94,5.32-18.13,9.97c-3.73,3.33-4.61,8.51-5.69,13.14
		c-0.8,4.25-1.8,9.25,1.04,12.99c2.5099,3.34,6.9,4.16,10.7599,4.96c12.46,2.08,25.09,3.86,37.03,8.12c2.79,0.88,5.07,2.75,7,4.89
		c-5.51,6.45-13.9,9.16-21.86,11.11c-12.56,2.82-25.54,3.3-38.37,2.79c1.86-1.63,3.87-3.28,4.67-5.73
		c-4.31,0.64-8.8,1.44-12.45,3.94c-2.69,2.42-4.57,5.63-6.11,8.87c-1.14,2.26-1.04,5.54,1.37,6.95c4.89,3.31,11.12,3.25,16.8,3.53
		c14.89,0.01,29.98-1.44,44.16-6.19c7.71-2.71,15.6-6.77,19.99-13.97c3.45-5.54,4.15-13.64-0.76-18.57
		c-7.14-7.43-17.89-8.42-27.33-10.88c-8.12-2.21-16.61-3.56-24.12-7.55c2.44-5.32,8-7.87,13-10.2c11.41-4.82,23.86-6.79,36.19-7.12
		c-3.37,3.16-7.89,5.64-9.56,10.19c2.25,2.85,5.6-0.38,7.86-1.65c4.61-3.54,10.38-4.82,15.37-7.64c4.9901-2.85,5.97-9.48,4.88-14.64
		c-0.53-1.98-3.08-1.78-4.63-2.34C719.99,183.49,702.16,185.95,685.93,191.81 M780.49,194.39c-13.45,11.23-25.26,24.42-35.04,38.96
		c-5.25,8.07-10.97,16.68-11.05,26.69c0.0699,4.56,0.04,9.8,3.15,13.47c2.11,2.18,4.61-0.32,6.17-1.87
		c8.78-9.37,17.53-19.11,28.54-25.92c-4.29,6.84-10.46,12.71-12.6,20.71c-0.67,3-0.5699,6.78,1.92,8.96
		c2.82,2.21,6.52,1.07,9.45-0.27c7.71-3.62,14.4-9,21.14-14.13c1.3,4.71,2.88,9.78,6.92,12.88c3.92,3.09,9.39,2.6,13.87,1.16
		c4.24-1.29,7.82-3.99,11.11-6.88c2.65-2.62,6.7-1.79,10-2.86c5.18-1.16,9.15-4.9,12.57-8.75c4.6-4.71,9.23-9.44,14.32-13.64
		c-6.66,12.67-14.55,24.68-22.64,36.49c-3.23,4.96-5.73,10.62-5.93,16.62c-0.02,2.09,0.2,4.37,1.52,6.09
		c1.25,0.8,3,0.97,4.2401,0.01c2.95-2.18,4.46-5.66,6.11-8.81c3.2-6.62,6.76-13.06,9.9-19.71c2.97,0.11,5.94,0.1,8.92,0.03
		c4.78-0.31,9.09,2.79,13.92,2.1c13.45-0.93,24.66-9.77,33.82-18.98c-0.32-1.96-0.64-3.91-0.95-5.86c-5.31,4.04-10,9.07-16.13,11.91
		c-3.58,1.7-7.65,1.53-11.51,1.44c6.4-6.27,13.28-12.28,17.96-20.02c2.09-3.55,3.76-7.87,2.53-11.99c-0.89-2.74-4.08-4.01-6.74-3.31
		c-9.16,1.73-16.58,7.76-24.47,12.31c3.65-8.35,10.39-14.68,16.54-21.19c1.5-1.99,4.28-4.32,3.06-7.06
		c-2.47-2.09-6.21-2.36-9.09-1.05c-4.52,2.41-7.29,6.95-10.79,10.52c-8.61,8.99-16.98,18.21-25.48,27.3
		c-3.46,3.86-7.68,7.55-13.14,7.75c2.38-5.9,5.84-11.89,4.85-18.5c-0.09-2.3-2.13-3.61-3.53-5.13c0.98-1.58,2.57-3.34,1.58-5.32
		c-1.55-2.48-4.79-3.02-7.48-2.9c-7.76,0.42-15.21,3.48-21.55,7.88c-7.46,4.85-13.77,12.29-14.53,21.48
		c-3.97,2.68-7.85,5.6-12.28,7.48c-1.72,0.54-3.89,1.6-5.46,0.19c-1.32-0.78-1.13-2.78-0.42-3.92c3.6-6.47,9.6-11.22,13.32-17.61
		c2.41-4.19-2.71-9.7-7.11-8.2c-3.39,0.91-6.32,2.91-9.23,4.78c-9.39,6.34-17.87,13.89-26.75,20.89c-0.06-1.58-0.1-3.15-0.13-4.73
		c14.25-14.42,28.13-29.27,40.88-45.05c3.28-4.4,7.1-8.63,8.96-13.88c0.88-1.81,0.04-4.18-1.96-4.73
		C787.47,188.36,783.65,191.97,780.49,194.39 M453.75,198.72c-7.35,9.02-13.14,19.17-18.76,29.31c-3.1,5.69-6.05,11.62-10.72,16.23
		c-4.02,4.22-9.76,6.1-13.93,10.15c-2.14,2.2-5.21,2.7-8.1,3.15c2.56-5.86,6.12-11.91,4.99-18.57c-0.12-2.28-2.05-3.68-3.48-5.18
		c1.25-1.67,2.53-3.66,1.42-5.78c-2.6-2.72-6.68-2.69-10.13-2.15c-10.88,1.76-21.04,7.61-28.09,16.07
		c-6.3,7.72-6.55,19.28-1.63,27.76c2,3.47,5.58,6.23,9.69,6.41c7.94,0.37,15.27-3.97,20.59-9.56c5.18-0.28,10.32-1.4,14.83-4.08
		c0.94,1.2,1.88,2.39,2.83,3.59c-3.37,7.39-7.43,14.66-8.79,22.77c-0.62,5.66,0.04,11.75,2.92,16.76c1.44,2.85,5.12,2.84,7.69,1.67
		c9.66-3.86,17.8-11.36,22.84-20.42c3.04-5.36,3.31-11.64,3.33-17.65c5.7-3.09,10.74-7.17,15.61-11.4c0.76,3.09,2.12,5.99,4.12,8.48
		c-3.08,6.67-6.67,13.19-8.35,20.4c-1.47,7.18-0.34,14.98,3.87,21.07c3.01,0.2,6.13,0.08,8.81-1.49
		c10.22-5.23,19.3-14.02,22.67-25.22c1.3-3.77,0.31-7.91,1.32-11.67c4.4-3.28,9.23-5.99,13.28-9.74c0.7,5.28,1.71,11.14,6.02,14.77
		c4.06,3.68,10.09,3.56,15.07,2.16c10.13-2.87,18.34-9.87,25.79-17.01c0.58,5.58,1.85,11.79,6.6,15.38
		c4.84,3.64,11.42,2.77,16.78,0.87c10.6-3.88,19.09-11.73,26.67-19.83c-0.37-1.7-0.72-3.4-1.07-5.1
		c-7.24,5.13-13.88,11.55-22.55,14.21c-3.56,1.01-7.79,1.31-10.95-0.92c-2.6-1.74-1.77-5.19-1.92-7.83
		c6.16-1.95,12.2-4.35,17.83-7.54c5.31-3.06,10.6801-6.95,13.13-12.79c1.31-3.02,1.25-7.24-1.92-9.07
		c-4.02-2.02-8.79-1.46-13.05-0.65c-9.46,2.32-17.92,8.37-23.47,16.34c-2.55,3.46-3.49,8.14-7.18,10.7
		c-6.22,4.7-12.48,9.87-20.14,12c-3.37,0.73-7.36,1.04-10.24-1.2c-2.47-1.76-1.61-5.1-1.83-7.68c9.59-3.35,19.53-7.1,26.88-14.39
		c3.1899-3.2,5.95-7.86,4.4399-12.5c-1.83-3.83-6.71-4.1-10.4-3.92c-12.44,0.79-23.7,9-29.91,19.56c-1.81,2.8-2.43,6.62-5.56,8.36
		c-5.09,3.05-10.09,6.24-15.14,9.36c-1.56-3.83-3.53-7.53-6.53-10.44c4.87-7.52,10.33-14.61,15.49-21.92
		c5.1-7.42,11.31-14.34,14-23.12c1.69-4.29,1.83-9.05,0.3-13.4c-3.61,0.11-6.51,2.33-8.58,5.13c-6.56,8.09-11.8,17.13-16.9,26.18
		c-3.66,6.5-6.78,13.5-12.16,18.81c-4.21,4.52-10.4,6.39-14.62,10.9c-0.45-1.02-0.9-2.04-1.35-3.05
		c-5.72,3.74-11.61,7.23-17.35,10.94c-1.59-3.87-3.62-7.58-6.66-10.5c6.93-10.09,14.21-19.94,21.35-29.89
		c5.85-7.85,10.89-17.4,9.33-27.51C459.17,193.04,455.9,196.06,453.75,198.72z"/>
	<path fill="#41210A" stroke="#41210A" stroke-width="0.0938" d="M517.13,249.74c3.5-8.07,10.48-14.77,19.14-16.89
		c-0.1,2.19-0.79,4.4-2.37,5.99C529.38,243.84,523.5,247.57,517.13,249.74z"/>
	<path fill="#41210A" stroke="#41210A" stroke-width="0.0938" d="M564.13,249.85c3.16-7.92,10.09-15.02,18.64-16.72
		c0.92,1.88-0.48,3.62-1.55,5.06C576.77,243.6,570.59,247.32,564.13,249.85z"/>
	<path fill="#41210A" stroke="#41210A" stroke-width="0.0938" d="M378.36,248.39c3.88-3.27,8.36-5.71,12.83-8.06
		c-1.95,4.42-4.59,8.69-5.13,13.58c-0.33,2.59,0.61,5.09,1.3,7.54c-3.17,3.25-7.64,6.06-12.37,4.79c-2.45-0.4-3.52-3.03-3.28-5.26
		C372.15,256.13,374.66,251.54,378.36,248.39z"/>
	<path fill="#41210A" stroke="#41210A" stroke-width="0.0938" d="M807.38,249.43c4.07-3.88,9.15-6.48,14.08-9.1
		c-1.92,4.15-4.34,8.17-5.17,12.72c-0.54,2.88,0.43,5.72,1.23,8.45c-2.67,2.42-5.71,4.98-9.52,5.03c-2.39,0.15-5.61-0.7-5.96-3.49
		C801.29,257.96,803.99,253.03,807.38,249.43z"/>
	<path fill="#41210A" stroke="#41210A" stroke-width="0.0938" d="M863.64,260.16c5.79-7.96,13.34-14.96,22.85-18.09
		c0.16,1.91,0.62,4.08-0.63,5.76c-3.34,4.93-7.58,9.18-11.31,13.8C870.95,260.89,867.3,260.43,863.64,260.16z"/>
	<path fill="#41210A" stroke="#41210A" stroke-width="0.0938" d="M415.76,286.06c0.53-5.45,3.21-10.34,5.95-14.97
		c3.23,0.51,6.49,0.78,9.76,0.96c0.49,10.04-4.85,19.84-13.27,25.21C416.81,293.69,415.34,289.96,415.76,286.06z"/>
	<path fill="#41210A" stroke="#41210A" stroke-width="0.0938" d="M469.15,271.22c3.35,0.37,6.71,0.63,10.09,0.83
		c0.44,10.07-4.91,19.72-13.2,25.28c-1.33-3.28-2.78-6.68-2.57-10.3C463.71,281.3,466.58,276.19,469.15,271.22z"/>
	<path fill="#41210A" stroke="#41210A" stroke-width="0.0938" d="M594.47,607.87c0.76,23.77,11.04,47.06,27.94,63.76
		c13.77,13.88,32.22,23.01,51.61,25.51c14.7,1.82,29.9,0.1,43.69-5.39c18.41-7.22,34.21-20.71,44.5099-37.56
		c8.5-13.62,13.26-29.39,14.26-45.38c1.51,20.05,8.59,39.81,21.46,55.39c17.12,21.51,44.48,34.59,72.05,33.62
		c20.46-0.44,40.58-8.41,55.98-21.86c19.6801-16.86,31.83-42.16,32.6-68.07c1.62,21.19,9.15,42.15,23.26,58.26
		c10.88,12.7599,25.34,22.5,41.34,27.56c19.0101,6.07,40.08,5.44,58.67-1.8c18-6.95,33.54-19.91,43.9301-36.15
		c9.09-13.95,14.11-30.3,15.29-46.87c1.5399,23.15,11.11,45.94,27.73,62.29c10.4399,10.75,23.73,18.6,38.0399,22.97
		c19.0601,5.73,40.0801,4.79,58.52-2.73c17.62-7.17,32.85-19.98,42.98-36.07c8.74-13.52,13.4301-29.2599,15.02-45.19
		c1.8201,20.9901,9.9601,41.57,24.15,57.29c12.22,13.9,28.85,23.95,46.91,28.08c18.76,4.47,38.99,2.45,56.5399-5.55
		c13.15-5.91,24.7301-15.12,33.7201-26.37c12.64-15.71,19.8999-35.53,20.89-55.63c0.7599,9.72,2.4399,19.43,5.8099,28.61
		c9.66,26.96,32.08,49.28,59.6901,57.45c21.4199,6.59,45.3799,4.58,65.36-5.62c29.99-14.87,50.2799-47,51.24-80.41
		c1.4099,16.6,5.98,33.14,15.15,47.19c10.23,16.25,25.5699,29.24,43.4199,36.38c0,201.18-0.01,402.35,0,603.53
		c-70.13,0-140.25-0.02-210.37,0.01c-0.02-171.01-0.03-342.02,0.01-513.02c-101.25,0.03-202.5,0.01-303.75,0.01
		c0.02,171,0.04,342-0.01,513.01c-359.64-0.02-719.29-0.01-1078.9399-0.01c-0.06-199.48,0.02-398.97-0.03-598.45
		c21.8-3.52,41.88-15.69,55.58-32.95c12.56-15.53,19.79-35.13,20.92-55.03c0.9,8.15,2.07,16.33,4.63,24.16
		c9.14,29.92,34.19,54.61,64.66,62.2599c19.19,4.87,40.06,3.26,58.1-5.02c16.03-7.08,29.73-19.08,39.29-33.72
		c9.28-13.8,14.18-30.12,15.68-46.58c0.99,8.22,2.17,16.48,4.93,24.33c9,27.69,31.52,50.82,59.41,59.61
		c18.53,5.94,39.01,5.4,57.28-1.27c18.98-7,35.38-20.56,46.04-37.73C588.64,640.73,593.06,624.32,594.47,607.87 M287.1,795.48
		c-0.39,47.84-0.07,95.68-0.15,143.51c-0.08,71.45,0.06,142.9-0.07,214.35c67.04-0.12,134.09,0,201.14-0.0499
		c207.49,0.0599,414.98-0.0801,622.47,0.0699c0.24-15.45,0.04-30.91,0.1-46.37c-0.0299-103.82,0.0601-207.64-0.0399-311.47
		C836.06,795.49,561.58,795.52,287.1,795.48z"/>
	<path fill="#41210A" stroke="#41210A" stroke-width="0.0938" d="M622.58,819.75c5.19-0.02,10.38-0.03,15.58,0
		c10.06,11.18,15.58,27.2,11.64,42.06c-1.95,8.17-7.96,14.45-14.07,19.83c-4.12,3.9-9.08,7.52-10.9,13.15
		c-1.7,5.2-1.82,10.86-0.89,16.23c1.8,8.69,7.42,16.12,14.24,21.59c-5.28,0.02-10.55,0.01-15.82-0.01
		c-8.43-9.35-13.85-21.92-12.92-34.64c0.58-9.57,5-18.92,12.29-25.19c4.36-3.86,9.61-7.04,12.52-12.24
		c3.4-6.59,3.71-14.52,1.78-21.58C633.85,831.23,628.5,824.94,622.58,819.75z"/>
	<path fill="#41210A" stroke="#41210A" stroke-width="0.0938" d="M668.08,819.73c5.17,0,10.35,0.04,15.53-0.05
		c10.93,11.74,16.43,29.49,10.9,44.96c-3.65,10.41-13.53,16.38-20.61,24.21c-5.1,5.73-5.31,13.9901-4.5,21.22
		c1.44,9.1,7.37,16.78,14.3199,22.53c-5.15-0.0699-10.31,0.2401-15.4399-0.09c-6.35-5.94-10.17-14.22-12.3-22.54
		c-3.16-13.08,0.79-27.96,11.02-36.93c5.18-4.5099,11.67-8.37,14.08-15.16c2.85-8.08,2.17-17.38-1.89-24.93
		C676.49,827.79,672.47,823.48,668.08,819.73z"/>
	<path fill="#41210A" stroke="#41210A" stroke-width="0.0938" d="M721.78,819.78c5.18-0.07,10.36-0.04,15.55-0.05
		c10.2,11.18,15.74,27.42,11.63,42.34c-1.89,7.66-7.39,13.67-13.13,18.78c-4.41,4.26-9.91,8.07-11.83,14.2
		c-2.6,8.55-1.64,18.3,3.12,25.94c2.64,4.49,6.28,8.27,10.23,11.61c-5.2599,0.02-10.52,0.05-15.78,0
		c-7.06-7.95-12.04-17.98-12.89-28.67c-0.89-11.21,3.14-23,11.65-30.55c4.84-4.46,11.06-7.95,13.83-14.21
		c3.82-8.96,2.77-19.73-2.34-27.98C729.24,826.77,725.57,823.15,721.78,819.78z"/>
	<path fill="#41210A" stroke="#41210A" stroke-width="0.0938" d="M1293.72,901.84c60.2101,0.02,120.42,0.03,180.63,0
		c0,30.53-0.02,61.05,0.02,91.58c-60.21,0.01-120.42,0.02-180.63,0C1293.71,962.89,1293.75,932.37,1293.72,901.84 M1326.29,930.25
		c-5.42,5.21-10.4501,11.9-10.51,19.75c0.11,4.67,1.51,9.91,5.5399,12.73c4.2101,3.05,9.9,2.57,14.6101,1.06
		c9.63-3.3,17.4399-10.84,22.1599-19.74c2.24-4.59,3.9501-9.9,2.6801-15c-0.63-2.85-3.84-3.45-6.09-4.53
		c1.49-0.59,3.0199-1.17,4.5399-1.75c-0.4-3.92-4.12-7.91-8.2999-6.6C1341.5699,918.32,1333.21,923.74,1326.29,930.25
		 M1375.99,932.04c-5.99,6.67-12.2,13.15-18.3199,19.72c-1.63,1.45-2.04,3.56-2.0801,5.66c3.76-2.99,7-6.57,10.6901-9.65
		c-3.3301,7.48-8.54,13.87-12.7001,20.85c-1.71,3.26-3.5,7.85-0.74,11.03c2.4301-0.13,3.4301-2.52,4.51-4.32
		c2.02-3.87,3.9-7.81,5.8301-11.73c4.33-0.0699,8.58,0.96,12.8899,1.12c6.37-0.27,11.4801-4.59,16.16-8.47
		c0.75,3.81,2.26,8.71,6.74,9.41c7.2001,0.6801,12.9601-4.53,18.22-8.68c0.8301,2.78,0.79,7.76,4.8601,7.52
		c5.6799-4.1,8.7699-10.95,14.85-14.68c-2.03,4.27-6.23,8.7-4.34,13.77c1.11,2.8799,4.9399,2.3799,7.1,1.0699
		c4.1-2.42,7.5399-5.8,10.83-9.21c1.4301-1.26,1.4401-3.28,1.73-5c-3.9099,2.31-6.98,6.74-11.72,7.19c-1.3-6.06,6.11-8.96,8.2-13.9
		c-0.12-2-0.7999-3.91-1.2699-5.82c-5.3201,1.62-9.6901,5.18-13.9801,8.57c-3.5199,2.79-6.1799,6.56-10.01,8.96
		c1.65-5,6.9401-7.43,9.01-12.13c0.77-2.94-3.72-2.06-5.45-1.94c-5.1801,2.69-6.49,9.22-11.23,12.46
		c-3.9401,2.83-8.53,6.58-13.7001,5.31c-2.1499-0.19-2.37-2.56-2.4299-4.23c5.35-2.93,11.8199-4.43,15.76-9.44
		c1.77-1.92,1.2999-4.61,1.24-6.97c-8.05-2.48-16.89,1.98-21.08,8.96c-3.4601,6.04-9.5901,11.41-16.9,11.33
		c3.4199-4.3,8.1599-7.66,10.34-12.85c0.83-2.03,1.23-5-0.9301-6.34c-5.86-0.69-10.3199,4.05-15.4199,6.07
		c2.3099-4.25,5.7999-7.62,9-11.17c0.73-1.09,2.0699-2.16,1.71-3.63C1380.96,929.48,1377.7,929.71,1375.99,932.04z"/>
	<path fill="#41210A" stroke="#41210A" stroke-width="0.0938" d="M1332.15,941.95c4.5499-5.8,10.33-11.24,17.77-12.81
		c1.48-0.46,3.09-0.25,4.38,0.67c1.7,4.79-1.6101,9.49-4.1101,13.35c-5.1,6.55-11.0099,13.29-19.21,15.82
		c-2.37,0.73-5.38,1.47-7.29-0.61c-2.3199-6.79,2.4801-13.07,6.4-18.14C1330.76,940.79,1331.45,941.36,1332.15,941.95z"/>
	<path fill="#41210A" stroke="#41210A" stroke-width="0.0938" d="M1400.39,950.66c2.08-4.39,5.78-8.31,10.88-8.75
		C1408.98,946.2,1404.99,949.23,1400.39,950.66z"/>
	<path fill="#41210A" stroke="#41210A" stroke-width="0.0938" d="M1368.1899,956.53c3.28-4.47,7.5901-8.44,13.1001-9.85
		c-1.23,4.03-3.91,7.54-7.2001,10.1C1372.1,956.86,1370.14,956.66,1368.1899,956.53z"/>
	<path fill="#41210A" stroke="#41210A" stroke-width="0.0938" d="M635.07,951.97c43.69-3.04,87.64-2.31,131.21,2.16
		c0.42,1.57,1.67,2.36,3.24,2.56c12.21,2.68,23.99,9.22,31.24,19.61c5.85,8.23,8.09,19.02,5.39,28.82
		c-3.26,12.5-13.47,22.15-25.01,27.29c-7.36,3.37-15.41,4.95-23.46,5.35c-1.99,18.8-4.17,37.5699-6.17,56.37
		c-36.83,0.1-73.66,0-110.49,0.0599c-5.49,0.15-10.97-0.9399-16.43-0.0199c-0.38-5.0701-1.03-10.16-3.26-14.79
		c-6.47-18.89-9.9-38.67-12.63-58.39c-2.27-18.58-4.14-37.39-2.45-56.09c0.66-3.95,0.8-8.67,3.86-11.57
		C618.45,954.02,626.74,952.26,635.07,951.97 M765.27,969.75c-2.11,18.06-4.06,36.13-6,54.21c11.47-1.01,23.49-5.6,30.3-15.33
		c4.49-6.21,5.32-14.9,1.58-21.66C786.12,977.28,775.56,971.96,765.27,969.75z"/>
	<path fill="#41210A" stroke="#41210A" stroke-width="0.0938" d="M1481.59,1020.89c5.14-1.55,10.9301-0.87,15.48,2.03
		c5.7201,3.53,9.0901,10.3901,8.52,17.08c-0.46,6.4399-4.5399,12.51-10.4199,15.22c-5.9301,2.87-13.38,2.28-18.7101-1.58
		c-5.84-4.0601-8.9299-11.71-7.4299-18.67C1470.25,1028.45,1475.26,1022.84,1481.59,1020.89z"/>
	<path fill="#41210A" stroke="#41210A" stroke-width="0.0938" d="M561.15,1102.86c82.42-0.04,164.84,0,247.2599-0.01
		c-0.91,7.42-4.03,14.92-10.27,19.4c-9.75,7.24-22.46,8.24-34.19,8.55c-52.99-0.17-105.99-0.14-158.98-0.01
		c-11.23-0.3301-23.22-1.39-32.75-7.91C565.6,1118.39,561.94,1110.67,561.15,1102.86z"/>
	<path fill="#8D613C" stroke="#8D613C" stroke-width="0.0938" d="M344.33,185.4c5.53-1.72,12.26-2.45,17.19,1.2
		c4.54,3.64,5.14,10.23,3.72,15.52c-2.5,8.82-8.2,16.24-13.97,23.18c-7.62,8.44-16.1,16.31-26.12,21.81
		c-3.44,1.73-7.19,3.62-11.15,3.13c-3.89-0.54-5.92-5.21-4.51-8.66c1.81-5.12,6.42-8.38,10.35-11.81
		c4.21-3.41,7.63-7.95,12.78-10.04c0.28,0.84,0.83,2.54,1.11,3.39c7.5-7.06,15.15-14.4,19.77-23.75c1.13-1.95,0.48-4.15,0.08-6.2
		c-6.89,0.77-13.33,3.62-19.03,7.48c-9.98,6.73-18.71,15.16-26.62,24.2c-8.38,8.95-15.27,19.57-18.53,31.47
		c-1.36,5.45-1.96,11.59,0.65,16.77c1.88,3.68,5.94,5.83,9.99,6.07c6.79,0.61,13.32-2.01,19.37-4.81
		c14.89-7.1,28.06-17.2,40.79-27.58c-0.29,2.62-0.1,5.53-1.77,7.76c-2.5,3.44-5.85,6.13-8.9,9.07
		c-12.22,11.04-25.91,20.97-41.63,26.35c-8.16,2.79-17.37,3.86-25.55,0.54c-6.63-2.54-11.6-8.61-13.12-15.51
		c-2.11-9.29,0.59-18.9,4.52-27.33c8.91-18.01,23.41-32.63,39.4-44.51C322.79,196.06,332.89,189.22,344.33,185.4z"/>
	<path fill="#8D613C" stroke="#8D613C" stroke-width="0.0938" d="M685.93,191.81c16.23-5.86,34.06-8.32,51.11-5.03
		c1.55,0.56,4.1,0.36,4.63,2.34c1.09,5.16,0.11,11.79-4.88,14.64c-4.99,2.82-10.7599,4.1-15.37,7.64c-2.26,1.27-5.61,4.5-7.86,1.65
		c1.67-4.55,6.19-7.03,9.56-10.19c-12.33,0.33-24.78,2.3-36.19,7.12c-5,2.33-10.56,4.88-13,10.2c7.51,3.99,16,5.34,24.12,7.55
		c9.44,2.46,20.19,3.45,27.33,10.88c4.91,4.93,4.21,13.03,0.76,18.57c-4.39,7.2-12.28,11.26-19.99,13.97
		c-14.1801,4.75-29.27,6.2-44.16,6.19c-5.68-0.28-11.91-0.22-16.8-3.53c-2.41-1.41-2.51-4.69-1.37-6.95
		c1.54-3.24,3.42-6.45,6.11-8.87c3.65-2.5,8.14-3.3,12.45-3.94c-0.8,2.45-2.81,4.1-4.67,5.73c12.83,0.51,25.81,0.03,38.37-2.79
		c7.96-1.95,16.35-4.66,21.86-11.11c-1.93-2.14-4.21-4.01-7-4.89c-11.94-4.26-24.57-6.04-37.03-8.12
		c-3.86-0.8-8.25-1.62-10.7599-4.96c-2.84-3.74-1.84-8.74-1.04-12.99c1.08-4.63,1.96-9.81,5.69-13.14
		C672.99,197.13,679.5,194.3,685.93,191.81z"/>
	<path fill="#8D613C" stroke="#8D613C" stroke-width="0.0938" d="M780.49,194.39c3.16-2.42,6.98-6.03,11.28-4.17
		c2,0.55,2.84,2.92,1.96,4.73c-1.86,5.25-5.68,9.48-8.96,13.88c-12.75,15.78-26.63,30.63-40.88,45.05c0.03,1.58,0.07,3.15,0.13,4.73
		c8.88-7,17.36-14.55,26.75-20.89c2.91-1.87,5.84-3.87,9.23-4.78c4.4-1.5,9.52,4.01,7.11,8.2c-3.72,6.39-9.72,11.14-13.32,17.61
		c-0.71,1.14-0.9,3.14,0.42,3.92c1.57,1.41,3.74,0.35,5.46-0.19c4.43-1.88,8.31-4.8,12.28-7.48c0.76-9.19,7.07-16.63,14.53-21.48
		c6.34-4.4,13.79-7.46,21.55-7.88c2.6899-0.12,5.93,0.42,7.48,2.9c0.99,1.98-0.6,3.74-1.58,5.32c1.4,1.52,3.44,2.83,3.53,5.13
		c0.99,6.61-2.47,12.6-4.85,18.5c5.46-0.2,9.68-3.89,13.14-7.75c8.5-9.09,16.87-18.31,25.48-27.3c3.5-3.57,6.27-8.11,10.79-10.52
		c2.88-1.31,6.62-1.04,9.09,1.05c1.22,2.74-1.56,5.07-3.06,7.06c-6.15,6.51-12.89,12.84-16.54,21.19
		c7.89-4.55,15.31-10.58,24.47-12.31c2.66-0.7,5.85,0.57,6.74,3.31c1.23,4.12-0.4399,8.44-2.53,11.99
		c-4.68,7.74-11.56,13.75-17.96,20.02c3.86,0.09,7.93,0.26,11.51-1.44c6.13-2.84,10.82-7.87,16.13-11.91
		c0.31,1.95,0.63,3.9,0.95,5.86c-9.16,9.21-20.37,18.05-33.82,18.98c-4.83,0.69-9.14-2.41-13.92-2.1c-2.98,0.07-5.95,0.08-8.92-0.03
		c-3.14,6.65-6.7,13.09-9.9,19.71c-1.65,3.15-3.16,6.63-6.11,8.81c-1.2401,0.96-2.9901,0.79-4.2401-0.01
		c-1.3199-1.72-1.54-4-1.52-6.09c0.2-6,2.7-11.66,5.93-16.62c8.09-11.81,15.98-23.82,22.64-36.49c-5.09,4.2-9.72,8.93-14.32,13.64
		c-3.42,3.85-7.39,7.59-12.57,8.75c-3.3,1.07-7.35,0.24-10,2.86c-3.29,2.89-6.87,5.59-11.11,6.88c-4.48,1.44-9.95,1.93-13.87-1.16
		c-4.04-3.1-5.6201-8.17-6.92-12.88c-6.74,5.13-13.43,10.51-21.14,14.13c-2.9301,1.34-6.63,2.48-9.45,0.27
		c-2.49-2.18-2.59-5.96-1.92-8.96c2.14-8,8.31-13.87,12.6-20.71c-11.01,6.81-19.76,16.55-28.54,25.92
		c-1.56,1.55-4.06,4.05-6.17,1.87c-3.11-3.67-3.08-8.91-3.15-13.47c0.08-10.01,5.8-18.62,11.05-26.69
		C755.23,218.81,767.04,205.62,780.49,194.39 M807.38,249.43c-3.39,3.6-6.09,8.53-5.34,13.61c0.35,2.79,3.57,3.64,5.96,3.49
		c3.81-0.05,6.85-2.61,9.52-5.03c-0.8-2.73-1.77-5.57-1.23-8.45c0.83-4.55,3.25-8.57,5.17-12.72
		C816.53,242.95,811.45,245.55,807.38,249.43 M863.64,260.16c3.66,0.27,7.31,0.73,10.91,1.47c3.73-4.62,7.97-8.87,11.31-13.8
		c1.25-1.68,0.79-3.85,0.63-5.76C876.98,245.2,869.43,252.2,863.64,260.16z"/>
	<path fill="#8D613C" stroke="#8D613C" stroke-width="0.0938" d="M453.75,198.72c2.15-2.66,5.42-5.68,9.03-3.68
		c1.56,10.11-3.48,19.66-9.33,27.51c-7.14,9.95-14.42,19.8-21.35,29.89c3.04,2.92,5.07,6.63,6.66,10.5
		c5.74-3.71,11.63-7.2,17.35-10.94c0.45,1.01,0.9,2.03,1.35,3.05c4.22-4.51,10.41-6.38,14.62-10.9c5.38-5.31,8.5-12.31,12.16-18.81
		c5.1-9.05,10.34-18.09,16.9-26.18c2.07-2.8,4.97-5.02,8.58-5.13c1.53,4.35,1.39,9.11-0.3,13.4c-2.69,8.78-8.9,15.7-14,23.12
		c-5.16,7.31-10.62,14.4-15.49,21.92c3,2.91,4.97,6.61,6.53,10.44c5.05-3.12,10.05-6.31,15.14-9.36c3.13-1.74,3.75-5.56,5.56-8.36
		c6.21-10.56,17.47-18.77,29.91-19.56c3.69-0.18,8.57,0.09,10.4,3.92c1.51,4.64-1.25,9.3-4.4399,12.5
		c-7.35,7.29-17.29,11.04-26.88,14.39c0.22,2.58-0.64,5.92,1.83,7.68c2.88,2.24,6.87,1.93,10.24,1.2c7.66-2.13,13.92-7.3,20.14-12
		c3.69-2.56,4.63-7.24,7.18-10.7c5.55-7.97,14.01-14.02,23.47-16.34c4.26-0.81,9.03-1.37,13.05,0.65c3.17,1.83,3.23,6.05,1.92,9.07
		c-2.45,5.84-7.82,9.73-13.13,12.79c-5.63,3.19-11.67,5.59-17.83,7.54c0.15,2.64-0.68,6.09,1.92,7.83
		c3.16,2.23,7.39,1.93,10.95,0.92c8.67-2.66,15.31-9.08,22.55-14.21c0.35,1.7,0.7,3.4,1.07,5.1c-7.58,8.1-16.07,15.95-26.67,19.83
		c-5.36,1.9-11.94,2.77-16.78-0.87c-4.75-3.59-6.02-9.8-6.6-15.38c-7.45,7.14-15.66,14.14-25.79,17.01
		c-4.98,1.4-11.01,1.52-15.07-2.16c-4.31-3.63-5.32-9.49-6.02-14.77c-4.05,3.75-8.88,6.46-13.28,9.74
		c-1.01,3.76-0.02,7.9-1.32,11.67c-3.37,11.2-12.45,19.99-22.67,25.22c-2.68,1.57-5.8,1.69-8.81,1.49
		c-4.21-6.09-5.34-13.89-3.87-21.07c1.68-7.21,5.27-13.73,8.35-20.4c-2-2.49-3.36-5.39-4.12-8.48c-4.87,4.23-9.91,8.31-15.61,11.4
		c-0.02,6.01-0.29,12.29-3.33,17.65c-5.04,9.06-13.18,16.56-22.84,20.42c-2.57,1.17-6.25,1.18-7.69-1.67
		c-2.88-5.01-3.54-11.1-2.92-16.76c1.36-8.11,5.42-15.38,8.79-22.77c-0.95-1.2-1.89-2.39-2.83-3.59c-4.51,2.68-9.65,3.8-14.83,4.08
		c-5.32,5.59-12.65,9.93-20.59,9.56c-4.11-0.18-7.69-2.94-9.69-6.41c-4.92-8.48-4.67-20.04,1.63-27.76
		c7.05-8.46,17.21-14.31,28.09-16.07c3.45-0.54,7.53-0.57,10.13,2.15c1.11,2.12-0.17,4.11-1.42,5.78c1.43,1.5,3.36,2.9,3.48,5.18
		c1.13,6.66-2.43,12.71-4.99,18.57c2.89-0.45,5.96-0.95,8.1-3.15c4.17-4.05,9.91-5.93,13.93-10.15c4.67-4.61,7.62-10.54,10.72-16.23
		C440.61,217.89,446.4,207.74,453.75,198.72 M517.13,249.74c6.37-2.17,12.25-5.9,16.77-10.9c1.58-1.59,2.27-3.8,2.37-5.99
		C527.61,234.97,520.63,241.67,517.13,249.74 M564.13,249.85c6.46-2.53,12.64-6.25,17.09-11.66c1.07-1.44,2.47-3.18,1.55-5.06
		C574.22,234.83,567.29,241.93,564.13,249.85 M378.36,248.39c-3.7,3.15-6.21,7.74-6.65,12.59c-0.24,2.23,0.83,4.86,3.28,5.26
		c4.73,1.27,9.2-1.54,12.37-4.79c-0.69-2.45-1.63-4.95-1.3-7.54c0.54-4.89,3.18-9.16,5.13-13.58
		C386.72,242.68,382.24,245.12,378.36,248.39 M415.76,286.06c-0.42,3.9,1.05,7.63,2.44,11.2c8.42-5.37,13.76-15.17,13.27-25.21
		c-3.27-0.18-6.53-0.45-9.76-0.96C418.97,275.72,416.29,280.61,415.76,286.06 M469.15,271.22c-2.57,4.97-5.44,10.08-5.68,15.81
		c-0.21,3.62,1.24,7.02,2.57,10.3c8.29-5.56,13.64-15.21,13.2-25.28C475.86,271.85,472.5,271.59,469.15,271.22z"/>
	<path fill="#8D613C" stroke="#8D613C" stroke-width="0.0938" d="M46.09,441.82c7.95,0.67,15.94,0.21,23.9,0.34
		c388.66,0,777.31,0.01,1165.96,0c211.39,0.07,422.79-0.1,634.1901,0.09c0.1899,53.25,0.03,106.51,0.08,159.76
		c0.17,21.08-6.34,42.27-19.0699,59.14c-10.9601,14.77-26.41,26.22-43.86,32.08c-19.6901,6.7-41.78,6.14-61.0601-1.65
		c-17.85-7.14-33.1899-20.13-43.4199-36.38c-9.17-14.05-13.7401-30.59-15.15-47.19c-0.9601,33.41-21.25,65.54-51.24,80.41
		c-19.9801,10.2-43.9401,12.21-65.36,5.62c-27.6101-8.17-50.03-30.49-59.6901-57.45c-3.37-9.1801-5.05-18.89-5.8099-28.61
		c-0.9901,20.1-8.25,39.92-20.89,55.63c-8.99,11.25-20.5701,20.46-33.7201,26.37c-17.5499,8-37.7799,10.02-56.5399,5.55
		c-18.0601-4.13-34.6901-14.1801-46.91-28.08c-14.1899-15.72-22.33-36.3-24.15-57.29c-1.59,15.9301-6.28,31.67-15.02,45.19
		c-10.13,16.09-25.36,28.9-42.98,36.07c-18.4399,7.52-39.46,8.46-58.52,2.73c-14.3099-4.37-27.6-12.22-38.0399-22.97
		c-16.62-16.35-26.1901-39.14-27.73-62.29c-1.1801,16.57-6.2001,32.92-15.29,46.87c-10.39,16.24-25.9301,29.2-43.9301,36.15
		c-18.59,7.2401-39.6599,7.8701-58.67,1.8c-16-5.06-30.46-14.8-41.34-27.56c-14.11-16.11-21.64-37.07-23.26-58.26
		c-0.77,25.91-12.92,51.21-32.6,68.07c-15.4,13.45-35.52,21.42-55.98,21.86c-27.57,0.97-54.93-12.11-72.05-33.62
		c-12.87-15.58-19.95-35.34-21.46-55.39c-1,15.99-5.76,31.76-14.26,45.38c-10.3,16.85-26.1,30.34-44.5099,37.56
		c-13.79,5.49-28.9901,7.21-43.69,5.39c-19.39-2.5-37.84-11.63-51.61-25.51c-16.9-16.7-27.18-39.99-27.94-63.76
		c-1.41,16.45-5.83,32.86-14.81,46.85c-10.66,17.17-27.06,30.73-46.04,37.73c-18.27,6.67-38.75,7.21-57.28,1.27
		c-27.89-8.79-50.41-31.92-59.41-59.61c-2.76-7.85-3.94-16.11-4.93-24.33c-1.5,16.46-6.4,32.78-15.68,46.58
		c-9.56,14.64-23.26,26.64-39.29,33.72c-18.04,8.28-38.91,9.89-58.1,5.02c-30.47-7.65-55.52-32.34-64.66-62.2599
		c-2.56-7.83-3.73-16.01-4.63-24.16c-1.13,19.9-8.36,39.5-20.92,55.03c-13.7,17.2599-33.78,29.43-55.58,32.95
		c-21.13,3.61-43.5-0.85-61.59-12.34c-22.61-13.99-38.32-38.15-42.7-64.29c-1.85-9.91-1.38-20.03-1.44-30.05
		c0.03-47.99-0.03-95.98,0.03-143.96C47.52,444.47,47.33,442.88,46.09,441.82z"/>
	<path fill="#8D613C" stroke="#8D613C" stroke-width="0.0938" d="M1232.12,782.11c101.25,0,202.5,0.02,303.75-0.01
		c-0.04,171-0.03,342.01-0.01,513.02c-101.25,0.02-202.5,0.03-303.75,0C1232.16,1124.11,1232.14,953.11,1232.12,782.11
		 M1247.36,934.98c0.02,111.49-0.04,222.99,0.03,334.49c91.08,0,182.15-0.0399,273.23,0.01c0.03-153.9299,0.13-307.87-0.0599-461.8
		c-91.03-0.01-182.0701,0.03-273.1101-0.02C1247.23,850.1,1247.42,892.54,1247.36,934.98z"/>
	<path fill="#8D613C" stroke="#8D613C" stroke-width="0.0938" d="M287.1,795.48c274.48,0.04,548.96,0.01,823.4501,0.04
		c0.1,103.83,0.01,207.65,0.0399,311.47c-0.0599,15.46,0.14,30.92-0.1,46.37c-207.49-0.15-414.98-0.01-622.47-0.0699
		c-67.05,0.0499-134.1-0.0701-201.14,0.0499c0.13-71.45-0.01-142.9,0.07-214.35C287.03,891.16,286.71,843.32,287.1,795.48
		 M319.31,1139.37c253-0.0699,506,0.03,759.0001-0.05c0.0099-109.9199-0.02-219.85,0.0099-329.77
		c-253.0099,0.03-506.02,0.04-759.0299-0.01C319.23,919.48,319.19,1029.4301,319.31,1139.37z"/>
	<path fill="#8D613C" stroke="#8D613C" stroke-width="0.0938" d="M1326.29,930.25c6.9199-6.51,15.2799-11.93,24.63-14.08
		c4.1799-1.31,7.8999,2.68,8.2999,6.6c-1.52,0.58-3.0499,1.16-4.5399,1.75c2.25,1.08,5.46,1.68,6.09,4.53
		c1.27,5.1-0.4401,10.41-2.6801,15c-4.72,8.9-12.5299,16.44-22.1599,19.74c-4.7101,1.51-10.4,1.9901-14.6101-1.06
		c-4.0299-2.82-5.4299-8.06-5.5399-12.73C1315.84,942.15,1320.87,935.46,1326.29,930.25 M1332.15,941.95
		c-0.7001-0.59-1.39-1.16-2.0601-1.72c-3.9199,5.07-8.72,11.35-6.4,18.14c1.91,2.08,4.92,1.34,7.29,0.61
		c8.2001-2.53,14.11-9.27,19.21-15.82c2.5-3.86,5.8101-8.56,4.1101-13.35c-1.29-0.92-2.9-1.13-4.38-0.67
		C1342.48,930.71,1336.7,936.15,1332.15,941.95z"/>
	<path fill="#8D613C" stroke="#8D613C" stroke-width="0.0938" d="M1375.99,932.04c1.71-2.33,4.97-2.56,7.37-1.16
		c0.36,1.47-0.98,2.54-1.71,3.63c-3.2001,3.55-6.6901,6.92-9,11.17c5.1-2.02,9.5599-6.76,15.4199-6.07
		c2.16,1.34,1.76,4.31,0.9301,6.34c-2.1801,5.19-6.92,8.55-10.34,12.85c7.3099,0.08,13.4399-5.29,16.9-11.33
		c4.1899-6.98,13.0299-11.4399,21.08-8.96c0.0599,2.36,0.53,5.05-1.24,6.97c-3.9401,5.01-10.41,6.51-15.76,9.44
		c0.0599,1.67,0.28,4.04,2.4299,4.23c5.17,1.27,9.76-2.48,13.7001-5.31c4.74-3.2401,6.0499-9.77,11.23-12.46
		c1.73-0.12,6.22-1,5.45,1.94c-2.0699,4.7-7.36,7.13-9.01,12.13c3.8301-2.4,6.4901-6.17,10.01-8.96
		c4.29-3.39,8.66-6.95,13.9801-8.57c0.47,1.91,1.1499,3.82,1.2699,5.82c-2.09,4.94-9.5,7.84-8.2,13.9
		c4.74-0.45,7.8101-4.88,11.72-7.19c-0.2899,1.72-0.2999,3.74-1.73,5c-3.29,3.41-6.73,6.79-10.83,9.21
		c-2.16,1.31-5.99,1.81-7.1-1.0699c-1.89-5.07,2.3099-9.5,4.34-13.77c-6.0801,3.73-9.17,10.58-14.85,14.68
		c-4.0701,0.24-4.03-4.74-4.8601-7.52c-5.2599,4.15-11.0199,9.36-18.22,8.68c-4.48-0.7-5.99-5.6-6.74-9.41
		c-4.6799,3.88-9.79,8.2-16.16,8.47c-4.3099-0.16-8.5599-1.1899-12.8899-1.12c-1.9301,3.92-3.8101,7.86-5.8301,11.73
		c-1.08,1.8-2.08,4.19-4.51,4.32c-2.76-3.1801-0.97-7.77,0.74-11.03c4.16-6.98,9.37-13.37,12.7001-20.85
		c-3.6901,3.08-6.9301,6.66-10.6901,9.65c0.04-2.1,0.4501-4.21,2.0801-5.66C1363.79,945.19,1370,938.71,1375.99,932.04
		 M1400.39,950.66c4.6-1.43,8.59-4.46,10.88-8.75C1406.17,942.35,1402.47,946.27,1400.39,950.66 M1368.1899,956.53
		c1.9501,0.1299,3.91,0.33,5.9,0.25c3.29-2.5601,5.9701-6.07,7.2001-10.1C1375.78,948.09,1371.47,952.06,1368.1899,956.53z"/>
	<path fill="#E6E6E6" stroke="#E6E6E6" stroke-width="0.0938" d="M1247.36,934.98c0.0601-42.44-0.13-84.88,0.09-127.32
		c91.04,0.05,182.0801,0.01,273.1101,0.02c0.1899,153.93,0.09,307.8701,0.0599,461.8c-91.08-0.0499-182.15-0.01-273.23-0.01
		C1247.3199,1157.97,1247.38,1046.47,1247.36,934.98 M1293.72,901.84c0.03,30.53-0.01,61.05,0.02,91.58
		c60.21,0.02,120.42,0.01,180.63,0c-0.04-30.53-0.02-61.05-0.02-91.58C1414.14,901.87,1353.9301,901.86,1293.72,901.84
		 M1481.59,1020.89c-6.33,1.95-11.34,7.5599-12.5599,14.08c-1.5,6.9601,1.59,14.61,7.4299,18.67
		c5.3301,3.86,12.78,4.45,18.7101,1.58c5.88-2.71,9.96-8.78,10.4199-15.22c0.5701-6.6899-2.7999-13.55-8.52-17.08
		C1492.52,1020.02,1486.73,1019.34,1481.59,1020.89z"/>
	<path fill="#E6E6E6" stroke="#E6E6E6" stroke-width="0.0938" d="M319.31,1139.37c-0.12-109.9399-0.08-219.89-0.02-329.83
		c253.01,0.05,506.02,0.04,759.0299,0.01c-0.0299,109.92,0,219.85-0.0099,329.77C825.31,1139.4,572.31,1139.3,319.31,1139.37
		 M622.58,819.75c5.92,5.19,11.27,11.48,13.45,19.2c1.93,7.06,1.62,14.99-1.78,21.58c-2.91,5.2-8.16,8.3799-12.52,12.24
		c-7.29,6.27-11.71,15.62-12.29,25.19c-0.93,12.72,4.49,25.29,12.92,34.64c5.27,0.02,10.54,0.03,15.82,0.01
		c-6.82-5.47-12.44-12.9-14.24-21.59c-0.93-5.37-0.81-11.03,0.89-16.23c1.82-5.63,6.78-9.25,10.9-13.15
		c6.11-5.38,12.12-11.66,14.07-19.83c3.94-14.86-1.58-30.88-11.64-42.06C632.96,819.72,627.77,819.73,622.58,819.75 M668.08,819.73
		c4.39,3.75,8.41,8.06,11.11,13.22c4.06,7.55,4.74,16.85,1.89,24.93c-2.41,6.79-8.9,10.65-14.08,15.16
		c-10.23,8.97-14.18,23.85-11.02,36.93c2.13,8.32,5.95,16.6,12.3,22.54c5.1299,0.33,10.29,0.02,15.4399,0.09
		c-6.95-5.75-12.8799-13.43-14.3199-22.53c-0.81-7.23-0.6-15.49,4.5-21.22c7.08-7.83,16.96-13.8,20.61-24.21
		c5.53-15.47,0.03-33.22-10.9-44.96C678.43,819.77,673.25,819.73,668.08,819.73 M721.78,819.78c3.79,3.37,7.46,6.99,10.04,11.41
		c5.11,8.25,6.16,19.02,2.34,27.98c-2.77,6.26-8.99,9.75-13.83,14.21c-8.51,7.55-12.54,19.34-11.65,30.55
		c0.85,10.69,5.83,20.72,12.89,28.67c5.26,0.05,10.52,0.02,15.78,0c-3.95-3.34-7.59-7.12-10.23-11.61
		c-4.76-7.64-5.72-17.39-3.12-25.94c1.92-6.13,7.42-9.94,11.83-14.2c5.74-5.11,11.24-11.12,13.13-18.78
		c4.11-14.92-1.43-31.16-11.63-42.34C732.14,819.74,726.96,819.71,721.78,819.78 M635.07,951.97c-8.33,0.29-16.62,2.05-24.96,1.36
		c-3.06,2.9-3.2,7.62-3.86,11.57c-1.69,18.7,0.18,37.5099,2.45,56.09c2.73,19.72,6.16,39.5,12.63,58.39
		c2.23,4.63,2.88,9.72,3.26,14.79c5.46-0.92,10.94,0.1699,16.43,0.0199c36.83-0.0599,73.66,0.04,110.49-0.0599
		c2-18.8,4.18-37.5699,6.17-56.37c8.05-0.4,16.1-1.98,23.46-5.35c11.54-5.14,21.75-14.79,25.01-27.29c2.7-9.8,0.46-20.59-5.39-28.82
		c-7.25-10.39-19.03-16.93-31.24-19.61c-1.57-0.2-2.82-0.99-3.24-2.56C722.71,949.66,678.76,948.93,635.07,951.97 M561.15,1102.86
		c0.79,7.8101,4.45,15.53,11.0699,20.02c9.53,6.52,21.52,7.58,32.75,7.91c52.9901-0.13,105.9901-0.16,158.98,0.01
		c11.73-0.3101,24.44-1.3101,34.19-8.55c6.24-4.48,9.36-11.98,10.27-19.4C725.99,1102.86,643.57,1102.8199,561.15,1102.86z"/>
	<path fill="#E6E6E6" stroke="#E6E6E6" stroke-width="0.0938" d="M765.27,969.75c10.29,2.21,20.85,7.53,25.88,17.22
		c3.74,6.76,2.91,15.45-1.58,21.66c-6.81,9.73-18.83,14.32-30.3,15.33C761.21,1005.88,763.16,987.81,765.27,969.75z"/>
</g>
</svg>
