<svg height="512pt" viewBox="0 0 512.00003 512" width="512pt" xmlns="http://www.w3.org/2000/svg"><path d="m502 242h-13v-111.921875l4.746094 6.9375c1.9375 2.832031 5.070312 4.355469 8.261718 4.355469 1.945313 0 3.910157-.566406 5.636719-1.746094 4.558594-3.117188 5.726563-9.339844 2.609375-13.898438l-83-121.367187c-1.863281-2.726563-4.953125-4.359375-8.253906-4.359375-3.304688 0-6.394531 1.632812-8.257812 4.359375l-48.269532 70.640625h-178.445312l-20.929688-28.871094c-1.882812-2.59375-4.894531-4.128906-8.097656-4.128906s-6.214844 1.535156-8.097656 4.128906l-20.929688 28.871094h-43.972656c-3.3125 0-6.410156 1.640625-8.273438 4.382812l-72 106c-2.078124 3.0625-2.296874 7.023438-.5625 10.296876 1.730469 3.273437 5.132813 5.320312 8.835938 5.320312h24.625l-32.722656 45.128906c-2.203125 3.042969-2.519532 7.066406-.808594 10.414063 1.707031 3.347656 5.148438 5.457031 8.90625 5.457031h2v240c0 5.523438 4.476562 10 10 10h480c5.523438 0 10-4.476562 10-10v-250c0-5.523438-4.476562-10-10-10zm-133-21h10c5.507812 0 10-4.488281 10-10s-4.492188-10-10-10h-10v-100.101562l50-73.171876 50 73.171876v100.101562h-10c-5.511719 0-10 4.488281-10 10s4.488281 10 10 10h10v21h-100zm-20.242188-126-21.011718 30.726562c-3.117188 4.558594-1.949219 10.78125 2.609375 13.898438 1.722656 1.179688 3.691406 1.746094 5.632812 1.746094 3.191407 0 6.328125-1.523438 8.265625-4.355469l4.746094-6.9375v50.921875h-88.125l-62.347656-86zm.242188 106v41h-43.898438l-29.726562-41zm-320.117188-20 58.414063-86h24.175781l-62.347656 86zm163.117188 311h-160v-20h160zm80 0h-60v-140h60zm8.210938-249.832031c-4.609376.835937-8.210938 5.148437-8.210938 9.832031v80h-70c-5.523438 0-10 4.476562-10 10v110h-160v-200c0-3.226562-1.527344-6.097656-3.902344-7.925781l126.902344-175.039063 125.480469 173.078125c-.089844.015625-.179688.039063-.269531.054688zm211.789062 249.832031h-200v-20h200zm0-40h-200v-150h200zm0-170h-200v-20h200zm0 0"/><path d="m412 392h50c5.523438 0 10-4.476562 10-10v-25c0-19.300781-15.703125-35-35-35-19.300781 0-35 15.699219-35 35v25c0 5.523438 4.476562 10 10 10zm10-35c0-8.269531 6.726562-15 15-15 8.269531 0 15 6.730469 15 15v15h-30zm0 0"/><path d="m322 392h50c5.523438 0 10-4.476562 10-10v-25c0-19.300781-15.703125-35-35-35-19.300781 0-35 15.699219-35 35v25c0 5.523438 4.476562 10 10 10zm10-35c0-8.269531 6.726562-15 15-15 8.269531 0 15 6.730469 15 15v15h-30zm0 0"/><path d="m120 206.332031v25c0 5.523438 4.476562 10 10 10h50c5.523438 0 10-4.476562 10-10v-25c0-19.296875-15.699219-35-35-35s-35 15.703125-35 35zm50 0v15h-30v-15c0-8.269531 6.730469-15 15-15s15 6.730469 15 15zm0 0"/><path d="m112 322c-28.121094 0-51 22.878906-51 51v41c0 5.523438 4.476562 10 10 10h82c5.523438 0 10-4.476562 10-10v-41c0-28.121094-22.878906-51-51-51zm31 82h-62v-31c0-17.09375 13.90625-31 31-31s31 13.90625 31 31zm0 0"/><path d="m419 100c-16.542969 0-30 13.457031-30 30s13.457031 30 30 30 30-13.457031 30-30-13.457031-30-30-30zm0 40c-5.515625 0-10-4.484375-10-10s4.484375-10 10-10c5.511719 0 10 4.484375 10 10s-4.488281 10-10 10zm0 0"/><path d="m419 201c-5.511719 0-10 4.488281-10 10s4.488281 10 10 10c5.507812 0 10-4.488281 10-10s-4.492188-10-10-10zm0 0"/><path d="m251.75 436.25c0 5.523438-4.476562 10-10 10s-10-4.476562-10-10 4.476562-10 10-10 10 4.476562 10 10zm0 0"/></svg>